<?xml version="1.0" encoding="utf-8"?>
<!-- Generator: Adobe Illustrator 23.0.0, SVG Export Plug-In . SVG Version: 6.00 Build 0)  -->
<svg version="1.1" id="レイヤー_1" xmlns="http://www.w3.org/2000/svg" xmlns:xlink="http://www.w3.org/1999/xlink" x="0px"
	 y="0px" width="22px" height="20px" viewBox="0 0 22 20" style="enable-background:new 0 0 22 20;" xml:space="preserve">
<style type="text/css">
	.st0{fill:#77E1F3;}
</style>
<path class="st0" d="M11,0C5.2,0,0,3.8,0,9.1c0,1.9,0.7,3.7,1.9,5.1C1.9,15.9,0.9,18.3,0,20c2.4-0.4,5.8-1.4,7.3-2.3
	c8.5,2,14.6-3.1,14.6-8.6C22,3.8,16.8,0,11,0z M8.2,10H6.4V8.2h1.8V10z M11.9,10h-1.8V8.2h1.8V10z M15.6,10h-1.8V8.2h1.8V10z"/>
</svg>
