<?xml version="1.0" encoding="utf-8"?>
<!-- Generator: Adobe Illustrator 23.0.0, SVG Export Plug-In . SVG Version: 6.00 Build 0)  -->
<svg version="1.1" id="テキスト" xmlns="http://www.w3.org/2000/svg" xmlns:xlink="http://www.w3.org/1999/xlink" x="0px"
	 y="0px" width="287px" height="287px" viewBox="0 0 287 287" style="enable-background:new 0 0 287 287;" xml:space="preserve">
<style type="text/css">
	.st0{fill:#FFF33F;}
	.st1{fill:#231815;}
	.st2{fill:#FFFFFF;}
</style>
<g>
	<g>
		<path class="st0" d="M275.2,91.9c2.9,1.5,4.2,4.9,3.1,7.9l-4,10.6c-1.2,3.2-0.3,6.8,2.2,9.1l8.4,7.6c2.4,2.2,2.8,5.8,0.9,8.4
			l-6.6,9.2c-2,2.8-2.1,6.5-0.2,9.4l6.2,9.5c1.8,2.7,1.2,6.3-1.3,8.4l-8.8,7.2c-2.6,2.2-3.7,5.7-2.6,9l3.5,10.8
			c1,3.1-0.5,6.4-3.4,7.7l-10.3,4.7c-3.1,1.4-5,4.6-4.9,8l0.6,11.3c0.2,3.2-2.1,6.1-5.3,6.6l-11.2,1.9c-3.4,0.6-6.1,3.1-6.8,6.5
			l-2.4,11.1c-0.7,3.2-3.6,5.3-6.8,5l-11.3-1.1c-3.4-0.3-6.7,1.5-8.2,4.5l-5.2,10.1c-1.5,2.9-4.9,4.2-7.9,3.1l-10.6-4
			c-3.2-1.2-6.8-0.3-9.1,2.2l-7.6,8.4c-2.2,2.4-5.8,2.8-8.4,0.9l-9.2-6.6c-2.8-2-6.5-2.1-9.4-0.2l-9.5,6.2c-2.7,1.8-6.3,1.2-8.4-1.3
			l-7.2-8.8c-2.2-2.6-5.7-3.7-9-2.6l-10.8,3.5c-3.1,1-6.4-0.5-7.7-3.4l-4.7-10.3c-1.4-3.1-4.6-5-8-4.9L62,257.9
			c-3.2,0.2-6.1-2.1-6.6-5.3l-1.9-11.2c-0.6-3.4-3.1-6.1-6.5-6.8l-11.1-2.4c-3.2-0.7-5.3-3.6-5-6.8l1.1-11.3
			c0.3-3.4-1.5-6.7-4.5-8.2l-10.1-5.2c-2.9-1.5-4.2-4.9-3.1-7.9l4-10.6c1.2-3.2,0.3-6.8-2.2-9.1l-8.4-7.6c-2.4-2.2-2.8-5.8-0.9-8.4
			l6.6-9.2c2-2.8,2.1-6.5,0.2-9.4L7.5,129c-1.8-2.7-1.2-6.3,1.3-8.4l8.8-7.2c2.6-2.2,3.7-5.7,2.6-9l-3.5-10.8
			c-1-3.1,0.5-6.4,3.4-7.7l10.3-4.7c3.1-1.4,5-4.6,4.9-8L34.8,62c-0.2-3.2,2.1-6.1,5.3-6.6l11.2-1.9c3.4-0.6,6.1-3.1,6.8-6.5
			l2.4-11.1c0.7-3.2,3.6-5.3,6.8-5l11.3,1.1c3.4,0.3,6.7-1.5,8.2-4.5l5.2-10.1c1.5-2.9,4.9-4.2,7.9-3.1l10.6,4
			c3.2,1.2,6.8,0.3,9.1-2.2l7.6-8.4c2.2-2.4,5.8-2.8,8.4-0.9l9.2,6.6c2.8,2,6.5,2.1,9.4,0.2l9.5-6.2c2.7-1.8,6.3-1.2,8.4,1.3
			l7.2,8.8c2.2,2.6,5.7,3.7,9,2.6l10.8-3.5c3.1-1,6.4,0.5,7.7,3.4l4.7,10.3c1.4,3.1,4.6,5,8,4.9l11.3-0.6c3.2-0.2,6.1,2.1,6.6,5.3
			l1.9,11.2c0.6,3.4,3.1,6.1,6.5,6.8l11.1,2.4c3.2,0.7,5.3,3.6,5,6.8l-1.1,11.3c-0.3,3.4,1.5,6.7,4.5,8.2L275.2,91.9z"/>
		<path class="st1" d="M131.8,6.8c1.1,0,2.1,0.3,3,1l9.2,6.6c1.6,1.2,3.5,1.8,5.5,1.8c1.8,0,3.6-0.5,5.1-1.5l9.5-6.2
			c0.8-0.5,1.8-0.8,2.8-0.8c1.6,0,3,0.7,4,1.9l7.2,8.8c1.8,2.2,4.5,3.5,7.3,3.5c1,0,2-0.2,2.9-0.5l10.8-3.5c0.5-0.2,1.1-0.3,1.6-0.3
			c2,0,3.9,1.2,4.8,3.1l4.7,10.3c1.5,3.4,4.9,5.5,8.6,5.5c0.2,0,0.3,0,0.5,0l11.3-0.6c0.1,0,0.2,0,0.3,0c2.6,0,4.7,1.8,5.1,4.4
			l1.9,11.2c0.6,3.8,3.6,6.9,7.4,7.7l11.1,2.4c2.6,0.6,4.4,3,4.1,5.6l-1.1,11.3c-0.4,3.8,1.7,7.6,5.1,9.3l10.1,5.2
			c2.4,1.2,3.4,4,2.5,6.5l-4,10.6c-1.4,3.6-0.3,7.8,2.5,10.3l8.4,7.6c2,1.8,2.3,4.7,0.7,6.9l-6.6,9.2c-2.2,3.1-2.3,7.4-0.2,10.6
			l6.2,9.5c1.4,2.2,1,5.2-1.1,6.9l-8.8,7.2c-3,2.4-4.2,6.5-3,10.2l3.5,10.8c0.8,2.5-0.4,5.3-2.8,6.4l-10.3,4.7
			c-3.5,1.6-5.7,5.2-5.5,9.1l0.6,11.3c0.1,2.7-1.7,5-4.3,5.4l-11.2,1.9c-3.8,0.6-6.9,3.6-7.7,7.4l-2.4,11.1
			c-0.5,2.4-2.6,4.1-5.1,4.1c-0.2,0-0.3,0-0.5,0l-11.3-1.1c-0.3,0-0.6,0-0.9,0c-3.6,0-6.8,2-8.4,5.1l-5.2,10.1
			c-0.9,1.8-2.7,2.8-4.7,2.8c-0.6,0-1.2-0.1-1.8-0.3l-10.6-4c-1.1-0.4-2.2-0.6-3.3-0.6c-2.7,0-5.2,1.1-7,3.1l-7.6,8.4
			c-1,1.1-2.4,1.7-3.9,1.7c-1.1,0-2.1-0.3-3-1l-9.2-6.6c-1.6-1.2-3.5-1.8-5.5-1.8c-1.8,0-3.6,0.5-5.1,1.5l-9.5,6.2
			c-0.8,0.5-1.8,0.8-2.8,0.8c-1.6,0-3-0.7-4-1.9l-7.2-8.8c-1.8-2.2-4.5-3.5-7.3-3.5c-1,0-2,0.2-2.9,0.5l-10.8,3.5
			c-0.5,0.2-1.1,0.3-1.6,0.3c-2,0-3.9-1.2-4.8-3.1l-4.7-10.3c-1.5-3.4-4.9-5.5-8.6-5.5c-0.2,0-0.3,0-0.5,0l-11.3,0.6
			c-0.1,0-0.2,0-0.3,0c-2.6,0-4.7-1.8-5.1-4.4l-1.9-11.2c-0.6-3.8-3.6-6.9-7.4-7.7l-11.1-2.4c-2.6-0.6-4.4-3-4.1-5.6l1.1-11.3
			c0.4-3.8-1.7-7.6-5.1-9.3L18,199.7c-2.4-1.2-3.4-4-2.5-6.5l4-10.6c1.4-3.6,0.3-7.8-2.5-10.3l-8.4-7.6c-2-1.8-2.3-4.7-0.7-6.9
			l6.6-9.2c2.2-3.1,2.3-7.4,0.2-10.6l-6.2-9.5c-1.4-2.2-1-5.2,1.1-6.9l8.8-7.2c3-2.4,4.2-6.5,3-10.2l-3.5-10.8
			c-0.8-2.5,0.4-5.3,2.8-6.4L31,82.3c3.5-1.6,5.7-5.2,5.5-9.1l-0.6-11.3c-0.1-2.7,1.7-5,4.3-5.4l11.2-1.9c3.8-0.6,6.9-3.6,7.7-7.4
			l2.4-11.1c0.5-2.4,2.6-4.1,5.1-4.1c0.2,0,0.3,0,0.5,0l11.3,1.1c0.3,0,0.6,0,0.9,0c3.6,0,6.8-2,8.4-5.1L92.9,18
			c0.9-1.8,2.7-2.8,4.7-2.8c0.6,0,1.2,0.1,1.8,0.3l10.6,4c1.1,0.4,2.2,0.6,3.3,0.6c2.7,0,5.2-1.1,7-3.1l7.6-8.4
			C128.9,7.4,130.3,6.8,131.8,6.8 M131.8,5.7c-1.7,0-3.5,0.7-4.7,2.1l-7.6,8.4c-1.6,1.8-3.9,2.8-6.2,2.8c-1,0-2-0.2-2.9-0.5l-10.6-4
			C99,14.2,98.3,14,97.6,14c-2.3,0-4.5,1.3-5.7,3.5l-5.2,10.1c-1.4,2.8-4.3,4.5-7.4,4.5c-0.3,0-0.5,0-0.8,0L67.2,31
			c-0.2,0-0.4,0-0.6,0c-3,0-5.6,2.1-6.2,5L58,47c-0.7,3.3-3.4,5.9-6.8,6.5l-11.2,1.9c-3.2,0.5-5.5,3.4-5.3,6.6l0.6,11.3
			c0.2,3.4-1.8,6.6-4.9,8L20.2,86c-2.9,1.3-4.4,4.7-3.4,7.7l3.5,10.8c1.1,3.2,0,6.8-2.6,9l-8.8,7.2c-2.5,2-3.1,5.6-1.3,8.4l6.2,9.5
			c1.9,2.9,1.8,6.6-0.2,9.4l-6.6,9.2c-1.9,2.6-1.5,6.2,0.9,8.4l8.4,7.6c2.5,2.3,3.4,5.9,2.2,9.1l-4,10.6c-1.1,3,0.2,6.4,3.1,7.9
			l10.1,5.2c3,1.6,4.8,4.8,4.5,8.2L31,225.4c-0.3,3.2,1.8,6.2,5,6.8l11.1,2.4c3.3,0.7,5.9,3.4,6.5,6.8l1.9,11.2
			c0.5,3.1,3.2,5.3,6.3,5.3c0.1,0,0.2,0,0.3,0l11.3-0.6c0.1,0,0.3,0,0.4,0c3.2,0,6.2,1.9,7.6,4.9l4.7,10.3c1.1,2.3,3.4,3.7,5.8,3.7
			c0.6,0,1.3-0.1,2-0.3l10.8-3.5c0.8-0.3,1.7-0.4,2.5-0.4c2.4,0,4.8,1.1,6.4,3l7.2,8.8c1.2,1.5,3.1,2.3,4.9,2.3c1.2,0,2.4-0.3,3.4-1
			l9.5-6.2c1.4-0.9,2.9-1.3,4.5-1.3c1.7,0,3.4,0.5,4.8,1.6l9.2,6.6c1.1,0.8,2.4,1.2,3.7,1.2c1.7,0,3.5-0.7,4.7-2.1l7.6-8.4
			c1.6-1.8,3.9-2.8,6.2-2.7c1,0,2,0.2,2.9,0.5l10.6,4c0.7,0.3,1.5,0.4,2.2,0.4c2.3,0,4.5-1.3,5.7-3.5l5.2-10.1
			c1.4-2.8,4.3-4.5,7.4-4.5c0.3,0,0.5,0,0.8,0l11.3,1.1c0.2,0,0.4,0,0.6,0c3,0,5.6-2.1,6.2-5l2.4-11.1c0.7-3.3,3.4-5.9,6.8-6.5
			l11.2-1.9c3.2-0.5,5.5-3.4,5.3-6.6l-0.6-11.3c-0.2-3.4,1.8-6.6,4.9-8l10.3-4.7c2.9-1.3,4.4-4.7,3.4-7.7l-3.5-10.8
			c-1.1-3.2,0-6.8,2.6-9l8.8-7.2c2.5-2,3.1-5.6,1.3-8.4l-6.2-9.5c-1.9-2.9-1.8-6.6,0.2-9.4l6.6-9.2c1.9-2.6,1.5-6.2-0.9-8.4
			l-8.4-7.6c-2.5-2.3-3.4-5.9-2.2-9.1l4-10.6c1.1-3-0.2-6.4-3.1-7.9l-10.1-5.2c-3-1.6-4.8-4.8-4.5-8.2l1.1-11.3
			c0.3-3.2-1.8-6.2-5-6.8L245.6,58c-3.3-0.7-5.9-3.4-6.5-6.8l-1.9-11.2c-0.5-3.1-3.2-5.3-6.3-5.3c-0.1,0-0.2,0-0.3,0l-11.3,0.6
			c-0.1,0-0.3,0-0.4,0c-3.2,0-6.2-1.9-7.6-4.9l-4.7-10.3c-1.1-2.3-3.4-3.7-5.8-3.7c-0.6,0-1.3,0.1-2,0.3l-10.8,3.5
			c-0.8,0.3-1.7,0.4-2.5,0.4c-2.4,0-4.8-1.1-6.4-3L172,8.8c-1.2-1.5-3.1-2.3-4.9-2.3c-1.2,0-2.4,0.3-3.4,1l-9.5,6.2
			c-1.4,0.9-2.9,1.3-4.5,1.3c-1.7,0-3.4-0.5-4.8-1.6l-9.2-6.6C134.4,6.1,133.1,5.7,131.8,5.7L131.8,5.7z"/>
		<path class="st2" d="M155.2,280.7c-1.2,0-2.4-0.4-3.4-1.1l-9.2-6.6c-1.5-1.1-3.3-1.7-5.2-1.7c-1.7,0-3.4,0.5-4.8,1.4l-9.5,6.2
			c-0.9,0.6-2,0.9-3.1,0.9c-1.7,0-3.4-0.8-4.5-2.1l-7.2-8.8c-1.7-2.1-4.2-3.2-6.9-3.2c-0.9,0-1.8,0.1-2.7,0.4l-10.8,3.5
			c-0.6,0.2-1.2,0.3-1.8,0.3c-2.3,0-4.3-1.3-5.3-3.4l-4.7-10.3c-1.4-3.2-4.6-5.2-8.1-5.2c-0.2,0-0.3,0-0.5,0l-11.3,0.6
			c-0.1,0-0.2,0-0.3,0c-2.8,0-5.2-2-5.7-4.8l-1.9-11.2c-0.6-3.6-3.4-6.5-6.9-7.2L30.4,226c-2.9-0.6-4.8-3.3-4.5-6.2l1.1-11.3
			c0.4-3.6-1.6-7.1-4.8-8.8l-10.1-5.2c-2.6-1.3-3.8-4.4-2.8-7.2l4-10.6c1.3-3.4,0.3-7.3-2.4-9.7l-8.4-7.6c-2.2-2-2.5-5.3-0.8-7.7
			l6.6-9.2c2.1-2.9,2.2-7,0.2-10l-6.2-9.5c-1.6-2.5-1.1-5.7,1.2-7.6l8.8-7.2c2.8-2.3,3.9-6.2,2.8-9.6l-3.5-10.8
			c-0.9-2.8,0.4-5.8,3.1-7L25,76.1c3.3-1.5,5.4-4.9,5.2-8.6l-0.6-11.3c-0.2-2.9,1.9-5.5,4.8-6l11.2-1.9c3.6-0.6,6.5-3.4,7.2-6.9
			l2.4-11.1c0.6-2.6,2.9-4.6,5.6-4.6c0.2,0,0.4,0,0.6,0L72.8,27c0.3,0,0.6,0,0.9,0c3.4,0,6.4-1.9,7.9-4.8l5.2-10.1
			c1-1.9,3-3.2,5.2-3.2c0.7,0,1.4,0.1,2,0.4l10.6,4c1,0.4,2,0.6,3.1,0.6c2.5,0,4.9-1.1,6.6-2.9l7.6-8.4c1.1-1.2,2.7-1.9,4.3-1.9
			c1.2,0,2.4,0.4,3.4,1.1l9.2,6.6c1.5,1.1,3.3,1.7,5.2,1.7c1.7,0,3.4-0.5,4.8-1.4l9.5-6.2c0.9-0.6,2-0.9,3.1-0.9
			c1.7,0,3.4,0.8,4.5,2.1l7.2,8.8c1.7,2.1,4.2,3.2,6.9,3.2c0.9,0,1.8-0.1,2.7-0.4l10.8-3.5c0.6-0.2,1.2-0.3,1.8-0.3
			c2.3,0,4.3,1.3,5.3,3.4l4.7,10.3c1.4,3.2,4.6,5.2,8.1,5.2c0.2,0,0.3,0,0.5,0l11.3-0.6c0.1,0,0.2,0,0.3,0c2.8,0,5.2,2,5.7,4.8
			l1.9,11.2c0.6,3.6,3.4,6.5,6.9,7.2l11.1,2.4c2.9,0.6,4.8,3.3,4.5,6.2l-1.1,11.3c-0.4,3.6,1.6,7.1,4.8,8.8l10.1,5.2
			c2.6,1.3,3.8,4.4,2.8,7.2l-4,10.6c-1.3,3.4-0.3,7.3,2.4,9.7l8.4,7.6c2.2,2,2.5,5.3,0.8,7.7l-6.6,9.2c-2.1,2.9-2.2,7-0.2,10
			l6.2,9.5c1.6,2.5,1.1,5.7-1.2,7.6L269,173c-2.8,2.3-3.9,6.2-2.8,9.6l3.5,10.8c0.9,2.8-0.4,5.8-3.1,7l-10.3,4.7
			c-3.3,1.5-5.4,4.9-5.2,8.5l0.6,11.3c0.2,2.9-1.9,5.5-4.8,6l-11.2,1.9c-3.6,0.6-6.5,3.4-7.2,6.9l-2.4,11.1
			c-0.6,2.6-2.9,4.6-5.6,4.6c-0.2,0-0.4,0-0.6,0l-11.3-1.1c-0.3,0-0.6,0-0.9,0c-3.4,0-6.4,1.9-7.9,4.8l-5.2,10.1
			c-1,1.9-3,3.2-5.2,3.2c-0.7,0-1.4-0.1-2-0.4l-10.6-4c-1-0.4-2-0.6-3.1-0.6c-2.5,0-4.9,1.1-6.6,2.9l-7.6,8.4
			C158.4,280,156.8,280.7,155.2,280.7z"/>
		<path class="st1" d="M126.1,1.1c1.1,0,2.1,0.3,3,1l9.2,6.6c1.6,1.2,3.5,1.8,5.5,1.8c1.8,0,3.6-0.5,5.1-1.5l9.5-6.2
			c0.8-0.5,1.8-0.8,2.8-0.8c1.6,0,3,0.7,4,1.9l7.2,8.8c1.8,2.2,4.5,3.5,7.3,3.5c1,0,2-0.2,2.9-0.5l10.8-3.5c0.5-0.2,1.1-0.3,1.6-0.3
			c2,0,3.9,1.2,4.8,3.1l4.7,10.3c1.5,3.4,4.9,5.5,8.6,5.5c0.2,0,0.3,0,0.5,0l11.3-0.6c0.1,0,0.2,0,0.3,0c2.6,0,4.7,1.8,5.1,4.4
			l1.9,11.2c0.6,3.8,3.6,6.9,7.4,7.7l11.1,2.4c2.6,0.6,4.4,3,4.1,5.6l-1.1,11.3c-0.4,3.8,1.7,7.6,5.1,9.3l10.1,5.2
			c2.4,1.2,3.4,4,2.5,6.5l-4,10.6c-1.4,3.6-0.3,7.8,2.5,10.3l8.4,7.6c2,1.8,2.3,4.7,0.7,6.9l-6.6,9.2c-2.2,3.1-2.3,7.4-0.2,10.6
			l6.2,9.5c1.4,2.2,1,5.2-1.1,6.9l-8.8,7.2c-3,2.4-4.2,6.5-3,10.2l3.5,10.8c0.8,2.5-0.4,5.3-2.8,6.4l-10.3,4.7
			c-3.5,1.6-5.7,5.2-5.5,9.1l0.6,11.3c0.1,2.7-1.7,5-4.3,5.4l-11.2,1.9c-3.8,0.6-6.9,3.6-7.7,7.4l-2.4,11.1
			c-0.5,2.4-2.6,4.1-5.1,4.1c-0.2,0-0.3,0-0.5,0l-11.3-1.1c-0.3,0-0.6,0-0.9,0c-3.6,0-6.8,2-8.4,5.1l-5.2,10.1
			c-0.9,1.8-2.7,2.8-4.7,2.8c-0.6,0-1.2-0.1-1.8-0.3l-10.6-4c-1.1-0.4-2.2-0.6-3.3-0.6c-2.7,0-5.2,1.1-7,3.1l-7.6,8.4
			c-1,1.1-2.4,1.7-3.9,1.7c-1.1,0-2.1-0.3-3-1l-9.2-6.6c-1.6-1.2-3.5-1.8-5.5-1.8c-1.8,0-3.6,0.5-5.1,1.5l-9.5,6.2
			c-0.8,0.5-1.8,0.8-2.8,0.8c-1.6,0-3-0.7-4-1.9l-7.2-8.8c-1.8-2.2-4.5-3.5-7.3-3.5c-1,0-2,0.2-2.9,0.5l-10.8,3.5
			c-0.5,0.2-1.1,0.3-1.6,0.3c-2,0-3.9-1.2-4.8-3.1L76.7,256c-1.5-3.4-4.9-5.5-8.6-5.5c-0.2,0-0.3,0-0.5,0l-11.3,0.6
			c-0.1,0-0.2,0-0.3,0c-2.6,0-4.7-1.8-5.1-4.4L49,235.5c-0.6-3.8-3.6-6.9-7.4-7.7l-11.1-2.4c-2.6-0.6-4.4-3-4.1-5.6l1.1-11.3
			c0.4-3.8-1.7-7.6-5.1-9.3l-10.1-5.2c-2.4-1.2-3.4-4-2.5-6.5l4-10.6c1.4-3.6,0.3-7.8-2.5-10.3L2.9,159c-2-1.8-2.3-4.7-0.7-6.9
			l6.6-9.2c2.2-3.1,2.3-7.4,0.2-10.6l-6.2-9.5c-1.4-2.2-1-5.2,1.1-6.9l8.8-7.2c3-2.4,4.2-6.5,3-10.2l-3.5-10.8
			c-0.8-2.5,0.4-5.3,2.8-6.4l10.3-4.7c3.5-1.6,5.7-5.2,5.5-9.1l-0.6-11.3c-0.1-2.7,1.7-5,4.3-5.4L45.8,49c3.8-0.6,6.9-3.6,7.7-7.4
			l2.4-11.1c0.5-2.4,2.6-4.1,5.1-4.1c0.2,0,0.3,0,0.5,0l11.3,1.1c0.3,0,0.6,0,0.9,0c3.6,0,6.8-2,8.4-5.1l5.2-10.1
			c0.9-1.8,2.7-2.8,4.7-2.8c0.6,0,1.2,0.1,1.8,0.3l10.6,4c1.1,0.4,2.2,0.6,3.3,0.6c2.7,0,5.2-1.1,7-3.1l7.6-8.4
			C123.2,1.8,124.7,1.1,126.1,1.1 M126.1,0c-1.7,0-3.5,0.7-4.7,2.1l-7.6,8.4c-1.6,1.8-3.9,2.8-6.2,2.8c-1,0-2-0.2-2.9-0.5l-10.6-4
			c-0.7-0.3-1.5-0.4-2.2-0.4c-2.3,0-4.5,1.3-5.7,3.5l-5.2,10.1c-1.4,2.8-4.3,4.5-7.4,4.5c-0.3,0-0.5,0-0.8,0l-11.3-1.1
			c-0.2,0-0.4,0-0.6,0c-3,0-5.6,2.1-6.2,5l-2.4,11.1c-0.7,3.3-3.4,5.9-6.8,6.5l-11.2,1.9c-3.2,0.5-5.5,3.4-5.3,6.6l0.6,11.3
			c0.2,3.4-1.8,6.6-4.9,8l-10.3,4.7c-2.9,1.3-4.4,4.7-3.4,7.7l3.5,10.8c1.1,3.2,0,6.8-2.6,9L3.1,115c-2.5,2-3.1,5.6-1.3,8.4l6.2,9.5
			c1.9,2.9,1.8,6.6-0.2,9.4l-6.6,9.2c-1.9,2.6-1.5,6.2,0.9,8.4l8.4,7.6c2.5,2.3,3.4,5.9,2.2,9.1l-4,10.6c-1.1,3,0.2,6.4,3.1,7.9
			l10.1,5.2c3,1.6,4.8,4.8,4.5,8.2l-1.1,11.3c-0.3,3.2,1.8,6.2,5,6.8l11.1,2.4c3.3,0.7,5.9,3.4,6.5,6.8l1.9,11.2
			c0.5,3.1,3.2,5.3,6.3,5.3c0.1,0,0.2,0,0.3,0l11.3-0.6c0.1,0,0.3,0,0.4,0c3.2,0,6.2,1.9,7.6,4.9l4.7,10.3c1.1,2.3,3.4,3.7,5.8,3.7
			c0.6,0,1.3-0.1,2-0.3l10.8-3.5c0.8-0.3,1.7-0.4,2.5-0.4c2.4,0,4.8,1.1,6.4,3l7.2,8.8c1.2,1.5,3.1,2.3,4.9,2.3c1.2,0,2.4-0.3,3.4-1
			l9.5-6.2c1.4-0.9,2.9-1.3,4.5-1.3c1.7,0,3.4,0.5,4.8,1.6l9.2,6.6c1.1,0.8,2.4,1.2,3.7,1.2c1.7,0,3.5-0.7,4.7-2.1l7.6-8.4
			c1.6-1.8,3.9-2.8,6.2-2.7c1,0,2,0.2,2.9,0.5l10.6,4c0.7,0.3,1.5,0.4,2.2,0.4c2.3,0,4.5-1.3,5.7-3.5l5.2-10.1
			c1.4-2.8,4.3-4.5,7.4-4.5c0.3,0,0.5,0,0.8,0l11.3,1.1c0.2,0,0.4,0,0.6,0c3,0,5.6-2.1,6.2-5l2.4-11.1c0.7-3.3,3.4-5.9,6.8-6.5
			l11.2-1.9c3.2-0.5,5.5-3.4,5.3-6.6l-0.6-11.3c-0.2-3.4,1.8-6.6,4.9-8l10.3-4.7c2.9-1.3,4.4-4.7,3.4-7.7l-3.5-10.8
			c-1.1-3.2,0-6.8,2.6-9l8.8-7.2c2.5-2,3.1-5.6,1.3-8.4l-6.2-9.5c-1.9-2.9-1.8-6.6,0.2-9.4l6.6-9.2c1.9-2.6,1.5-6.2-0.9-8.4
			l-8.4-7.6c-2.5-2.3-3.4-5.9-2.2-9.1l4-10.6c1.1-3-0.2-6.4-3.1-7.9l-10.1-5.2c-3-1.6-4.8-4.8-4.5-8.2l1.1-11.3
			c0.3-3.2-1.8-6.2-5-6.8l-11.1-2.4c-3.3-0.7-5.9-3.4-6.5-6.8l-1.9-11.2c-0.5-3.1-3.2-5.3-6.3-5.3c-0.1,0-0.2,0-0.3,0l-11.3,0.6
			c-0.1,0-0.3,0-0.4,0c-3.2,0-6.2-1.9-7.6-4.9L201,14.5c-1.1-2.3-3.4-3.7-5.8-3.7c-0.6,0-1.3,0.1-2,0.3l-10.8,3.5
			c-0.8,0.3-1.7,0.4-2.5,0.4c-2.4,0-4.8-1.1-6.4-3l-7.2-8.8c-1.2-1.5-3.1-2.3-4.9-2.3c-1.2,0-2.4,0.3-3.4,1L148.4,8
			c-1.4,0.9-2.9,1.3-4.5,1.3c-1.7,0-3.4-0.5-4.8-1.6l-9.2-6.6C128.7,0.4,127.4,0,126.1,0L126.1,0z"/>
	</g>
	<g>
		<g>
			<path class="st2" d="M59.4,136.3l-0.2-0.6L48.7,140l0.2,0.6l-2.3,1l-5.5-13.4l5-2c0-1-0.1-1.7-0.2-2.8l2.7-0.7
				c0.1,0,0.5-0.1,0.6,0.1c0.1,0.2-0.2,0.4-0.6,0.7c0,0.6,0,1,0,1.7l7.6-3.1l5.5,13.4L59.4,136.3z M54.8,125l-10.4,4.2l1.3,3.3
				l10.4-4.2L54.8,125z M56.9,130.2l-10.4,4.2l1.4,3.4l10.4-4.2L56.9,130.2z"/>
			<path class="st2" d="M67.6,117.9c0.1,1,0.3,2.2-0.2,5l8.8-3.6l3.7,9l-2.2,0.9l-0.3-0.7l-6.9,2.8l0.4,1l-2.2,0.9l-2.4-6
				c-0.5,1.3-0.9,2-1.3,2.6l-2.4-0.7c2.1-2.8,2.9-6.8,2.6-10.3l-5.1,2.1l-0.9-2.1l15.8-6.4l0.9,2.1L67.6,117.9z M74.9,122.1
				l-6.9,2.8l1.8,4.4l6.9-2.8L74.9,122.1z"/>
			<path class="st2" d="M86.9,122.9l-0.2-0.4l-1.2,0.5l0.4,1l-1.9,0.8L78.8,112l5-2l5,12.2L86.9,122.9z M82.7,112.5l-1.2,0.5l1.2,3
				l1.2-0.5L82.7,112.5z M84.7,117.4l-1.2,0.5l1.3,3.2l1.2-0.5L84.7,117.4z M86.9,115.7l-0.6-1.6l3.8-1.5l-0.3-0.7l-3,1.2l-0.6-1.6
				l3-1.2l-0.3-0.7l-3.7,1.5l-0.6-1.6l3.7-1.5l-0.5-1.1l2.2-0.7c0.1,0,0.5-0.2,0.6,0c0,0.1,0,0.2,0,0.3c-0.1,0.2,0,0.3,0.1,0.6
				l4-1.6l0.6,1.6l-4,1.6l0.3,0.7l3.4-1.4l0.6,1.6l-3.4,1.4l0.3,0.7l4.1-1.7l0.6,1.6L86.9,115.7z M97.1,122.3l-2-1.7
				c0.9-0.3,1.4-0.5,1.5-0.5c0.3-0.1,0.3-0.3,0.3-0.5l-0.1-0.3l-4.6,1.9l1,2.4l-2.1,0.8l-3.3-8.1l8.7-3.6l2.8,6.9
				C99.9,121,98.3,121.7,97.1,122.3z M95,115l-4.6,1.9l0.3,0.7l4.6-1.9L95,115z M95.8,117l-4.6,1.9l0.3,0.8l4.6-1.9L95.8,117z"/>
			<path class="st2" d="M116.5,107.3c-0.9,0-1.5,0-2.1-0.1l2.8,6.9l-2.3,0.9l-0.2-0.4l-6.2,2.5l0.2,0.6l-2.3,0.9l-2.7-6.6
				c-0.6,0.7-0.9,1-1.5,1.5l-2-1c1.1-0.9,2.9-2.5,4.3-5.5l-4.8,2l-0.7-1.8l6.7-2.7l-0.5-1.1c-1.2,0.6-2.9,1.4-5.2,2.3l-1.5-1.4
				c1-0.3,1.9-0.7,2.4-0.9c3.3-1.3,6.4-3.1,9.2-5.3l1.8,1.1c0.1,0,0.2,0.1,0.3,0.3c0,0.1,0,0.2-0.1,0.2c-0.1,0-0.6,0.1-0.8,0.1
				c-0.2,0.1-1.1,0.7-1.3,0.9c-0.3,0.2-1.2,0.8-2.4,1.5l0.6,1.4l6.7-2.7l0.7,1.8l-4.8,1.9c1,0.3,2,0.5,2.9,0.5
				c1.3,0.1,2.6,0.1,3.8-0.1L116.5,107.3z M108.9,106.1l0.8,2l-2.3,0.9l-0.8-1.9c-0.5,1.2-1,2.1-2,3.5l8.8-3.6
				C111.4,107,110.5,106.7,108.9,106.1z M112.6,109.5l-6.2,2.5l0.4,1l6.2-2.5L112.6,109.5z M113.6,111.9l-6.2,2.5l0.4,1.1l6.2-2.5
				L113.6,111.9z"/>
			<path class="st2" d="M123.9,104.9c-1.2,0.5-2.5-0.1-3-1.2c-0.5-1.2,0.1-2.5,1.2-3c1.1-0.5,2.5,0.1,3,1.2
				C125.6,103.1,125,104.4,123.9,104.9z"/>
			<path class="st2" d="M142,91.5l-0.8-1.9l-11.6,4.7l0.8,1.9l-2,0.8l-1.5-3.7l6.6-2.7l-0.5-1.2l1.9-0.7c0.8-0.3,1-0.3,1.1-0.1
				c0,0.1,0,0.2-0.1,0.3c-0.2,0.3-0.2,0.3-0.2,0.5l0.1,0.3l6.6-2.7l1.5,3.6L142,91.5z M131.3,96.1l-0.6-1.4l9.9-4l0.6,1.4
				L131.3,96.1z M145.6,103.2l-0.1-0.3l-9.8,4l0.2,0.5l-2.1,0.9l-2.6-6.4l14-5.7l2.5,6.2L145.6,103.2z M132.7,100.4l-1.4-3.5
				l10.5-4.3l1.4,3.5L132.7,100.4z M140.2,94.7l-6.5,2.6l0.4,1l6.5-2.6L140.2,94.7z M137.6,100.8l-3.7,1.5l0.4,0.9l3.7-1.5
				L137.6,100.8z M138.5,103l-3.7,1.5l0.4,0.9l3.7-1.5L138.5,103z M143.7,98.3l-3.7,1.5l0.4,0.9l3.7-1.5L143.7,98.3z M144.6,100.5
				l-3.7,1.5l0.4,0.9l3.7-1.5L144.6,100.5z"/>
			<path class="st2" d="M165,94.9l-0.3-0.7L154,98.6l0.3,0.8l-2.1,0.9l-6-14.7l15-6.1l5.9,14.5L165,94.9z M153.4,84.9l-4.3,1.7
				l1.6,3.9l4.3-1.7L153.4,84.9z M155.8,90.7l-4.3,1.7l1.8,4.3l4.3-1.7L155.8,90.7z M159.9,82.3l-4.3,1.7l1.6,3.9l4.3-1.7
				L159.9,82.3z M162.3,88.1l-4.2,1.7l1.8,4.3l4.3-1.7L162.3,88.1z"/>
			<path class="st2" d="M186,88c-1.8,0.3-4.9,0.7-8.4-1.2c-0.8,3-2.9,5.2-5.3,6.7l-2.1-1.6c2.9-1.4,4.7-3.6,5.1-5.7l-5.8,2.3
				l-0.7-1.6l6.4-2.6c-0.1-0.4-0.2-0.7-0.3-1.1l-6.9,2.8l-0.7-1.6l6.9-2.8l-0.3-0.8l-4.6,1.9l-0.6-1.6l4.6-1.9l-0.3-0.7l-6.6,2.7
				l-0.7-1.6l4-1.6c-0.8-0.6-1.7-1-2.2-1.2l1.8-1.5c1,0.5,2,1.1,2.5,1.4l-0.9,0.8l3.7-1.5c0.2-0.8,0.3-1.9,0.4-3.1l2-0.1
				c0.2,0,0.5,0,0.6,0.2c0,0.1,0,0.1,0,0.1c0,0.1-0.4,0.3-0.4,0.4c0,0.1-0.3,1.2-0.3,1.4l4.3-1.7l0.7,1.6l-6.5,2.6l0.3,0.7l4.5-1.8
				l0.6,1.6l-4.5,1.8l0.3,0.8l6.8-2.8l0.7,1.6l-7,2.8c0.1,0.3,0.2,0.6,0.4,1.1l6.7-2.7l0.7,1.6l-6.1,2.5c2.2,1.4,5.6,1,8,0.3L186,88
				z"/>
			<path class="st2" d="M193.3,68.2c0,0.2,0,0.2,0.1,0.7l4.2-1.7l1.6,4l2.5-1l1.2,3l-1.6,0.7l-0.7-1.8l-5.1,2.1
				c0.5,0.1,0.7,0.2,1.2,0.5l-0.5,1.6c-0.7-0.3-1.1-0.4-1.9-0.6l0.3-1.2l-5.8,2.4l0.8,1.9l-1.6,0.7l-1.3-3.1l2.6-1l-1.6-4l3.1-1.3
				c0-0.2,0-0.2-0.1-0.7l-6,2.4l-0.6-1.5l15.4-6.3l0.6,1.5L193.3,68.2z M205,80.3c-1.7,0.5-4.3,1.3-7.2,1.4c-1.9,1.8-4,2.9-6.1,4
				l-1.7-1.3c1.6-0.7,3.3-1.4,5.3-2.9c-1.1-0.2-1.7-0.4-2.2-0.6c-0.4,0.9-1,1.7-1.8,2.8l-1.9-0.6c0.8-0.9,2.1-2.4,2.9-4.9l0.5,0
				l-0.7-1.8l1.4-0.5c0.4-0.1,0.5-0.2,0.6,0c0,0.1-0.1,0.5-0.1,0.6c0.2,0.4,0.3,0.7,0.9,0.4l2.4-1c0.7-0.3,0.6-0.7,0.3-1.3l1.4,0.1
				c0.4,1.1,0.4,1.7-1.2,2.3l-3.4,1.4c-0.1,0.3-0.2,0.5-0.3,0.8l6.6-2.7l0.7,0.3c-0.2,0.5-0.7,1.4-1.9,3.2c0.7-0.1,2-0.3,4.1-1.1
				c0.9-0.4,1.5-0.7,1.9-0.9L205,80.3z M191.6,77.6c-0.1,0.9-0.3,1.6-0.6,2.6l-1.5-0.2c0.3-1,0.6-1.8,0.5-3l1.6,0.1
				c0.1,0,0.3,0,0.3,0.2C192,77.4,191.7,77.5,191.6,77.6z M195.9,69l-5.7,2.3l0.2,0.4l5.7-2.3L195.9,69z M196.4,70.2l-5.7,2.3
				l0.2,0.5l5.7-2.3L196.4,70.2z M197,71.5l-5.7,2.3l0.2,0.5l5.7-2.3L197,71.5z M195.7,79.7c0.5,0.2,0.8,0.2,1.4,0.2
				c0.2-0.3,0.5-0.6,0.7-1L195.7,79.7z M201.9,75.8c-1-0.6-1.9-1-3.3-1.4l0.8-1.3c1.1,0.4,2.1,0.8,3.1,1.3L201.9,75.8z"/>
			<path class="st2" d="M210.4,71.4c-1.2,0.5-2.5-0.1-3-1.2c-0.5-1.2,0.1-2.5,1.2-3c1.1-0.5,2.5,0.1,3,1.2S211.5,70.9,210.4,71.4z"
				/>
			<path class="st2" d="M90.7,141.2c-0.7-0.2-1.1-0.3-1.6-0.5l0.5,1.1l-4.9,2l-0.5-1.3c-0.2,0.7-0.4,1.2-0.7,1.8l-1.7-0.5l0.1,0.2
				l-1.5,0.6l0.4,1l2-0.8l0.7,1.8l-2,0.8l1.2,3.1c0.1-0.6,0.1-1.5-0.1-2.6l1.9-0.2c0.4,0,0.5,0.1,0.5,0.2c0.1,0.1-0.1,0.3-0.4,0.4
				c0,0.1,0.1,1.3-0.1,2.3l-1.7,0.2l0.4,0.9c1-0.6,1.8-1.2,2.3-1.6l0.5,2c-1.7,1.3-3.5,2.3-5.3,3.4c-0.3,0.2-0.4,0.2-0.5,0.5
				c0,0.1-0.1,0.3-0.3,0.3c-0.2,0.1-0.2-0.1-0.4-0.4l-1.1-1.8c1.2-0.5,2.4-1.1,2.8-1.4l-1.9-4.6l-2.5,1l-0.7-1.8l2.5-1l-0.4-1
				l-1.4,0.6l-0.5-1.2c0,0.2-0.1,0.2-0.4,0.7l-2.1-0.9c0.5-0.8,1.1-1.5,1.6-3.2c0.3-1.1,0.3-1.6,0.3-2.1l2.2-0.4
				c0.2,0,0.4,0.1,0.5,0.2c0,0.1,0,0.1,0,0.2c1,0.5,2.1,0.7,3.3,0.9l-0.7,2l0.4,0.9c0.5-0.8,0.9-1.4,1.2-3.2
				c0.4-1.9,0.2-2.7,0.1-3.6l2.4-0.6c0.1,0,0.4-0.1,0.5,0.1c0,0.1,0,0.2,0,0.4c2.3,2,4.7,2.6,6.1,2.9L90.7,141.2z M77.7,141.3
				c-0.2,1-0.5,1.8-0.9,2.6l4-1.6C79.8,142.1,78.9,141.9,77.7,141.3z M79.1,153.3c-0.7-1.1-1.6-2-1.9-2.4l1.6-1.2
				c0.8,0.7,1.4,1.6,1.9,2.5L79.1,153.3z M91.6,150.3l-1.7-1.6c1.7-0.6,1.8-0.8,1.5-1.4l-0.9-2.3l-2,0.8l2.5,6.1l-2.1,0.9l-2.5-6.1
				l-1.9,0.8l-0.8-1.9l8.1-3.3l2,4.9C94.5,149,92.5,149.9,91.6,150.3z M85.1,138.4c-0.2,1.5-0.5,2.6-0.7,3.5l3.9-1.6
				C87.1,139.8,86.2,139.3,85.1,138.4z"/>
			<path class="st2" d="M98.3,132c-0.3,0.2-0.3,0.3-0.3,0.4c0,1.2-0.1,1.8-0.2,2.9c0.3,0,0.5,0.1,0.6,0.2c0.1,0.1,0,0.3-0.1,0.3
				c0,0.1-0.1,0.2,0,0.3l4.5,11l-2.1,0.8l-3.5-8.6c-0.1,0.5-0.2,1.2-0.5,1.9l-2.2-0.4c0.7-2.1,1.3-5,1-9.3l2.3-0.2
				c0.4,0,0.5,0,0.6,0.1C98.5,131.8,98.4,131.9,98.3,132z M113,143.4c-1.6,0.6-3.4-0.4-3.9-0.7c-3.1-1.9-4.9-4.8-5.7-6.2l-3.1,1.8
				l-1.1-2l3.1-1.8c-0.7-1.3-1.4-2.8-2.2-4.6l2.1-0.8c0.5-0.2,0.6-0.1,0.7,0.1c0.1,0.1,0,0.2-0.1,0.4c-0.2,0.3-0.1,0.4,0.1,0.8
				c0.2,0.4,0.7,1.5,1.4,3l5.1-3l1.1,2l-5.1,3c3.2,5.1,6,5.9,6.5,5.7c0.5-0.2,0-1.5-0.1-2l2,0.4C114.2,141.6,114,142.9,113,143.4z
				 M106.8,131.2c-0.6-0.5-1.4-1.1-2.4-1.7l1.1-1.7c1,0.6,1.9,1.2,2.6,1.7L106.8,131.2z"/>
			<path class="st2" d="M123.2,126.1c-0.2,0.2-0.2,0.3-0.2,0.3c0,2.3,0.1,3.3-0.4,5.3l-0.8-0.1c0.1,0.1,0.1,0.2,0.2,0.3l-1.6,1.2
				c-0.1-0.2-0.3-0.5-0.6-0.8c-0.2,0.1-0.8,0.4-1,0.5l3,7.3l-2,0.8l-2.4-5.9c0,0.1,0,0.1-0.2,0.2c0.2,0.6,0.9,2.9,1.1,4.9l-2,0.3
				c0-2.1-0.7-4-1.1-5l1.7-0.5c0.2-0.1,0.2-0.1,0.3,0l-0.4-1.1c-0.5,0.3-1.1,0.6-1.4,0.7c-0.1,0.1-0.2,0.1-0.2,0.2
				c0,0.1-0.2,0.3-0.2,0.4c-0.2,0.1-0.3-0.1-0.3-0.2l-1-1.8l1.1-0.4c0.4-1,0.6-1.5,0.9-2.2c-1.1-0.6-2.5-1.2-3.4-1.4l0.5-2
				c0.3,0.1,0.8,0.2,1,0.3c0.2-0.8,0.6-2.2,0.7-3.4l2,0.1c0,0,0.3,0,0.4,0.2c0,0.1,0,0.2-0.1,0.3c-0.3,0.3-0.3,0.3-0.4,0.5
				c-0.3,1.2-0.7,2.7-0.8,3.1c0.5,0.2,0.7,0.3,0.9,0.4c0.6-1.5,0.7-2,0.9-2.6l2.1,0.4c0.1,0,0.4,0.1,0.4,0.2
				c0.1,0.2-0.2,0.4-0.4,0.5c-0.3,0.2-0.4,0.2-0.5,0.5c-0.4,1-0.5,1.4-0.9,2.4l1-1c0.6,0.4,1.2,1.1,1.6,1.5c0.2-1,0.4-2.6,0.2-4.5
				l2-0.2c0.1,0,0.3,0,0.3,0.1C123.2,125.9,123.2,126,123.2,126.1z M117.9,130.4c-0.2,0.6-0.3,0.6-0.5,1.2c0.6-0.3,0.6-0.3,1.2-0.6
				C118.5,130.9,118.2,130.6,117.9,130.4z M121.9,137.7c-0.8-1.3-1.2-2.1-1.8-3.5l1.6-1c0.7,1.4,1.4,2.5,1.9,3.1L121.9,137.7z
				 M131.1,128.9c-0.1,0-0.3,0.2-0.4,0.3c0,0.1-0.2,1-0.2,1.2c-1,5.6-4.4,7.8-6.4,9.1l-2.1-1.6c1-0.5,2.3-1.1,3.7-2.6
				c1.2-1.3,1.7-2.2,2.1-3.2c-0.5,0.6-1.2,1-2.6,1.5l-1.8-2c0.3-0.1,1.1-0.3,1.5-0.5c0.6-0.2,0.7-0.6,0.5-1.2l-3.6-8.8l2.1-0.7
				c0.3-0.1,0.5-0.1,0.5,0.1c0,0.1,0,0.2-0.1,0.3c-0.1,0.2-0.1,0.3-0.1,0.4l3.8,9.2c0.1,0.2,0.1,0.3,0.1,0.5
				c0.2-1.1,0.3-1.8,0.2-2.7l2.5,0.2c0.1,0,0.3,0,0.4,0.2C131.3,128.8,131.2,128.9,131.1,128.9z M129.8,127.4
				c-0.8-0.7-2.4-1.7-3.7-2.3l1.1-1.8c1.2,0.5,3.2,1.7,3.8,2.2L129.8,127.4z"/>
			<path class="st2" d="M143.6,128.8c0.5-0.1,1.4-0.2,2.1-0.5c1-0.4,2-1.1,1-4.8l-9,3.7c0.1,0.8,0.1,1.4,0.2,2.4l-2.7,0.2
				c-0.1-2.3-0.4-6.1-1.3-8.7l1.9-0.2l8-3.3l-0.8-1.9l-11.4,4.6l-0.8-2.1l13.7-5.6l2.5,6l-10.1,4.1c0.2,1.2,0.3,1.5,0.4,2l11-4.5
				c0.4,1.5,1.7,5.6,1,7.9c-0.4,1.1-1.5,1.8-3.9,2.8L143.6,128.8z"/>
			<path class="st2" d="M158.1,124.4l-1.2,1.2c-0.5-0.4-0.8-0.6-1.3-1.2c-1.3-1.5-2.2-3.2-2.8-4.6c-0.5-1.2-0.9-2.6-1.2-3.8
				c-0.6-2.1-0.8-3.4-1-4.6l2.2-0.1c0.2,0,0.6,0,0.6,0.1c0,0,0,0.1,0,0.2c0,0-0.2,0.2-0.3,0.3c-0.2,0.3,0.4,4,1.5,6.8
				c0.1,0.3,0.7,1.8,1.3,2.5c0.1-0.5,0.1-0.7,0.2-1.6l1.3,0.1C157.5,121.5,157.8,123.1,158.1,124.4z M159.2,112.1
				c-0.1,0.1-1,0.4-2,0.7l-0.8-2.1c0.6-0.1,1.5-0.4,2.5-0.8c2.2-0.9,3.5-2,4.1-2.6l0.9,2.2C163,110.1,161.3,111.3,159.2,112.1z
				 M164.6,121.1c-3.4,1.4-4.5,0.8-5.8-2.4l1.9-1.1c0.7,1.8,1.1,2.2,3,1.4c2.1-0.9,3.4-1.9,4-2.3l0.9,2.3
				C167.8,119.6,166.6,120.3,164.6,121.1z"/>
			<path class="st2" d="M184.2,114.3c-1.7-0.5-2.9-0.7-4.8-0.7c0.9,1.8,0.7,3.1-2.3,4.4c-3.4,1.4-5,0.4-5.5-0.8
				c-0.7-1.6,0.4-3.6,3.2-4.7c0.6-0.3,1.1-0.4,1.4-0.5c-1.9-4.3-2.1-4.8-3.4-8.1l-0.5-1.3l2.4-0.6c0.1,0,0.5-0.1,0.5,0.1
				c0,0.1,0,0.1-0.1,0.3c-0.1,0.1-0.2,0.2-0.1,0.4c0.1,0.3,0.6,1.6,0.8,2.3c0.3-0.1,0.4-0.1,0.8-0.3c2.2-0.9,3.1-1.7,3.5-2.2
				l0.9,2.2c-1.2,0.9-2.4,1.5-3.2,1.8c-0.4,0.2-0.9,0.3-1.3,0.5c0.6,1.6,0.9,2.2,2,4.5c2.4-0.2,3.9-0.1,6.2,0.4L184.2,114.3z
				 M175.3,114.3c-1.2,0.5-1.7,1.2-1.4,1.7c0.3,0.8,1.8,0.4,2.4,0.1c1.5-0.6,1.1-1.5,0.8-2.4C176.6,113.9,175.9,114,175.3,114.3z"/>
			<path class="st2" d="M194.8,111.1c-2.3,1-4,0.3-4.6-1.1c-0.4-1.1-0.1-2.9,1.7-3.6c1.9-0.8,3.8,0.2,4.6,0.7c0.3-0.5,0.8-1.7,0.2-3
				c-0.8-1.9-2.8-1.7-4-1.2c-0.8,0.3-1.6,0.9-1.9,1.3c-0.9,1.1-1.9,3.4-2.5,4.9l-2.2-1c1.4-2.3,2.7-4.7,4.2-9.6
				c-1,0.7-2,1.3-4.2,2.3l-1.3-1.9c0.5-0.1,1.6-0.5,2.1-0.7c0.7-0.3,3.8-1.8,5.3-3.2l1.6,1.1c-0.7,1.4-0.9,1.8-2.5,5.7
				c0.6-0.3,1.5-0.7,1.8-0.9c2.5-1,5,0.4,5.8,2.4C200.1,106.4,198.1,109.8,194.8,111.1z M192.7,108c-0.8,0.3-0.7,0.9-0.6,1.2
				c0.3,0.7,1.2,0.5,1.9,0.2c0.6-0.2,1-0.5,1.2-0.7C194.7,108.3,193.8,107.5,192.7,108z"/>
		</g>
		<g>
			<path class="st1" d="M59.4,136.3l-0.2-0.6L48.7,140l0.2,0.6l-2.3,1l-5.5-13.4l5-2c0-1-0.1-1.7-0.2-2.8l2.7-0.7
				c0.1,0,0.5-0.1,0.6,0.1c0.1,0.2-0.2,0.4-0.6,0.7c0,0.6,0,1,0,1.7l7.6-3.1l5.5,13.4L59.4,136.3z M54.8,125l-10.4,4.2l1.3,3.3
				l10.4-4.2L54.8,125z M56.9,130.2l-10.4,4.2l1.4,3.4l10.4-4.2L56.9,130.2z"/>
			<path class="st1" d="M67.6,117.9c0.1,1,0.3,2.2-0.2,5l8.8-3.6l3.7,9l-2.2,0.9l-0.3-0.7l-6.9,2.8l0.4,1l-2.2,0.9l-2.4-6
				c-0.5,1.3-0.9,2-1.3,2.6l-2.4-0.7c2.1-2.8,2.9-6.8,2.6-10.3l-5.1,2.1l-0.9-2.1l15.8-6.4l0.9,2.1L67.6,117.9z M74.9,122.1
				l-6.9,2.8l1.8,4.4l6.9-2.8L74.9,122.1z"/>
			<path class="st1" d="M86.9,122.9l-0.2-0.4l-1.2,0.5l0.4,1l-1.9,0.8L78.8,112l5-2l5,12.2L86.9,122.9z M82.7,112.5l-1.2,0.5l1.2,3
				l1.2-0.5L82.7,112.5z M84.7,117.4l-1.2,0.5l1.3,3.2l1.2-0.5L84.7,117.4z M86.9,115.7l-0.6-1.6l3.8-1.5l-0.3-0.7l-3,1.2l-0.6-1.6
				l3-1.2l-0.3-0.7l-3.7,1.5l-0.6-1.6l3.7-1.5l-0.5-1.1l2.2-0.7c0.1,0,0.5-0.2,0.6,0c0,0.1,0,0.2,0,0.3c-0.1,0.2,0,0.3,0.1,0.6
				l4-1.6l0.6,1.6l-4,1.6l0.3,0.7l3.4-1.4l0.6,1.6l-3.4,1.4l0.3,0.7l4.1-1.7l0.6,1.6L86.9,115.7z M97.1,122.3l-2-1.7
				c0.9-0.3,1.4-0.5,1.5-0.5c0.3-0.1,0.3-0.3,0.3-0.5l-0.1-0.3l-4.6,1.9l1,2.4l-2.1,0.8l-3.3-8.1l8.7-3.6l2.8,6.9
				C99.9,121,98.3,121.7,97.1,122.3z M95,115l-4.6,1.9l0.3,0.7l4.6-1.9L95,115z M95.8,117l-4.6,1.9l0.3,0.8l4.6-1.9L95.8,117z"/>
			<path class="st1" d="M116.5,107.3c-0.9,0-1.5,0-2.1-0.1l2.8,6.9l-2.3,0.9l-0.2-0.4l-6.2,2.5l0.2,0.6l-2.3,0.9l-2.7-6.6
				c-0.6,0.7-0.9,1-1.5,1.5l-2-1c1.1-0.9,2.9-2.5,4.3-5.5l-4.8,2l-0.7-1.8l6.7-2.7l-0.5-1.1c-1.2,0.6-2.9,1.4-5.2,2.3l-1.5-1.4
				c1-0.3,1.9-0.7,2.4-0.9c3.3-1.3,6.4-3.1,9.2-5.3l1.8,1.1c0.1,0,0.2,0.1,0.3,0.3c0,0.1,0,0.2-0.1,0.2c-0.1,0-0.6,0.1-0.8,0.1
				c-0.2,0.1-1.1,0.7-1.3,0.9c-0.3,0.2-1.2,0.8-2.4,1.5l0.6,1.4l6.7-2.7l0.7,1.8l-4.8,1.9c1,0.3,2,0.5,2.9,0.5
				c1.3,0.1,2.6,0.1,3.8-0.1L116.5,107.3z M108.9,106.1l0.8,2l-2.3,0.9l-0.8-1.9c-0.5,1.2-1,2.1-2,3.5l8.8-3.6
				C111.4,107,110.5,106.7,108.9,106.1z M112.6,109.5l-6.2,2.5l0.4,1l6.2-2.5L112.6,109.5z M113.6,111.9l-6.2,2.5l0.4,1.1l6.2-2.5
				L113.6,111.9z"/>
			<path class="st1" d="M123.9,104.9c-1.2,0.5-2.5-0.1-3-1.2c-0.5-1.2,0.1-2.5,1.2-3c1.1-0.5,2.5,0.1,3,1.2
				C125.6,103.1,125,104.4,123.9,104.9z"/>
			<path class="st1" d="M142,91.5l-0.8-1.9l-11.6,4.7l0.8,1.9l-2,0.8l-1.5-3.7l6.6-2.7l-0.5-1.2l1.9-0.7c0.8-0.3,1-0.3,1.1-0.1
				c0,0.1,0,0.2-0.1,0.3c-0.2,0.3-0.2,0.3-0.2,0.5l0.1,0.3l6.6-2.7l1.5,3.6L142,91.5z M131.3,96.1l-0.6-1.4l9.9-4l0.6,1.4
				L131.3,96.1z M145.6,103.2l-0.1-0.3l-9.8,4l0.2,0.5l-2.1,0.9l-2.6-6.4l14-5.7l2.5,6.2L145.6,103.2z M132.7,100.4l-1.4-3.5
				l10.5-4.3l1.4,3.5L132.7,100.4z M140.2,94.7l-6.5,2.6l0.4,1l6.5-2.6L140.2,94.7z M137.6,100.8l-3.7,1.5l0.4,0.9l3.7-1.5
				L137.6,100.8z M138.5,103l-3.7,1.5l0.4,0.9l3.7-1.5L138.5,103z M143.7,98.3l-3.7,1.5l0.4,0.9l3.7-1.5L143.7,98.3z M144.6,100.5
				l-3.7,1.5l0.4,0.9l3.7-1.5L144.6,100.5z"/>
			<path class="st1" d="M165,94.9l-0.3-0.7L154,98.6l0.3,0.8l-2.1,0.9l-6-14.7l15-6.1l5.9,14.5L165,94.9z M153.4,84.9l-4.3,1.7
				l1.6,3.9l4.3-1.7L153.4,84.9z M155.8,90.7l-4.3,1.7l1.8,4.3l4.3-1.7L155.8,90.7z M159.9,82.3l-4.3,1.7l1.6,3.9l4.3-1.7
				L159.9,82.3z M162.3,88.1l-4.2,1.7l1.8,4.3l4.3-1.7L162.3,88.1z"/>
			<path class="st1" d="M186,88c-1.8,0.3-4.9,0.7-8.4-1.2c-0.8,3-2.9,5.2-5.3,6.7l-2.1-1.6c2.9-1.4,4.7-3.6,5.1-5.7l-5.8,2.3
				l-0.7-1.6l6.4-2.6c-0.1-0.4-0.2-0.7-0.3-1.1l-6.9,2.8l-0.7-1.6l6.9-2.8l-0.3-0.8l-4.6,1.9l-0.6-1.6l4.6-1.9l-0.3-0.7l-6.6,2.7
				l-0.7-1.6l4-1.6c-0.8-0.6-1.7-1-2.2-1.2l1.8-1.5c1,0.5,2,1.1,2.5,1.4l-0.9,0.8l3.7-1.5c0.2-0.8,0.3-1.9,0.4-3.1l2-0.1
				c0.2,0,0.5,0,0.6,0.2c0,0.1,0,0.1,0,0.1c0,0.1-0.4,0.3-0.4,0.4c0,0.1-0.3,1.2-0.3,1.4l4.3-1.7l0.7,1.6l-6.5,2.6l0.3,0.7l4.5-1.8
				l0.6,1.6l-4.5,1.8l0.3,0.8l6.8-2.8l0.7,1.6l-7,2.8c0.1,0.3,0.2,0.6,0.4,1.1l6.7-2.7l0.7,1.6l-6.1,2.5c2.2,1.4,5.6,1,8,0.3L186,88
				z"/>
			<path class="st1" d="M193.3,68.2c0,0.2,0,0.2,0.1,0.7l4.2-1.7l1.6,4l2.5-1l1.2,3l-1.6,0.7l-0.7-1.8l-5.1,2.1
				c0.5,0.1,0.7,0.2,1.2,0.5l-0.5,1.6c-0.7-0.3-1.1-0.4-1.9-0.6l0.3-1.2l-5.8,2.4l0.8,1.9l-1.6,0.7l-1.3-3.1l2.6-1l-1.6-4l3.1-1.3
				c0-0.2,0-0.2-0.1-0.7l-6,2.4l-0.6-1.5l15.4-6.3l0.6,1.5L193.3,68.2z M205,80.3c-1.7,0.5-4.3,1.3-7.2,1.4c-1.9,1.8-4,2.9-6.1,4
				l-1.7-1.3c1.6-0.7,3.3-1.4,5.3-2.9c-1.1-0.2-1.7-0.4-2.2-0.6c-0.4,0.9-1,1.7-1.8,2.8l-1.9-0.6c0.8-0.9,2.1-2.4,2.9-4.9l0.5,0
				l-0.7-1.8l1.4-0.5c0.4-0.1,0.5-0.2,0.6,0c0,0.1-0.1,0.5-0.1,0.6c0.2,0.4,0.3,0.7,0.9,0.4l2.4-1c0.7-0.3,0.6-0.7,0.3-1.3l1.4,0.1
				c0.4,1.1,0.4,1.7-1.2,2.3l-3.4,1.4c-0.1,0.3-0.2,0.5-0.3,0.8l6.6-2.7l0.7,0.3c-0.2,0.5-0.7,1.4-1.9,3.2c0.7-0.1,2-0.3,4.1-1.1
				c0.9-0.4,1.5-0.7,1.9-0.9L205,80.3z M191.6,77.6c-0.1,0.9-0.3,1.6-0.6,2.6l-1.5-0.2c0.3-1,0.6-1.8,0.5-3l1.6,0.1
				c0.1,0,0.3,0,0.3,0.2C192,77.4,191.7,77.5,191.6,77.6z M195.9,69l-5.7,2.3l0.2,0.4l5.7-2.3L195.9,69z M196.4,70.2l-5.7,2.3
				l0.2,0.5l5.7-2.3L196.4,70.2z M197,71.5l-5.7,2.3l0.2,0.5l5.7-2.3L197,71.5z M195.7,79.7c0.5,0.2,0.8,0.2,1.4,0.2
				c0.2-0.3,0.5-0.6,0.7-1L195.7,79.7z M201.9,75.8c-1-0.6-1.9-1-3.3-1.4l0.8-1.3c1.1,0.4,2.1,0.8,3.1,1.3L201.9,75.8z"/>
			<path class="st1" d="M210.4,71.4c-1.2,0.5-2.5-0.1-3-1.2c-0.5-1.2,0.1-2.5,1.2-3c1.1-0.5,2.5,0.1,3,1.2S211.5,70.9,210.4,71.4z"
				/>
			<path class="st1" d="M90.7,141.2c-0.7-0.2-1.1-0.3-1.6-0.5l0.5,1.1l-4.9,2l-0.5-1.3c-0.2,0.7-0.4,1.2-0.7,1.8l-1.7-0.5l0.1,0.2
				l-1.5,0.6l0.4,1l2-0.8l0.7,1.8l-2,0.8l1.2,3.1c0.1-0.6,0.1-1.5-0.1-2.6l1.9-0.2c0.4,0,0.5,0.1,0.5,0.2c0.1,0.1-0.1,0.3-0.4,0.4
				c0,0.1,0.1,1.3-0.1,2.3l-1.7,0.2l0.4,0.9c1-0.6,1.8-1.2,2.3-1.6l0.5,2c-1.7,1.3-3.5,2.3-5.3,3.4c-0.3,0.2-0.4,0.2-0.5,0.5
				c0,0.1-0.1,0.3-0.3,0.3c-0.2,0.1-0.2-0.1-0.4-0.4l-1.1-1.8c1.2-0.5,2.4-1.1,2.8-1.4l-1.9-4.6l-2.5,1l-0.7-1.8l2.5-1l-0.4-1
				l-1.4,0.6l-0.5-1.2c0,0.2-0.1,0.2-0.4,0.7l-2.1-0.9c0.5-0.8,1.1-1.5,1.6-3.2c0.3-1.1,0.3-1.6,0.3-2.1l2.2-0.4
				c0.2,0,0.4,0.1,0.5,0.2c0,0.1,0,0.1,0,0.2c1,0.5,2.1,0.7,3.3,0.9l-0.7,2l0.4,0.9c0.5-0.8,0.9-1.4,1.2-3.2
				c0.4-1.9,0.2-2.7,0.1-3.6l2.4-0.6c0.1,0,0.4-0.1,0.5,0.1c0,0.1,0,0.2,0,0.4c2.3,2,4.7,2.6,6.1,2.9L90.7,141.2z M77.7,141.3
				c-0.2,1-0.5,1.8-0.9,2.6l4-1.6C79.8,142.1,78.9,141.9,77.7,141.3z M79.1,153.3c-0.7-1.1-1.6-2-1.9-2.4l1.6-1.2
				c0.8,0.7,1.4,1.6,1.9,2.5L79.1,153.3z M91.6,150.3l-1.7-1.6c1.7-0.6,1.8-0.8,1.5-1.4l-0.9-2.3l-2,0.8l2.5,6.1l-2.1,0.9l-2.5-6.1
				l-1.9,0.8l-0.8-1.9l8.1-3.3l2,4.9C94.5,149,92.5,149.9,91.6,150.3z M85.1,138.4c-0.2,1.5-0.5,2.6-0.7,3.5l3.9-1.6
				C87.1,139.8,86.2,139.3,85.1,138.4z"/>
			<path class="st1" d="M98.3,132c-0.3,0.2-0.3,0.3-0.3,0.4c0,1.2-0.1,1.8-0.2,2.9c0.3,0,0.5,0.1,0.6,0.2c0.1,0.1,0,0.3-0.1,0.3
				c0,0.1-0.1,0.2,0,0.3l4.5,11l-2.1,0.8l-3.5-8.6c-0.1,0.5-0.2,1.2-0.5,1.9l-2.2-0.4c0.7-2.1,1.3-5,1-9.3l2.3-0.2
				c0.4,0,0.5,0,0.6,0.1C98.5,131.8,98.4,131.9,98.3,132z M113,143.4c-1.6,0.6-3.4-0.4-3.9-0.7c-3.1-1.9-4.9-4.8-5.7-6.2l-3.1,1.8
				l-1.1-2l3.1-1.8c-0.7-1.3-1.4-2.8-2.2-4.6l2.1-0.8c0.5-0.2,0.6-0.1,0.7,0.1c0.1,0.1,0,0.2-0.1,0.4c-0.2,0.3-0.1,0.4,0.1,0.8
				c0.2,0.4,0.7,1.5,1.4,3l5.1-3l1.1,2l-5.1,3c3.2,5.1,6,5.9,6.5,5.7c0.5-0.2,0-1.5-0.1-2l2,0.4C114.2,141.6,114,142.9,113,143.4z
				 M106.8,131.2c-0.6-0.5-1.4-1.1-2.4-1.7l1.1-1.7c1,0.6,1.9,1.2,2.6,1.7L106.8,131.2z"/>
			<path class="st1" d="M123.2,126.1c-0.2,0.2-0.2,0.3-0.2,0.3c0,2.3,0.1,3.3-0.4,5.3l-0.8-0.1c0.1,0.1,0.1,0.2,0.2,0.3l-1.6,1.2
				c-0.1-0.2-0.3-0.5-0.6-0.8c-0.2,0.1-0.8,0.4-1,0.5l3,7.3l-2,0.8l-2.4-5.9c0,0.1,0,0.1-0.2,0.2c0.2,0.6,0.9,2.9,1.1,4.9l-2,0.3
				c0-2.1-0.7-4-1.1-5l1.7-0.5c0.2-0.1,0.2-0.1,0.3,0l-0.4-1.1c-0.5,0.3-1.1,0.6-1.4,0.7c-0.1,0.1-0.2,0.1-0.2,0.2
				c0,0.1-0.2,0.3-0.2,0.4c-0.2,0.1-0.3-0.1-0.3-0.2l-1-1.8l1.1-0.4c0.4-1,0.6-1.5,0.9-2.2c-1.1-0.6-2.5-1.2-3.4-1.4l0.5-2
				c0.3,0.1,0.8,0.2,1,0.3c0.2-0.8,0.6-2.2,0.7-3.4l2,0.1c0,0,0.3,0,0.4,0.2c0,0.1,0,0.2-0.1,0.3c-0.3,0.3-0.3,0.3-0.4,0.5
				c-0.3,1.2-0.7,2.7-0.8,3.1c0.5,0.2,0.7,0.3,0.9,0.4c0.6-1.5,0.7-2,0.9-2.6l2.1,0.4c0.1,0,0.4,0.1,0.4,0.2
				c0.1,0.2-0.2,0.4-0.4,0.5c-0.3,0.2-0.4,0.2-0.5,0.5c-0.4,1-0.5,1.4-0.9,2.4l1-1c0.6,0.4,1.2,1.1,1.6,1.5c0.2-1,0.4-2.6,0.2-4.5
				l2-0.2c0.1,0,0.3,0,0.3,0.1C123.2,125.9,123.2,126,123.2,126.1z M117.9,130.4c-0.2,0.6-0.3,0.6-0.5,1.2c0.6-0.3,0.6-0.3,1.2-0.6
				C118.5,130.9,118.2,130.6,117.9,130.4z M121.9,137.7c-0.8-1.3-1.2-2.1-1.8-3.5l1.6-1c0.7,1.4,1.4,2.5,1.9,3.1L121.9,137.7z
				 M131.1,128.9c-0.1,0-0.3,0.2-0.4,0.3c0,0.1-0.2,1-0.2,1.2c-1,5.6-4.4,7.8-6.4,9.1l-2.1-1.6c1-0.5,2.3-1.1,3.7-2.6
				c1.2-1.3,1.7-2.2,2.1-3.2c-0.5,0.6-1.2,1-2.6,1.5l-1.8-2c0.3-0.1,1.1-0.3,1.5-0.5c0.6-0.2,0.7-0.6,0.5-1.2l-3.6-8.8l2.1-0.7
				c0.3-0.1,0.5-0.1,0.5,0.1c0,0.1,0,0.2-0.1,0.3c-0.1,0.2-0.1,0.3-0.1,0.4l3.8,9.2c0.1,0.2,0.1,0.3,0.1,0.5
				c0.2-1.1,0.3-1.8,0.2-2.7l2.5,0.2c0.1,0,0.3,0,0.4,0.2C131.3,128.8,131.2,128.9,131.1,128.9z M129.8,127.4
				c-0.8-0.7-2.4-1.7-3.7-2.3l1.1-1.8c1.2,0.5,3.2,1.7,3.8,2.2L129.8,127.4z"/>
			<path class="st1" d="M143.6,128.8c0.5-0.1,1.4-0.2,2.1-0.5c1-0.4,2-1.1,1-4.8l-9,3.7c0.1,0.8,0.1,1.4,0.2,2.4l-2.7,0.2
				c-0.1-2.3-0.4-6.1-1.3-8.7l1.9-0.2l8-3.3l-0.8-1.9l-11.4,4.6l-0.8-2.1l13.7-5.6l2.5,6l-10.1,4.1c0.2,1.2,0.3,1.5,0.4,2l11-4.5
				c0.4,1.5,1.7,5.6,1,7.9c-0.4,1.1-1.5,1.8-3.9,2.8L143.6,128.8z"/>
			<path class="st1" d="M158.1,124.4l-1.2,1.2c-0.5-0.4-0.8-0.6-1.3-1.2c-1.3-1.5-2.2-3.2-2.8-4.6c-0.5-1.2-0.9-2.6-1.2-3.8
				c-0.6-2.1-0.8-3.4-1-4.6l2.2-0.1c0.2,0,0.6,0,0.6,0.1c0,0,0,0.1,0,0.2c0,0-0.2,0.2-0.3,0.3c-0.2,0.3,0.4,4,1.5,6.8
				c0.1,0.3,0.7,1.8,1.3,2.5c0.1-0.5,0.1-0.7,0.2-1.6l1.3,0.1C157.5,121.5,157.8,123.1,158.1,124.4z M159.2,112.1
				c-0.1,0.1-1,0.4-2,0.7l-0.8-2.1c0.6-0.1,1.5-0.4,2.5-0.8c2.2-0.9,3.5-2,4.1-2.6l0.9,2.2C163,110.1,161.3,111.3,159.2,112.1z
				 M164.6,121.1c-3.4,1.4-4.5,0.8-5.8-2.4l1.9-1.1c0.7,1.8,1.1,2.2,3,1.4c2.1-0.9,3.4-1.9,4-2.3l0.9,2.3
				C167.8,119.6,166.6,120.3,164.6,121.1z"/>
			<path class="st1" d="M184.2,114.3c-1.7-0.5-2.9-0.7-4.8-0.7c0.9,1.8,0.7,3.1-2.3,4.4c-3.4,1.4-5,0.4-5.5-0.8
				c-0.7-1.6,0.4-3.6,3.2-4.7c0.6-0.3,1.1-0.4,1.4-0.5c-1.9-4.3-2.1-4.8-3.4-8.1l-0.5-1.3l2.4-0.6c0.1,0,0.5-0.1,0.5,0.1
				c0,0.1,0,0.1-0.1,0.3c-0.1,0.1-0.2,0.2-0.1,0.4c0.1,0.3,0.6,1.6,0.8,2.3c0.3-0.1,0.4-0.1,0.8-0.3c2.2-0.9,3.1-1.7,3.5-2.2
				l0.9,2.2c-1.2,0.9-2.4,1.5-3.2,1.8c-0.4,0.2-0.9,0.3-1.3,0.5c0.6,1.6,0.9,2.2,2,4.5c2.4-0.2,3.9-0.1,6.2,0.4L184.2,114.3z
				 M175.3,114.3c-1.2,0.5-1.7,1.2-1.4,1.7c0.3,0.8,1.8,0.4,2.4,0.1c1.5-0.6,1.1-1.5,0.8-2.4C176.6,113.9,175.9,114,175.3,114.3z"/>
			<path class="st1" d="M194.8,111.1c-2.3,1-4,0.3-4.6-1.1c-0.4-1.1-0.1-2.9,1.7-3.6c1.9-0.8,3.8,0.2,4.6,0.7c0.3-0.5,0.8-1.7,0.2-3
				c-0.8-1.9-2.8-1.7-4-1.2c-0.8,0.3-1.6,0.9-1.9,1.3c-0.9,1.1-1.9,3.4-2.5,4.9l-2.2-1c1.4-2.3,2.7-4.7,4.2-9.6
				c-1,0.7-2,1.3-4.2,2.3l-1.3-1.9c0.5-0.1,1.6-0.5,2.1-0.7c0.7-0.3,3.8-1.8,5.3-3.2l1.6,1.1c-0.7,1.4-0.9,1.8-2.5,5.7
				c0.6-0.3,1.5-0.7,1.8-0.9c2.5-1,5,0.4,5.8,2.4C200.1,106.4,198.1,109.8,194.8,111.1z M192.7,108c-0.8,0.3-0.7,0.9-0.6,1.2
				c0.3,0.7,1.2,0.5,1.9,0.2c0.6-0.2,1-0.5,1.2-0.7C194.7,108.3,193.8,107.5,192.7,108z"/>
		</g>
	</g>
	
		<rect x="53.1" y="64.7" transform="matrix(0.9325 -0.3612 0.3612 0.9325 -17.0584 46.1134)" class="st0" width="123.5" height="8"/>
	<g>
		<path class="st1" d="M62.7,86.3c-0.1-0.2-0.2-0.5-0.2-0.7l1.6-0.6c0,0.1,0.1,0.3,0.1,0.4c0.4,1,1.4,1.2,2.4,0.8
			c1.2-0.5,2.1-1.7,1.7-2.8c-0.3-0.8-1.4-0.8-2.6-0.6c-1.4,0.2-3.1,0.3-3.7-1.2c-0.8-2.2,0.5-4.1,2.8-5c1.9-0.7,3.3-0.2,3.9,1.3
			c0.1,0.2,0.2,0.5,0.2,0.7l-1.6,0.6c0-0.1-0.1-0.3-0.1-0.4c-0.3-0.8-1.2-1-2.2-0.7c-1.2,0.5-2,1.5-1.6,2.5c0.3,0.8,1.3,0.7,2.5,0.5
			c1.5-0.2,3.2-0.4,3.8,1.3c0.9,2.3-0.5,4.4-2.9,5.3C65,88.5,63.4,88,62.7,86.3z"/>
		<path class="st1" d="M78.2,74.7c0.8,2.1-0.3,4.6-2.5,5.4L73.5,81l0.6,3.7l-1.6,0.6l-1.9-10.9l3.6-1.4C76,72.4,77.6,73.1,78.2,74.7
			z M76.7,75.4c-0.3-0.8-1.1-1.2-2.1-0.8l-2.1,0.8l0.7,4l2-0.8C76.5,78.1,77.1,76.6,76.7,75.4z"/>
		<path class="st1" d="M81.4,72l0.5,3l3.9-1.5L86,75l-3.9,1.5l0.6,3.2l4.4-1.7l0.3,1.6l-6,2.3L79.5,71l5.8-2.3l0.3,1.6L81.4,72z"/>
		<path class="st1" d="M88.1,74.7c-1.3-3.4,0.4-7.4,3.8-8.7c2.3-0.9,4.6-0.1,5.6,2.1L96,68.7c-0.8-1.3-2-1.7-3.6-1.2
			c-2.4,0.9-3.7,3.9-2.7,6.4c0.7,1.7,2.1,2.4,4,1.7c1.6-0.6,2.7-2.1,2.9-3.8l1.7-0.6c0,2.9-1.6,5.1-4.1,6
			C91.4,78.2,89.1,77.2,88.1,74.7z"/>
		<path class="st1" d="M98.7,63.6l1.6-0.6l1.9,10.9l-1.6,0.6L98.7,63.6z"/>
		<path class="st1" d="M110.5,68.1l-4.6,1.8l-0.5,2.8l-1.8,0.7l2.2-12.5l1.5-0.6l6.1,9.3l-1.7,0.6L110.5,68.1z M106.2,68.2l3.5-1.4
			l-2.6-4.1L106.2,68.2z"/>
		<path class="st1" d="M120.5,65.1l0.3,1.5l-5.8,2.3L113.1,58l1.6-0.6l1.6,9.4L120.5,65.1z"/>
		<path class="st1" d="M125.4,61.4c-0.3-0.7-0.3-1.4-1.4-7.6l1.6-0.6c1.1,6.3,1.2,7,1.4,7.4c0.5,1.2,1.5,1.6,2.7,1.1
			c1.4-0.6,2.3-2.1,2-3.7l-1.2-6.7l1.6-0.6l1.2,7c0.5,2.5-0.8,4.8-3.2,5.7C128,64.1,126.1,63.3,125.4,61.4z"/>
		<path class="st1" d="M142.8,46.5l1.9,10.9l-1.3,0.5l-6.7-5.9L138,60l-1.6,0.6l-1.9-10.9l1.4-0.5l6.6,5.8l-1.4-7.8L142.8,46.5z"/>
		<path class="st1" d="M145.4,45.5l1.6-0.6l1.9,10.9l-1.6,0.6L145.4,45.5z"/>
		<path class="st1" d="M156.4,42.9l-3,1.2l1.6,9.4l-1.6,0.6l-1.6-9.4l-3,1.2l-0.3-1.5l7.6-2.9L156.4,42.9z"/>
		<path class="st1" d="M161.3,39l1.5-0.6l1.4,8.1l-1.5,0.6L161.3,39z M162.9,48.3l1.7-0.7l0.3,1.9l-1.7,0.7L162.9,48.3z"/>
	</g>
	<g>
		<g>
			<path class="st1" d="M77.2,203.3c-0.6,0-1.1-0.3-1.3-0.9l-5.5-13.4c0-0.1-0.1-0.2-0.1-0.3l-2.7,1.1c-0.7,0.3-1.6-0.1-1.8-0.8
				l-1.2-3.1c-0.1-0.3-0.1-0.7,0-1.1c0.1-0.3,0.4-0.6,0.8-0.8l5.3-2.2c-0.5-0.4-0.8-0.6-1-0.7c-0.1-0.1-0.3-0.2-0.4-0.3l-3,1.2
				c-0.3,0.1-0.7,0.1-1.1,0c-0.3-0.1-0.6-0.4-0.8-0.8l-1.2-3c-0.1-0.3-0.1-0.7,0-1.1c0.1-0.3,0.4-0.6,0.8-0.8l8.7-3.5l-0.4-1.1
				c-0.1-0.4-0.1-0.8,0-1.1c0.2-0.4,0.4-0.6,0.8-0.8l4.3-1.6c0.2-0.1,0.6-0.2,1-0.2c0.7,0,1.3,0.4,1.6,1.1c0.1,0.2,0.1,0.4,0.1,0.6
				l8.6-3.5c0.7-0.3,1.6,0.1,1.8,0.8l1.2,3c0.1,0.3,0.1,0.7,0,1.1c-0.1,0.3-0.4,0.6-0.8,0.8l-3.1,1.3c0.1,0.6-0.2,1.1-0.3,1.3h0
				c0,0,0,0.1,0,0.1c0,0.1,0,0.2,0,0.3l5.2-2.1c0.3-0.1,0.7-0.1,1.1,0c0.3,0.1,0.6,0.4,0.8,0.8l1.2,3.1c0.3,0.7-0.1,1.6-0.8,1.8
				l-2.8,1.1c0.1,0.1,0.1,0.2,0.1,0.3l5.4,13.3c0.3,0.7-0.1,1.6-0.8,1.8l-3.5,1.4c-0.6,0.2-1.3,0-1.7-0.5l-9.9,4
				c0.1,0.7-0.2,1.3-0.9,1.6l-3.4,1.4C77.6,203.3,77.4,203.3,77.2,203.3z M73.6,189.3l4.4,10.7l0.8-0.3c-0.1-0.7,0.2-1.3,0.9-1.6
				l12.5-5.1c0.6-0.2,1.3,0,1.7,0.5l0.9-0.4l-4.3-10.7L73.6,189.3z M67.8,186.3l0.2,0.4l24.8-10.1l-0.2-0.4l-6.2,2.5
				c-0.5,0.2-1,0.1-1.5-0.2c-0.4-0.3-0.6-0.9-0.5-1.4c0.1-0.4,0.2-0.7,0.3-2l-1,0.1c0,1.5-0.2,2.9-0.4,4c-0.1,0.5-0.4,0.9-0.9,1.1
				l-8.1,3.3c-0.1,0-0.2,0.1-0.3,0.1c-0.1,0-0.1,0.1-0.2,0.1L67.8,186.3z M72.7,180.1c0.3,0.2,0.5,0.5,0.8,0.7l0.8-0.6
				c-0.3-0.2-0.5-0.4-0.9-0.7L72.7,180.1z M76.4,178.1c0.3,0.3,0.7,0.6,1.2,1c0,0,0,0,0,0l3-1.2c0.1-0.5,0.2-1,0.2-1.6L76.4,178.1z
				 M66.5,178.7l0.1,0.3l5.9-2.4c0.1,0,0.2-0.1,0.3-0.1c0.1-0.1,0.2-0.1,0.3-0.2l8.6-3.5c0.1-0.1,0.3-0.1,0.4-0.1
				c0.1-0.1,0.2-0.2,0.4-0.2l6.1-2.5l-0.1-0.3l-9,3.7c-0.3,0.1-0.7,0.1-1.1,0c-0.3-0.1-0.6-0.4-0.8-0.8l-0.4-1l-1.7,0.6l0.4,1
				c0.3,0.7-0.1,1.6-0.8,1.8L66.5,178.7z M87.6,174.6L87.6,174.6C87.6,174.6,87.6,174.6,87.6,174.6
				C87.6,174.6,87.6,174.6,87.6,174.6z M79,197.9c-0.2,0-0.4,0-0.5-0.1c-0.3-0.1-0.6-0.4-0.8-0.8l-0.8-2c-0.3-0.6,0-1.4,0.5-1.7
				c-0.3,0.1-0.6,0-0.8-0.1c-0.3-0.1-0.6-0.4-0.8-0.8l-0.8-1.9c-0.3-0.7,0.1-1.6,0.8-1.8l12.5-5.1c0.7-0.3,1.6,0.1,1.8,0.8l0.8,1.9
				c0.1,0.3,0.1,0.7,0,1.1c-0.1,0.3-0.3,0.5-0.5,0.6c0.3-0.1,0.6,0,0.8,0.1c0.3,0.1,0.6,0.4,0.8,0.8l0.8,2c0.3,0.7-0.1,1.6-0.8,1.8
				l-12.5,5.1C79.4,197.9,79.2,197.9,79,197.9z"/>
			<path class="st1" d="M107.9,191.5c-0.2,0-0.4,0-0.6-0.1l-4.1-2c-0.4-0.2-0.7-0.6-0.8-1.1c0-0.5,0.2-1,0.6-1.3
				c1.6-1.2,3.1-2.5,4.8-4.8l-4.6,1.9c-0.7,0.3-1.6-0.1-1.8-0.8l-1.3-3.2c-0.1-0.3-0.1-0.7,0-1.1c0.1-0.2,0.2-0.4,0.4-0.5l-2.2-2.1
				c-0.3-0.3-0.5-0.7-0.5-1.1c0-0.4,0.2-0.8,0.5-1.1c1.3-1.1,2.7-2.3,4.1-3.7c-2.6-0.9-4.2-1.2-5.7-1.4c-0.4,0-0.7-0.2-1-0.6
				c-0.2-0.3-0.3-0.7-0.3-1.1l0.7-3.7c0.1-0.7,0.8-1.2,1.5-1.2c1.9,0.2,3.5,0.5,4.9,0.8l-0.2-0.5c-0.1-0.3-0.1-0.7,0-1.1
				s0.4-0.6,0.8-0.8l2-0.8c0-0.4,0-0.8,0-1.2c-0.1-0.7,0.3-1.3,1-1.5l3.7-1.2c0.3-0.1,1-0.3,1.7,0c0.4,0.2,0.8,0.5,0.9,0.9
				c0,0,0,0,0,0l2.1-0.9c0.7-0.3,1.6,0.1,1.8,0.8l0.4,0.9c0.6-1.3,1.1-2.5,1.5-3.8c0.2-0.7,1-1.2,1.7-1l3.7,0.9
				c0.8,0.2,1.4,0.6,1.7,1.3c0.2,0.4,0.4,1.6-1,2.3c0,0-0.1,0-0.1,0c0,0,0,0-0.1,0l-0.1,0.3c-0.7,1.7-1.1,2.4-1.7,3.6
				c1.9,0.3,3.7,0.7,5.6,1.1c0.4,0.1,0.7,0.4,0.9,0.7c0.2,0.3,0.2,0.7,0.1,1.1l-0.7,2.2c0.7-0.2,1.5,0.1,1.7,0.8l1.3,3.2
				c0.1,0.3,0.1,0.7,0,1.1c-0.1,0.3-0.4,0.6-0.8,0.8l-5.3,2.2c1.8,0.2,4,0.2,7.1-0.3c0.5-0.1,1,0.1,1.3,0.5c0.3,0.4,0.4,0.9,0.2,1.4
				l-1.7,4.2c-0.2,0.5-0.7,0.9-1.3,0.9c-3.9,0.1-6.6-0.2-9.6-1.2l1.5,3.6c0.1,0.3,0.1,0.7,0,1.1c-0.1,0.3-0.4,0.6-0.8,0.8l-3.9,1.6
				c-0.7,0.3-1.6-0.1-1.8-0.8l-1.5-3.7c-0.5,0.9-1,1.9-1.8,3.2c-1.5,2.4-2.7,3.6-3.8,4.7l-0.2,0.2
				C108.6,191.3,108.3,191.5,107.9,191.5z M106.4,187.8l1.2,0.6c0.9-0.9,1.7-1.9,2.9-3.7c1.7-2.6,2.3-4.2,2.9-5.8
				c0.2-0.5,0.7-0.9,1.3-0.9c0.6,0,1.1,0.3,1.3,0.9l2.3,5.6l1.3-0.5l-2.2-5.4c-0.2-0.5-0.1-1.2,0.3-1.6c0.4-0.4,1-0.5,1.6-0.3
				c3.7,1.7,6.3,2.3,10.6,2.3l0.4-1.1c-5,0.5-7.7-0.3-10.1-1.2c-0.5-0.2-0.9-0.7-0.9-1.3c0-0.6,0.3-1.1,0.9-1.3l7.9-3.2l-0.2-0.6
				l-10.6,4.3c-0.3,0.1-0.7,0.1-1.1,0c-0.3-0.1-0.6-0.4-0.8-0.8l-0.2-0.6c-0.1-0.2-0.1-0.3-0.1-0.5c-0.1-0.1-0.2-0.3-0.3-0.5
				c-0.2-0.5-0.1-1,0.2-1.4l-2.7,1.1c0.1,0,0.3,0,0.4,0.1c0.3,0.1,0.6,0.4,0.8,0.8l0.6,1.5c0.1,0.3,0.1,0.7,0,1.1s-0.4,0.6-0.8,0.8
				l-10.3,4.2l0.2,0.6l7.3-3c0.6-0.2,1.2-0.1,1.6,0.4c0.4,0.4,0.5,1.1,0.2,1.6C110.2,183.9,108.3,186.1,106.4,187.8z M130.8,180.4
				L130.8,180.4L130.8,180.4z M103.4,176.6L103.4,176.6L103.4,176.6z M101.2,175.3l0.8,0.7c0.1-0.1,0.2-0.3,0.4-0.4
				c1-1.1,1.8-2,3-3.5l-0.3-0.6C103.7,173,102.4,174.3,101.2,175.3z M107.1,174.6c-0.4,0.5-0.8,1-1.2,1.4l1.6-0.6
				c0-0.1-0.1-0.1-0.1-0.2L107.1,174.6z M105.5,163.2l3.9,9.6l1.2-0.5c-0.1,0-0.3,0-0.4-0.1c-0.3-0.1-0.6-0.4-0.8-0.8l-1-2.4
				c-0.2-0.6-0.1-1.2,0.4-1.6c-0.6,0-1.2-0.3-1.4-0.9l-0.9-2.3c-0.3-0.7,0.1-1.6,0.8-1.8l5-2c0.3-0.1,0.7-0.1,1.1,0
				c0.3,0.1,0.6,0.4,0.8,0.8l0.9,2.3c0.2,0.6,0.1,1.2-0.4,1.6c0.2,0,0.4,0,0.6,0.1c0.3,0.1,0.6,0.4,0.8,0.8l1,2.4
				c0.1,0.3,0.1,0.7,0,1.1c-0.1,0.1-0.1,0.3-0.2,0.4l1.3-0.5l-3.9-9.6L111,161c-0.5,0.2-1,0.1-1.4-0.2c-0.4-0.3-0.6-0.7-0.6-1.2
				l-1.1,0.4c0,0.4,0,0.9,0,1.4c0,0.5-0.4,1-0.9,1.2L105.5,163.2z M120.8,168.3l0.5,1.3c0,0.1,0,0.1,0.1,0.2l2.2-0.9
				C122.7,168.6,121.8,168.4,120.8,168.3z M98.4,166.5c1,0.2,2.1,0.4,3.5,0.9l0.3-1.1c-1-0.3-2.3-0.5-3.6-0.7L98.4,166.5z
				 M120.8,165.4c1.6,0.2,3.2,0.6,4.6,0.9l0.3-1c-1.5-0.4-3.1-0.6-4.7-0.8L120.8,165.4z M118.8,160.3l0.9,0.2
				c0.6-1.1,0.9-1.8,1.6-3.5l0.2-0.4l-1.1-0.3C120.1,157.8,119.5,159,118.8,160.3z M123.6,156.6L123.6,156.6L123.6,156.6z"/>
			<path class="st1" d="M136.3,175.7c-0.6,0-1.1-0.3-1.3-0.9l-1.4-3.5c-0.1-0.3-0.1-0.7,0-1.1c0.1-0.3,0.4-0.6,0.8-0.8l13.5-5.5
				l-2.2-9.5l-9.9,4c-0.7,0.3-1.6-0.1-1.8-0.8l-1.5-3.6c-0.1-0.3-0.1-0.7,0-1.1c0.1-0.3,0.4-0.6,0.8-0.8l16-6.5
				c0.4-0.2,0.8-0.1,1.2,0.1c0.4,0.2,0.6,0.5,0.7,0.9l3.3,14.6l6-2.5c0.7-0.3,1.6,0.1,1.8,0.8l1.4,3.5c0.3,0.7-0.1,1.6-0.8,1.8
				l-26.2,10.7C136.7,175.7,136.5,175.7,136.3,175.7z M136.8,171.6l0.3,0.8l23.5-9.6l-0.3-0.8l-6.3,2.6c-0.4,0.2-0.8,0.1-1.2-0.1
				c-0.4-0.2-0.6-0.5-0.7-0.9l-3.3-14.6l-13.2,5.4l0.4,1l10.1-4.1c0.4-0.2,0.8-0.1,1.2,0.1s0.6,0.5,0.7,0.9l2.9,12.3
				c0.2,0.7-0.2,1.4-0.8,1.6L136.8,171.6z"/>
			<path class="st1" d="M167.2,163.5c-0.6,0-1.1-0.3-1.3-0.9l-1.5-3.8c-0.1-0.3-0.1-0.7,0-1.1c0.1-0.3,0.4-0.6,0.8-0.8l23.9-9.7
				c0.7-0.3,1.6,0.1,1.8,0.8l1.5,3.8c0.1,0.3,0.1,0.7,0,1.1c-0.1,0.3-0.4,0.6-0.8,0.8l-23.9,9.7
				C167.5,163.5,167.3,163.5,167.2,163.5z M167.5,159.1l0.5,1.2l21.3-8.7l-0.5-1.2L167.5,159.1z M164.6,147.4
				c-0.6,0-1.1-0.3-1.3-0.9l-1.5-3.8c-0.1-0.3-0.1-0.7,0-1.1c0.1-0.3,0.4-0.6,0.8-0.8l17.2-7c0.7-0.3,1.6,0.1,1.8,0.8l1.5,3.8
				c0.1,0.3,0.1,0.7,0,1.1c-0.1,0.3-0.4,0.6-0.8,0.8l-17.2,7C164.9,147.4,164.8,147.4,164.6,147.4z M164.9,143l0.5,1.2l14.6-5.9
				l-0.5-1.2L164.9,143z"/>
			<path class="st1" d="M204.1,153.1c-0.2,0-0.3,0-0.4-0.1l-3.5-1.2c-0.4-0.2-0.8-0.5-0.9-1c-0.1-0.5,0-0.9,0.3-1.3
				c5.4-6.1,6.8-11.9,4.7-19.9c-0.1-0.4,0-0.8,0.2-1.2c0.2-0.3,0.6-0.6,1-0.6l3.5-0.3c1.3-0.1,2,0.5,2.3,1.2c0.3,0.8,0,1.4-0.3,1.8
				c0,0.2,0.1,0.5,0.1,0.9c1.7,11.3-3.4,18-5.9,21.2C204.9,152.9,204.5,153.1,204.1,153.1z M203,149.8l0.6,0.2
				c2.4-3.2,6.1-9,4.7-18.2c-0.1-0.5-0.1-1-0.2-1.3l-0.8,0.1C209,138,207.6,143.9,203,149.8z M209.7,129.8l1.1,0.9l0,0L209.7,129.8z
				 M195.5,143.6c0,0-0.1,0-0.1,0c-0.4,0-0.8-0.2-1-0.5c-1.1-1.4-2.5-2.7-4.2-3.9c-0.4-0.2-0.6-0.6-0.6-1.1c0-0.4,0.1-0.8,0.4-1.1
				l2.5-2.3c0.5-0.5,1.2-0.5,1.8-0.1c2,1.4,3.5,2.8,4.8,4.4c0.5,0.6,0.4,1.4-0.1,1.9l-2.5,2.3C196.2,143.5,195.9,143.6,195.5,143.6z
				 M193.2,138c0.9,0.7,1.7,1.4,2.4,2.2l0.4-0.4c-0.7-0.8-1.5-1.5-2.5-2.2L193.2,138z M200.7,139.7c0,0-0.1,0-0.1,0
				c-0.4,0-0.8-0.2-1-0.5c-1.2-1.5-2.5-2.8-4.1-4c-0.3-0.2-0.5-0.6-0.6-1.1s0.1-0.8,0.4-1.1l2.4-2.2c0.5-0.5,1.2-0.5,1.8-0.1
				c1.6,1.2,3.2,2.7,4.6,4.6c0.4,0.6,0.4,1.4-0.1,1.9l-2.3,2.2C201.4,139.6,201.1,139.7,200.7,139.7z M198.5,134
				c0.8,0.7,1.6,1.4,2.3,2.3l0.3-0.3c-0.7-0.9-1.5-1.6-2.3-2.3L198.5,134z"/>
			<path class="st1" d="M224.3,145c-0.6,0-1.1-0.3-1.3-0.9l-10.3-25.2c-0.2-0.4-0.1-0.8,0.1-1.2c0.2-0.4,0.5-0.6,1-0.7l4.1-0.9
				c0.1,0,0.1,0,0.2,0c1.6-0.3,2.2,0.7,2.4,1.1c0.3,0.7,0,1.3-0.3,1.7l1.7,4.2c0.2-0.1,0.5-0.2,0.7-0.2l0.3,0c1.7,0,3.1,0.1,6.5,0.7
				c3.2,0.6,4.9,1.2,6.6,1.8l0.2,0.1c0.7,0.2,1.1,1,0.9,1.8l-1.3,4.1c-0.1,0.4-0.4,0.7-0.7,0.9c-0.4,0.2-0.8,0.2-1.1,0.1
				c-3.4-1.3-6.5-2.1-9.3-2.3l4.8,11.7c0.1,0.3,0.1,0.7,0,1.1s-0.4,0.6-0.8,0.8l-3.8,1.5C224.6,145,224.5,145,224.3,145z M216,119.4
				l9.1,22.3l1.1-0.5l-5.1-12.4c-0.1-0.2-0.1-0.4-0.1-0.6c-0.1-0.1-0.2-0.3-0.3-0.5l-3.4-8.4c0-0.1-0.1-0.2-0.1-0.3L216,119.4z
				 M223.5,126.9c3.1,0.1,6.4,0.8,10,2.1l0.4-1.3c-1.3-0.4-2.7-0.8-5-1.3c-2.6-0.5-3.8-0.6-5.1-0.6L223.5,126.9z M219.9,118.4
				L219.9,118.4C219.9,118.4,219.9,118.4,219.9,118.4z"/>
			<path class="st1" d="M100.1,235.7c-0.2,0-0.4,0-0.7,0l-3.9-0.5c-0.4-0.1-0.7-0.3-1-0.6c-0.2-0.3-0.3-0.7-0.2-1.1
				c0.7-3.3,0.9-6.8,0.6-10.6c0-0.3,0-0.6,0.2-0.8c-0.1,0-0.2,0-0.3-0.1l-0.1,0c-1-0.3-3.4-1-5.7-1.2c-0.4,0-0.8-0.3-1-0.6
				c-0.2-0.3-0.3-0.7-0.2-1.1l0.8-3.6c0.1-0.7,0.8-1.2,1.5-1.1c2.1,0.2,4.3,0.6,6.5,1.2c0.1,0,0.1,0.1,0.2,0.1l-1-2.3
				c-0.3-0.7,0.1-1.6,0.8-1.8l6.3-2.6l-0.1-0.3c-2,1.1-3.1,1.6-3.9,1.9c-0.5,0.2-1.1,0.1-1.5-0.3l-1.9-1.8l-0.7,3.4
				c-0.1,0.4-0.3,0.7-0.7,0.9c-0.3,0.2-0.7,0.3-1.1,0.1c-1-0.3-3-0.8-5.3-1c-0.4,0-0.8-0.2-1-0.6c-0.2-0.3-0.3-0.7-0.2-1.1l0.8-3.6
				c0.1-0.7,0.8-1.1,1.5-1.1c2.1,0.1,4.1,0.4,5.8,0.9c0,0,0,0,0,0c0.1-0.5,0.4-0.9,0.9-1c4.7-1.7,10.8-5.3,13.1-7.7
				c0.4-0.4,1.1-0.5,1.6-0.3l3.2,1.4c0.3,0.1,1.1,0.5,1.4,1.3c0.2,0.4,0.2,0.8,0,1.2c-0.1,0.3-0.4,0.7-1,1c-0.1,0.1-0.6,0.2-0.9,0.3
				c-0.2,0.2-0.7,0.5-1,0.7c-0.1,0-0.1,0.1-0.2,0.1c-0.2,0.1-0.5,0.3-1.1,0.7c-0.5,0.3-1,0.7-1.6,1.1l0.5,1.2l6.6-2.7
				c0.3-0.1,0.7-0.1,1.1,0c0.3,0.1,0.6,0.4,0.8,0.8l1.2,3c0.3,0.7-0.1,1.6-0.8,1.8l-6.6,2.7l0.5,1.2l4.8-2c0.3-0.1,0.7-0.1,1.1,0
				c0.3,0.1,0.6,0.4,0.8,0.8l5.1,12.5c0.1,0.3,0.1,0.7,0,1.1c-0.1,0.3-0.4,0.6-0.8,0.8l-3.6,1.5c-0.3,0.1-0.7,0.1-1.1,0
				c-0.3-0.1-0.6-0.4-0.7-0.7l-6.8,2.8c0.3,0.7-0.1,1.5-0.8,1.8l-3.5,1.4c-0.3,0.1-0.7,0.1-1.1,0c-0.3-0.1-0.6-0.4-0.8-0.8l-3.1-7.5
				c0.1,3.2,0.1,6.2,0.1,7.1c0,0,0,0,0,0c0,0.3-0.1,0.8-0.1,1.1c0.1,0.1,0.2,0.3,0.2,0.3c0.2,0.5,0.2,0.9,0,1.4
				c-0.2,0.4-0.5,0.7-0.9,0.9C100.7,235.6,100.5,235.7,100.1,235.7z M101.6,233.1L101.6,233.1L101.6,233.1z M97.4,232.5l1.4,0.2
				c0-0.3,0-0.6,0.1-1c0-0.8,0.1-3.7-0.1-7l-1-0.2C97.9,227.3,97.8,230,97.4,232.5z M100.3,231.8L100.3,231.8L100.3,231.8z
				 M102.7,219.9l4.1,10l0.9-0.4c-0.3-0.7,0.1-1.5,0.8-1.8l9.4-3.8c0.3-0.1,0.7-0.1,1.1,0c0.3,0.1,0.6,0.4,0.7,0.7l0.9-0.4l-4-9.9
				l-4.8,2c-0.7,0.3-1.6-0.1-1.8-0.8l-1.5-3.8c-0.1-0.3-0.1-0.7,0-1.1c0.1-0.3,0.4-0.6,0.8-0.8l6.6-2.7l-0.1-0.4l-6.6,2.7
				c-0.3,0.1-0.7,0.1-1.1,0c-0.3-0.1-0.6-0.4-0.8-0.8l-1.5-3.7c-0.3-0.6,0-1.4,0.6-1.7c1-0.6,1.9-1.2,2.6-1.7
				c0.5-0.3,0.9-0.6,1.1-0.7c0.1-0.1,0.3-0.2,0.4-0.3l-0.7-0.3c-2.5,2.2-7.2,5-11.4,6.9l0.3,0.3c0.9-0.4,2.1-1,4.1-2.2
				c0.4-0.2,0.8-0.2,1.2-0.1c0.4,0.1,0.7,0.4,0.9,0.8l1.3,3.1c0.3,0.7-0.1,1.6-0.8,1.8l-6.3,2.6l0.2,0.4l6.3-2.6
				c0.7-0.3,1.6,0.1,1.8,0.8l1.5,3.8c0.3,0.7-0.1,1.6-0.8,1.8L102.7,219.9z M96.4,221.3c0.1,0,0.1,0,0.2,0l3.9,0.8c0,0,0.1,0,0.1,0
				l-1-2.6c-0.3-0.7,0.1-1.6,0.8-1.8l5.3-2.2l-0.5-1.2l-6.3,2.6c-0.3,0.1-0.7,0.1-1.1,0c-0.1,0-0.2-0.1-0.2-0.1c0,0.1,0,0.2,0,0.3
				l-1,3.7C96.5,221,96.4,221.2,96.4,221.3z M90.9,218.1c1.2,0.2,2.4,0.5,3.3,0.7l0.3-1c-1.1-0.3-2.2-0.5-3.4-0.6L90.9,218.1z
				 M89.4,209.2c1,0.1,2,0.3,2.8,0.5l0.2-0.9c-0.9-0.2-1.8-0.3-2.8-0.4L89.4,209.2z M107.7,227.2c-0.6,0-1.1-0.3-1.3-0.9l-2.1-5.1
				c-0.1-0.3-0.1-0.7,0-1.1c0.1-0.3,0.4-0.6,0.8-0.8l9.4-3.8c0.7-0.3,1.6,0.1,1.8,0.8l2.1,5.1c0.1,0.3,0.1,0.7,0,1.1
				c-0.1,0.3-0.4,0.6-0.8,0.8l-9.4,3.8C108.1,227.2,107.9,227.2,107.7,227.2z M107.5,221.5l1,2.4l6.8-2.8l-1-2.4L107.5,221.5z"/>
			<path class="st1" d="M130,222.5c-0.6,0-1.3-0.3-1.8-1.1l-1.6-2.7c-0.2-0.3-0.3-0.8-0.1-1.2c0.1-0.4,0.4-0.6,0.7-0.8
				c-0.2-0.2-0.4-0.4-0.6-0.7l-1-2.4c-0.1-0.3-0.1-0.7,0-1c-0.1-0.1-0.2-0.3-0.3-0.4l-3.4-8.4c0,0,0,0,0-0.1
				c-0.7,0.3-1.5-0.1-1.8-0.8l-1-2.4c-0.3-0.7,0.1-1.6,0.8-1.8l0.8-0.3l-1.6-1.5c-0.4-0.3-0.5-0.8-0.4-1.3s0.4-0.9,0.9-1
				c3.6-1.3,7.4-2.9,10.6-5.4c0.5-0.4,1.1-0.4,1.6-0.1l2.4,1.4c0,0,0.1,0.1,0.1,0.1c0.3,0.2,0.7,0.5,0.9,1c0.1,0.3,0.2,0.6,0.1,0.9
				l0.3-0.1c0.3-0.1,0.7-0.1,1.1,0c0.3,0.1,0.6,0.4,0.8,0.8l0.3,0.8l0.1,0c-0.9-2.2-1-2.6-2.1-5.1c-0.1-0.4-0.1-0.8,0-1.1
				c0.2-0.4,0.5-0.6,0.8-0.8l3.5-1.2c1.6-0.6,2.5,0.3,2.7,0.9c0.3,0.7,0.1,1.3,0,1.5l-0.1,0.2c0,0,0,0.1-0.1,0.1
				c0.2,0.5,0.5,1.4,0.9,2.3c0.1,0.2,0.2,0.4,0.2,0.7l3.8-1.5c0.4-0.1,0.8-0.1,1.1,0s0.6,0.4,0.8,0.8l0.1,0.2
				c1.1,2.9,4.1,10.7,5.2,16.6c1,4.8-0.1,6.8-4.3,8.6c-0.5,0.2-1.1,0.1-1.5-0.3l-2-1.9c-0.2,1-0.4,1.9-0.7,3c-0.2,0.6-0.8,1.1-1.5,1
				l-3.9-0.3c-0.5,0-0.9-0.3-1.1-0.7c0-0.1-0.1-0.2-0.1-0.2c-2.7,1.5-6.2,3.4-7.4,4l-0.2,0.1c-0.2,0.5-0.4,1.1-1.2,1.4
				C130.5,222.5,130.2,222.5,130,222.5z M132,220.6C132,220.6,132,220.6,132,220.6C132,220.6,132,220.6,132,220.6z M129.8,218.6
				l0.1,0.2c0.2-0.1,0.3-0.2,0.5-0.3l0.2-0.1c1-0.5,3.8-2,6.2-3.4c-0.2,0-0.4,0-0.6-0.1c-0.4-0.1-0.7-0.4-0.8-0.8l-0.6-1.5
				c-0.1-0.3-0.1-0.7,0-1.1c0.1-0.2,0.2-0.3,0.3-0.4c-0.2,0-0.3,0-0.5-0.1c-0.3-0.1-0.6-0.4-0.8-0.8l-0.5-1.3
				c-0.1-0.3-0.1-0.7,0-1.1c0,0,0,0,0,0c-0.3-0.1-0.6-0.4-0.8-0.8l-0.6-1.4c-0.1-0.3-0.1-0.7,0-1.1c0,0,0,0,0,0c0,0,0,0,0,0
				c-0.3-0.1-0.6-0.4-0.8-0.8l-0.5-1.3c-0.1-0.4-0.1-0.8,0-1.1c-0.3-0.1-0.6-0.4-0.8-0.8l-0.6-1.4c-0.1-0.3-0.1-0.7,0-1.1
				c0.1-0.2,0.2-0.3,0.3-0.5c-0.6,0-1.1-0.3-1.3-0.9l-0.7-1.6c-0.1-0.4-0.1-0.8,0-1.1c-0.5,0.3-1.1,0.6-1.6,0.8c0.1,0,0.2,0,0.3,0.1
				c0.4,0.1,0.7,0.4,0.8,0.8l0.5,1.3c0.2,0.5,0.1,1.1-0.3,1.5c0.6,0,1.1,0.3,1.3,0.9l0.6,1.4c0.1,0.4,0.1,0.8,0,1.1
				c0.3,0.1,0.6,0.4,0.8,0.8l0.5,1.3c0.1,0.3,0.1,0.7,0,1.1c0,0,0,0,0,0c0.4,0.1,0.6,0.4,0.8,0.8l0.6,1.4c0.1,0.3,0.1,0.7,0,1.1
				c0,0,0,0,0,0c0,0,0,0,0,0c0.3,0.1,0.6,0.4,0.8,0.8l0.5,1.3c0.2,0.5,0.1,1.1-0.3,1.5c0.2,0,0.3,0,0.5,0.1c0.3,0.1,0.6,0.4,0.8,0.8
				l0.7,1.7c0.3,0.7,0,1.5-0.7,1.8C133.5,216.8,131.6,217.8,129.8,218.6z M142.8,215.1l0.8,0.1c1.8-6.8,0.9-12.2-1-18.1
				c-0.2-0.7,0.1-1.5,0.8-1.7l2-0.8c0.4-0.1,0.7-0.1,1.1,0s0.6,0.4,0.8,0.8c2.3,6,3.8,11.7,4.1,13.7c0.3,2.1-0.7,3.2-1.8,3.8
				l0.5,0.4c2.1-1,2.5-1.8,1.8-5.1c0,0,0,0,0,0c-1-5-3.4-11.6-4.7-15l-3.8,1.6c-0.4,0.1-0.8,0.1-1.1,0c-0.4-0.2-0.6-0.5-0.8-0.8
				c-0.1-0.3-0.4-1.2-0.7-2c-0.4-1.1-0.8-2.2-1-2.6c0-0.1-0.1-0.3-0.1-0.4l-0.9,0.3c0.7,1.7,0.9,2.2,2,5c0.3,0.7,0,1.6-0.8,1.9
				l-1.1,0.4l0.2,0.5l0.9-0.4c0.4-0.1,0.8-0.1,1.1,0c0.4,0.2,0.6,0.5,0.8,0.9c0.9,2.9,1.5,5.8,1.8,8.7c0.3,3.2-0.1,5.1-0.2,6
				c-0.1,0.4-0.4,0.8-0.8,1c0.2,0.4,0.3,0.8,0.2,1.2C143,214.7,142.9,214.9,142.8,215.1z M147.1,203.3c0.4,2.4,0.5,4.8,0.2,7.4
				c0.2-0.1,0.4-0.1,0.6-0.2c0.7-0.3,0.8-0.5,0.7-1.1C148.5,208.3,147.9,206,147.1,203.3z M125,204.1l2.4,5.8l0.4-0.2
				c-0.2-0.1-0.3-0.3-0.4-0.5l-0.6-1.4c-0.1-0.3-0.1-0.7,0-1.1c0,0,0,0,0,0c-0.4-0.1-0.6-0.4-0.8-0.8l-0.5-1.3
				c-0.1-0.2-0.1-0.4-0.1-0.6L125,204.1z M136,203c0.4,0.1,0.6,0.4,0.8,0.8l0.6,1.4c0.1,0.2,0.1,0.4,0.1,0.6l0.4-0.2l-2.4-5.8
				l-0.4,0.2c0.2,0.1,0.3,0.3,0.4,0.5l0.5,1.3C136.2,202.2,136.2,202.6,136,203C136,202.9,136,203,136,203z M138.8,200.2l2.2,5.4
				c-0.2-1.9-0.6-3.9-1.1-5.8l-0.8,0.3C139,200.2,138.9,200.2,138.8,200.2z"/>
			<path class="st1" d="M162.5,211.4c-0.6,0-1.1-0.3-1.3-0.9l-10.7-26.3c-0.1-0.3-0.1-0.7,0-1.1c0.1-0.3,0.4-0.6,0.8-0.8l12.3-5
				c0.3-0.1,0.7-0.1,1.1,0c0,0,0,0,0,0c0.1-0.4,0.4-0.6,0.8-0.8l12.3-5c0.7-0.3,1.6,0.1,1.8,0.8l9.3,22.9c1.7,4.3-0.8,6.1-2.5,6.7h0
				l-1.9,0.8c-0.5,0.2-1.1,0.1-1.5-0.3l-2.4-2.3l0.6,1.6c0.1,0.3,0.1,0.7,0,1.1s-0.4,0.6-0.8,0.8l-3.3,1.3c-0.7,0.3-1.6-0.1-1.8-0.8
				l-2.2-5.3l-0.2,0.1c0.5,3.5-0.3,5.7-1.9,8.8c-0.3,0.6-1,0.9-1.6,0.7l-2.1-0.6l0,0.1c0.1,0.3,0.1,0.7,0,1.1s-0.4,0.6-0.8,0.8
				l-3.5,1.4C162.8,211.4,162.7,211.4,162.5,211.4z M153.6,184.5l9.6,23.7l0.9-0.4l-6.2-15.2c-0.2-0.6-0.1-1.2,0.4-1.6
				c-0.2,0-0.4,0-0.6-0.1c-0.3-0.1-0.6-0.4-0.8-0.8l-0.6-1.4c-0.2-0.4-0.1-0.9,0.1-1.3c-0.4-0.1-0.8-0.4-1-0.8l-0.5-1.3
				c-0.1-0.3-0.1-0.7,0-1.1c0.1-0.1,0.1-0.3,0.2-0.4L153.6,184.5z M168.4,205.3l0.6,0.2c1.1-2.4,1.5-4.1,0.9-7.1
				c-0.1-0.7,0.2-1.3,0.9-1.6l2.6-1.1c0.3-0.1,0.7-0.1,1.1,0c0.3,0.1,0.6,0.4,0.8,0.8l2.2,5.3l0.7-0.3l-2.2-5.3
				c-0.1-0.3-0.1-0.7,0-1.1c0.1-0.3,0.4-0.6,0.8-0.8l2.6-1.1l-0.1-0.2l-2.6,1.1c-0.3,0.1-0.7,0.1-1.1,0c-0.3-0.1-0.6-0.4-0.8-0.8
				l-0.9-2.3c-0.3-0.7,0.1-1.6,0.8-1.8l1.8-0.7l0-0.1l-12.3,5l0,0.1l1.9-0.8c0.7-0.3,1.6,0.1,1.8,0.8c0.4,1,0.6,1.4,0.9,2.4
				c0.2,0.7-0.1,1.5-0.8,1.8l-2.8,1.1l0.1,0.2l2.4-1c0.4-0.2,0.9-0.1,1.3,0.1c0.4,0.2,0.6,0.6,0.7,1
				C169.8,201.4,169.7,203,168.4,205.3z M165,202.2l0.8,1.9c0.7-1.1,1-1.9,1.1-2.7L165,202.2z M185.9,200.7L185.9,200.7L185.9,200.7
				z M183.6,199.2l0.6,0.6l1.1-0.4c1.2-0.5,1.7-1.1,0.9-3l-8.8-21.5l-1.4,0.6c0.5,0,1,0.4,1.2,0.9l0.5,1.3c0.1,0.3,0.1,0.7,0,1.1
				c0,0.1-0.1,0.2-0.1,0.2c0.4,0.1,0.8,0.4,1,0.8l0.6,1.4c0.1,0.3,0.1,0.7,0,1.1c-0.1,0.2-0.2,0.4-0.4,0.5c0.6,0,1.2,0.3,1.4,0.9
				l5,12.2C185.8,197.3,185.2,198.6,183.6,199.2L183.6,199.2z M179,196.5l0.7,1.7c0.1-0.4,0.4-0.6,0.8-0.8l2-0.8l-0.6-1.4
				c-0.1,0.1-0.2,0.1-0.3,0.2L179,196.5z M162.7,196.7L162.7,196.7L162.7,196.7C162.8,196.7,162.7,196.7,162.7,196.7z M179.6,189.5
				c0,0.2-0.1,0.3-0.2,0.5c0.1,0,0.2-0.1,0.3-0.1L179.6,189.5z M163.6,184.6c0.4,0.1,0.8,0.4,1,0.9l0.6,1.4c0.2,0.5,0.1,1.1-0.2,1.5
				l1.3-0.5l-2.9-7.1l-1.3,0.5c0.5,0,1,0.4,1.2,0.9l0.5,1.3C163.9,183.7,163.8,184.2,163.6,184.6z M167.8,178.7l2.9,7.1l1.6-0.6
				c-0.5,0-1-0.4-1.2-0.9l-0.6-1.4c-0.1-0.3-0.1-0.7,0-1.1c0-0.1,0.1-0.2,0.1-0.2c-0.4-0.1-0.8-0.4-1-0.8l-0.5-1.3
				c-0.1-0.3-0.1-0.7,0-1.1c0.1-0.1,0.1-0.3,0.2-0.4L167.8,178.7z M170.4,196.6c-0.2,0-0.4,0-0.6-0.1c-0.4-0.2-0.6-0.5-0.8-0.8
				c-0.1-0.4-0.3-0.7-0.5-1.3l-0.4-1c-0.3-0.7,0.1-1.5,0.8-1.8l2.2-0.9c0.3-0.1,0.7-0.1,1.1,0c0.3,0.1,0.6,0.4,0.8,0.8l0.9,2.3
				c0.3,0.7-0.1,1.6-0.8,1.8l-2.3,0.9C170.8,196.6,170.6,196.6,170.4,196.6z"/>
			<path class="st1" d="M198,198c0,0-0.1,0-0.1,0l-4.1-0.4c-0.5,0-0.9-0.3-1.1-0.8c-0.2-0.4-0.2-0.9,0-1.3c1-1.8,2-4,2.4-7.1
				c-0.2,0.2-0.5,0.3-0.7,0.3l-3.6,0.6c-0.4,0.1-0.8-0.1-1.1-0.3c-0.3-0.3-0.5-0.6-0.5-1c-0.1-2.8-0.4-4.8-0.9-7.8l-0.4,0.2
				c-0.3,0.1-0.7,0.1-1.1,0c-0.3-0.1-0.6-0.4-0.8-0.8l-1.5-3.6c-0.1-0.3-0.1-0.7,0-1.1c0.1-0.3,0.4-0.6,0.8-0.8l1.7-0.7
				c-0.3-1.5-0.6-2.6-1.1-4c-0.1-0.4-0.1-0.8,0.1-1.1c0.2-0.3,0.5-0.6,0.9-0.7l3.6-0.9c1.4-0.4,2.2,0.3,2.5,1c0.3,0.7,0,1.3-0.2,1.6
				c0.1,0.6,0.3,1.1,0.4,1.6l3.1-1.3c0.7-0.3,1.5,0,1.8,0.8c0.5,1.1,0.9,2.2,1.3,3.4c0.3-0.1,0.6-0.3,1.1-0.5
				c-0.3-2.5-0.6-5.5-1.4-9.4c-0.1-0.4,0-0.8,0.2-1.1c0.2-0.3,0.5-0.5,0.9-0.6l4-0.8c1.8-0.4,2.4,0.6,2.6,1c0.2,0.6,0.2,1.4-0.5,2.1
				c0,0.4,0.1,0.8,0.1,1.2l1.6-1.8c0.5-0.5,1.2-0.6,1.8-0.3c3.4,2.1,6.3,4.6,8.6,7.4c0.4,0.6,0.4,1.4-0.1,1.9l-1.1,1.1
				c0,0.1,0.1,0.1,0.1,0.2l5.1,12.5c0.3,0.7-0.1,1.6-0.8,1.8l-3.7,1.5c-0.3,0.1-0.7,0.1-1.1,0c-0.3-0.1-0.5-0.3-0.6-0.5l-3.2,1.3
				c0.1,0.3,0,0.6-0.1,0.8c-0.1,0.3-0.4,0.6-0.8,0.8l-3.7,1.5c-0.7,0.3-1.6-0.1-1.8-0.8l-1.3-3.3L204,192c-0.2,0.4-0.6,0.6-1,0.7
				c-0.4,0.1-0.9-0.1-1.2-0.4c-0.2-0.2-0.5-0.4-0.8-0.7c-0.4,1.9-0.9,3.6-1.7,5.5C199.1,197.7,198.6,198,198,198z M196.1,195l1,0.1
				c0.8-2,1.2-3.7,1.5-6.1c0.1-0.5,0.4-0.9,0.8-1.1c0.5-0.2,1-0.2,1.4,0.1c0.7,0.5,1.2,0.8,1.6,1.2l0.5-1c-0.7-0.5-1.8-1.2-3.5-2.1
				c-0.5-0.2-0.7-0.7-0.8-1.2c-0.1-4.8-1.4-8.7-2.8-12.1l-3.3,1.4c-0.4,0.2-0.8,0.1-1.2-0.1c-0.4-0.2-0.6-0.5-0.7-0.9
				c0-0.2-0.1-0.5-0.2-0.8c-0.1-0.7-0.3-1.6-0.6-2.6l-1,0.2c0.3,1.1,0.6,2.3,1,4c0.1,0.7-0.2,1.3-0.9,1.6l-1.5,0.6l0.4,1l0.8-0.3
				c0.4-0.2,0.9-0.1,1.2,0.1s0.6,0.6,0.7,1c0.6,3.4,0.9,5.6,1.1,8.3l0.9-0.1c0,0,0,0,0,0c0-0.5,0.2-0.9,0.6-1.2
				c0.4-0.3,0.9-0.4,1.3-0.2c1.3,0.5,1.5,0.5,2.7,1.1c0.5,0.2,0.8,0.8,0.8,1.3C197.8,190.4,197,193,196.1,195z M204.6,180.9l4,9.9
				l1.1-0.4c-0.1-0.3,0-0.6,0.1-0.8c0.1-0.3,0.4-0.6,0.8-0.8l5.8-2.4c0.3-0.1,0.7-0.1,1.1,0c0.3,0.1,0.5,0.3,0.6,0.5l1.1-0.4l-4-9.9
				L204.6,180.9z M201.5,183.9c0.6,0.4,1.2,0.7,1.7,1l-1.7-4.2c0,0,0-0.1,0-0.1c-0.1,0-0.2,0-0.3,0
				C201.3,181.6,201.4,182.8,201.5,183.9z M201,176l0.6,1c0.6-0.3,1.7-0.9,1.8-0.9c3.9-1.9,7.5-3.9,8.6-4.4c0.6-0.3,1.3-0.2,1.7,0.3
				c0.3,0.3,0.5,0.5,0.7,0.7l0.8-0.9c-1.7-1.9-3.7-3.6-6-5.2l-0.6,0.7c1,0.8,1.6,1.3,2.4,2c0.4,0.3,0.5,0.8,0.5,1.3
				s-0.4,0.9-0.8,1.1c-2.4,1.2-2.9,1.3-4.4,2l-0.5,0.2c-0.4,0.2-0.9,0.2-1.3-0.1c-0.4-0.2-0.6-0.7-0.7-1.1c-0.2-3.9-0.2-5.4-0.4-8.3
				l-1.3,0.3c0.7,3.9,1.1,6.8,1.3,9.3c0.1,0.6-0.3,1.2-0.8,1.4C201.9,175.7,201.4,175.9,201,176z M206.5,169.3c0,0.4,0,0.7,0.1,1.1
				c0.3-0.1,0.6-0.3,0.9-0.4C207.2,169.8,206.8,169.6,206.5,169.3z M209.6,188.1c-0.2,0-0.4,0-0.5-0.1c-0.3-0.1-0.6-0.4-0.8-0.8
				l-1.9-4.6c-0.1-0.3-0.1-0.7,0-1.1c0.1-0.3,0.4-0.6,0.8-0.8l5.8-2.4c0.3-0.1,0.7-0.1,1.1,0c0.3,0.1,0.6,0.4,0.8,0.8l1.9,4.6
				c0.3,0.7-0.1,1.6-0.8,1.8l-5.8,2.4C210,188,209.8,188.1,209.6,188.1z M209.6,182.8l0.8,2l3.2-1.3l-0.8-2L209.6,182.8z
				 M196.3,184.5c-0.2,0-0.3,0-0.5-0.1c-1.2-0.5-1.7-0.6-2.6-0.8c-0.6-0.1-1-0.6-1-1.2c-0.3-2.2-0.5-3.8-0.8-5.3
				c-0.1-0.7,0.2-1.3,0.9-1.6l1.9-0.8c0.4-0.1,0.8-0.1,1.1,0c0.4,0.2,0.6,0.5,0.8,0.8c1.3,3.8,1.6,5.7,1.8,7.4
				c0.1,0.5-0.1,1-0.5,1.3C197,184.4,196.7,184.5,196.3,184.5z"/>
			<path class="st1" d="M227.8,185.1c-0.6,0-1.1-0.3-1.3-0.9l-1.8-4.5c-0.1-0.3-0.1-0.7,0-1.1c0.1-0.3,0.4-0.6,0.8-0.8l4.3-1.8
				c0.3-0.1,0.7-0.1,1.1,0c0.3,0.1,0.6,0.4,0.8,0.8l1.8,4.5c0.1,0.3,0.1,0.7,0,1.1s-0.4,0.6-0.8,0.8l-4.3,1.8
				C228.1,185.1,227.9,185.1,227.8,185.1z M227.8,180l0.8,1.9l1.7-0.7l-0.8-1.9L227.8,180z M224.9,177.8c-0.6,0-1.1-0.3-1.3-0.9
				l-7.4-18.2c-0.1-0.3-0.1-0.7,0-1.1c0.1-0.3,0.4-0.6,0.8-0.8l4-1.6c0.7-0.3,1.6,0.1,1.8,0.8l7.4,18.2c0.1,0.3,0.1,0.7,0,1.1
				s-0.4,0.6-0.8,0.8l-4,1.6C225.3,177.8,225.1,177.8,224.9,177.8z M219.4,159l6.3,15.5l1.3-0.5l-6.3-15.5L219.4,159z"/>
			<path class="st1" d="M238.7,180.9c-0.6,0-1.1-0.3-1.3-0.9l-1.8-4.5c-0.1-0.3-0.1-0.7,0-1.1c0.1-0.3,0.4-0.6,0.8-0.8l4.3-1.8
				c0.3-0.1,0.7-0.1,1.1,0c0.3,0.1,0.6,0.4,0.8,0.8l1.8,4.5c0.1,0.3,0.1,0.7,0,1.1s-0.4,0.6-0.8,0.8l-4.3,1.8
				C239.1,180.9,238.9,180.9,238.7,180.9z M238.7,175.7l0.8,1.9l1.7-0.7l-0.8-1.9L238.7,175.7z M235.9,173.5c-0.2,0-0.4,0-0.5-0.1
				c-0.3-0.1-0.6-0.4-0.8-0.8l-7.4-18.2c-0.3-0.7,0.1-1.6,0.8-1.8l4-1.6c0.3-0.1,0.7-0.1,1.1,0c0.3,0.1,0.6,0.4,0.8,0.8l7.4,18.2
				c0.3,0.7-0.1,1.6-0.8,1.8l-4,1.6C236.3,173.5,236.1,173.5,235.9,173.5z M230.3,154.7l6.3,15.5l1.3-0.5l-6.3-15.5L230.3,154.7z"/>
		</g>
		<g>
			<path class="st2" d="M73,178l-7.2,2.9l-1.2-3l10-4.1l-1-2.4l4.3-1.6c0.3-0.1,0.7-0.2,0.8,0.1c0.1,0.1-0.1,0.4-0.1,0.5
				c-0.1,0.2-0.2,0.4-0.1,0.6l0.4,1l10.3-4.2l1.2,3l-7.5,3l2.7-0.4c0.2-0.1,0.6-0.1,0.7,0.2c0,0.1,0,0.2-0.1,0.3
				c0,0-0.2,0.3-0.2,0.4c-0.2,2.2-0.3,2.5-0.4,3l7.5-3.1l1.2,3.1l-27.4,11.2l-1.2-3.1l7.5-3c-0.1-0.1-2-1.9-2.9-2.4L73,178z
				 M96.6,193.9l-3.5,1.4l-0.4-1l-12.5,5.1l0.4,1.1l-3.4,1.4l-5.5-13.4l19.4-7.9L96.6,193.9z M73.8,182.3l8.1-3.3
				c0.2-1.2,0.5-3,0.3-4.7l-8.6,3.5c1.4,1,1.7,1.3,3,2.5L73.8,182.3z M88.9,185L76.4,190l0.8,1.9l12.5-5.1L88.9,185z M90.7,189.4
				l-12.5,5.1l0.8,2l12.5-5.1L90.7,189.4z"/>
			<path class="st2" d="M102.9,169.2c-2.8-1-4.5-1.3-6.1-1.5l0.7-3.7c2.6,0.2,4.9,0.8,6.5,1.3L102.9,169.2z M103.4,176.6
				c-0.4,0.4-0.5,0.5-0.5,0.8c-0.1,0.7-0.1,0.7-0.3,0.7c-0.3,0.1-0.5-0.1-0.8-0.3l-2.9-2.6c2.2-1.8,4.3-3.8,6.3-5.9l1.9,3
				C105.5,174.3,104.6,175.4,103.4,176.6z M130.8,180.4c-5,0.1-7.9-0.5-12.1-2.4l2.7,6.7l-3.9,1.6l-2.8-6.9c-0.6,1.7-1.3,3.4-3,6.1
				c-1.5,2.4-2.7,3.5-3.8,4.6l-4.1-2c2.4-1.8,4.7-3.8,7.3-8.9l-8.6,3.5l-1.3-3.2l11.6-4.7l-0.6-1.5l-3.6,1.5l-5-12.3l2.9-1.2
				c0-0.8,0.1-1.5,0-2.3l3.7-1.2c0.1-0.1,0.7-0.2,0.9,0.1c0.1,0.1,0,0.3,0,0.4c0,0.1-0.4,0.4-0.4,0.5c-0.1,0.1-0.1,0.8-0.1,1
				l4.5-1.8l5,12.3l-4,1.6c0.4-0.1,0.7-0.1,0.8,0.2c0.1,0.3-0.2,0.6-0.4,0.7l0.2,0.6l11.9-4.9l1.3,3.2l-9.2,3.8
				c2.7,1,5.6,1.8,11.8,0.8L130.8,180.4z M112.9,161.8l-5,2l0.9,2.3l5-2L112.9,161.8z M114.8,166.5l-5,2l1,2.4l5-2L114.8,166.5z
				 M123.6,156.6c-0.5,0.2-0.6,0.4-0.7,0.7c-1.1,2.4-1.3,3-2.4,5l-3.8-1c1.3-2.1,2.2-4.1,2.9-6.5l3.7,0.9c0.2,0,0.6,0.2,0.7,0.4
				C124.1,156.4,123.9,156.4,123.6,156.6z M126.3,168.1c-2.6-0.9-5.3-1.3-7.3-1.5l0.9-3.6c2.4,0.2,5,0.7,7.6,1.4L126.3,168.1z"/>
			<path class="st2" d="M136.3,174.3l-1.4-3.5l14.6-6l-2.9-12.3l-11.4,4.7l-1.5-3.6l16-6.5l3.7,16.2l7.6-3.1l1.4,3.5L136.3,174.3z"
				/>
			<path class="st2" d="M164.6,146l-1.5-3.8l17.2-7l1.5,3.8L164.6,146z M167.2,162.1l-1.5-3.8l23.9-9.7l1.5,3.8L167.2,162.1z"/>
			<path class="st2" d="M195.5,142.2c-1.3-1.6-2.8-2.9-4.5-4.1l2.5-2.3c1.8,1.2,3.3,2.6,4.5,4.1L195.5,142.2z M200.7,138.3
				c-1.3-1.7-2.7-3-4.4-4.2l2.4-2.2c1.9,1.4,3.4,3.1,4.3,4.3L200.7,138.3z M209.7,129.8c-0.2,0.3-0.2,0.4,0,1.8
				c1.6,10.7-3.3,17.1-5.6,20.1l-3.5-1.2c4.9-5.6,7.5-11.7,5-21.2l3.5-0.3c0.5,0,0.8,0.1,0.9,0.3C210.1,129.5,210,129.5,209.7,129.8
				z"/>
			<path class="st2" d="M234.4,130.9c-3.3-1.2-7.5-2.5-12-2.6l5.6,13.8l-3.8,1.5L214,118.4l4.1-0.9c0.1,0,0.8-0.2,1,0.2
				c0.1,0.2-0.5,1-0.5,1.2l3.4,8.4l0.5-3c1.9,0,3.1,0,6.6,0.7c3.2,0.6,4.8,1.2,6.5,1.8L234.4,130.9z"/>
			<path class="st2" d="M93.3,211.4c-1.4-0.4-3.4-0.8-5.6-1l0.8-3.6c1.1,0.1,3.4,0.3,5.6,0.9L93.3,211.4z M95.1,220.6
				c-1-0.3-3.5-1-6-1.3l0.8-3.6c2.1,0.2,4.2,0.6,6.2,1.2L95.1,220.6z M100.3,231.8c-0.1,1.4-0.1,1.5,0,1.7c0,0.1,0.2,0.4,0.2,0.4
				c0.1,0.3,0,0.4-0.1,0.4c-0.1,0.1-0.5,0-0.8,0l-3.9-0.5c0.8-3.9,0.9-7.8,0.6-11l3.9,0.8C100.4,227.3,100.3,230.9,100.3,231.8z
				 M109.7,211.1l1.5,3.8l6.1-2.5l5.1,12.5l-3.6,1.5l-0.5-1.2l-9.4,3.8l0.5,1.3l-3.5,1.4l-5.1-12.6l6.6-2.7l-1.5-3.8l-7.6,3.1
				l-1.2-3l7.6-3.1l-1.3-3.1c-3,1.7-4.2,2.2-5.2,2.6l-2.6-2.5c4.8-1.8,11.1-5.5,13.6-8l3.2,1.4c0.2,0.1,0.6,0.2,0.7,0.5
				c0.1,0.2-0.1,0.3-0.3,0.4c-0.2,0.1-0.9,0.2-0.9,0.3c-0.2,0.1-1.1,0.8-1.3,0.9c-0.4,0.2-2,1.3-3.7,2.4l1.5,3.7l7.9-3.2l1.2,3
				L109.7,211.1z M115,216.9l-9.4,3.8l2.1,5.1l9.4-3.8L115,216.9z"/>
			<path class="st2" d="M153.3,207.9c0.9,4.3,0,5.6-3.5,7.1l-2.9-2.7c0.4-0.1,1-0.2,1.6-0.5c1.4-0.6,1.7-1.5,1.5-2.6
				c-0.3-2-1.8-7.7-4-13.4l-2,0.8c2.1,6.5,2.9,12.4,0.7,20.1l-3.9-0.3c0.3-0.6,0.5-1,0.9-2.4c-1.5,0.8-8.6,4.7-10.3,5.6
				c-0.7,0.4-0.8,0.4-0.8,0.8c-0.1,0.5-0.2,0.6-0.4,0.7c-0.3,0.1-0.5,0-0.7-0.4l-1.6-2.7c1.9-0.9,4.8-2.3,5.9-2.9l-0.7-1.7l-5.2,2.1
				l-1-2.4l5.2-2.1l-0.5-1.3l-4.9,2l-3.4-8.4l4.9-2l-0.6-1.4l-6.2,2.5l-1-2.4l6.2-2.5l-0.5-1.3c-0.6,0.3-1.7,0.8-3.9,1.7l-2.1-2.1
				c3.9-1.4,7.7-3.1,11-5.6l2.4,1.4c0.2,0.1,0.4,0.2,0.4,0.4c0.1,0.1,0,0.3-0.3,0.4c-0.1,0.1-1,0.1-1.2,0.2
				c-0.2,0.1-1.1,0.7-1.3,0.8c0,0-1.3,0.7-2,1.1l0.7,1.6l6.3-2.6l1,2.4l-6.3,2.6l0.6,1.4l5-2l3.4,8.4l-5,2l0.5,1.3l5.1-2.1l1,2.4
				l-5.1,2.1l0.6,1.5c2.9-1.5,3.3-1.7,5-2.6l0.4,0.9c0.2-1,0.5-2.7,0.2-5.6c-0.3-3.7-1.2-6.7-1.7-8.4l-2.2,0.9l-1.3-3.2l2.4-1
				c-1.4-3.5-1.4-3.5-2.6-6.4l3.5-1.2c0.3-0.1,0.8-0.3,0.9,0.1c0.1,0.2,0,0.3,0,0.5c-0.3,0.7-0.4,0.7-0.3,1.1
				c0.2,0.6,1.4,3.9,1.7,4.6l5.2-2.1C149.1,194,152.2,201.9,153.3,207.9z M128.9,203.2l-2,0.8l0.5,1.3l2-0.8L128.9,203.2z
				 M130.2,206.4l-2,0.8l0.6,1.4l2-0.8L130.2,206.4z M134.2,201l-2,0.8l0.5,1.3l2-0.8L134.2,201z M135.5,204.3l-2,0.8l0.6,1.4l2-0.8
				L135.5,204.3z"/>
			<path class="st2" d="M159.3,192.1l6.7,16.5l-3.5,1.4l-10.7-26.3l12.3-5l4,9.8L159.3,192.1z M161.9,182.5l-5.5,2.3l0.5,1.3
				l5.5-2.3L161.9,182.5z M163.3,186l-5.5,2.3l0.6,1.4l5.5-2.3L163.3,186z M177.2,195.7l2.7,6.6l-3.3,1.3l-2.7-6.6l-2.6,1.1
				c0.7,3.7,0.1,5.8-1.6,9l-3.6-1c2.1-3,2.3-4.4,2-6.7l-3.8,1.5l-1.2-2.8l4.1-1.7c-0.3-1-0.5-1.4-0.9-2.4l-3.2,1.3l-1.1-2.7l15-6.1
				l1.1,2.7l-3.1,1.3l0.9,2.3l3.9-1.6l1.2,2.8L177.2,195.7z M185.9,200.7l-1.9,0.8l-2.9-2.7l2.1-0.9c0.8-0.3,1.1-0.8,0.8-1.6
				l-5-12.2l-8.9,3.6l-4-9.8l12.3-5l9.3,22.9C188.4,197.8,188.3,199.7,185.9,200.7z M171.8,191.9l-2.2,0.9c0.5,1.4,0.7,1.7,0.9,2.4
				l2.3-0.9L171.8,191.9z M175.9,176.8l-5.5,2.2l0.5,1.3l5.5-2.2L175.9,176.8z M177.3,180.2l-5.5,2.2l0.6,1.4l5.5-2.2L177.3,180.2z"
				/>
			<path class="st2" d="M202.8,191.3c-0.7-0.6-1.3-1.2-2.8-2.2c-0.3,3-0.9,5-2,7.5l-4.1-0.4c1.4-2.5,2.5-5.3,2.7-9.1
				c-1.1-0.5-1.3-0.6-2.5-1.1c0,0.4,0.1,0.8,0,1.3l-3.6,0.6c-0.2-3.4-0.5-5.6-1.2-9.7l-2.1,0.8l-1.5-3.6l2.8-1.1
				c-0.5-2.3-0.8-3.6-1.4-5.3l3.6-0.9c0.3-0.1,0.7-0.1,0.8,0.2c0.1,0.2,0,0.3-0.1,0.5c-0.2,0.3-0.2,0.4-0.2,0.6
				c0.4,1.6,0.7,3,0.8,3.6l4.6-1.9c1.5,3.4,3.2,8,3.4,13.9c2.9,1.6,4.1,2.5,4.7,3L202.8,191.3z M192.8,176.7
				c0.4,1.8,0.6,3.6,0.8,5.4c1,0.3,1.5,0.4,2.7,0.9c-0.2-1.7-0.5-3.5-1.7-7.1L192.8,176.7z M214.3,174.8c-0.3-0.4-0.7-0.9-1.6-1.9
				c-1.9,1.1-5.4,2.9-8.7,4.5c-0.2,0.1-1.6,0.8-1.8,0.9c-0.1,0.1-0.4,0.8-0.6,0.9c-0.2,0.1-0.4-0.1-0.7-0.6l-2-3.2
				c0.4-0.2,0.7-0.3,3-1.3c-0.3-2.9-0.6-6-1.6-10.6l4-0.8c0.4-0.1,0.9-0.1,1,0.2c0.1,0.3-0.1,0.5-0.3,0.6c-0.3,0.3-0.3,0.3-0.3,0.5
				c0.2,3.1,0.3,4.6,0.4,8.5c1.9-0.9,2.2-1,4.8-2.2c-1-0.9-1.7-1.4-3.5-2.8l2.4-2.7c2.5,1.5,5.6,3.8,8.2,7.1L214.3,174.8z
				 M217.3,188.8l-0.4-1.1l-5.8,2.4l0.4,1.1l-3.7,1.5l-5.1-12.5l13.1-5.4l5.1,12.5L217.3,188.8z M213.6,179.6l-5.8,2.4l1.9,4.6
				l5.8-2.4L213.6,179.6z"/>
			<path class="st2" d="M217.5,158.2l4-1.6l7.4,18.2l-4,1.6L217.5,158.2z M225.9,179.2l4.3-1.8l1.8,4.5l-4.3,1.8L225.9,179.2z"/>
			<path class="st2" d="M228.5,154l4-1.6l7.4,18.2l-4,1.6L228.5,154z M236.9,175l4.3-1.8l1.8,4.5l-4.3,1.8L236.9,175z"/>
		</g>
		<g>
			<path class="st0" d="M73,178l-7.2,2.9l-1.2-3l10-4.1l-1-2.4l4.3-1.6c0.3-0.1,0.7-0.2,0.8,0.1c0.1,0.1-0.1,0.4-0.1,0.5
				c-0.1,0.2-0.2,0.4-0.1,0.6l0.4,1l10.3-4.2l1.2,3l-7.5,3l2.7-0.4c0.2-0.1,0.6-0.1,0.7,0.2c0,0.1,0,0.2-0.1,0.3
				c0,0-0.2,0.3-0.2,0.4c-0.2,2.2-0.3,2.5-0.4,3l7.5-3.1l1.2,3.1l-27.4,11.2l-1.2-3.1l7.5-3c-0.1-0.1-2-1.9-2.9-2.4L73,178z
				 M96.6,193.9l-3.5,1.4l-0.4-1l-12.5,5.1l0.4,1.1l-3.4,1.4l-5.5-13.4l19.4-7.9L96.6,193.9z M73.8,182.3l8.1-3.3
				c0.2-1.2,0.5-3,0.3-4.7l-8.6,3.5c1.4,1,1.7,1.3,3,2.5L73.8,182.3z M88.9,185L76.4,190l0.8,1.9l12.5-5.1L88.9,185z M90.7,189.4
				l-12.5,5.1l0.8,2l12.5-5.1L90.7,189.4z"/>
			<path class="st0" d="M102.9,169.2c-2.8-1-4.5-1.3-6.1-1.5l0.7-3.7c2.6,0.2,4.9,0.8,6.5,1.3L102.9,169.2z M103.4,176.6
				c-0.4,0.4-0.5,0.5-0.5,0.8c-0.1,0.7-0.1,0.7-0.3,0.7c-0.3,0.1-0.5-0.1-0.8-0.3l-2.9-2.6c2.2-1.8,4.3-3.8,6.3-5.9l1.9,3
				C105.5,174.3,104.6,175.4,103.4,176.6z M130.8,180.4c-5,0.1-7.9-0.5-12.1-2.4l2.7,6.7l-3.9,1.6l-2.8-6.9c-0.6,1.7-1.3,3.4-3,6.1
				c-1.5,2.4-2.7,3.5-3.8,4.6l-4.1-2c2.4-1.8,4.7-3.8,7.3-8.9l-8.6,3.5l-1.3-3.2l11.6-4.7l-0.6-1.5l-3.6,1.5l-5-12.3l2.9-1.2
				c0-0.8,0.1-1.5,0-2.3l3.7-1.2c0.1-0.1,0.7-0.2,0.9,0.1c0.1,0.1,0,0.3,0,0.4c0,0.1-0.4,0.4-0.4,0.5c-0.1,0.1-0.1,0.8-0.1,1
				l4.5-1.8l5,12.3l-4,1.6c0.4-0.1,0.7-0.1,0.8,0.2c0.1,0.3-0.2,0.6-0.4,0.7l0.2,0.6l11.9-4.9l1.3,3.2l-9.2,3.8
				c2.7,1,5.6,1.8,11.8,0.8L130.8,180.4z M112.9,161.8l-5,2l0.9,2.3l5-2L112.9,161.8z M114.8,166.5l-5,2l1,2.4l5-2L114.8,166.5z
				 M123.6,156.6c-0.5,0.2-0.6,0.4-0.7,0.7c-1.1,2.4-1.3,3-2.4,5l-3.8-1c1.3-2.1,2.2-4.1,2.9-6.5l3.7,0.9c0.2,0,0.6,0.2,0.7,0.4
				C124.1,156.4,123.9,156.4,123.6,156.6z M126.3,168.1c-2.6-0.9-5.3-1.3-7.3-1.5l0.9-3.6c2.4,0.2,5,0.7,7.6,1.4L126.3,168.1z"/>
			<path class="st0" d="M136.3,174.3l-1.4-3.5l14.6-6l-2.9-12.3l-11.4,4.7l-1.5-3.6l16-6.5l3.7,16.2l7.6-3.1l1.4,3.5L136.3,174.3z"
				/>
			<path class="st0" d="M164.6,146l-1.5-3.8l17.2-7l1.5,3.8L164.6,146z M167.2,162.1l-1.5-3.8l23.9-9.7l1.5,3.8L167.2,162.1z"/>
			<path class="st0" d="M195.5,142.2c-1.3-1.6-2.8-2.9-4.5-4.1l2.5-2.3c1.8,1.2,3.3,2.6,4.5,4.1L195.5,142.2z M200.7,138.3
				c-1.3-1.7-2.7-3-4.4-4.2l2.4-2.2c1.9,1.4,3.4,3.1,4.3,4.3L200.7,138.3z M209.7,129.8c-0.2,0.3-0.2,0.4,0,1.8
				c1.6,10.7-3.3,17.1-5.6,20.1l-3.5-1.2c4.9-5.6,7.5-11.7,5-21.2l3.5-0.3c0.5,0,0.8,0.1,0.9,0.3C210.1,129.5,210,129.5,209.7,129.8
				z"/>
			<path class="st0" d="M234.4,130.9c-3.3-1.2-7.5-2.5-12-2.6l5.6,13.8l-3.8,1.5L214,118.4l4.1-0.9c0.1,0,0.8-0.2,1,0.2
				c0.1,0.2-0.5,1-0.5,1.2l3.4,8.4l0.5-3c1.9,0,3.1,0,6.6,0.7c3.2,0.6,4.8,1.2,6.5,1.8L234.4,130.9z"/>
			<path class="st0" d="M93.3,211.4c-1.4-0.4-3.4-0.8-5.6-1l0.8-3.6c1.1,0.1,3.4,0.3,5.6,0.9L93.3,211.4z M95.1,220.6
				c-1-0.3-3.5-1-6-1.3l0.8-3.6c2.1,0.2,4.2,0.6,6.2,1.2L95.1,220.6z M100.3,231.8c-0.1,1.4-0.1,1.5,0,1.7c0,0.1,0.2,0.4,0.2,0.4
				c0.1,0.3,0,0.4-0.1,0.4c-0.1,0.1-0.5,0-0.8,0l-3.9-0.5c0.8-3.9,0.9-7.8,0.6-11l3.9,0.8C100.4,227.3,100.3,230.9,100.3,231.8z
				 M109.7,211.1l1.5,3.8l6.1-2.5l5.1,12.5l-3.6,1.5l-0.5-1.2l-9.4,3.8l0.5,1.3l-3.5,1.4l-5.1-12.6l6.6-2.7l-1.5-3.8l-7.6,3.1
				l-1.2-3l7.6-3.1l-1.3-3.1c-3,1.7-4.2,2.2-5.2,2.6l-2.6-2.5c4.8-1.8,11.1-5.5,13.6-8l3.2,1.4c0.2,0.1,0.6,0.2,0.7,0.5
				c0.1,0.2-0.1,0.3-0.3,0.4c-0.2,0.1-0.9,0.2-0.9,0.3c-0.2,0.1-1.1,0.8-1.3,0.9c-0.4,0.2-2,1.3-3.7,2.4l1.5,3.7l7.9-3.2l1.2,3
				L109.7,211.1z M115,216.9l-9.4,3.8l2.1,5.1l9.4-3.8L115,216.9z"/>
			<path class="st0" d="M153.3,207.9c0.9,4.3,0,5.6-3.5,7.1l-2.9-2.7c0.4-0.1,1-0.2,1.6-0.5c1.4-0.6,1.7-1.5,1.5-2.6
				c-0.3-2-1.8-7.7-4-13.4l-2,0.8c2.1,6.5,2.9,12.4,0.7,20.1l-3.9-0.3c0.3-0.6,0.5-1,0.9-2.4c-1.5,0.8-8.6,4.7-10.3,5.6
				c-0.7,0.4-0.8,0.4-0.8,0.8c-0.1,0.5-0.2,0.6-0.4,0.7c-0.3,0.1-0.5,0-0.7-0.4l-1.6-2.7c1.9-0.9,4.8-2.3,5.9-2.9l-0.7-1.7l-5.2,2.1
				l-1-2.4l5.2-2.1l-0.5-1.3l-4.9,2l-3.4-8.4l4.9-2l-0.6-1.4l-6.2,2.5l-1-2.4l6.2-2.5l-0.5-1.3c-0.6,0.3-1.7,0.8-3.9,1.7l-2.1-2.1
				c3.9-1.4,7.7-3.1,11-5.6l2.4,1.4c0.2,0.1,0.4,0.2,0.4,0.4c0.1,0.1,0,0.3-0.3,0.4c-0.1,0.1-1,0.1-1.2,0.2
				c-0.2,0.1-1.1,0.7-1.3,0.8c0,0-1.3,0.7-2,1.1l0.7,1.6l6.3-2.6l1,2.4l-6.3,2.6l0.6,1.4l5-2l3.4,8.4l-5,2l0.5,1.3l5.1-2.1l1,2.4
				l-5.1,2.1l0.6,1.5c2.9-1.5,3.3-1.7,5-2.6l0.4,0.9c0.2-1,0.5-2.7,0.2-5.6c-0.3-3.7-1.2-6.7-1.7-8.4l-2.2,0.9l-1.3-3.2l2.4-1
				c-1.4-3.5-1.4-3.5-2.6-6.4l3.5-1.2c0.3-0.1,0.8-0.3,0.9,0.1c0.1,0.2,0,0.3,0,0.5c-0.3,0.7-0.4,0.7-0.3,1.1
				c0.2,0.6,1.4,3.9,1.7,4.6l5.2-2.1C149.1,194,152.2,201.9,153.3,207.9z M128.9,203.2l-2,0.8l0.5,1.3l2-0.8L128.9,203.2z
				 M130.2,206.4l-2,0.8l0.6,1.4l2-0.8L130.2,206.4z M134.2,201l-2,0.8l0.5,1.3l2-0.8L134.2,201z M135.5,204.3l-2,0.8l0.6,1.4l2-0.8
				L135.5,204.3z"/>
			<path class="st0" d="M159.3,192.1l6.7,16.5l-3.5,1.4l-10.7-26.3l12.3-5l4,9.8L159.3,192.1z M161.9,182.5l-5.5,2.3l0.5,1.3
				l5.5-2.3L161.9,182.5z M163.3,186l-5.5,2.3l0.6,1.4l5.5-2.3L163.3,186z M177.2,195.7l2.7,6.6l-3.3,1.3l-2.7-6.6l-2.6,1.1
				c0.7,3.7,0.1,5.8-1.6,9l-3.6-1c2.1-3,2.3-4.4,2-6.7l-3.8,1.5l-1.2-2.8l4.1-1.7c-0.3-1-0.5-1.4-0.9-2.4l-3.2,1.3l-1.1-2.7l15-6.1
				l1.1,2.7l-3.1,1.3l0.9,2.3l3.9-1.6l1.2,2.8L177.2,195.7z M185.9,200.7l-1.9,0.8l-2.9-2.7l2.1-0.9c0.8-0.3,1.1-0.8,0.8-1.6
				l-5-12.2l-8.9,3.6l-4-9.8l12.3-5l9.3,22.9C188.4,197.8,188.3,199.7,185.9,200.7z M171.8,191.9l-2.2,0.9c0.5,1.4,0.7,1.7,0.9,2.4
				l2.3-0.9L171.8,191.9z M175.9,176.8l-5.5,2.2l0.5,1.3l5.5-2.2L175.9,176.8z M177.3,180.2l-5.5,2.2l0.6,1.4l5.5-2.2L177.3,180.2z"
				/>
			<path class="st0" d="M202.8,191.3c-0.7-0.6-1.3-1.2-2.8-2.2c-0.3,3-0.9,5-2,7.5l-4.1-0.4c1.4-2.5,2.5-5.3,2.7-9.1
				c-1.1-0.5-1.3-0.6-2.5-1.1c0,0.4,0.1,0.8,0,1.3l-3.6,0.6c-0.2-3.4-0.5-5.6-1.2-9.7l-2.1,0.8l-1.5-3.6l2.8-1.1
				c-0.5-2.3-0.8-3.6-1.4-5.3l3.6-0.9c0.3-0.1,0.7-0.1,0.8,0.2c0.1,0.2,0,0.3-0.1,0.5c-0.2,0.3-0.2,0.4-0.2,0.6
				c0.4,1.6,0.7,3,0.8,3.6l4.6-1.9c1.5,3.4,3.2,8,3.4,13.9c2.9,1.6,4.1,2.5,4.7,3L202.8,191.3z M192.8,176.7
				c0.4,1.8,0.6,3.6,0.8,5.4c1,0.3,1.5,0.4,2.7,0.9c-0.2-1.7-0.5-3.5-1.7-7.1L192.8,176.7z M214.3,174.8c-0.3-0.4-0.7-0.9-1.6-1.9
				c-1.9,1.1-5.4,2.9-8.7,4.5c-0.2,0.1-1.6,0.8-1.8,0.9c-0.1,0.1-0.4,0.8-0.6,0.9c-0.2,0.1-0.4-0.1-0.7-0.6l-2-3.2
				c0.4-0.2,0.7-0.3,3-1.3c-0.3-2.9-0.6-6-1.6-10.6l4-0.8c0.4-0.1,0.9-0.1,1,0.2c0.1,0.3-0.1,0.5-0.3,0.6c-0.3,0.3-0.3,0.3-0.3,0.5
				c0.2,3.1,0.3,4.6,0.4,8.5c1.9-0.9,2.2-1,4.8-2.2c-1-0.9-1.7-1.4-3.5-2.8l2.4-2.7c2.5,1.5,5.6,3.8,8.2,7.1L214.3,174.8z
				 M217.3,188.8l-0.4-1.1l-5.8,2.4l0.4,1.1l-3.7,1.5l-5.1-12.5l13.1-5.4l5.1,12.5L217.3,188.8z M213.6,179.6l-5.8,2.4l1.9,4.6
				l5.8-2.4L213.6,179.6z"/>
			<path class="st0" d="M217.5,158.2l4-1.6l7.4,18.2l-4,1.6L217.5,158.2z M225.9,179.2l4.3-1.8l1.8,4.5l-4.3,1.8L225.9,179.2z"/>
			<path class="st0" d="M228.5,154l4-1.6l7.4,18.2l-4,1.6L228.5,154z M236.9,175l4.3-1.8l1.8,4.5l-4.3,1.8L236.9,175z"/>
		</g>
	</g>
</g>
</svg>
