<?xml version="1.0" encoding="utf-8"?>
<!-- Generator: Adobe Illustrator 23.0.4, SVG Export Plug-In . SVG Version: 6.00 Build 0)  -->
<svg version="1.1" xmlns="http://www.w3.org/2000/svg" xmlns:xlink="http://www.w3.org/1999/xlink" x="0px" y="0px" width="136.4px"
	 height="817.5px" viewBox="0 0 136.4 817.5" style="enable-background:new 0 0 136.4 817.5;" xml:space="preserve">
<style type="text/css">
	.st0{display:none;}
	.st1{fill:#FFFFFF;}
	.st2{fill:#231815;}
	.st3{fill:#040000;}
</style>
<g id="テキスト" class="st0">
</g>
<g id="テキストのコピー" class="st0">
</g>
<g id="テキストのコピー_2">
	<g>
		<rect x="76.9" y="0.6" class="st1" width="58.9" height="58.9"/>
		<path class="st2" d="M135.3,1.1v57.8H77.5V1.1H135.3 M136.4,0H76.4v60.1h60.1V0L136.4,0z"/>
	</g>
	<g>
		<rect x="76.9" y="58.9" class="st1" width="58.9" height="58.9"/>
		<path class="st2" d="M135.3,59.4v57.8H77.5V59.4H135.3 M136.4,58.3H76.4v60.1h60.1V58.3L136.4,58.3z"/>
	</g>
	<g>
		<rect x="76.9" y="117.2" class="st1" width="58.9" height="58.9"/>
		<path class="st2" d="M135.3,117.7v57.8H77.5v-57.8H135.3 M136.4,116.6H76.4v60.1h60.1V116.6L136.4,116.6z"/>
	</g>
	<g>
		<rect x="76.9" y="175.5" class="st1" width="58.9" height="58.9"/>
		<path class="st2" d="M135.3,176v57.8H77.5V176H135.3 M136.4,174.9H76.4V235h60.1V174.9L136.4,174.9z"/>
	</g>
	<g>
		<rect x="76.9" y="233.8" class="st1" width="58.9" height="58.9"/>
		<path class="st2" d="M135.3,234.3v57.8H77.5v-57.8H135.3 M136.4,233.2H76.4v60.1h60.1V233.2L136.4,233.2z"/>
	</g>
	<g>
		<rect x="76.9" y="292.1" class="st1" width="58.9" height="58.9"/>
		<path class="st2" d="M135.3,292.6v57.8H77.5v-57.8H135.3 M136.4,291.5H76.4v60.1h60.1V291.5L136.4,291.5z"/>
	</g>
	<g>
		<rect x="0.6" y="0.6" class="st1" width="58.9" height="58.9"/>
		<path class="st2" d="M58.9,1.1v57.8H1.1V1.1H58.9 M60.1,0H0v60.1h60.1V0L60.1,0z"/>
	</g>
	<g>
		<rect x="0.6" y="58.9" class="st1" width="58.9" height="58.9"/>
		<path class="st2" d="M58.9,59.4v57.8H1.1V59.4H58.9 M60.1,58.3H0v60.1h60.1V58.3L60.1,58.3z"/>
	</g>
	<g>
		<rect x="0.6" y="117.2" class="st1" width="58.9" height="58.9"/>
		<path class="st2" d="M58.9,117.7v57.8H1.1v-57.8H58.9 M60.1,116.6H0v60.1h60.1V116.6L60.1,116.6z"/>
	</g>
	<g>
		<rect x="0.6" y="175.5" class="st1" width="58.9" height="58.9"/>
		<path class="st2" d="M58.9,176v57.8H1.1V176H58.9 M60.1,174.9H0V235h60.1V174.9L60.1,174.9z"/>
	</g>
	<g>
		<rect x="0.6" y="233.8" class="st1" width="58.9" height="58.9"/>
		<path class="st2" d="M58.9,234.3v57.8H1.1v-57.8H58.9 M60.1,233.2H0v60.1h60.1V233.2L60.1,233.2z"/>
	</g>
	<g>
		<rect x="0.6" y="292.1" class="st1" width="58.9" height="58.9"/>
		<path class="st2" d="M58.9,292.6v57.8H1.1v-57.8H58.9 M60.1,291.5H0v60.1h60.1V291.5L60.1,291.5z"/>
	</g>
	<g>
		<rect x="0.6" y="350.4" class="st1" width="58.9" height="58.9"/>
		<path class="st2" d="M58.9,350.9v57.8H1.1v-57.8H58.9 M60.1,349.8H0v60.1h60.1V349.8L60.1,349.8z"/>
	</g>
	<g>
		<rect x="0.6" y="408.7" class="st1" width="58.9" height="58.9"/>
		<path class="st2" d="M58.9,409.2V467H1.1v-57.8H58.9 M60.1,408.1H0v60.1h60.1V408.1L60.1,408.1z"/>
	</g>
	<g>
		<rect x="0.6" y="467" class="st1" width="58.9" height="58.9"/>
		<path class="st2" d="M58.9,467.5v57.8H1.1v-57.8H58.9 M60.1,466.4H0v60.1h60.1V466.4L60.1,466.4z"/>
	</g>
	<g>
		<rect x="0.6" y="525.3" class="st1" width="58.9" height="58.9"/>
		<path class="st2" d="M58.9,525.8v57.8H1.1v-57.8H58.9 M60.1,524.7H0v60.1h60.1V524.7L60.1,524.7z"/>
	</g>
	<g>
		<rect x="0.6" y="583.6" class="st1" width="58.9" height="58.9"/>
		<path class="st2" d="M58.9,584.1v57.8H1.1v-57.8H58.9 M60.1,583H0V643h60.1V583L60.1,583z"/>
	</g>
	<g>
		<rect x="0.6" y="641.4" class="st1" width="58.9" height="58.9"/>
		<path class="st2" d="M58.9,642v57.8H1.1V642H58.9 M60.1,640.9H0v60.1h60.1V640.9L60.1,640.9z"/>
	</g>
	<g>
		<rect x="0.6" y="699.7" class="st1" width="58.9" height="58.9"/>
		<path class="st2" d="M58.9,700.3v57.8H1.1v-57.8H58.9 M60.1,699.2H0v60.1h60.1V699.2L60.1,699.2z"/>
	</g>
	<g>
		<rect x="0.6" y="758" class="st1" width="58.9" height="58.9"/>
		<path class="st2" d="M58.9,758.6v57.8H1.1v-57.8H58.9 M60.1,757.5H0v60.1h60.1V757.5L60.1,757.5z"/>
	</g>
	<g>
		<g>
			<path class="st3" d="M36.5,28.2c2.7,5.1,4,6.9,5.7,8.9l-2.6,3.3c-2.1-1.1-6.3-3.3-11.3-3.3c-2.8,0-5.2,1.2-5.2,3.5
				c0,3.7,5.6,3.7,7.1,3.7c4.1,0,6.5-0.6,8.6-1.2l-0.4,5.1c-1.2,0.2-3.4,0.5-6.8,0.5c-7.7,0-13.1-2.5-13.1-8.1
				c0-5.9,4.6-7.5,9.5-7.5c2.2,0,4,0.3,6.1,0.7c-1-1.8-1.4-2.6-2.2-4.2c-4.5,1.1-8.2,1.8-13.8,1.9l-1.5-4.3c6.1,0,8.9-0.3,13.5-1.3
				c-0.6-1.5-1.1-2.5-1.5-3.5c-4.3,0.9-6.8,1.1-10.2,1.2L17,19.4c4.1,0,6.3-0.2,10-0.9c-1-2.7-1.5-4-2.1-6.1l4.9-0.6
				c0.3,0,1.4-0.2,1.4,0.3c0,0.2-0.1,0.3-0.3,0.6c-0.3,0.3-0.4,0.5-0.4,0.6c0,0.3,0.7,2.4,1.3,4c2.9-1,4.6-1.8,7.4-3.3l0.9,4.2
				c-2.5,1.5-4.8,2.3-6.8,2.9c0.6,1.3,0.7,1.8,1.4,3.3c3.1-1.2,4.9-2.1,7.8-3.9l0.8,4.3C40.9,26.4,39.1,27.2,36.5,28.2z"/>
			<path class="st3" d="M44.8,98.4c-2.3-1.8-3.5-2.6-4.5-3.2c-2.5,5.3-4.5,7.7-8.5,10.7l-4.3-3c3.8-2.5,6-4.6,8.6-10.1
				c-3.3-1.5-5.3-2-8.6-2.4c-4.3,9.1-6.1,11.9-9.9,11.9c-2.9,0-4.9-2.4-4.9-5.5c0-3.3,2.1-6.5,5.1-8.5c2.9-2,5.3-2,6.8-2.1
				c1.2-3,2.2-5.4,3.5-9.3c-3.9,1-5.4,1.3-7.8,1.3l-1.9-4.3c6.6,0,11.7-0.8,14-2.3l2.8,2.8C34.7,75.1,33.9,76,33,78
				c0,0.2-3.1,7.1-3.7,8.4c3.7,0.4,5.7,0.9,8.3,2c0.7-3,0.9-4.7,1.1-7.9l4.8,1.3c0.4,0.1,1,0.3,1,0.7c0,0.2,0,0.3-0.6,0.6
				c-0.3,0.2-0.3,0.3-0.5,0.9c-0.4,2.2-0.6,3.5-1.5,6.4c2.4,1.3,3.7,2.1,5.5,3.4L44.8,98.4z M17.3,95.7c0,1.1,0.6,1.2,0.9,1.2
				c0.5,0,1.1,0,1.8-1c0.9-1.3,2.5-4.7,2.8-5.3C19.1,91.7,17.3,94.2,17.3,95.7z"/>
			<path class="st3" d="M32.7,160.3c-0.9,0.9-2.3,1.7-4.9,1.7c-1.3,0-2.5-0.1-3.2-0.2l-1-4.6c0.8,0.2,1.7,0.3,2.9,0.3
				c1.3,0,2.2-0.3,3-1.2c1.9-2.4,2.3-7.8,2.3-9.9c0-3.3-0.8-4.3-3.5-4.3c-0.9,0-1.8,0.1-2.3,0.2c-2.2,8.8-4.3,14-8.2,19.9l-4.5-2
				c4-5.8,6.1-10,7.8-16.8c-2.3,0.7-3.7,1.3-5.8,2.3l-1.6-5.2c3.3-0.5,4.7-0.8,8.3-1.6c0.3-2.8,0.5-4.6,0.4-8.2l5.2,0.7
				c0.6,0.1,1,0.3,1,0.6c0,0.2,0,0.2-0.5,0.5c-0.5,0.3-0.5,0.3-0.6,0.9c-0.2,1.7-0.3,2.5-0.6,4.4c0.7-0.1,1.9-0.3,3.1-0.3
				c5.8,0,6.3,5.1,6.3,8.9C36.3,152.8,34.8,158.4,32.7,160.3z M40.7,150.6l-2.3-4.1c1.5-0.2,2.5-0.4,2.5-1.5c0-1.1-1.6-4.6-6.2-9.9
				l3.5-2.4c2,2.4,7.8,9.3,7.8,13.8C46,149.9,42.3,150.4,40.7,150.6z M44.5,136.9c-1.1-1.5-2.1-2.6-3.4-3.8l2.3-1.7
				c1.2,1.1,2.4,2.4,3.3,3.7L44.5,136.9z M48.9,134.3c-0.9-1.4-1.9-2.6-3.1-3.7L48,129c1.2,0.9,2.3,2.2,3.4,3.6L48.9,134.3z"/>
			<path class="st3" d="M48.1,223.4h-5H29.6c-8.5,0-9.8-2-11.5-4.4c-0.6,0.6-0.6,0.6-1.5,1.5c-0.3,0.3-2.2,1.9-2.3,2.1
				c-0.1,0.1-0.3,1.1-0.5,1.1c-0.3,0-0.5-0.4-0.6-0.5l-2.7-4.4c2.2-0.9,4.3-2.2,5.4-3.1v-9.3h-4.1v-4h9v12.6c0,3,2.3,4.3,8.1,4.3
				c4.9,0,9.8-0.2,14.7-0.3c-2.1-0.9-5.4-2.4-7.7-4.3l1.9-2.1h-6.3l1.7,2c0.1,0.1,0.3,0.4,0.3,0.5c0,0.3-0.1,0.3-1.1,0.3
				c-0.8,0.6-3.4,2.3-6.6,3.5l-2.4-3.1c3.7-1.1,5.1-2.5,5.9-3.3h-6.8v-3.2h5.9v-2.2H23v-3.2h5.5v-2h-2.1c-2.3,0-3.8-0.2-3.8-1.8
				v-6.9h6.8v-2h-6.8v-3.4h10.6v8.6h-6.8v1.4c0,0.9,0.3,1.3,1.1,1.3h2.4c1,0,1.6-1.2,1.8-2.2l2.7,1.3c-0.1,1.2-0.6,2.1-0.8,2.4
				c-0.5,0.9-0.9,1.1-2.1,1.2l1.4,0.1c0.5,0,0.8,0.2,0.8,0.4c0,0.3-0.5,0.5-0.8,0.6v1H37v-2.2c-0.3-0.1-0.6-0.2-1-0.4
				s-0.6-0.7-0.6-1.4v-6.4h6.9v-2h-6.9v-3.5h11.3v8.7h-7.3v1.4c0,0.9,0.4,1.2,1.2,1.2H43c1.4,0,2.2-1.8,2.3-2.5l3.1,1.6
				c-0.5,3.3-2.6,3.7-4.9,3.7h-1.9c0.3,0,0.8,0.1,0.8,0.5c0,0.3-0.6,0.5-0.9,0.5v1h5.8v3.2h-5.8v2.2h6.8v3.2h-8.8
				c1.9,1.5,4.7,2.7,6.9,3.3l-2,3.1c2.9-0.1,3.7-0.2,5.5-0.4L48.1,223.4z M16.8,196.7c-0.9-1.5-2.8-4-5.3-5.6l3.4-3.5
				c2.2,1.6,4,3.4,5.4,5.7L16.8,196.7z M37,207.2h-4.2v2.2H37V207.2z"/>
			<path class="st3" d="M13.9,276.6l-2.3-5c4-1.8,6.8-3.7,10.4-7.2l1.5,4.3C20.7,271.7,17.4,274.3,13.9,276.6z M29,280
				c-2.2,0-4.4-0.5-5.4-0.6l-0.6-5c1.2,0.5,3.3,1.4,5.9,1.4c1.1,0,3.1-0.2,3.1-2.4c0-2.3-1.9-4.3-4.1-6.6c-1.5-1.6-3.1-3.4-3.1-6
				c0-2.3,1.3-3.9,2.3-5.1l3.8,2.8c-0.4,0.5-1.4,1.5-1.4,2.7c0,0.9,0.6,1.5,3,4.1c3.7,4.1,4.8,6.5,4.8,8.9
				C37.4,279.4,31.6,280,29,280z M33.7,254.9c-2.5-1.9-4.9-3.7-9.5-5.6l2.3-3.2c2.6,1,5.8,2.3,9.8,5.1L33.7,254.9z M44.6,273.8
				c-1.4-2.8-3.5-6.5-7.7-10.1l2.7-3.1c3.5,2.8,6.2,5.8,8.6,9.8L44.6,273.8z M43.7,258c-0.9-1-1.7-1.9-3.8-3.5l1.8-2.1
				c1.4,1.1,2.6,2.1,3.8,3.5L43.7,258z M47,253.9c-1.2-1.4-2.4-2.4-3.8-3.5l1.8-2.1c2.3,1.8,3.2,2.8,3.8,3.5L47,253.9z"/>
			<path class="st3" d="M44.7,328.7c-3.2,4.8-7.7,6.6-10,7.6l-3.2-4.4c1.9-0.6,5.1-1.5,7.7-4.6c2.6-3.1,3.1-6.7,3.1-8.6
				c0-2.4-0.7-5.2-3.1-7.5c-2.7-2.6-5.7-2.8-7.3-2.9c-1.4,10.2-3.9,16.3-5.3,19.1c-1.3,2.7-3.3,6.3-5.5,6.3c-1.5,0-8.6-3.9-8.6-11.6
				c0-9.5,7.9-18.2,19-18.2c8.9,0,16,6.1,16,15.7C47.5,323.3,46.3,326.4,44.7,328.7z M21.6,312.2c-3.1,2.9-4.3,6.9-4.3,9.5
				c0,3.5,2,5.3,2.8,5.3c2.2,0,5.9-11.2,6.8-17.9C25.6,309.5,23.7,310.1,21.6,312.2z"/>
			<path class="st3" d="M20.1,395.1l-4,0.6c-1.3-4.3-1.6-8.8-1.6-13.3c0-6.8,0.9-13.5,2.6-20.1l4.2,1.6c0.1,0,1,0.4,1,0.9
				c0,0.1,0,0.2-0.2,0.3s-0.7,0.3-0.8,0.3c-0.3,0.2-0.8,2.4-0.9,2.9c-0.4,1.9-1.6,10-1.6,13.3c0,0.5,0,2.8,0.2,4.5l1.8-2.6l2.7,1.8
				C22.5,387.5,20.6,391.7,20.1,395.1z M45.6,393.5c-1.5-1.5-2.7-2.3-4.5-3.4c-0.1,3.3-0.9,5.5-6.8,5.5c-1.2,0-8.5,0-8.5-6.2
				c0-3.9,3.4-5.5,7.6-5.5c0.9,0,1.8,0.1,2.6,0.2c-0.3-5.1-0.5-6.9-0.6-9.8c-2.8,0.3-5.1,0.5-7.8,0.3l0-4.4c0.8,0.1,1.8,0.3,3.9,0.3
				c1.6,0,2.8-0.1,4-0.3c0.1-3.2,0.1-3.7,0.2-8l4.8,0.8c0.9,0.1,1,0.3,1,0.6c0,0.2-0.4,0.4-0.8,0.7c-0.3,1.1-0.4,3-0.6,5.3
				c1.2-0.3,3.7-0.8,5.3-1.8v4.6c-1.8,0.6-4,0.9-5.4,1.2c0,4.6,0.1,6.7,0.6,11.5c1.7,0.7,3.5,1.4,7.4,4L45.6,393.5z M33.2,387.8
				c-2,0-3.4,0.7-3.4,1.7c0,1,1.2,1.9,3.8,1.9c2.8,0,2.8-1,2.7-3.2C35.6,388.1,34.5,387.8,33.2,387.8z"/>
			<path class="st3" d="M39.2,420.1c3.7,2.1,6.9,4.8,9.6,9.3l-4.5,3.5c-2.2-3.7-4.9-6.8-8.3-9.5L39.2,420.1z"/>
			<path class="st3" d="M27.3,490.2c-2.1,7.5-4.6,14.8-8.1,21.8l-4.8-1.4c5-8.6,6.8-15.3,7.9-19.6c0,0-3,0.4-3.3,0.5
				c-0.9,0.2-1.7,0.2-2.6,0.3l-0.3-4c3.6,0,4.8-0.1,7.2-0.5c0.4-2,1.1-5.1,1.2-8.5l4.9,1.2c0.7,0.2,0.9,0.3,0.9,0.6
				c0,0.2-0.1,0.2-0.8,0.7c-0.3,0.2-0.3,0.3-0.4,1.2c0,0.2-0.5,2.3-0.8,3.5c2.3-0.5,4.3-1.4,6.4-2.5v4.7
				C31.5,489.4,29.5,489.8,27.3,490.2z M37,511.9c-4.2,0-9.6-0.3-9.6-6.1c0-0.3,0-1.5,0.3-2.5l4,0.6c0,0.3-0.2,0.9-0.2,1.6
				c0,0.3,0,0.7,0.6,1.2c1.1,0.9,4.1,0.9,4.9,0.9c3.6,0,5.6-0.5,7-0.9l0.5,4.6C43.3,511.5,41.1,511.9,37,511.9z M32.5,496.3v-4.1
				c3.7-0.4,5.1-0.4,7.1-0.4c2.3,0,3.2,0.1,4,0.2v4.1C40.7,495.7,36.8,495.8,32.5,496.3z M39.4,485.9c-0.8-0.9-2-2.3-3.4-3.5
				l1.8-1.7c1.4,1.2,2.6,2.6,3.4,3.5L39.4,485.9z M43.9,483.8c-0.7-0.8-1.8-2.2-3.2-3.3l1.8-1.8c1.4,1.2,2.6,2.6,3.3,3.4L43.9,483.8
				z"/>
			<path class="st3" d="M40,569.9c-5,0-5-6-5-7.1c0-1.6,0.8-9.6,0.8-11.4c0-1.1-0.2-2.9-1.7-2.9c-2.5,0-5.8,4.1-8.8,7.8
				c0,6,0,10.4,0.3,15.5l-4.8,0.3l0.1-9.9c-1.3,1.8-2.1,2.9-3.6,5.2l-4.5-3c2.9-2.7,5.2-5.4,8.2-9.9l0.1-3.8
				c-2.3,0.8-3.4,1.2-5.6,1.9l-2.1-4.6c3.5-0.5,6.2-1.5,7.7-2.1l0.2-9.2l4.3,0.5c0.7,0.1,1.1,0.1,1.1,0.5c0,0.1-0.6,0.7-0.8,0.8
				c-0.2,0.3-0.3,2.4-0.4,5.7l2.8,2.6l-0.9,1.9c1.7-1.5,5.8-5.4,8.6-5.4c2.2,0,4.7,1.8,4.7,5.2c0,0.8,0,1.2-0.6,7
				c-0.4,3.8-0.4,5.2-0.4,6.1c0,2.4,0.4,2.8,1.6,2.8c1.2,0,2.8-0.8,4.6-3.3l1.3,4.8C45.3,568,42.9,569.9,40,569.9z"/>
			<path class="st3" d="M32.9,607.6c-3.2,3.2-5.2,7.1-5.2,10.3c0,3,1.9,4.7,3.1,5.6c2.8,2,5.8,2.1,7.6,2.2l-1.7,5.2
				c-2.3-0.4-7.1-1.3-10.6-4.8c-2.1-2-3.2-4.8-3.2-7.7c0-2.9,1.1-5.8,2.9-8.6c2-3.1,4.2-5.2,5.7-6.5c-5.8,0.5-12.1,1-16.4,1.6
				l-0.7-4.8c9.3,0.1,22.6-0.9,30.7-3.4v5C43.1,601.8,38.4,602.1,32.9,607.6z M41.9,614.9c-0.9-1.2-1.8-2-3.5-3.3l1.8-2.1
				c1.4,1.1,2.5,2,3.6,3.3L41.9,614.9z M45.4,611c-1.1-1.3-2.2-2.2-3.6-3.3l1.8-2.1c1.8,1.3,2.7,2.2,3.6,3.3L45.4,611z"/>
			<path class="st3" d="M34.5,663v6c0.5,1,1.2,2.5,1.2,5.2c0,1.2-0.3,4.4-2.2,8.3c-2,4-4.3,6.4-5.8,8l-4.8-2.5
				c2.6-1.7,5.2-3.9,6.1-7.1c-0.9,0.3-1.6,0.4-2.3,0.4c-1.1,0-2.5-0.4-3.5-1.3c-1.8-1.5-2.2-3.9-2.2-6c0-4.7,2.4-8,6.8-8
				c0.8,0,1.4,0.1,2,0.3l-0.1-3.2c-3.8,0.2-10.3,0.6-15.8,1.3v-5c2.9,0,6.6,0,15.7-0.4c0-1.3,0-3.6-0.3-6.8l4.8,0.3
				c1,0,1.2,0.2,1.2,0.6c0,0.3-0.1,0.4-0.4,0.6s-0.3,0.3-0.3,0.5v4.4c6-0.3,7.3-0.5,11.7-0.8v4.6C42.9,662.7,40,662.8,34.5,663z
				 M29.7,670.9c-0.4-0.4-1-0.6-1.6-0.6c-1.7,0-2.9,1.5-2.9,3.8c0,2.6,1.4,3.6,2.4,3.6c0.9,0,3-0.9,3-4
				C30.5,672.7,30.4,671.6,29.7,670.9z"/>
			<path class="st3" d="M34.3,740.8c-1.8,3.1-4.6,3.3-6.5,3.3c-1.2,0-2.5-0.1-3.7-0.3l-0.6-5.2c0.9,0.3,2.2,0.7,3.9,0.7
				c1.3,0,2-0.2,2.6-1.1c0.8-1.2,2.6-6.4,2.6-10.7c0-2.3-0.5-3.7-3.6-3.7c-0.8,0-1.6,0.1-2.5,0.2c-2.2,7.9-4.5,12.9-8.9,20l-4.9-2.2
				c3.8-4.8,6-8.6,8.5-16.8c-2.1,0.5-3.9,1-6.1,1.8l-1.7-5.2c3.1-0.3,7.1-1,9-1.3c0.5-2.8,0.9-5,0.9-8.6l5.2,0.7
				c0.3,0,1.2,0.3,1.2,0.7c0,0.2-0.1,0.3-0.6,0.6c-0.8,0.5-0.9,0.5-0.9,0.9c-0.2,1.5-0.5,3.1-0.8,4.7c0.9-0.2,2.2-0.3,3.4-0.3
				c5.8,0,6.3,4.8,6.3,7.4C37.3,730.2,36.6,736.8,34.3,740.8z M42.1,732.5l-2.9-4.4c1.8-0.2,2.8-0.3,2.8-1.3c0-1.3-2.4-5.6-4.8-8.3
				l3.6-2.6c5.6,6,6.7,11.1,6.7,12.6C47.5,730.9,44.8,732,42.1,732.5z"/>
			<path class="st3" d="M48.8,775.5c0,3.7-3,6.6-6.7,6.6c-3.7,0-6.6-3-6.6-6.6c0-3.7,3-6.7,6.6-6.7
				C45.8,768.8,48.8,771.8,48.8,775.5z M37.6,775.5c0,2.5,2,4.6,4.6,4.6c2.5,0,4.6-2,4.6-4.6c0-2.7-2.3-4.6-4.6-4.6
				C39.7,770.9,37.6,772.9,37.6,775.5z"/>
		</g>
	</g>
	<g>
		<g>
			<path class="st3" d="M122.5,44.7v-6.7H90.7v6.7h-4.5V33.6H127v11.1H122.5z"/>
			<path class="st3" d="M106.2,86.4v15.7c2.3-0.7,3.7-1.6,5.5-3.1c-1.5-1.7-2.4-3-3.3-5l2.7-2.3h-3.5v-3.4H121l1.7,1.8
				c-1.9,4.3-3.1,6.2-5,8.6c2.5,1.7,4.2,2.5,6.6,3.1l-3.1,3.9c-2.7-1.2-4.4-2.2-6.7-4c-1,0.8-2.5,2-5.8,3.7l-2.6-2.9v3.5h-4.7v-4.8
				c-2.9,0.6-7.9,1.6-9.4,1.8c-0.4,0-2.2,0.3-2.4,0.5c-0.2,0.1-0.4,0.4-0.5,0.4c-0.2,0-0.3-0.2-0.3-0.3l-0.7-3.8
				c1.9-0.2,2.5-0.3,3.2-0.4v-13h-3.1v-3.5H125v3.5H106.2z M93.3,81.4V70h26.4v11.4H93.3z M101.5,86.4h-5.4v1.8h5.4V86.4z
				 M101.5,91.2h-5.4v2h5.4V91.2z M101.5,96.2h-5.4v2.6c1.5-0.2,3.1-0.4,5.4-0.9V96.2z M114.6,72.8H98.3v1.7h16.4V72.8z M114.6,76.9
				H98.3v1.7h16.4V76.9z M111.6,91.6c0.4,1,0.9,2.3,3,4.4c1.2-1.7,1.8-2.8,2.5-4.4H111.6z"/>
			<path class="st3" d="M93.1,151.6c-0.7,5.8-0.8,6.4-1.5,9.6l-4.1-0.9c1.2-3.8,1.6-7.7,1.7-10.1l3.6,0.1c0.3,0,0.8,0,0.8,0.4
				C93.6,150.9,93.1,151.5,93.1,151.6z M123,152.9c-4-1.5-6.3-3.2-8.9-5.5c-2.9,2.4-5,3.7-8.6,5.3l-2.9-4.1l-2.2,0.6
				c0-0.6-0.1-1.1-0.3-1.8c-0.2,0-0.4,0-1.7,0.2v17.8h-4.3v-17.3c-1.4,0.2-3.1,0.3-3.4,0.4c-1.1,0.1-1.2,0.1-1.4,0.3
				c-0.4,0.3-0.5,0.5-0.7,0.5c-0.4,0-0.4-0.6-0.4-0.9l-0.4-4c0.9,0,2,0,3.7,0c0.7-1.1,1.1-1.6,2.1-3.2c-1.7-1.9-3.6-3.4-5.4-4.5
				l2.3-3.5c0.6,0.3,1.1,0.7,1.7,1.1c1-2,1.8-4.1,2.7-6.2l3.2,1.2c0.2,0,1,0.4,1,0.8c0,0.3-0.2,0.3-0.5,0.4
				c-0.6,0.2-0.6,0.2-0.7,0.6c-1.2,2.7-2.6,5.2-2.8,5.5c0.2,0.2,0.3,0.3,0.9,0.8c1.9-3.1,2.3-3.8,3.1-5.2l3.5,1.4
				c0.7,0.3,0.9,0.5,0.9,0.7c0,0.3-0.3,0.3-0.3,0.3c-0.7,0.2-0.7,0.2-1.1,0.8c-1.8,2.9-3.7,5.8-5.8,8.5c1,0,2-0.1,3-0.2
				c-0.2-0.7-0.3-1.3-0.6-1.9l3-1.1l-0.3-0.2c1.3-1.5,2.9-3.2,4.8-6.2c1.9-3.1,2.4-4.6,2.9-6.3l4.2,1.2c0.7,0.2,0.9,0.4,0.9,0.6
				c0,0.2-0.1,0.3-0.3,0.4c-0.1,0-0.6,0.3-0.7,0.3c-0.1,0.1-0.6,0.9-0.6,1.1h9l1.4,1.2c-2,5.8-3.6,8.3-5.9,11.3
				c3.4,2.5,5.8,3.5,9.2,4.3L123,152.9z M101,159c-1-2.6-1.5-4.8-1.8-7.7l3.4-1.5c0.5,2.6,1.1,4.8,2.3,7.5L101,159z M108.1,139.4
				c-1.3,1.8-2.1,2.6-2.8,3.4l-2.8-1.5c0.9,2.2,1.4,4.4,1.8,6.8c2.6-1.1,4.3-2,6.7-3.9C109.7,142.5,109,141.2,108.1,139.4z
				 M120.7,166c-5.2-2.6-9.7-3.8-14.9-4.5l1.5-4.6c2.3,0.4,4,0.7,8.6,2c3.8,1.1,4.9,1.6,7.4,2.8L120.7,166z M117.2,157.2
				c-2.8-1.8-5.6-3-7-3.6l1.8-3.5c2.6,0.8,5.4,2.1,7.4,3.4L117.2,157.2z M111.3,135.8c0.6,2.5,1.5,3.9,2.6,5.4
				c1.5-1.9,2.2-3.2,2.9-5.4H111.3z"/>
			<path class="st3" d="M94,202.2v21.5h-4.8v-36.1H105v14.6H94z M100.3,190.9H94v2.3h6.4V190.9z M100.3,196.4H94v2.4h6.4V196.4z
				 M103.2,217.1v2h-4.8v-14.3h16.3v12.3H103.2z M109.9,208.6h-6.7v4.6h6.7V208.6z M119.8,223.7h-2.1l-2.2-5
				c1.3,0.1,1.9,0.2,2.6,0.2c1,0,1.4-0.4,1.4-1.7v-15.1h-10.9v-14.6h15.6v31.8C124.1,222.4,123.2,223.7,119.8,223.7z M119.4,190.9
				h-6.2v2.3h6.2V190.9z M119.4,196.4h-6.2v2.4h6.2V196.4z"/>
			<path class="st3" d="M124.1,281h-15.4c-4.6,0-8.6-1-10-1.6c-2.8-1.2-4.3-3-5.2-4.1c-0.6,2.9-1.2,4.5-1.9,6.2l-4.2-1.3
				c1.8-3.9,2.7-7.4,2.9-13.7l4.1,0.5c0.2,0,0.4,0.2,0.4,0.4c0,0.1-0.4,0.5-0.4,0.6c0,0.1-0.2,2.6-0.2,2.9c0.5,0.9,0.9,1.6,1.8,2.5
				v-9.5H88v-3.5h17.6v3.5h-5.5v3.7h5.5v3.5h-5.5v5c1.5,0.4,3.7,1.2,9.5,1.2c5.4,0,10.8-0.3,16.1-0.9L124.1,281z M89.3,258.7v-13.3
				h15.1v13.3H89.3z M100.2,248.3h-6.7v2.3h6.7V248.3z M100.2,253.2h-6.7v2.5h6.7V253.2z M117,248.7c-0.7,1.4-1.2,2.2-1.8,3.1h8.3
				v16.9h-11.4l2.3,2.3c0.1,0.1,0.3,0.3,0.3,0.6c0,0.2-0.2,0.3-0.4,0.3c-0.1,0-0.3,0-0.6-0.1c-2.8,2.4-4.6,3.4-5.6,4l-3.1-2.8
				c2.4-1,4.1-2,6.4-4.2h-4.2v-16.9h3.7c0.7-1.2,1-1.8,1.5-3.1h-6.2v-3.4H125v3.4H117z M119.4,254.9h-8.1v1.8h8.1V254.9z
				 M119.4,259.3h-8.1v1.8h8.1V259.3z M119.4,263.7h-8.1v1.9h8.1V263.7z M122.7,275.6c-3.2-1.1-5.5-3-6.6-4l2.1-2.8
				c0.8,0.6,2.9,2.3,6.5,3.5L122.7,275.6z"/>
			<path class="st3" d="M86.2,317.8v-11.1h4.5v6.7h31.8v-6.7h4.5v11.1H86.2z"/>
		</g>
	</g>
</g>
</svg>
