<?xml version="1.0" encoding="utf-8"?>
<!-- Generator: Adobe Illustrator 19.0.0, SVG Export Plug-In . SVG Version: 6.00 Build 0)  -->
<svg version="1.1" xmlns="http://www.w3.org/2000/svg" xmlns:xlink="http://www.w3.org/1999/xlink" x="0px" y="0px"
	 viewBox="-154.4 55.2 597.4 271.6" style="enable-background:new -154.4 55.2 597.4 271.6;" xml:space="preserve">
<style type="text/css">
	.st0{fill:#FFF33F;}
	.st1{fill:#231815;}
	.st2{display:none;}
	.st3{display:inline;fill:#221613;}
	.st4{display:inline;fill:#FFFFFF;}
	.st5{fill:#A2EBDA;}
	.st6{fill:none;stroke:#000000;stroke-width:2;}
	.st7{fill:#FFFFFF;}
</style>
<g id="レイヤー_2">
</g>
<g id="レイヤー_1">
	<g id="レイヤー_1のコピー">
		<g>
			<rect x="104.7" y="274.8" class="st0" width="337.9" height="47.5"/>
			<path class="st1" d="M443,322.7H104.3v-48.4H443V322.7z M105.2,321.9h337v-46.7h-337L105.2,321.9L105.2,321.9z"/>
		</g>
		<g>
			<rect x="218.4" y="93.6" class="st0" width="224.2" height="47.5"/>
			<path class="st1" d="M443,141.6H218V93.2h225V141.6z M218.9,140.7h223.3V94.1H218.9V140.7z"/>
		</g>
		<g>
			<rect x="-154" y="183.8" class="st0" width="596.6" height="47.5"/>
			<path class="st1" d="M443,231.8h-597.4v-48.4H443V231.8z M-153.5,230.9h595.7v-46.6h-595.7V230.9z"/>
		</g>
		<g class="st2">
			<path class="st3" d="M417.5,315.6h-13.7c-0.3,0-0.6-0.1-0.8-0.4s-0.3-0.6-0.2-0.9l2.8-13.9c0.1-0.5,0.6-0.9,1.1-0.9h13.7
				c0.3,0,0.6,0.1,0.8,0.4s0.3,0.6,0.2,0.9l-2.8,13.9C418.4,315.2,418,315.6,417.5,315.6z M405.1,313.4h11.5l2.3-11.7h-11.5
				L405.1,313.4z M421.2,295.1h-13c-0.3,0-0.6-0.1-0.9-0.4c-0.2-0.3-0.3-0.6-0.2-0.9l9.2-46c0.1-0.5,0.6-0.9,1.1-0.9h13
				c0.3,0,0.6,0.1,0.9,0.4c0.2,0.3,0.3,0.6,0.2,0.9l-9.2,46C422.1,294.7,421.7,295.1,421.2,295.1z M409.5,292.9h10.8l8.7-43.8h-10.8
				L409.5,292.9z"/>
			<path class="st4" d="M406.5,300.6h13.7l-2.8,13.9h-13.7L406.5,300.6z M417.3,247.9h13l-9.2,46h-13L417.3,247.9z"/>
		</g>
	</g>
	<g>
		<g>
			<path class="st5" d="M283,78c0.7,1.5,1,2.7,1.5,5.5l-8.8,0.6c-0.4-2.4-0.7-3.8-1.4-6.1h-4c-2.4,3.3-4,5.5-6.9,8.4h27.5v18.2
				h-24.6v4.6h29.2c0.1,3.1,0,9.4-1.2,13.9c-2.2,8.6-7.8,8.6-11,8.6h-4.5l-3-7.8h5.6c3.2,0,3.8-2.2,4.3-7.5h-19.4v18.4h-8.9v-14.5
				c-6.5,7-14.7,11.8-23.6,15.4l-5.8-6.6c8.2-2.3,16.1-6.2,21.8-12.6h-7.8c-0.2,1.3-0.3,1.6-0.6,2.7l-8.7-0.8
				c2.3-9.6,3.1-19.5,3.1-22.1l5.8,1.6h15.8v-4.1h-24.3v-7.2h29.2l-6.7-3.9c1.8-1.4,2.8-2.4,4.4-4.5h-8.7c0.6,1.4,1,2.7,1.5,5.8
				l-8.4,1c-0.4-3-0.8-4.5-1.7-6.8h-3.3c-2.2,3.7-3.7,5.5-5.7,7.7l-7-4c4.7-5.6,7.4-10.4,9.6-16.6l8,2.2c0.4,0.1,0.9,0.3,0.9,0.9
				c0,0.5-0.4,0.7-1.1,1.1c-0.5,0.3-0.5,0.4-1,1.8h18.9v4.4c2.2-3.2,3.8-5.8,5.3-9.7l8.7,1.8c0.2,0.1,0.6,0.3,0.6,0.7
				c0,0.4-0.4,0.6-0.9,0.9c-0.6,0.3-0.6,0.5-1.3,1.8h21.3V78H283z M257.5,104.5h-14c-0.2,3-0.2,3.3-0.4,4.6h14.4V104.5z M281.8,93.6
				h-15.4v4.1h15.4V93.6z"/>
			<path class="st5" d="M351.3,119.4V131h-46.6v-9.2l23.8-22.4c2.5-2.4,4.2-4.5,5.1-6.2c0.9-1.7,1.3-3.4,1.3-5.1
				c0-2.5-0.8-4.4-2.5-5.7s-4.1-2-7.3-2c-2.7,0-5.1,0.5-7.3,1.5c-2.2,1-4,2.6-5.5,4.6L302,79.8c2.4-3.6,5.7-6.4,9.9-8.4
				s9.1-3,14.5-3c4.6,0,8.6,0.7,12,2.2c3.4,1.5,6.1,3.6,8,6.3c1.9,2.7,2.9,5.9,2.9,9.6c0,3.3-0.7,6.5-2.1,9.4
				c-1.4,2.9-4.1,6.3-8.2,10l-14.2,13.4H351.3z"/>
			<path class="st5" d="M374.7,121.7c-3.7,6.8-6.6,10.1-8.4,12.1l-7-4.1c3.5-3.4,6.6-7.2,9.6-13.7l6.6,3.2c0.6,0.2,1.3,0.7,1.3,1.4
				C376.8,121.2,375.8,121.4,374.7,121.7z M391.2,80.4v26.3h5.3v6.7H360v-6.7h6.2V80.4h-5.7v-6.7h5.7v-7l8.3,0.7c0.3,0,1,0.1,1,0.7
				c0,0.2-1.1,1.1-1.1,1.4v4.2h8.5V67l8.3,0.5c0.8,0.1,1,0.5,1,0.7c0,0.2-0.2,0.5-0.6,0.9c-0.2,0.2-0.6,0.6-0.6,1v3.5h5.4v6.7H391.2
				z M382.9,80.4h-8.5v4.6h8.5V80.4z M382.9,91h-8.5v4.6h8.5V91z M382.9,101.7h-8.5v5h8.5V101.7z M384.8,129.2
				c-2.5-3.2-4.2-6.1-5.9-9.7l6.3-3.9c1.9,3.8,4.2,7,6.2,9.5L384.8,129.2z M414.5,134l-2.6-7.8c5.9,0.2,6.7,0.2,6.7-2.6v-14.8H408
				c-1.3,10.5-5.4,20.1-11.6,26.1l-7.8-4.7c9.4-8.9,12.2-16.4,12.2-45c0-2.9-0.1-8.3-0.5-15.9h26.6v56.2
				C426.9,133.2,425.6,133.7,414.5,134z M418.6,92.8h-9.7c0,3.3-0.1,5.9-0.2,8.5h9.9V92.8z M418.6,76.9h-9.7v8.4h9.7V76.9z"/>
			<path class="st5" d="M-90.1,209.4V221h-46.6v-9.2l23.8-22.4c2.5-2.4,4.2-4.5,5.1-6.2c0.9-1.7,1.3-3.4,1.3-5.1
				c0-2.5-0.8-4.4-2.5-5.7s-4.1-2-7.3-2c-2.7,0-5.1,0.5-7.3,1.5c-2.2,1-4,2.6-5.5,4.6l-10.4-6.7c2.4-3.6,5.7-6.4,9.9-8.4
				c4.2-2,9.1-3,14.5-3c4.6,0,8.6,0.7,12,2.2s6.1,3.6,8,6.3c1.9,2.7,2.9,5.9,2.9,9.6c0,3.3-0.7,6.5-2.1,9.4c-1.4,2.9-4.1,6.3-8.2,10
				l-14.2,13.4H-90.1z"/>
			<path class="st5" d="M-71.3,218.3c-4-2.5-7.1-6.2-9.4-11c-2.3-4.8-3.4-10.5-3.4-17.1c0-6.6,1.1-12.3,3.4-17.1
				c2.3-4.8,5.4-8.4,9.4-11c4-2.5,8.5-3.8,13.6-3.8s9.6,1.3,13.6,3.8c4,2.5,7.1,6.2,9.4,11c2.3,4.8,3.4,10.5,3.4,17.1
				c0,6.6-1.1,12.3-3.4,17.1c-2.3,4.8-5.4,8.4-9.4,11c-4,2.5-8.5,3.8-13.6,3.8S-67.4,220.8-71.3,218.3z M-48.9,205.2
				c2.1-3.2,3.2-8.2,3.2-15c0-6.7-1.1-11.7-3.2-15c-2.1-3.2-5.1-4.8-8.8-4.8c-3.7,0-6.6,1.6-8.8,4.8c-2.1,3.2-3.2,8.2-3.2,15
				c0,6.7,1.1,11.7,3.2,15c2.1,3.2,5.1,4.8,8.8,4.8C-53.9,210-51,208.4-48.9,205.2z"/>
			<path class="st5" d="M-0.9,159.4V221h-14.3v-50.2h-12.3v-11.4H-0.9z"/>
			<path class="st5" d="M52,166.2c4.9,5.3,7.3,12.8,7.3,22.7c0,7-1.3,13-3.9,18c-2.6,5-6.3,8.8-11,11.4c-4.8,2.6-10.2,3.9-16.5,3.9
				c-3.3,0-6.4-0.4-9.4-1.1c-3-0.7-5.5-1.8-7.7-3.1l5.3-10.5c3,2.1,6.8,3.1,11.5,3.1c5.2,0,9.4-1.5,12.4-4.6c3-3.1,4.7-7.5,4.9-13.3
				c-3.7,3.7-8.8,5.5-15.3,5.5c-3.9,0-7.5-0.8-10.7-2.4c-3.2-1.6-5.8-3.8-7.7-6.7c-1.9-2.9-2.8-6.3-2.8-10.1c0-4.1,1-7.7,3.1-10.8
				c2.1-3.1,4.9-5.5,8.4-7.2c3.5-1.7,7.5-2.5,11.8-2.5C40.4,158.3,47.2,161,52,166.2z M40.5,184.8c2-1.7,2.9-3.9,2.9-6.6
				c0-2.7-1-4.9-2.9-6.6c-1.9-1.7-4.5-2.6-7.9-2.6c-3.1,0-5.5,0.8-7.4,2.5c-1.9,1.6-2.9,3.9-2.9,6.7s1,5.1,2.9,6.7
				c1.9,1.7,4.4,2.5,7.6,2.5C36,187.4,38.5,186.5,40.5,184.8z"/>
			<path class="st5" d="M113.1,209.3v15.8H103v-15.8H69v-8.5h11.5v-19H103v-9.6H84.6c-4.6,7.3-7,9.9-9,12l-8.6-4.6
				c7.4-7.5,12.6-16.2,15.5-24.3l9.8,3.7c0.4,0.2,0.6,0.5,0.6,0.7c0,0.2-0.2,0.6-0.4,0.7c-0.2,0.1-1.5,0.4-1.7,0.6
				c-0.2,0-1.6,2.7-1.8,3h44.3v8.1h-20.6v9.6h13.9v8.2h-13.9v10.8h24.5v8.5H113.1z M103,190H90.2v10.8H103V190z"/>
			<path class="st5" d="M170.5,159.4V221h-14.3v-50.2h-12.3v-11.4H170.5z"/>
			<path class="st5" d="M194.2,218.3c-4-2.5-7.1-6.2-9.4-11c-2.3-4.8-3.4-10.5-3.4-17.1c0-6.6,1.1-12.3,3.4-17.1
				c2.3-4.8,5.4-8.4,9.4-11c4-2.5,8.5-3.8,13.6-3.8c5.1,0,9.6,1.3,13.6,3.8c4,2.5,7.1,6.2,9.4,11c2.3,4.8,3.4,10.5,3.4,17.1
				c0,6.6-1.1,12.3-3.4,17.1c-2.3,4.8-5.4,8.4-9.4,11c-4,2.5-8.5,3.8-13.6,3.8C202.8,222,198.2,220.8,194.2,218.3z M216.7,205.2
				c2.1-3.2,3.2-8.2,3.2-15c0-6.7-1.1-11.7-3.2-15c-2.1-3.2-5.1-4.8-8.8-4.8c-3.7,0-6.6,1.6-8.8,4.8c-2.1,3.2-3.2,8.2-3.2,15
				c0,6.7,1.1,11.7,3.2,15c2.1,3.2,5.1,4.8,8.8,4.8C211.6,210,214.6,208.4,216.7,205.2z"/>
			<path class="st5" d="M282.8,225.1l-3.9-10.5c1.4,0.2,3.2,0.5,6.3,0.5c2.3,0,3-0.6,3-2.4v-13.2H264c-2.6,11.4-6.2,17.6-15.4,24.6
				l-7.9-6.6c5.7-4.6,14.9-11.8,14.9-29.7V158h41.8v59C297.4,224.5,290.9,225.1,282.8,225.1z M288.1,182.8h-22.7
				c0,4.5-0.2,6.6-0.3,8.3h23V182.8z M288.1,166.4h-22.7v8.3h22.7V166.4z"/>
			<path class="st5" d="M362.9,219.5c-5.4-4.2-9.4-6.8-16.6-9.8c0.5,7.8-2,12.5-15,12.5c-14.6,0-19-5.8-19-11.3
				c0-7,7-12.5,18.6-12.5c2.6,0,4.6,0.2,5.8,0.4c-0.6-18.6-0.5-20.6-0.5-34.6v-5.7l9.6,1.4c0.4,0.1,1.9,0.3,1.9,1c0,0.3-0.1,0.4-1,1
				c-0.5,0.3-0.9,0.6-1,1.2c-0.2,1-0.4,6.9-0.4,9.7c1.1,0.2,1.6,0.2,3.4,0.2c9.4,0,13.8-1.8,16.2-2.7v9.3c-5.8,1.4-11,1.9-14.6,1.9
				c-1.6,0-3.8-0.1-5.4-0.2c-0.1,6.8-0.1,9.4,0.6,19.5c9.2,2.9,14.6,5.4,22.2,10.6L362.9,219.5z M330,206.2c-5,0-7.8,1.8-7.8,4.2
				c0,3.4,5.9,4.1,8.6,4.1c6.4,0,6.3-4,6.3-7.5C335.6,206.7,332.9,206.2,330,206.2z"/>
			<path class="st5" d="M391.4,205.3h-6.8c-2.6-7-3.6-14.4-3.6-21.8c0-9.8,1.5-19.1,2.2-23.7l8.7,0.5c0.5,0,1.7,0.2,1.7,1
				c0,0.6-0.8,0.9-1.1,1.2c-1.7,1.4-3,16.6-3,21.4c0,2.3,0.2,3.2,0.6,5c1-2.7,2.6-6.9,4.6-11.4l5.6,3.7
				C396.9,189.1,393.7,197.1,391.4,205.3z M421.2,207.6c-3.8,8.6-8.3,13.4-11.2,16.4l-9.5-5c2.9-2.2,7.4-5.7,11.4-13.5
				c3.3-6.6,4.9-14.1,4.9-21.4c0-0.9-0.2-13.2-2-24.9h9.7c0.2,0,1.7,0,1.7,1c0,0.7-1.4,1.2-1.4,1.9c0,0.7,0.4,4.1,0.5,4.9
				c0.5,5.6,1,11.5,1,16.8C426,188.5,425.6,197.6,421.2,207.6z"/>
			<path class="st5" d="M183.3,265c-2.8,17.7-7.4,25.7-10.8,31.5c4.6,5.8,8.6,8.6,14.9,11.2l-7.4,7.4c-5.3-3.2-8.6-6-12.7-11.4
				c-5.1,5.7-9,8.6-15.2,11.8l-7.1-6.6c-3,6.3-8.4,6.6-12.2,6.8l-3.4-9.4c0.9,0.2,2.9,0.4,5.1,0.4c1.4,0,2.2-0.1,3.4-2.8
				c1.8-4.1,2.9-12.9,3-23.4h-6.2c-2.1,18.3-5.5,25.8-10.2,33.4l-9-2.4c8.1-12.7,11.3-24.2,11.4-46.5h-8.2V257H130v-11.4l9,0.6
				c0.6,0,1.9,0.2,1.9,1c0,0.3-0.2,0.6-0.5,0.7c-1,0.7-1.2,0.8-1.2,1.4v7.7h11.8v8.1h-15.8c0,3.1,0,4.8-0.2,7.5h10.9
				c5.2-5.4,9-11.2,13.3-26.7l8.6,2.5c0.7,0.2,1.4,0.6,1.4,1.4c0,0.6-0.6,0.8-1,1c-0.2,0.1-1.2,0.4-1.3,0.6c-0.1,0.1-1.8,5-2.1,5.6
				h22.8v8.2H183.3z M156,274.9c-1.4,2-2.2,3-2.7,3.4l-4.2-3.1c-0.2,3.4-0.3,8.7-1,15.6c-0.6,5.8-1.2,11.5-2.8,17
				c7.1-3,11.7-5.9,17.1-12.1C160.6,291.9,158,286.4,156,274.9z M162.5,265c1.1,11.4,2.7,16.9,5.2,23c2.8-5.6,5-11,6.6-23H162.5z"/>
			<path class="st5" d="M267.6,313.9c-9.5,0.4-30,0.5-32.3,0.5c-15.5,0-19.1-2.3-23-8.2c-2.6,2.2-5.9,4.7-7.1,5.6
				c-1.7,1.3-1.8,1.4-1.9,1.7c-0.2,1-0.3,1.5-0.8,1.5c-0.2,0-0.6-0.2-1-1l-4-8.1c4.4-2.1,6.6-3.4,9.8-5.8v-17.3h-7.9v-8.3h17.4V298
				c0,7,5.8,8.2,16.2,8.2c12.9,0,25.8-0.3,38.7-1.8L267.6,313.9z M211.6,263.4c-2.4-3-6.4-7.4-11.3-10.3l6.6-6.2
				c3.5,2.1,7.1,4.7,11.2,10.7L211.6,263.4z M248.8,282c1.8,3.3,5.3,9.4,17.9,14.6l-5.9,6.6c-2.8-1-10.8-4.4-17.4-15
				c-4.1,7-9.4,12.1-15.5,14.8l-7.2-6c7-3.1,13.4-7.8,16.1-15H222v-7.8h16.6c0.2-2.6,0.3-4.2,0.3-6.7h-14.3v-7.8h7.7
				c-1.7-3-4.4-6.6-7.3-9l7.1-5.5c2.8,2.7,4.8,5.2,7.9,10.6l-5.3,4h9.8c2.8-4.7,5.7-9.7,7.8-14.6l8.2,2.5c0.2,0.1,1.5,0.5,1.5,1.1
				c0,0.2-0.2,0.3-0.3,0.4s-1.2,0.6-1.4,0.7c-3.1,5.4-4.1,7.1-5.9,9.8h9.6v7.8h-16.2c0.1,3.3,0,4.9-0.2,6.7h20.1v7.8H248.8z"/>
			<path class="st5" d="M289.2,272.8v41.5h-8.9v-66.1h30.9v24.6H289.2z M303.2,254.5h-13.9v3.2h13.9V254.5z M303.2,263.2h-13.9v3.4
				h13.9V263.2z M324.5,296.4v16.6h-8.2v-16.6h-6.5c-1.7,8.7-4.8,12.6-11.3,18.1l-7-5.4c7.2-4.5,8.9-7.4,10.3-12.7h-9.4v-7.1h10.2
				c0.2-2.4,0.2-3.4,0.2-5.8h-8.1v-6.9h37.6v6.9h-7.8v5.8h9.9v7.1H324.5z M316.3,283.5h-5.6c-0.1,3.4-0.1,4.3-0.2,5.8h5.8V283.5z
				 M338.9,314.8H334l-3.8-8.4h5.3c2,0,3-0.8,3-2.8v-30.7H316v-24.6h30.9v57.4C346.9,310.8,345.2,314.8,338.9,314.8z M338.5,254.5
				h-13.8v3.2h13.8V254.5z M338.5,263.2h-13.8v3.4h13.8V263.2z"/>
			<path class="st5" d="M382.5,308c-0.9-1.9-1.7-3.6-4.1-7.2c-3.4,6.2-6.3,10-10.8,14.3l-8.6-4.6c5.3-4.2,10.1-9.3,13.8-17.3
				c-1.9-2.2-2.2-2.5-4.5-4.5c-0.3,0.9-0.6,1.8-1,2.8l-8.3-2c2.6-7.4,3.8-12.5,6-21.9h-5.2v-9.1h7c1-5.4,1.4-8.4,1.7-12.6l8.6,1.2
				c0.6,0.1,1.6,0.3,1.6,1c0,0.4-0.2,0.6-0.7,0.9c-0.7,0.5-0.8,0.7-0.9,1.1c-0.6,3.7-1.2,7-1.4,8.4h11.7c0.2,8.6,0,20-4.9,33
				c5,5.9,6.6,9,7.4,10.5L382.5,308z M373.7,267.7c-0.8,4.2-1.8,8.3-3,12.5c1.9,1.4,2.9,2.2,5.1,4.3c1-3.8,2-7.9,2.6-16.8H373.7z
				 M421.8,282.6c-0.3-1-0.7-2.6-1.8-5.5c-5.1,0.6-14.1,1.4-22.7,2c-0.6,0-4.2,0.2-4.6,0.3c-0.3,0.1-1.6,1.4-2,1.4
				c-0.5,0-0.7-0.5-1-1.8l-1.4-8.6c1.1,0,1.8,0,7.5-0.2c1.9-6.4,3.9-13.6,5.9-24.2l9.4,1.8c0.9,0.2,2,0.5,2,1.3c0,0.6-0.6,1-1.2,1.1
				c-0.9,0.3-1,0.5-1.2,0.9c-2.3,6.9-3.5,10.2-6.6,18.7c5-0.2,5.6-0.2,12.4-0.6c-1.4-2.8-2.3-4.6-5.2-9.1l7.7-3.8
				c4,5.4,8.6,13,11.4,22.5L421.8,282.6z M416.1,315.3v-2.7h-14.6v2.7h-9.2v-31.4h33v31.4H416.1z M416.1,292.3h-14.6V304h14.6V292.3
				z"/>
		</g>
		<g>
			<path class="st6" d="M283,78c0.7,1.5,1,2.7,1.5,5.5l-8.8,0.6c-0.4-2.4-0.7-3.8-1.4-6.1h-4c-2.4,3.3-4,5.5-6.9,8.4h27.5v18.2
				h-24.6v4.6h29.2c0.1,3.1,0,9.4-1.2,13.9c-2.2,8.6-7.8,8.6-11,8.6h-4.5l-3-7.8h5.6c3.2,0,3.8-2.2,4.3-7.5h-19.4v18.4h-8.9v-14.5
				c-6.5,7-14.7,11.8-23.6,15.4l-5.8-6.6c8.2-2.3,16.1-6.2,21.8-12.6h-7.8c-0.2,1.3-0.3,1.6-0.6,2.7l-8.7-0.8
				c2.3-9.6,3.1-19.5,3.1-22.1l5.8,1.6h15.8v-4.1h-24.3v-7.2h29.2l-6.7-3.9c1.8-1.4,2.8-2.4,4.4-4.5h-8.7c0.6,1.4,1,2.7,1.5,5.8
				l-8.4,1c-0.4-3-0.8-4.5-1.7-6.8h-3.3c-2.2,3.7-3.7,5.5-5.7,7.7l-7-4c4.7-5.6,7.4-10.4,9.6-16.6l8,2.2c0.4,0.1,0.9,0.3,0.9,0.9
				c0,0.5-0.4,0.7-1.1,1.1c-0.5,0.3-0.5,0.4-1,1.8h18.9v4.4c2.2-3.2,3.8-5.8,5.3-9.7l8.7,1.8c0.2,0.1,0.6,0.3,0.6,0.7
				c0,0.4-0.4,0.6-0.9,0.9c-0.6,0.3-0.6,0.5-1.3,1.8h21.3V78H283z M257.5,104.5h-14c-0.2,3-0.2,3.3-0.4,4.6h14.4V104.5z M281.8,93.6
				h-15.4v4.1h15.4V93.6z"/>
			<path class="st6" d="M351.3,119.4V131h-46.6v-9.2l23.8-22.4c2.5-2.4,4.2-4.5,5.1-6.2c0.9-1.7,1.3-3.4,1.3-5.1
				c0-2.5-0.8-4.4-2.5-5.7s-4.1-2-7.3-2c-2.7,0-5.1,0.5-7.3,1.5c-2.2,1-4,2.6-5.5,4.6L302,79.8c2.4-3.6,5.7-6.4,9.9-8.4
				s9.1-3,14.5-3c4.6,0,8.6,0.7,12,2.2c3.4,1.5,6.1,3.6,8,6.3c1.9,2.7,2.9,5.9,2.9,9.6c0,3.3-0.7,6.5-2.1,9.4
				c-1.4,2.9-4.1,6.3-8.2,10l-14.2,13.4H351.3z"/>
			<path class="st6" d="M374.7,121.7c-3.7,6.8-6.6,10.1-8.4,12.1l-7-4.1c3.5-3.4,6.6-7.2,9.6-13.7l6.6,3.2c0.6,0.2,1.3,0.7,1.3,1.4
				C376.8,121.2,375.8,121.4,374.7,121.7z M391.2,80.4v26.3h5.3v6.7H360v-6.7h6.2V80.4h-5.7v-6.7h5.7v-7l8.3,0.7c0.3,0,1,0.1,1,0.7
				c0,0.2-1.1,1.1-1.1,1.4v4.2h8.5V67l8.3,0.5c0.8,0.1,1,0.5,1,0.7c0,0.2-0.2,0.5-0.6,0.9c-0.2,0.2-0.6,0.6-0.6,1v3.5h5.4v6.7H391.2
				z M382.9,80.4h-8.5v4.6h8.5V80.4z M382.9,91h-8.5v4.6h8.5V91z M382.9,101.7h-8.5v5h8.5V101.7z M384.8,129.2
				c-2.5-3.2-4.2-6.1-5.9-9.7l6.3-3.9c1.9,3.8,4.2,7,6.2,9.5L384.8,129.2z M414.5,134l-2.6-7.8c5.9,0.2,6.7,0.2,6.7-2.6v-14.8H408
				c-1.3,10.5-5.4,20.1-11.6,26.1l-7.8-4.7c9.4-8.9,12.2-16.4,12.2-45c0-2.9-0.1-8.3-0.5-15.9h26.6v56.2
				C426.9,133.2,425.6,133.7,414.5,134z M418.6,92.8h-9.7c0,3.3-0.1,5.9-0.2,8.5h9.9V92.8z M418.6,76.9h-9.7v8.4h9.7V76.9z"/>
			<path class="st6" d="M-90.1,209.4V221h-46.6v-9.2l23.8-22.4c2.5-2.4,4.2-4.5,5.1-6.2c0.9-1.7,1.3-3.4,1.3-5.1
				c0-2.5-0.8-4.4-2.5-5.7s-4.1-2-7.3-2c-2.7,0-5.1,0.5-7.3,1.5c-2.2,1-4,2.6-5.5,4.6l-10.4-6.7c2.4-3.6,5.7-6.4,9.9-8.4
				c4.2-2,9.1-3,14.5-3c4.6,0,8.6,0.7,12,2.2s6.1,3.6,8,6.3c1.9,2.7,2.9,5.9,2.9,9.6c0,3.3-0.7,6.5-2.1,9.4c-1.4,2.9-4.1,6.3-8.2,10
				l-14.2,13.4H-90.1z"/>
			<path class="st6" d="M-71.3,218.3c-4-2.5-7.1-6.2-9.4-11c-2.3-4.8-3.4-10.5-3.4-17.1c0-6.6,1.1-12.3,3.4-17.1
				c2.3-4.8,5.4-8.4,9.4-11c4-2.5,8.5-3.8,13.6-3.8s9.6,1.3,13.6,3.8c4,2.5,7.1,6.2,9.4,11c2.3,4.8,3.4,10.5,3.4,17.1
				c0,6.6-1.1,12.3-3.4,17.1c-2.3,4.8-5.4,8.4-9.4,11c-4,2.5-8.5,3.8-13.6,3.8S-67.4,220.8-71.3,218.3z M-48.9,205.2
				c2.1-3.2,3.2-8.2,3.2-15c0-6.7-1.1-11.7-3.2-15c-2.1-3.2-5.1-4.8-8.8-4.8c-3.7,0-6.6,1.6-8.8,4.8c-2.1,3.2-3.2,8.2-3.2,15
				c0,6.7,1.1,11.7,3.2,15c2.1,3.2,5.1,4.8,8.8,4.8C-53.9,210-51,208.4-48.9,205.2z"/>
			<path class="st6" d="M-0.9,159.4V221h-14.3v-50.2h-12.3v-11.4H-0.9z"/>
			<path class="st6" d="M52,166.2c4.9,5.3,7.3,12.8,7.3,22.7c0,7-1.3,13-3.9,18c-2.6,5-6.3,8.8-11,11.4c-4.8,2.6-10.2,3.9-16.5,3.9
				c-3.3,0-6.4-0.4-9.4-1.1c-3-0.7-5.5-1.8-7.7-3.1l5.3-10.5c3,2.1,6.8,3.1,11.5,3.1c5.2,0,9.4-1.5,12.4-4.6c3-3.1,4.7-7.5,4.9-13.3
				c-3.7,3.7-8.8,5.5-15.3,5.5c-3.9,0-7.5-0.8-10.7-2.4c-3.2-1.6-5.8-3.8-7.7-6.7c-1.9-2.9-2.8-6.3-2.8-10.1c0-4.1,1-7.7,3.1-10.8
				c2.1-3.1,4.9-5.5,8.4-7.2c3.5-1.7,7.5-2.5,11.8-2.5C40.4,158.3,47.2,161,52,166.2z M40.5,184.8c2-1.7,2.9-3.9,2.9-6.6
				c0-2.7-1-4.9-2.9-6.6c-1.9-1.7-4.5-2.6-7.9-2.6c-3.1,0-5.5,0.8-7.4,2.5c-1.9,1.6-2.9,3.9-2.9,6.7s1,5.1,2.9,6.7
				c1.9,1.7,4.4,2.5,7.6,2.5C36,187.4,38.5,186.5,40.5,184.8z"/>
			<path class="st6" d="M113.1,209.3v15.8H103v-15.8H69v-8.5h11.5v-19H103v-9.6H84.6c-4.6,7.3-7,9.9-9,12l-8.6-4.6
				c7.4-7.5,12.6-16.2,15.5-24.3l9.8,3.7c0.4,0.2,0.6,0.5,0.6,0.7c0,0.2-0.2,0.6-0.4,0.7c-0.2,0.1-1.5,0.4-1.7,0.6
				c-0.2,0-1.6,2.7-1.8,3h44.3v8.1h-20.6v9.6h13.9v8.2h-13.9v10.8h24.5v8.5H113.1z M103,190H90.2v10.8H103V190z"/>
			<path class="st6" d="M170.5,159.4V221h-14.3v-50.2h-12.3v-11.4H170.5z"/>
			<path class="st6" d="M194.2,218.3c-4-2.5-7.1-6.2-9.4-11c-2.3-4.8-3.4-10.5-3.4-17.1c0-6.6,1.1-12.3,3.4-17.1
				c2.3-4.8,5.4-8.4,9.4-11c4-2.5,8.5-3.8,13.6-3.8c5.1,0,9.6,1.3,13.6,3.8c4,2.5,7.1,6.2,9.4,11c2.3,4.8,3.4,10.5,3.4,17.1
				c0,6.6-1.1,12.3-3.4,17.1c-2.3,4.8-5.4,8.4-9.4,11c-4,2.5-8.5,3.8-13.6,3.8C202.8,222,198.2,220.8,194.2,218.3z M216.7,205.2
				c2.1-3.2,3.2-8.2,3.2-15c0-6.7-1.1-11.7-3.2-15c-2.1-3.2-5.1-4.8-8.8-4.8c-3.7,0-6.6,1.6-8.8,4.8c-2.1,3.2-3.2,8.2-3.2,15
				c0,6.7,1.1,11.7,3.2,15c2.1,3.2,5.1,4.8,8.8,4.8C211.6,210,214.6,208.4,216.7,205.2z"/>
			<path class="st6" d="M282.8,225.1l-3.9-10.5c1.4,0.2,3.2,0.5,6.3,0.5c2.3,0,3-0.6,3-2.4v-13.2H264c-2.6,11.4-6.2,17.6-15.4,24.6
				l-7.9-6.6c5.7-4.6,14.9-11.8,14.9-29.7V158h41.8v59C297.4,224.5,290.9,225.1,282.8,225.1z M288.1,182.8h-22.7
				c0,4.5-0.2,6.6-0.3,8.3h23V182.8z M288.1,166.4h-22.7v8.3h22.7V166.4z"/>
			<path class="st6" d="M362.9,219.5c-5.4-4.2-9.4-6.8-16.6-9.8c0.5,7.8-2,12.5-15,12.5c-14.6,0-19-5.8-19-11.3
				c0-7,7-12.5,18.6-12.5c2.6,0,4.6,0.2,5.8,0.4c-0.6-18.6-0.5-20.6-0.5-34.6v-5.7l9.6,1.4c0.4,0.1,1.9,0.3,1.9,1c0,0.3-0.1,0.4-1,1
				c-0.5,0.3-0.9,0.6-1,1.2c-0.2,1-0.4,6.9-0.4,9.7c1.1,0.2,1.6,0.2,3.4,0.2c9.4,0,13.8-1.8,16.2-2.7v9.3c-5.8,1.4-11,1.9-14.6,1.9
				c-1.6,0-3.8-0.1-5.4-0.2c-0.1,6.8-0.1,9.4,0.6,19.5c9.2,2.9,14.6,5.4,22.2,10.6L362.9,219.5z M330,206.2c-5,0-7.8,1.8-7.8,4.2
				c0,3.4,5.9,4.1,8.6,4.1c6.4,0,6.3-4,6.3-7.5C335.6,206.7,332.9,206.2,330,206.2z"/>
			<path class="st6" d="M391.4,205.3h-6.8c-2.6-7-3.6-14.4-3.6-21.8c0-9.8,1.5-19.1,2.2-23.7l8.7,0.5c0.5,0,1.7,0.2,1.7,1
				c0,0.6-0.8,0.9-1.1,1.2c-1.7,1.4-3,16.6-3,21.4c0,2.3,0.2,3.2,0.6,5c1-2.7,2.6-6.9,4.6-11.4l5.6,3.7
				C396.9,189.1,393.7,197.1,391.4,205.3z M421.2,207.6c-3.8,8.6-8.3,13.4-11.2,16.4l-9.5-5c2.9-2.2,7.4-5.7,11.4-13.5
				c3.3-6.6,4.9-14.1,4.9-21.4c0-0.9-0.2-13.2-2-24.9h9.7c0.2,0,1.7,0,1.7,1c0,0.7-1.4,1.2-1.4,1.9c0,0.7,0.4,4.1,0.5,4.9
				c0.5,5.6,1,11.5,1,16.8C426,188.5,425.6,197.6,421.2,207.6z"/>
			<path class="st6" d="M183.3,265c-2.8,17.7-7.4,25.7-10.8,31.5c4.6,5.8,8.6,8.6,14.9,11.2l-7.4,7.4c-5.3-3.2-8.6-6-12.7-11.4
				c-5.1,5.7-9,8.6-15.2,11.8l-7.1-6.6c-3,6.3-8.4,6.6-12.2,6.8l-3.4-9.4c0.9,0.2,2.9,0.4,5.1,0.4c1.4,0,2.2-0.1,3.4-2.8
				c1.8-4.1,2.9-12.9,3-23.4h-6.2c-2.1,18.3-5.5,25.8-10.2,33.4l-9-2.4c8.1-12.7,11.3-24.2,11.4-46.5h-8.2V257H130v-11.4l9,0.6
				c0.6,0,1.9,0.2,1.9,1c0,0.3-0.2,0.6-0.5,0.7c-1,0.7-1.2,0.8-1.2,1.4v7.7h11.8v8.1h-15.8c0,3.1,0,4.8-0.2,7.5h10.9
				c5.2-5.4,9-11.2,13.3-26.7l8.6,2.5c0.7,0.2,1.4,0.6,1.4,1.4c0,0.6-0.6,0.8-1,1c-0.2,0.1-1.2,0.4-1.3,0.6c-0.1,0.1-1.8,5-2.1,5.6
				h22.8v8.2H183.3z M156,274.9c-1.4,2-2.2,3-2.7,3.4l-4.2-3.1c-0.2,3.4-0.3,8.7-1,15.6c-0.6,5.8-1.2,11.5-2.8,17
				c7.1-3,11.7-5.9,17.1-12.1C160.6,291.9,158,286.4,156,274.9z M162.5,265c1.1,11.4,2.7,16.9,5.2,23c2.8-5.6,5-11,6.6-23H162.5z"/>
			<path class="st6" d="M267.6,313.9c-9.5,0.4-30,0.5-32.3,0.5c-15.5,0-19.1-2.3-23-8.2c-2.6,2.2-5.9,4.7-7.1,5.6
				c-1.7,1.3-1.8,1.4-1.9,1.7c-0.2,1-0.3,1.5-0.8,1.5c-0.2,0-0.6-0.2-1-1l-4-8.1c4.4-2.1,6.6-3.4,9.8-5.8v-17.3h-7.9v-8.3h17.4V298
				c0,7,5.8,8.2,16.2,8.2c12.9,0,25.8-0.3,38.7-1.8L267.6,313.9z M211.6,263.4c-2.4-3-6.4-7.4-11.3-10.3l6.6-6.2
				c3.5,2.1,7.1,4.7,11.2,10.7L211.6,263.4z M248.8,282c1.8,3.3,5.3,9.4,17.9,14.6l-5.9,6.6c-2.8-1-10.8-4.4-17.4-15
				c-4.1,7-9.4,12.1-15.5,14.8l-7.2-6c7-3.1,13.4-7.8,16.1-15H222v-7.8h16.6c0.2-2.6,0.3-4.2,0.3-6.7h-14.3v-7.8h7.7
				c-1.7-3-4.4-6.6-7.3-9l7.1-5.5c2.8,2.7,4.8,5.2,7.9,10.6l-5.3,4h9.8c2.8-4.7,5.7-9.7,7.8-14.6l8.2,2.5c0.2,0.1,1.5,0.5,1.5,1.1
				c0,0.2-0.2,0.3-0.3,0.4s-1.2,0.6-1.4,0.7c-3.1,5.4-4.1,7.1-5.9,9.8h9.6v7.8h-16.2c0.1,3.3,0,4.9-0.2,6.7h20.1v7.8H248.8z"/>
			<path class="st6" d="M289.2,272.8v41.5h-8.9v-66.1h30.9v24.6H289.2z M303.2,254.5h-13.9v3.2h13.9V254.5z M303.2,263.2h-13.9v3.4
				h13.9V263.2z M324.5,296.4v16.6h-8.2v-16.6h-6.5c-1.7,8.7-4.8,12.6-11.3,18.1l-7-5.4c7.2-4.5,8.9-7.4,10.3-12.7h-9.4v-7.1h10.2
				c0.2-2.4,0.2-3.4,0.2-5.8h-8.1v-6.9h37.6v6.9h-7.8v5.8h9.9v7.1H324.5z M316.3,283.5h-5.6c-0.1,3.4-0.1,4.3-0.2,5.8h5.8V283.5z
				 M338.9,314.8H334l-3.8-8.4h5.3c2,0,3-0.8,3-2.8v-30.7H316v-24.6h30.9v57.4C346.9,310.8,345.2,314.8,338.9,314.8z M338.5,254.5
				h-13.8v3.2h13.8V254.5z M338.5,263.2h-13.8v3.4h13.8V263.2z"/>
			<path class="st6" d="M382.5,308c-0.9-1.9-1.7-3.6-4.1-7.2c-3.4,6.2-6.3,10-10.8,14.3l-8.6-4.6c5.3-4.2,10.1-9.3,13.8-17.3
				c-1.9-2.2-2.2-2.5-4.5-4.5c-0.3,0.9-0.6,1.8-1,2.8l-8.3-2c2.6-7.4,3.8-12.5,6-21.9h-5.2v-9.1h7c1-5.4,1.4-8.4,1.7-12.6l8.6,1.2
				c0.6,0.1,1.6,0.3,1.6,1c0,0.4-0.2,0.6-0.7,0.9c-0.7,0.5-0.8,0.7-0.9,1.1c-0.6,3.7-1.2,7-1.4,8.4h11.7c0.2,8.6,0,20-4.9,33
				c5,5.9,6.6,9,7.4,10.5L382.5,308z M373.7,267.7c-0.8,4.2-1.8,8.3-3,12.5c1.9,1.4,2.9,2.2,5.1,4.3c1-3.8,2-7.9,2.6-16.8H373.7z
				 M421.8,282.6c-0.3-1-0.7-2.6-1.8-5.5c-5.1,0.6-14.1,1.4-22.7,2c-0.6,0-4.2,0.2-4.6,0.3c-0.3,0.1-1.6,1.4-2,1.4
				c-0.5,0-0.7-0.5-1-1.8l-1.4-8.6c1.1,0,1.8,0,7.5-0.2c1.9-6.4,3.9-13.6,5.9-24.2l9.4,1.8c0.9,0.2,2,0.5,2,1.3c0,0.6-0.6,1-1.2,1.1
				c-0.9,0.3-1,0.5-1.2,0.9c-2.3,6.9-3.5,10.2-6.6,18.7c5-0.2,5.6-0.2,12.4-0.6c-1.4-2.8-2.3-4.6-5.2-9.1l7.7-3.8
				c4,5.4,8.6,13,11.4,22.5L421.8,282.6z M416.1,315.3v-2.7h-14.6v2.7h-9.2v-31.4h33v31.4H416.1z M416.1,292.3h-14.6V304h14.6V292.3
				z"/>
		</g>
		<g>
			<path class="st7" d="M283,78c0.7,1.5,1,2.7,1.5,5.5l-8.8,0.6c-0.4-2.4-0.7-3.8-1.4-6.1h-4c-2.4,3.3-4,5.5-6.9,8.4h27.5v18.2
				h-24.6v4.6h29.2c0.1,3.1,0,9.4-1.2,13.9c-2.2,8.6-7.8,8.6-11,8.6h-4.5l-3-7.8h5.6c3.2,0,3.8-2.2,4.3-7.5h-19.4v18.4h-8.9v-14.5
				c-6.5,7-14.7,11.8-23.6,15.4l-5.8-6.6c8.2-2.3,16.1-6.2,21.8-12.6h-7.8c-0.2,1.3-0.3,1.6-0.6,2.7l-8.7-0.8
				c2.3-9.6,3.1-19.5,3.1-22.1l5.8,1.6h15.8v-4.1h-24.3v-7.2h29.2l-6.7-3.9c1.8-1.4,2.8-2.4,4.4-4.5h-8.7c0.6,1.4,1,2.7,1.5,5.8
				l-8.4,1c-0.4-3-0.8-4.5-1.7-6.8h-3.3c-2.2,3.7-3.7,5.5-5.7,7.7l-7-4c4.7-5.6,7.4-10.4,9.6-16.6l8,2.2c0.4,0.1,0.9,0.3,0.9,0.9
				c0,0.5-0.4,0.7-1.1,1.1c-0.5,0.3-0.5,0.4-1,1.8h18.9v4.4c2.2-3.2,3.8-5.8,5.3-9.7l8.7,1.8c0.2,0.1,0.6,0.3,0.6,0.7
				c0,0.4-0.4,0.6-0.9,0.9c-0.6,0.3-0.6,0.5-1.3,1.8h21.3V78H283z M257.5,104.5h-14c-0.2,3-0.2,3.3-0.4,4.6h14.4V104.5z M281.8,93.6
				h-15.4v4.1h15.4V93.6z"/>
			<path class="st7" d="M351.3,119.4V131h-46.6v-9.2l23.8-22.4c2.5-2.4,4.2-4.5,5.1-6.2c0.9-1.7,1.3-3.4,1.3-5.1
				c0-2.5-0.8-4.4-2.5-5.7s-4.1-2-7.3-2c-2.7,0-5.1,0.5-7.3,1.5c-2.2,1-4,2.6-5.5,4.6L302,79.8c2.4-3.6,5.7-6.4,9.9-8.4
				s9.1-3,14.5-3c4.6,0,8.6,0.7,12,2.2c3.4,1.5,6.1,3.6,8,6.3c1.9,2.7,2.9,5.9,2.9,9.6c0,3.3-0.7,6.5-2.1,9.4
				c-1.4,2.9-4.1,6.3-8.2,10l-14.2,13.4H351.3z"/>
			<path class="st7" d="M374.7,121.7c-3.7,6.8-6.6,10.1-8.4,12.1l-7-4.1c3.5-3.4,6.6-7.2,9.6-13.7l6.6,3.2c0.6,0.2,1.3,0.7,1.3,1.4
				C376.8,121.2,375.8,121.4,374.7,121.7z M391.2,80.4v26.3h5.3v6.7H360v-6.7h6.2V80.4h-5.7v-6.7h5.7v-7l8.3,0.7c0.3,0,1,0.1,1,0.7
				c0,0.2-1.1,1.1-1.1,1.4v4.2h8.5V67l8.3,0.5c0.8,0.1,1,0.5,1,0.7c0,0.2-0.2,0.5-0.6,0.9c-0.2,0.2-0.6,0.6-0.6,1v3.5h5.4v6.7H391.2
				z M382.9,80.4h-8.5v4.6h8.5V80.4z M382.9,91h-8.5v4.6h8.5V91z M382.9,101.7h-8.5v5h8.5V101.7z M384.8,129.2
				c-2.5-3.2-4.2-6.1-5.9-9.7l6.3-3.9c1.9,3.8,4.2,7,6.2,9.5L384.8,129.2z M414.5,134l-2.6-7.8c5.9,0.2,6.7,0.2,6.7-2.6v-14.8H408
				c-1.3,10.5-5.4,20.1-11.6,26.1l-7.8-4.7c9.4-8.9,12.2-16.4,12.2-45c0-2.9-0.1-8.3-0.5-15.9h26.6v56.2
				C426.9,133.2,425.6,133.7,414.5,134z M418.6,92.8h-9.7c0,3.3-0.1,5.9-0.2,8.5h9.9V92.8z M418.6,76.9h-9.7v8.4h9.7V76.9z"/>
			<path class="st7" d="M-90.1,209.4V221h-46.6v-9.2l23.8-22.4c2.5-2.4,4.2-4.5,5.1-6.2c0.9-1.7,1.3-3.4,1.3-5.1
				c0-2.5-0.8-4.4-2.5-5.7s-4.1-2-7.3-2c-2.7,0-5.1,0.5-7.3,1.5c-2.2,1-4,2.6-5.5,4.6l-10.4-6.7c2.4-3.6,5.7-6.4,9.9-8.4
				c4.2-2,9.1-3,14.5-3c4.6,0,8.6,0.7,12,2.2s6.1,3.6,8,6.3c1.9,2.7,2.9,5.9,2.9,9.6c0,3.3-0.7,6.5-2.1,9.4c-1.4,2.9-4.1,6.3-8.2,10
				l-14.2,13.4H-90.1z"/>
			<path class="st7" d="M-71.3,218.3c-4-2.5-7.1-6.2-9.4-11c-2.3-4.8-3.4-10.5-3.4-17.1c0-6.6,1.1-12.3,3.4-17.1
				c2.3-4.8,5.4-8.4,9.4-11c4-2.5,8.5-3.8,13.6-3.8s9.6,1.3,13.6,3.8c4,2.5,7.1,6.2,9.4,11c2.3,4.8,3.4,10.5,3.4,17.1
				c0,6.6-1.1,12.3-3.4,17.1c-2.3,4.8-5.4,8.4-9.4,11c-4,2.5-8.5,3.8-13.6,3.8S-67.4,220.8-71.3,218.3z M-48.9,205.2
				c2.1-3.2,3.2-8.2,3.2-15c0-6.7-1.1-11.7-3.2-15c-2.1-3.2-5.1-4.8-8.8-4.8c-3.7,0-6.6,1.6-8.8,4.8c-2.1,3.2-3.2,8.2-3.2,15
				c0,6.7,1.1,11.7,3.2,15c2.1,3.2,5.1,4.8,8.8,4.8C-53.9,210-51,208.4-48.9,205.2z"/>
			<path class="st7" d="M-0.9,159.4V221h-14.3v-50.2h-12.3v-11.4H-0.9z"/>
			<path class="st7" d="M52,166.2c4.9,5.3,7.3,12.8,7.3,22.7c0,7-1.3,13-3.9,18c-2.6,5-6.3,8.8-11,11.4c-4.8,2.6-10.2,3.9-16.5,3.9
				c-3.3,0-6.4-0.4-9.4-1.1c-3-0.7-5.5-1.8-7.7-3.1l5.3-10.5c3,2.1,6.8,3.1,11.5,3.1c5.2,0,9.4-1.5,12.4-4.6c3-3.1,4.7-7.5,4.9-13.3
				c-3.7,3.7-8.8,5.5-15.3,5.5c-3.9,0-7.5-0.8-10.7-2.4c-3.2-1.6-5.8-3.8-7.7-6.7c-1.9-2.9-2.8-6.3-2.8-10.1c0-4.1,1-7.7,3.1-10.8
				c2.1-3.1,4.9-5.5,8.4-7.2c3.5-1.7,7.5-2.5,11.8-2.5C40.4,158.3,47.2,161,52,166.2z M40.5,184.8c2-1.7,2.9-3.9,2.9-6.6
				c0-2.7-1-4.9-2.9-6.6c-1.9-1.7-4.5-2.6-7.9-2.6c-3.1,0-5.5,0.8-7.4,2.5c-1.9,1.6-2.9,3.9-2.9,6.7s1,5.1,2.9,6.7
				c1.9,1.7,4.4,2.5,7.6,2.5C36,187.4,38.5,186.5,40.5,184.8z"/>
			<path class="st7" d="M113.1,209.3v15.8H103v-15.8H69v-8.5h11.5v-19H103v-9.6H84.6c-4.6,7.3-7,9.9-9,12l-8.6-4.6
				c7.4-7.5,12.6-16.2,15.5-24.3l9.8,3.7c0.4,0.2,0.6,0.5,0.6,0.7c0,0.2-0.2,0.6-0.4,0.7c-0.2,0.1-1.5,0.4-1.7,0.6
				c-0.2,0-1.6,2.7-1.8,3h44.3v8.1h-20.6v9.6h13.9v8.2h-13.9v10.8h24.5v8.5H113.1z M103,190H90.2v10.8H103V190z"/>
			<path class="st7" d="M170.5,159.4V221h-14.3v-50.2h-12.3v-11.4H170.5z"/>
			<path class="st7" d="M194.2,218.3c-4-2.5-7.1-6.2-9.4-11c-2.3-4.8-3.4-10.5-3.4-17.1c0-6.6,1.1-12.3,3.4-17.1
				c2.3-4.8,5.4-8.4,9.4-11c4-2.5,8.5-3.8,13.6-3.8c5.1,0,9.6,1.3,13.6,3.8c4,2.5,7.1,6.2,9.4,11c2.3,4.8,3.4,10.5,3.4,17.1
				c0,6.6-1.1,12.3-3.4,17.1c-2.3,4.8-5.4,8.4-9.4,11c-4,2.5-8.5,3.8-13.6,3.8C202.8,222,198.2,220.8,194.2,218.3z M216.7,205.2
				c2.1-3.2,3.2-8.2,3.2-15c0-6.7-1.1-11.7-3.2-15c-2.1-3.2-5.1-4.8-8.8-4.8c-3.7,0-6.6,1.6-8.8,4.8c-2.1,3.2-3.2,8.2-3.2,15
				c0,6.7,1.1,11.7,3.2,15c2.1,3.2,5.1,4.8,8.8,4.8C211.6,210,214.6,208.4,216.7,205.2z"/>
			<path class="st7" d="M282.8,225.1l-3.9-10.5c1.4,0.2,3.2,0.5,6.3,0.5c2.3,0,3-0.6,3-2.4v-13.2H264c-2.6,11.4-6.2,17.6-15.4,24.6
				l-7.9-6.6c5.7-4.6,14.9-11.8,14.9-29.7V158h41.8v59C297.4,224.5,290.9,225.1,282.8,225.1z M288.1,182.8h-22.7
				c0,4.5-0.2,6.6-0.3,8.3h23V182.8z M288.1,166.4h-22.7v8.3h22.7V166.4z"/>
			<path class="st7" d="M362.9,219.5c-5.4-4.2-9.4-6.8-16.6-9.8c0.5,7.8-2,12.5-15,12.5c-14.6,0-19-5.8-19-11.3
				c0-7,7-12.5,18.6-12.5c2.6,0,4.6,0.2,5.8,0.4c-0.6-18.6-0.5-20.6-0.5-34.6v-5.7l9.6,1.4c0.4,0.1,1.9,0.3,1.9,1c0,0.3-0.1,0.4-1,1
				c-0.5,0.3-0.9,0.6-1,1.2c-0.2,1-0.4,6.9-0.4,9.7c1.1,0.2,1.6,0.2,3.4,0.2c9.4,0,13.8-1.8,16.2-2.7v9.3c-5.8,1.4-11,1.9-14.6,1.9
				c-1.6,0-3.8-0.1-5.4-0.2c-0.1,6.8-0.1,9.4,0.6,19.5c9.2,2.9,14.6,5.4,22.2,10.6L362.9,219.5z M330,206.2c-5,0-7.8,1.8-7.8,4.2
				c0,3.4,5.9,4.1,8.6,4.1c6.4,0,6.3-4,6.3-7.5C335.6,206.7,332.9,206.2,330,206.2z"/>
			<path class="st7" d="M391.4,205.3h-6.8c-2.6-7-3.6-14.4-3.6-21.8c0-9.8,1.5-19.1,2.2-23.7l8.7,0.5c0.5,0,1.7,0.2,1.7,1
				c0,0.6-0.8,0.9-1.1,1.2c-1.7,1.4-3,16.6-3,21.4c0,2.3,0.2,3.2,0.6,5c1-2.7,2.6-6.9,4.6-11.4l5.6,3.7
				C396.9,189.1,393.7,197.1,391.4,205.3z M421.2,207.6c-3.8,8.6-8.3,13.4-11.2,16.4l-9.5-5c2.9-2.2,7.4-5.7,11.4-13.5
				c3.3-6.6,4.9-14.1,4.9-21.4c0-0.9-0.2-13.2-2-24.9h9.7c0.2,0,1.7,0,1.7,1c0,0.7-1.4,1.2-1.4,1.9c0,0.7,0.4,4.1,0.5,4.9
				c0.5,5.6,1,11.5,1,16.8C426,188.5,425.6,197.6,421.2,207.6z"/>
			<path class="st7" d="M183.3,265c-2.8,17.7-7.4,25.7-10.8,31.5c4.6,5.8,8.6,8.6,14.9,11.2l-7.4,7.4c-5.3-3.2-8.6-6-12.7-11.4
				c-5.1,5.7-9,8.6-15.2,11.8l-7.1-6.6c-3,6.3-8.4,6.6-12.2,6.8l-3.4-9.4c0.9,0.2,2.9,0.4,5.1,0.4c1.4,0,2.2-0.1,3.4-2.8
				c1.8-4.1,2.9-12.9,3-23.4h-6.2c-2.1,18.3-5.5,25.8-10.2,33.4l-9-2.4c8.1-12.7,11.3-24.2,11.4-46.5h-8.2V257H130v-11.4l9,0.6
				c0.6,0,1.9,0.2,1.9,1c0,0.3-0.2,0.6-0.5,0.7c-1,0.7-1.2,0.8-1.2,1.4v7.7h11.8v8.1h-15.8c0,3.1,0,4.8-0.2,7.5h10.9
				c5.2-5.4,9-11.2,13.3-26.7l8.6,2.5c0.7,0.2,1.4,0.6,1.4,1.4c0,0.6-0.6,0.8-1,1c-0.2,0.1-1.2,0.4-1.3,0.6c-0.1,0.1-1.8,5-2.1,5.6
				h22.8v8.2H183.3z M156,274.9c-1.4,2-2.2,3-2.7,3.4l-4.2-3.1c-0.2,3.4-0.3,8.7-1,15.6c-0.6,5.8-1.2,11.5-2.8,17
				c7.1-3,11.7-5.9,17.1-12.1C160.6,291.9,158,286.4,156,274.9z M162.5,265c1.1,11.4,2.7,16.9,5.2,23c2.8-5.6,5-11,6.6-23H162.5z"/>
			<path class="st7" d="M267.6,313.9c-9.5,0.4-30,0.5-32.3,0.5c-15.5,0-19.1-2.3-23-8.2c-2.6,2.2-5.9,4.7-7.1,5.6
				c-1.7,1.3-1.8,1.4-1.9,1.7c-0.2,1-0.3,1.5-0.8,1.5c-0.2,0-0.6-0.2-1-1l-4-8.1c4.4-2.1,6.6-3.4,9.8-5.8v-17.3h-7.9v-8.3h17.4V298
				c0,7,5.8,8.2,16.2,8.2c12.9,0,25.8-0.3,38.7-1.8L267.6,313.9z M211.6,263.4c-2.4-3-6.4-7.4-11.3-10.3l6.6-6.2
				c3.5,2.1,7.1,4.7,11.2,10.7L211.6,263.4z M248.8,282c1.8,3.3,5.3,9.4,17.9,14.6l-5.9,6.6c-2.8-1-10.8-4.4-17.4-15
				c-4.1,7-9.4,12.1-15.5,14.8l-7.2-6c7-3.1,13.4-7.8,16.1-15H222v-7.8h16.6c0.2-2.6,0.3-4.2,0.3-6.7h-14.3v-7.8h7.7
				c-1.7-3-4.4-6.6-7.3-9l7.1-5.5c2.8,2.7,4.8,5.2,7.9,10.6l-5.3,4h9.8c2.8-4.7,5.7-9.7,7.8-14.6l8.2,2.5c0.2,0.1,1.5,0.5,1.5,1.1
				c0,0.2-0.2,0.3-0.3,0.4s-1.2,0.6-1.4,0.7c-3.1,5.4-4.1,7.1-5.9,9.8h9.6v7.8h-16.2c0.1,3.3,0,4.9-0.2,6.7h20.1v7.8H248.8z"/>
			<path class="st7" d="M289.2,272.8v41.5h-8.9v-66.1h30.9v24.6H289.2z M303.2,254.5h-13.9v3.2h13.9V254.5z M303.2,263.2h-13.9v3.4
				h13.9V263.2z M324.5,296.4v16.6h-8.2v-16.6h-6.5c-1.7,8.7-4.8,12.6-11.3,18.1l-7-5.4c7.2-4.5,8.9-7.4,10.3-12.7h-9.4v-7.1h10.2
				c0.2-2.4,0.2-3.4,0.2-5.8h-8.1v-6.9h37.6v6.9h-7.8v5.8h9.9v7.1H324.5z M316.3,283.5h-5.6c-0.1,3.4-0.1,4.3-0.2,5.8h5.8V283.5z
				 M338.9,314.8H334l-3.8-8.4h5.3c2,0,3-0.8,3-2.8v-30.7H316v-24.6h30.9v57.4C346.9,310.8,345.2,314.8,338.9,314.8z M338.5,254.5
				h-13.8v3.2h13.8V254.5z M338.5,263.2h-13.8v3.4h13.8V263.2z"/>
			<path class="st7" d="M382.5,308c-0.9-1.9-1.7-3.6-4.1-7.2c-3.4,6.2-6.3,10-10.8,14.3l-8.6-4.6c5.3-4.2,10.1-9.3,13.8-17.3
				c-1.9-2.2-2.2-2.5-4.5-4.5c-0.3,0.9-0.6,1.8-1,2.8l-8.3-2c2.6-7.4,3.8-12.5,6-21.9h-5.2v-9.1h7c1-5.4,1.4-8.4,1.7-12.6l8.6,1.2
				c0.6,0.1,1.6,0.3,1.6,1c0,0.4-0.2,0.6-0.7,0.9c-0.7,0.5-0.8,0.7-0.9,1.1c-0.6,3.7-1.2,7-1.4,8.4h11.7c0.2,8.6,0,20-4.9,33
				c5,5.9,6.6,9,7.4,10.5L382.5,308z M373.7,267.7c-0.8,4.2-1.8,8.3-3,12.5c1.9,1.4,2.9,2.2,5.1,4.3c1-3.8,2-7.9,2.6-16.8H373.7z
				 M421.8,282.6c-0.3-1-0.7-2.6-1.8-5.5c-5.1,0.6-14.1,1.4-22.7,2c-0.6,0-4.2,0.2-4.6,0.3c-0.3,0.1-1.6,1.4-2,1.4
				c-0.5,0-0.7-0.5-1-1.8l-1.4-8.6c1.1,0,1.8,0,7.5-0.2c1.9-6.4,3.9-13.6,5.9-24.2l9.4,1.8c0.9,0.2,2,0.5,2,1.3c0,0.6-0.6,1-1.2,1.1
				c-0.9,0.3-1,0.5-1.2,0.9c-2.3,6.9-3.5,10.2-6.6,18.7c5-0.2,5.6-0.2,12.4-0.6c-1.4-2.8-2.3-4.6-5.2-9.1l7.7-3.8
				c4,5.4,8.6,13,11.4,22.5L421.8,282.6z M416.1,315.3v-2.7h-14.6v2.7h-9.2v-31.4h33v31.4H416.1z M416.1,292.3h-14.6V304h14.6V292.3
				z"/>
		</g>
	</g>
</g>
</svg>
