<?xml version="1.0" encoding="utf-8"?>
<!-- Generator: Adobe Illustrator 19.0.0, SVG Export Plug-In . SVG Version: 6.00 Build 0)  -->
<svg version="1.1" id="レイヤー_2" xmlns="http://www.w3.org/2000/svg" xmlns:xlink="http://www.w3.org/1999/xlink" x="0px"
	 y="0px" viewBox="-371 673.4 597.4 257.6" style="enable-background:new -371 673.4 597.4 257.6;" xml:space="preserve">
<style type="text/css">
	.st0{fill:#FFF33F;}
	.st1{fill:#231815;}
	.st2{display:none;}
	.st3{display:inline;fill:#221613;}
	.st4{display:inline;fill:#FFFFFF;}
	.st5{fill:#A2EBDA;}
	.st6{fill:none;stroke:#000000;stroke-width:2;}
	.st7{fill:#FFFFFF;}
</style>
<g id="レイヤー_1のコピー_1_">
	<g>
		<rect x="-370.6" y="883.1" class="st0" width="337.9" height="47.5"/>
		<path class="st1" d="M-32.3,931H-371v-48.4h338.7V931z M-370.1,930.2h337v-46.7h-337L-370.1,930.2L-370.1,930.2z"/>
	</g>
	<g>
		<rect x="-370.6" y="701.9" class="st0" width="224.2" height="47.5"/>
		<path class="st1" d="M-146,749.9h-225v-48.4h225V749.9z M-370.1,749h223.3v-46.6h-223.3V749z"/>
	</g>
	<g>
		<rect x="-370.6" y="792.1" class="st0" width="596.6" height="47.5"/>
		<path class="st1" d="M226.4,840.1H-371v-48.4h597.4V840.1z M-370.1,839.2h595.7v-46.6h-595.7V839.2z"/>
	</g>
	<g class="st2">
		<path class="st3" d="M200.9,923.9h-13.7c-0.3,0-0.6-0.1-0.8-0.4s-0.3-0.6-0.2-0.9l2.8-13.9c0.1-0.5,0.6-0.9,1.1-0.9h13.7
			c0.3,0,0.6,0.1,0.8,0.4s0.3,0.6,0.2,0.9L202,923C201.8,923.5,201.4,923.9,200.9,923.9z M188.5,921.7H200l2.3-11.7h-11.5
			L188.5,921.7z M204.6,903.4h-13c-0.3,0-0.6-0.1-0.9-0.4c-0.2-0.3-0.3-0.6-0.2-0.9l9.2-46c0.1-0.5,0.6-0.9,1.1-0.9h13
			c0.3,0,0.6,0.1,0.9,0.4c0.2,0.3,0.3,0.6,0.2,0.9l-9.2,46C205.5,903,205.1,903.4,204.6,903.4z M192.9,901.2h10.8l8.7-43.8h-10.8
			L192.9,901.2z"/>
		<path class="st4" d="M189.9,908.9h13.7l-2.8,13.9h-13.7L189.9,908.9z M200.7,856.2h13l-9.2,46h-13L200.7,856.2z"/>
	</g>
</g>
<g>
	<g>
		<path class="st5" d="M-304.6,686.3c0.7,1.5,1,2.7,1.5,5.5l-8.8,0.6c-0.4-2.4-0.7-3.8-1.4-6.1h-4c-2.4,3.3-4,5.5-6.9,8.4h27.5v18.2
			h-24.6v4.6h29.2c0.1,3.1,0,9.4-1.2,13.9c-2.2,8.6-7.8,8.6-11,8.6h-4.5l-3-7.8h5.6c3.2,0,3.8-2.2,4.3-7.5h-19.4v18.4h-8.9v-14.5
			c-6.5,7-14.7,11.8-23.6,15.4l-5.8-6.6c8.2-2.3,16.1-6.2,21.8-12.6h-7.8c-0.2,1.3-0.3,1.6-0.6,2.7l-8.7-0.8
			c2.3-9.6,3.1-19.5,3.1-22.1l5.8,1.6h15.8v-4.1h-24.3v-7.2h29.2l-6.7-3.9c1.8-1.4,2.8-2.4,4.4-4.5h-8.7c0.6,1.4,1,2.7,1.5,5.8
			l-8.4,1c-0.4-3-0.8-4.5-1.7-6.8h-3.3c-2.2,3.7-3.7,5.5-5.7,7.7l-7-4c4.7-5.6,7.4-10.4,9.6-16.6l8,2.2c0.4,0.1,0.9,0.3,0.9,0.9
			c0,0.5-0.4,0.7-1.1,1.1c-0.5,0.3-0.5,0.4-1,1.8h18.9v4.4c2.2-3.2,3.8-5.8,5.3-9.7l8.7,1.8c0.2,0.1,0.6,0.3,0.6,0.7
			c0,0.4-0.4,0.6-0.9,0.9c-0.6,0.3-0.6,0.5-1.3,1.8h21.3v6.9H-304.6z M-330.1,712.8h-14c-0.2,3-0.2,3.3-0.4,4.6h14.4V712.8z
			 M-305.8,701.9h-15.4v4.1h15.4V701.9z"/>
		<path class="st5" d="M-236.3,727.7v11.6h-46.6v-9.2l23.8-22.4c2.5-2.4,4.2-4.5,5.1-6.2c0.9-1.7,1.3-3.4,1.3-5.1
			c0-2.5-0.8-4.4-2.5-5.7c-1.7-1.3-4.1-2-7.3-2c-2.7,0-5.1,0.5-7.3,1.5c-2.2,1-4,2.6-5.5,4.6l-10.4-6.7c2.4-3.6,5.7-6.4,9.9-8.4
			s9.1-3,14.5-3c4.6,0,8.6,0.7,12,2.2c3.4,1.5,6.1,3.6,8,6.3c1.9,2.7,2.9,5.9,2.9,9.6c0,3.3-0.7,6.5-2.1,9.4
			c-1.4,2.9-4.1,6.3-8.2,10l-14.2,13.4H-236.3z"/>
		<path class="st5" d="M-212.9,730c-3.7,6.8-6.6,10.1-8.4,12.1l-7-4.1c3.5-3.4,6.6-7.2,9.6-13.7l6.6,3.2c0.6,0.2,1.3,0.7,1.3,1.4
			C-210.8,729.5-211.8,729.7-212.9,730z M-196.4,688.7V715h5.3v6.7h-36.4V715h6.2v-26.3h-5.7v-6.7h5.7v-7l8.3,0.7c0.3,0,1,0.1,1,0.7
			c0,0.2-1.1,1.1-1.1,1.4v4.2h8.5v-6.6l8.3,0.5c0.8,0.1,1,0.5,1,0.7c0,0.2-0.2,0.5-0.6,0.9c-0.2,0.2-0.6,0.6-0.6,1v3.5h5.4v6.7
			H-196.4z M-204.6,688.7h-8.5v4.6h8.5V688.7z M-204.6,699.3h-8.5v4.6h8.5V699.3z M-204.6,710h-8.5v5h8.5V710z M-202.7,737.5
			c-2.5-3.2-4.2-6.1-5.9-9.7l6.3-3.9c1.9,3.8,4.2,7,6.2,9.5L-202.7,737.5z M-173,742.3l-2.6-7.8c5.9,0.2,6.7,0.2,6.7-2.6v-14.8
			h-10.6c-1.3,10.5-5.4,20.1-11.6,26.1l-7.8-4.7c9.4-8.9,12.2-16.4,12.2-45c0-2.9-0.1-8.3-0.5-15.9h26.6v56.2
			C-160.7,741.5-162,742-173,742.3z M-169,701.1h-9.7c0,3.3-0.1,5.9-0.2,8.5h9.9V701.1z M-169,685.2h-9.7v8.4h9.7V685.2z"/>
		<path class="st5" d="M-307.7,817.7v11.6h-46.6v-9.2l23.8-22.4c2.5-2.4,4.2-4.5,5.1-6.2c0.9-1.7,1.3-3.4,1.3-5.1
			c0-2.5-0.8-4.4-2.5-5.7s-4.1-2-7.3-2c-2.7,0-5.1,0.5-7.3,1.5c-2.2,1-4,2.6-5.5,4.6l-10.4-6.7c2.4-3.6,5.7-6.4,9.9-8.4
			c4.2-2,9.1-3,14.5-3c4.6,0,8.6,0.7,12,2.2s6.1,3.6,8,6.3c1.9,2.7,2.9,5.9,2.9,9.6c0,3.3-0.7,6.5-2.1,9.4c-1.4,2.9-4.1,6.3-8.2,10
			l-14.2,13.4H-307.7z"/>
		<path class="st5" d="M-288.9,826.6c-4-2.5-7.1-6.2-9.4-11c-2.3-4.8-3.4-10.5-3.4-17.1c0-6.6,1.1-12.3,3.4-17.1
			c2.3-4.8,5.4-8.4,9.4-11c4-2.5,8.5-3.8,13.6-3.8s9.6,1.3,13.6,3.8c4,2.5,7.1,6.2,9.4,11c2.3,4.8,3.4,10.5,3.4,17.1
			c0,6.6-1.1,12.3-3.4,17.1c-2.3,4.8-5.4,8.4-9.4,11c-4,2.5-8.5,3.8-13.6,3.8S-284.9,829.1-288.9,826.6z M-266.4,813.5
			c2.1-3.2,3.2-8.2,3.2-15c0-6.7-1.1-11.7-3.2-15c-2.1-3.2-5.1-4.8-8.8-4.8c-3.7,0-6.6,1.6-8.8,4.8c-2.1,3.2-3.2,8.2-3.2,15
			c0,6.7,1.1,11.7,3.2,15c2.1,3.2,5.1,4.8,8.8,4.8C-271.5,818.3-268.6,816.7-266.4,813.5z"/>
		<path class="st5" d="M-218.4,767.7v61.6h-14.3v-50.2H-245v-11.4H-218.4z"/>
		<path class="st5" d="M-165.5,774.5c4.9,5.3,7.3,12.8,7.3,22.7c0,7-1.3,13-3.9,18c-2.6,5-6.3,8.8-11,11.4
			c-4.8,2.6-10.2,3.9-16.5,3.9c-3.3,0-6.4-0.4-9.4-1.1c-3-0.7-5.5-1.8-7.7-3.1l5.3-10.5c3,2.1,6.8,3.1,11.5,3.1
			c5.2,0,9.4-1.5,12.4-4.6c3-3.1,4.7-7.5,4.9-13.3c-3.7,3.7-8.8,5.5-15.3,5.5c-3.9,0-7.5-0.8-10.7-2.4c-3.2-1.6-5.8-3.8-7.7-6.7
			c-1.9-2.9-2.8-6.3-2.8-10.1c0-4.1,1-7.7,3.1-10.8c2.1-3.1,4.9-5.5,8.4-7.2c3.5-1.7,7.5-2.5,11.8-2.5
			C-177.2,766.6-170.4,769.3-165.5,774.5z M-177.1,793.1c2-1.7,2.9-3.9,2.9-6.6c0-2.7-1-4.9-2.9-6.6c-1.9-1.7-4.5-2.6-7.9-2.6
			c-3.1,0-5.5,0.8-7.4,2.5c-1.9,1.6-2.9,3.9-2.9,6.7s1,5.1,2.9,6.7c1.9,1.7,4.4,2.5,7.6,2.5C-181.6,795.7-179.1,794.8-177.1,793.1z"
			/>
		<path class="st5" d="M-104.5,817.6v15.8h-10.1v-15.8h-34.1v-8.5h11.5v-19h22.6v-9.6h-18.4c-4.6,7.3-7,9.9-9,12l-8.6-4.6
			c7.4-7.5,12.6-16.2,15.5-24.3l9.8,3.7c0.4,0.2,0.6,0.5,0.6,0.7c0,0.2-0.2,0.6-0.4,0.7c-0.2,0.1-1.5,0.4-1.7,0.6
			c-0.2,0-1.6,2.7-1.8,3h44.3v8.1h-20.6v9.6h13.9v8.2h-13.9v10.8h24.5v8.5H-104.5z M-114.5,798.3h-12.9v10.8h12.9V798.3z"/>
		<path class="st5" d="M-47.1,767.7v61.6h-14.3v-50.2h-12.3v-11.4H-47.1z"/>
		<path class="st5" d="M-23.4,826.6c-4-2.5-7.1-6.2-9.4-11c-2.3-4.8-3.4-10.5-3.4-17.1c0-6.6,1.1-12.3,3.4-17.1
			c2.3-4.8,5.4-8.4,9.4-11c4-2.5,8.5-3.8,13.6-3.8c5.1,0,9.6,1.3,13.6,3.8c4,2.5,7.1,6.2,9.4,11c2.3,4.8,3.4,10.5,3.4,17.1
			c0,6.6-1.1,12.3-3.4,17.1c-2.3,4.8-5.4,8.4-9.4,11c-4,2.5-8.5,3.8-13.6,3.8C-14.8,830.4-19.4,829.1-23.4,826.6z M-0.9,813.5
			c2.1-3.2,3.2-8.2,3.2-15c0-6.7-1.1-11.7-3.2-15c-2.1-3.2-5.1-4.8-8.8-4.8c-3.7,0-6.6,1.6-8.8,4.8c-2.1,3.2-3.2,8.2-3.2,15
			c0,6.7,1.1,11.7,3.2,15c2.1,3.2,5.1,4.8,8.8,4.8C-6,818.3-3,816.7-0.9,813.5z"/>
		<path class="st5" d="M65.2,833.4l-3.9-10.5c1.4,0.2,3.2,0.5,6.3,0.5c2.3,0,3-0.6,3-2.4v-13.2H46.5c-2.6,11.4-6.2,17.6-15.4,24.6
			l-7.9-6.6c5.7-4.6,14.9-11.8,14.9-29.7v-29.8h41.8v59C79.8,832.8,73.3,833.4,65.2,833.4z M70.5,791.1H47.8c0,4.5-0.2,6.6-0.3,8.3
			h23V791.1z M70.5,774.7H47.8v8.3h22.7V774.7z"/>
		<path class="st5" d="M145.4,827.8c-5.4-4.2-9.4-6.8-16.6-9.8c0.5,7.8-2,12.5-15,12.5c-14.6,0-19-5.8-19-11.3c0-7,7-12.5,18.6-12.5
			c2.6,0,4.6,0.2,5.8,0.4c-0.6-18.6-0.5-20.6-0.5-34.6v-5.7l9.6,1.4c0.4,0.1,1.9,0.3,1.9,1c0,0.3-0.1,0.4-1,1
			c-0.5,0.3-0.9,0.6-1,1.2c-0.2,1-0.4,6.9-0.4,9.7c1.1,0.2,1.6,0.2,3.4,0.2c9.4,0,13.8-1.8,16.2-2.7v9.3c-5.8,1.4-11,1.9-14.6,1.9
			c-1.6,0-3.8-0.1-5.4-0.2c-0.1,6.8-0.1,9.4,0.6,19.5c9.2,2.9,14.6,5.4,22.2,10.6L145.4,827.8z M112.4,814.5c-5,0-7.8,1.8-7.8,4.2
			c0,3.4,5.9,4.1,8.6,4.1c6.4,0,6.3-4,6.3-7.5C118,815,115.4,814.5,112.4,814.5z"/>
		<path class="st5" d="M173.8,813.6H167c-2.6-7-3.6-14.4-3.6-21.8c0-9.8,1.5-19.1,2.2-23.7l8.7,0.5c0.5,0,1.7,0.2,1.7,1
			c0,0.6-0.8,0.9-1.1,1.2c-1.7,1.4-3,16.6-3,21.4c0,2.3,0.2,3.2,0.6,5c1-2.7,2.6-6.9,4.6-11.4l5.6,3.7
			C179.4,797.4,176.2,805.4,173.8,813.6z M203.6,815.9c-3.8,8.6-8.3,13.4-11.2,16.4l-9.5-5c2.9-2.2,7.4-5.7,11.4-13.5
			c3.3-6.6,4.9-14.1,4.9-21.4c0-0.9-0.2-13.2-2-24.9h9.7c0.2,0,1.7,0,1.7,1c0,0.7-1.4,1.2-1.4,1.9c0,0.7,0.4,4.1,0.5,4.9
			c0.5,5.6,1,11.5,1,16.8C208.5,796.8,208,805.9,203.6,815.9z"/>
		<path class="st5" d="M-292.2,873.3c-2.8,17.7-7.4,25.7-10.8,31.5c4.6,5.8,8.6,8.6,14.9,11.2l-7.4,7.4c-5.3-3.2-8.6-6-12.7-11.4
			c-5.1,5.7-9,8.6-15.2,11.8l-7.1-6.6c-3,6.3-8.4,6.6-12.2,6.8l-3.4-9.4c0.9,0.2,2.9,0.4,5.1,0.4c1.4,0,2.2-0.1,3.4-2.8
			c1.8-4.1,2.9-12.9,3-23.4h-6.2c-2.1,18.3-5.5,25.8-10.2,33.4l-9-2.4c8.1-12.7,11.3-24.2,11.4-46.5h-8.2v-8.1h11.3v-11.4l9,0.6
			c0.6,0,1.9,0.2,1.9,1c0,0.3-0.2,0.6-0.5,0.7c-1,0.7-1.2,0.8-1.2,1.4v7.7h11.8v8.1h-15.8c0,3.1,0,4.8-0.2,7.5h10.9
			c5.2-5.4,9-11.2,13.3-26.7l8.6,2.5c0.7,0.2,1.4,0.6,1.4,1.4c0,0.6-0.6,0.8-1,1c-0.2,0.1-1.2,0.4-1.3,0.6c-0.1,0.1-1.8,5-2.1,5.6
			h22.8v8.2H-292.2z M-319.5,883.2c-1.4,2-2.2,3-2.7,3.4l-4.2-3.1c-0.2,3.4-0.3,8.7-1,15.6c-0.6,5.8-1.2,11.5-2.8,17
			c7.1-3,11.7-5.9,17.1-12.1C-315,900.2-317.5,894.7-319.5,883.2z M-313.1,873.3c1.1,11.4,2.7,16.9,5.2,23c2.8-5.6,5-11,6.6-23
			H-313.1z"/>
		<path class="st5" d="M-208,922.2c-9.5,0.4-30,0.5-32.3,0.5c-15.5,0-19.1-2.3-23-8.2c-2.6,2.2-5.9,4.7-7.1,5.6
			c-1.7,1.3-1.8,1.4-1.9,1.7c-0.2,1-0.3,1.5-0.8,1.5c-0.2,0-0.6-0.2-1-1l-4-8.1c4.4-2.1,6.6-3.4,9.8-5.8v-17.3h-7.9v-8.3h17.4v23.5
			c0,7,5.8,8.2,16.2,8.2c12.9,0,25.8-0.3,38.7-1.8L-208,922.2z M-263.9,871.7c-2.4-3-6.4-7.4-11.3-10.3l6.6-6.2
			c3.5,2.1,7.1,4.7,11.2,10.7L-263.9,871.7z M-226.8,890.3c1.8,3.3,5.3,9.4,17.9,14.6l-5.9,6.6c-2.8-1-10.8-4.4-17.4-15
			c-4.1,7-9.4,12.1-15.5,14.8l-7.2-6c7-3.1,13.4-7.8,16.1-15h-14.8v-7.8h16.6c0.2-2.6,0.3-4.2,0.3-6.7H-251V868h7.7
			c-1.7-3-4.4-6.6-7.3-9l7.1-5.5c2.8,2.7,4.8,5.2,7.9,10.6l-5.3,4h9.8c2.8-4.7,5.7-9.7,7.8-14.6l8.2,2.5c0.2,0.1,1.5,0.5,1.5,1.1
			c0,0.2-0.2,0.3-0.3,0.4s-1.2,0.6-1.4,0.7c-3.1,5.4-4.1,7.1-5.9,9.8h9.6v7.8h-16.2c0.1,3.3,0,4.9-0.2,6.7h20.1v7.8H-226.8z"/>
		<path class="st5" d="M-186.3,881.1v41.5h-8.9v-66.1h30.9v24.6H-186.3z M-172.4,862.8h-13.9v3.2h13.9V862.8z M-172.4,871.5h-13.9
			v3.4h13.9V871.5z M-151,904.7v16.6h-8.2v-16.6h-6.5c-1.7,8.7-4.8,12.6-11.3,18.1l-7-5.4c7.2-4.5,8.9-7.4,10.3-12.7h-9.4v-7.1h10.2
			c0.2-2.4,0.2-3.4,0.2-5.8h-8.1v-6.9h37.6v6.9h-7.8v5.8h9.9v7.1H-151z M-159.3,891.8h-5.6c-0.1,3.4-0.1,4.3-0.2,5.8h5.8V891.8z
			 M-136.6,923.1h-4.9l-3.8-8.4h5.3c2,0,3-0.8,3-2.8v-30.7h-22.5v-24.6h30.9V914C-128.6,919.1-130.4,923.1-136.6,923.1z M-137,862.8
			h-13.8v3.2h13.8V862.8z M-137,871.5h-13.8v3.4h13.8V871.5z"/>
		<path class="st5" d="M-93.1,916.3c-0.9-1.9-1.7-3.6-4.1-7.2c-3.4,6.2-6.3,10-10.8,14.3l-8.6-4.6c5.3-4.2,10.1-9.3,13.8-17.3
			c-1.9-2.2-2.2-2.5-4.5-4.5c-0.3,0.9-0.6,1.8-1,2.8l-8.3-2c2.6-7.4,3.8-12.5,6-21.9h-5.2v-9.1h7c1-5.4,1.4-8.4,1.7-12.6l8.6,1.2
			c0.6,0.1,1.6,0.3,1.6,1c0,0.4-0.2,0.6-0.7,0.9c-0.7,0.5-0.8,0.7-0.9,1.1c-0.6,3.7-1.2,7-1.4,8.4h11.7c0.2,8.6,0,20-4.9,33
			c5,5.9,6.6,9,7.4,10.5L-93.1,916.3z M-101.8,876c-0.8,4.2-1.8,8.3-3,12.5c1.9,1.4,2.9,2.2,5.1,4.3c1-3.8,2-7.9,2.6-16.8H-101.8z
			 M-53.8,890.9c-0.3-1-0.7-2.6-1.8-5.5c-5.1,0.6-14.1,1.4-22.7,2c-0.6,0-4.2,0.2-4.6,0.3c-0.3,0.1-1.6,1.4-2,1.4
			c-0.5,0-0.7-0.5-1-1.8l-1.4-8.6c1.1,0,1.8,0,7.5-0.2c1.9-6.4,3.9-13.6,5.9-24.2l9.4,1.8c0.9,0.2,2,0.5,2,1.3c0,0.6-0.6,1-1.2,1.1
			c-0.9,0.3-1,0.5-1.2,0.9c-2.3,6.9-3.5,10.2-6.6,18.7c5-0.2,5.6-0.2,12.4-0.6c-1.4-2.8-2.3-4.6-5.2-9.1l7.7-3.8
			c4,5.4,8.6,13,11.4,22.5L-53.8,890.9z M-59.5,923.6v-2.7h-14.6v2.7h-9.2v-31.4h33v31.4H-59.5z M-59.5,900.6h-14.6v11.7h14.6V900.6
			z"/>
	</g>
	<g>
		<path class="st6" d="M-304.6,686.3c0.7,1.5,1,2.7,1.5,5.5l-8.8,0.6c-0.4-2.4-0.7-3.8-1.4-6.1h-4c-2.4,3.3-4,5.5-6.9,8.4h27.5v18.2
			h-24.6v4.6h29.2c0.1,3.1,0,9.4-1.2,13.9c-2.2,8.6-7.8,8.6-11,8.6h-4.5l-3-7.8h5.6c3.2,0,3.8-2.2,4.3-7.5h-19.4v18.4h-8.9v-14.5
			c-6.5,7-14.7,11.8-23.6,15.4l-5.8-6.6c8.2-2.3,16.1-6.2,21.8-12.6h-7.8c-0.2,1.3-0.3,1.6-0.6,2.7l-8.7-0.8
			c2.3-9.6,3.1-19.5,3.1-22.1l5.8,1.6h15.8v-4.1h-24.3v-7.2h29.2l-6.7-3.9c1.8-1.4,2.8-2.4,4.4-4.5h-8.7c0.6,1.4,1,2.7,1.5,5.8
			l-8.4,1c-0.4-3-0.8-4.5-1.7-6.8h-3.3c-2.2,3.7-3.7,5.5-5.7,7.7l-7-4c4.7-5.6,7.4-10.4,9.6-16.6l8,2.2c0.4,0.1,0.9,0.3,0.9,0.9
			c0,0.5-0.4,0.7-1.1,1.1c-0.5,0.3-0.5,0.4-1,1.8h18.9v4.4c2.2-3.2,3.8-5.8,5.3-9.7l8.7,1.8c0.2,0.1,0.6,0.3,0.6,0.7
			c0,0.4-0.4,0.6-0.9,0.9c-0.6,0.3-0.6,0.5-1.3,1.8h21.3v6.9H-304.6z M-330.1,712.8h-14c-0.2,3-0.2,3.3-0.4,4.6h14.4V712.8z
			 M-305.8,701.9h-15.4v4.1h15.4V701.9z"/>
		<path class="st6" d="M-236.3,727.7v11.6h-46.6v-9.2l23.8-22.4c2.5-2.4,4.2-4.5,5.1-6.2c0.9-1.7,1.3-3.4,1.3-5.1
			c0-2.5-0.8-4.4-2.5-5.7c-1.7-1.3-4.1-2-7.3-2c-2.7,0-5.1,0.5-7.3,1.5c-2.2,1-4,2.6-5.5,4.6l-10.4-6.7c2.4-3.6,5.7-6.4,9.9-8.4
			s9.1-3,14.5-3c4.6,0,8.6,0.7,12,2.2c3.4,1.5,6.1,3.6,8,6.3c1.9,2.7,2.9,5.9,2.9,9.6c0,3.3-0.7,6.5-2.1,9.4
			c-1.4,2.9-4.1,6.3-8.2,10l-14.2,13.4H-236.3z"/>
		<path class="st6" d="M-212.9,730c-3.7,6.8-6.6,10.1-8.4,12.1l-7-4.1c3.5-3.4,6.6-7.2,9.6-13.7l6.6,3.2c0.6,0.2,1.3,0.7,1.3,1.4
			C-210.8,729.5-211.8,729.7-212.9,730z M-196.4,688.7V715h5.3v6.7h-36.4V715h6.2v-26.3h-5.7v-6.7h5.7v-7l8.3,0.7c0.3,0,1,0.1,1,0.7
			c0,0.2-1.1,1.1-1.1,1.4v4.2h8.5v-6.6l8.3,0.5c0.8,0.1,1,0.5,1,0.7c0,0.2-0.2,0.5-0.6,0.9c-0.2,0.2-0.6,0.6-0.6,1v3.5h5.4v6.7
			H-196.4z M-204.6,688.7h-8.5v4.6h8.5V688.7z M-204.6,699.3h-8.5v4.6h8.5V699.3z M-204.6,710h-8.5v5h8.5V710z M-202.7,737.5
			c-2.5-3.2-4.2-6.1-5.9-9.7l6.3-3.9c1.9,3.8,4.2,7,6.2,9.5L-202.7,737.5z M-173,742.3l-2.6-7.8c5.9,0.2,6.7,0.2,6.7-2.6v-14.8
			h-10.6c-1.3,10.5-5.4,20.1-11.6,26.1l-7.8-4.7c9.4-8.9,12.2-16.4,12.2-45c0-2.9-0.1-8.3-0.5-15.9h26.6v56.2
			C-160.7,741.5-162,742-173,742.3z M-169,701.1h-9.7c0,3.3-0.1,5.9-0.2,8.5h9.9V701.1z M-169,685.2h-9.7v8.4h9.7V685.2z"/>
		<path class="st6" d="M-307.7,817.7v11.6h-46.6v-9.2l23.8-22.4c2.5-2.4,4.2-4.5,5.1-6.2c0.9-1.7,1.3-3.4,1.3-5.1
			c0-2.5-0.8-4.4-2.5-5.7s-4.1-2-7.3-2c-2.7,0-5.1,0.5-7.3,1.5c-2.2,1-4,2.6-5.5,4.6l-10.4-6.7c2.4-3.6,5.7-6.4,9.9-8.4
			c4.2-2,9.1-3,14.5-3c4.6,0,8.6,0.7,12,2.2s6.1,3.6,8,6.3c1.9,2.7,2.9,5.9,2.9,9.6c0,3.3-0.7,6.5-2.1,9.4c-1.4,2.9-4.1,6.3-8.2,10
			l-14.2,13.4H-307.7z"/>
		<path class="st6" d="M-288.9,826.6c-4-2.5-7.1-6.2-9.4-11c-2.3-4.8-3.4-10.5-3.4-17.1c0-6.6,1.1-12.3,3.4-17.1
			c2.3-4.8,5.4-8.4,9.4-11c4-2.5,8.5-3.8,13.6-3.8s9.6,1.3,13.6,3.8c4,2.5,7.1,6.2,9.4,11c2.3,4.8,3.4,10.5,3.4,17.1
			c0,6.6-1.1,12.3-3.4,17.1c-2.3,4.8-5.4,8.4-9.4,11c-4,2.5-8.5,3.8-13.6,3.8S-284.9,829.1-288.9,826.6z M-266.4,813.5
			c2.1-3.2,3.2-8.2,3.2-15c0-6.7-1.1-11.7-3.2-15c-2.1-3.2-5.1-4.8-8.8-4.8c-3.7,0-6.6,1.6-8.8,4.8c-2.1,3.2-3.2,8.2-3.2,15
			c0,6.7,1.1,11.7,3.2,15c2.1,3.2,5.1,4.8,8.8,4.8C-271.5,818.3-268.6,816.7-266.4,813.5z"/>
		<path class="st6" d="M-218.4,767.7v61.6h-14.3v-50.2H-245v-11.4H-218.4z"/>
		<path class="st6" d="M-165.5,774.5c4.9,5.3,7.3,12.8,7.3,22.7c0,7-1.3,13-3.9,18c-2.6,5-6.3,8.8-11,11.4
			c-4.8,2.6-10.2,3.9-16.5,3.9c-3.3,0-6.4-0.4-9.4-1.1c-3-0.7-5.5-1.8-7.7-3.1l5.3-10.5c3,2.1,6.8,3.1,11.5,3.1
			c5.2,0,9.4-1.5,12.4-4.6c3-3.1,4.7-7.5,4.9-13.3c-3.7,3.7-8.8,5.5-15.3,5.5c-3.9,0-7.5-0.8-10.7-2.4c-3.2-1.6-5.8-3.8-7.7-6.7
			c-1.9-2.9-2.8-6.3-2.8-10.1c0-4.1,1-7.7,3.1-10.8c2.1-3.1,4.9-5.5,8.4-7.2c3.5-1.7,7.5-2.5,11.8-2.5
			C-177.2,766.6-170.4,769.3-165.5,774.5z M-177.1,793.1c2-1.7,2.9-3.9,2.9-6.6c0-2.7-1-4.9-2.9-6.6c-1.9-1.7-4.5-2.6-7.9-2.6
			c-3.1,0-5.5,0.8-7.4,2.5c-1.9,1.6-2.9,3.9-2.9,6.7s1,5.1,2.9,6.7c1.9,1.7,4.4,2.5,7.6,2.5C-181.6,795.7-179.1,794.8-177.1,793.1z"
			/>
		<path class="st6" d="M-104.5,817.6v15.8h-10.1v-15.8h-34.1v-8.5h11.5v-19h22.6v-9.6h-18.4c-4.6,7.3-7,9.9-9,12l-8.6-4.6
			c7.4-7.5,12.6-16.2,15.5-24.3l9.8,3.7c0.4,0.2,0.6,0.5,0.6,0.7c0,0.2-0.2,0.6-0.4,0.7c-0.2,0.1-1.5,0.4-1.7,0.6
			c-0.2,0-1.6,2.7-1.8,3h44.3v8.1h-20.6v9.6h13.9v8.2h-13.9v10.8h24.5v8.5H-104.5z M-114.5,798.3h-12.9v10.8h12.9V798.3z"/>
		<path class="st6" d="M-47.1,767.7v61.6h-14.3v-50.2h-12.3v-11.4H-47.1z"/>
		<path class="st6" d="M-23.4,826.6c-4-2.5-7.1-6.2-9.4-11c-2.3-4.8-3.4-10.5-3.4-17.1c0-6.6,1.1-12.3,3.4-17.1
			c2.3-4.8,5.4-8.4,9.4-11c4-2.5,8.5-3.8,13.6-3.8c5.1,0,9.6,1.3,13.6,3.8c4,2.5,7.1,6.2,9.4,11c2.3,4.8,3.4,10.5,3.4,17.1
			c0,6.6-1.1,12.3-3.4,17.1c-2.3,4.8-5.4,8.4-9.4,11c-4,2.5-8.5,3.8-13.6,3.8C-14.8,830.4-19.4,829.1-23.4,826.6z M-0.9,813.5
			c2.1-3.2,3.2-8.2,3.2-15c0-6.7-1.1-11.7-3.2-15c-2.1-3.2-5.1-4.8-8.8-4.8c-3.7,0-6.6,1.6-8.8,4.8c-2.1,3.2-3.2,8.2-3.2,15
			c0,6.7,1.1,11.7,3.2,15c2.1,3.2,5.1,4.8,8.8,4.8C-6,818.3-3,816.7-0.9,813.5z"/>
		<path class="st6" d="M65.2,833.4l-3.9-10.5c1.4,0.2,3.2,0.5,6.3,0.5c2.3,0,3-0.6,3-2.4v-13.2H46.5c-2.6,11.4-6.2,17.6-15.4,24.6
			l-7.9-6.6c5.7-4.6,14.9-11.8,14.9-29.7v-29.8h41.8v59C79.8,832.8,73.3,833.4,65.2,833.4z M70.5,791.1H47.8c0,4.5-0.2,6.6-0.3,8.3
			h23V791.1z M70.5,774.7H47.8v8.3h22.7V774.7z"/>
		<path class="st6" d="M145.4,827.8c-5.4-4.2-9.4-6.8-16.6-9.8c0.5,7.8-2,12.5-15,12.5c-14.6,0-19-5.8-19-11.3c0-7,7-12.5,18.6-12.5
			c2.6,0,4.6,0.2,5.8,0.4c-0.6-18.6-0.5-20.6-0.5-34.6v-5.7l9.6,1.4c0.4,0.1,1.9,0.3,1.9,1c0,0.3-0.1,0.4-1,1
			c-0.5,0.3-0.9,0.6-1,1.2c-0.2,1-0.4,6.9-0.4,9.7c1.1,0.2,1.6,0.2,3.4,0.2c9.4,0,13.8-1.8,16.2-2.7v9.3c-5.8,1.4-11,1.9-14.6,1.9
			c-1.6,0-3.8-0.1-5.4-0.2c-0.1,6.8-0.1,9.4,0.6,19.5c9.2,2.9,14.6,5.4,22.2,10.6L145.4,827.8z M112.4,814.5c-5,0-7.8,1.8-7.8,4.2
			c0,3.4,5.9,4.1,8.6,4.1c6.4,0,6.3-4,6.3-7.5C118,815,115.4,814.5,112.4,814.5z"/>
		<path class="st6" d="M173.8,813.6H167c-2.6-7-3.6-14.4-3.6-21.8c0-9.8,1.5-19.1,2.2-23.7l8.7,0.5c0.5,0,1.7,0.2,1.7,1
			c0,0.6-0.8,0.9-1.1,1.2c-1.7,1.4-3,16.6-3,21.4c0,2.3,0.2,3.2,0.6,5c1-2.7,2.6-6.9,4.6-11.4l5.6,3.7
			C179.4,797.4,176.2,805.4,173.8,813.6z M203.6,815.9c-3.8,8.6-8.3,13.4-11.2,16.4l-9.5-5c2.9-2.2,7.4-5.7,11.4-13.5
			c3.3-6.6,4.9-14.1,4.9-21.4c0-0.9-0.2-13.2-2-24.9h9.7c0.2,0,1.7,0,1.7,1c0,0.7-1.4,1.2-1.4,1.9c0,0.7,0.4,4.1,0.5,4.9
			c0.5,5.6,1,11.5,1,16.8C208.5,796.8,208,805.9,203.6,815.9z"/>
		<path class="st6" d="M-292.2,873.3c-2.8,17.7-7.4,25.7-10.8,31.5c4.6,5.8,8.6,8.6,14.9,11.2l-7.4,7.4c-5.3-3.2-8.6-6-12.7-11.4
			c-5.1,5.7-9,8.6-15.2,11.8l-7.1-6.6c-3,6.3-8.4,6.6-12.2,6.8l-3.4-9.4c0.9,0.2,2.9,0.4,5.1,0.4c1.4,0,2.2-0.1,3.4-2.8
			c1.8-4.1,2.9-12.9,3-23.4h-6.2c-2.1,18.3-5.5,25.8-10.2,33.4l-9-2.4c8.1-12.7,11.3-24.2,11.4-46.5h-8.2v-8.1h11.3v-11.4l9,0.6
			c0.6,0,1.9,0.2,1.9,1c0,0.3-0.2,0.6-0.5,0.7c-1,0.7-1.2,0.8-1.2,1.4v7.7h11.8v8.1h-15.8c0,3.1,0,4.8-0.2,7.5h10.9
			c5.2-5.4,9-11.2,13.3-26.7l8.6,2.5c0.7,0.2,1.4,0.6,1.4,1.4c0,0.6-0.6,0.8-1,1c-0.2,0.1-1.2,0.4-1.3,0.6c-0.1,0.1-1.8,5-2.1,5.6
			h22.8v8.2H-292.2z M-319.5,883.2c-1.4,2-2.2,3-2.7,3.4l-4.2-3.1c-0.2,3.4-0.3,8.7-1,15.6c-0.6,5.8-1.2,11.5-2.8,17
			c7.1-3,11.7-5.9,17.1-12.1C-315,900.2-317.5,894.7-319.5,883.2z M-313.1,873.3c1.1,11.4,2.7,16.9,5.2,23c2.8-5.6,5-11,6.6-23
			H-313.1z"/>
		<path class="st6" d="M-208,922.2c-9.5,0.4-30,0.5-32.3,0.5c-15.5,0-19.1-2.3-23-8.2c-2.6,2.2-5.9,4.7-7.1,5.6
			c-1.7,1.3-1.8,1.4-1.9,1.7c-0.2,1-0.3,1.5-0.8,1.5c-0.2,0-0.6-0.2-1-1l-4-8.1c4.4-2.1,6.6-3.4,9.8-5.8v-17.3h-7.9v-8.3h17.4v23.5
			c0,7,5.8,8.2,16.2,8.2c12.9,0,25.8-0.3,38.7-1.8L-208,922.2z M-263.9,871.7c-2.4-3-6.4-7.4-11.3-10.3l6.6-6.2
			c3.5,2.1,7.1,4.7,11.2,10.7L-263.9,871.7z M-226.8,890.3c1.8,3.3,5.3,9.4,17.9,14.6l-5.9,6.6c-2.8-1-10.8-4.4-17.4-15
			c-4.1,7-9.4,12.1-15.5,14.8l-7.2-6c7-3.1,13.4-7.8,16.1-15h-14.8v-7.8h16.6c0.2-2.6,0.3-4.2,0.3-6.7H-251V868h7.7
			c-1.7-3-4.4-6.6-7.3-9l7.1-5.5c2.8,2.7,4.8,5.2,7.9,10.6l-5.3,4h9.8c2.8-4.7,5.7-9.7,7.8-14.6l8.2,2.5c0.2,0.1,1.5,0.5,1.5,1.1
			c0,0.2-0.2,0.3-0.3,0.4s-1.2,0.6-1.4,0.7c-3.1,5.4-4.1,7.1-5.9,9.8h9.6v7.8h-16.2c0.1,3.3,0,4.9-0.2,6.7h20.1v7.8H-226.8z"/>
		<path class="st6" d="M-186.3,881.1v41.5h-8.9v-66.1h30.9v24.6H-186.3z M-172.4,862.8h-13.9v3.2h13.9V862.8z M-172.4,871.5h-13.9
			v3.4h13.9V871.5z M-151,904.7v16.6h-8.2v-16.6h-6.5c-1.7,8.7-4.8,12.6-11.3,18.1l-7-5.4c7.2-4.5,8.9-7.4,10.3-12.7h-9.4v-7.1h10.2
			c0.2-2.4,0.2-3.4,0.2-5.8h-8.1v-6.9h37.6v6.9h-7.8v5.8h9.9v7.1H-151z M-159.3,891.8h-5.6c-0.1,3.4-0.1,4.3-0.2,5.8h5.8V891.8z
			 M-136.6,923.1h-4.9l-3.8-8.4h5.3c2,0,3-0.8,3-2.8v-30.7h-22.5v-24.6h30.9V914C-128.6,919.1-130.4,923.1-136.6,923.1z M-137,862.8
			h-13.8v3.2h13.8V862.8z M-137,871.5h-13.8v3.4h13.8V871.5z"/>
		<path class="st6" d="M-93.1,916.3c-0.9-1.9-1.7-3.6-4.1-7.2c-3.4,6.2-6.3,10-10.8,14.3l-8.6-4.6c5.3-4.2,10.1-9.3,13.8-17.3
			c-1.9-2.2-2.2-2.5-4.5-4.5c-0.3,0.9-0.6,1.8-1,2.8l-8.3-2c2.6-7.4,3.8-12.5,6-21.9h-5.2v-9.1h7c1-5.4,1.4-8.4,1.7-12.6l8.6,1.2
			c0.6,0.1,1.6,0.3,1.6,1c0,0.4-0.2,0.6-0.7,0.9c-0.7,0.5-0.8,0.7-0.9,1.1c-0.6,3.7-1.2,7-1.4,8.4h11.7c0.2,8.6,0,20-4.9,33
			c5,5.9,6.6,9,7.4,10.5L-93.1,916.3z M-101.8,876c-0.8,4.2-1.8,8.3-3,12.5c1.9,1.4,2.9,2.2,5.1,4.3c1-3.8,2-7.9,2.6-16.8H-101.8z
			 M-53.8,890.9c-0.3-1-0.7-2.6-1.8-5.5c-5.1,0.6-14.1,1.4-22.7,2c-0.6,0-4.2,0.2-4.6,0.3c-0.3,0.1-1.6,1.4-2,1.4
			c-0.5,0-0.7-0.5-1-1.8l-1.4-8.6c1.1,0,1.8,0,7.5-0.2c1.9-6.4,3.9-13.6,5.9-24.2l9.4,1.8c0.9,0.2,2,0.5,2,1.3c0,0.6-0.6,1-1.2,1.1
			c-0.9,0.3-1,0.5-1.2,0.9c-2.3,6.9-3.5,10.2-6.6,18.7c5-0.2,5.6-0.2,12.4-0.6c-1.4-2.8-2.3-4.6-5.2-9.1l7.7-3.8
			c4,5.4,8.6,13,11.4,22.5L-53.8,890.9z M-59.5,923.6v-2.7h-14.6v2.7h-9.2v-31.4h33v31.4H-59.5z M-59.5,900.6h-14.6v11.7h14.6V900.6
			z"/>
	</g>
	<g>
		<path class="st7" d="M-304.6,686.3c0.7,1.5,1,2.7,1.5,5.5l-8.8,0.6c-0.4-2.4-0.7-3.8-1.4-6.1h-4c-2.4,3.3-4,5.5-6.9,8.4h27.5v18.2
			h-24.6v4.6h29.2c0.1,3.1,0,9.4-1.2,13.9c-2.2,8.6-7.8,8.6-11,8.6h-4.5l-3-7.8h5.6c3.2,0,3.8-2.2,4.3-7.5h-19.4v18.4h-8.9v-14.5
			c-6.5,7-14.7,11.8-23.6,15.4l-5.8-6.6c8.2-2.3,16.1-6.2,21.8-12.6h-7.8c-0.2,1.3-0.3,1.6-0.6,2.7l-8.7-0.8
			c2.3-9.6,3.1-19.5,3.1-22.1l5.8,1.6h15.8v-4.1h-24.3v-7.2h29.2l-6.7-3.9c1.8-1.4,2.8-2.4,4.4-4.5h-8.7c0.6,1.4,1,2.7,1.5,5.8
			l-8.4,1c-0.4-3-0.8-4.5-1.7-6.8h-3.3c-2.2,3.7-3.7,5.5-5.7,7.7l-7-4c4.7-5.6,7.4-10.4,9.6-16.6l8,2.2c0.4,0.1,0.9,0.3,0.9,0.9
			c0,0.5-0.4,0.7-1.1,1.1c-0.5,0.3-0.5,0.4-1,1.8h18.9v4.4c2.2-3.2,3.8-5.8,5.3-9.7l8.7,1.8c0.2,0.1,0.6,0.3,0.6,0.7
			c0,0.4-0.4,0.6-0.9,0.9c-0.6,0.3-0.6,0.5-1.3,1.8h21.3v6.9H-304.6z M-330.1,712.8h-14c-0.2,3-0.2,3.3-0.4,4.6h14.4V712.8z
			 M-305.8,701.9h-15.4v4.1h15.4V701.9z"/>
		<path class="st7" d="M-236.3,727.7v11.6h-46.6v-9.2l23.8-22.4c2.5-2.4,4.2-4.5,5.1-6.2c0.9-1.7,1.3-3.4,1.3-5.1
			c0-2.5-0.8-4.4-2.5-5.7c-1.7-1.3-4.1-2-7.3-2c-2.7,0-5.1,0.5-7.3,1.5c-2.2,1-4,2.6-5.5,4.6l-10.4-6.7c2.4-3.6,5.7-6.4,9.9-8.4
			s9.1-3,14.5-3c4.6,0,8.6,0.7,12,2.2c3.4,1.5,6.1,3.6,8,6.3c1.9,2.7,2.9,5.9,2.9,9.6c0,3.3-0.7,6.5-2.1,9.4
			c-1.4,2.9-4.1,6.3-8.2,10l-14.2,13.4H-236.3z"/>
		<path class="st7" d="M-212.9,730c-3.7,6.8-6.6,10.1-8.4,12.1l-7-4.1c3.5-3.4,6.6-7.2,9.6-13.7l6.6,3.2c0.6,0.2,1.3,0.7,1.3,1.4
			C-210.8,729.5-211.8,729.7-212.9,730z M-196.4,688.7V715h5.3v6.7h-36.4V715h6.2v-26.3h-5.7v-6.7h5.7v-7l8.3,0.7c0.3,0,1,0.1,1,0.7
			c0,0.2-1.1,1.1-1.1,1.4v4.2h8.5v-6.6l8.3,0.5c0.8,0.1,1,0.5,1,0.7c0,0.2-0.2,0.5-0.6,0.9c-0.2,0.2-0.6,0.6-0.6,1v3.5h5.4v6.7
			H-196.4z M-204.6,688.7h-8.5v4.6h8.5V688.7z M-204.6,699.3h-8.5v4.6h8.5V699.3z M-204.6,710h-8.5v5h8.5V710z M-202.7,737.5
			c-2.5-3.2-4.2-6.1-5.9-9.7l6.3-3.9c1.9,3.8,4.2,7,6.2,9.5L-202.7,737.5z M-173,742.3l-2.6-7.8c5.9,0.2,6.7,0.2,6.7-2.6v-14.8
			h-10.6c-1.3,10.5-5.4,20.1-11.6,26.1l-7.8-4.7c9.4-8.9,12.2-16.4,12.2-45c0-2.9-0.1-8.3-0.5-15.9h26.6v56.2
			C-160.7,741.5-162,742-173,742.3z M-169,701.1h-9.7c0,3.3-0.1,5.9-0.2,8.5h9.9V701.1z M-169,685.2h-9.7v8.4h9.7V685.2z"/>
		<path class="st7" d="M-307.7,817.7v11.6h-46.6v-9.2l23.8-22.4c2.5-2.4,4.2-4.5,5.1-6.2c0.9-1.7,1.3-3.4,1.3-5.1
			c0-2.5-0.8-4.4-2.5-5.7s-4.1-2-7.3-2c-2.7,0-5.1,0.5-7.3,1.5c-2.2,1-4,2.6-5.5,4.6l-10.4-6.7c2.4-3.6,5.7-6.4,9.9-8.4
			c4.2-2,9.1-3,14.5-3c4.6,0,8.6,0.7,12,2.2s6.1,3.6,8,6.3c1.9,2.7,2.9,5.9,2.9,9.6c0,3.3-0.7,6.5-2.1,9.4c-1.4,2.9-4.1,6.3-8.2,10
			l-14.2,13.4H-307.7z"/>
		<path class="st7" d="M-288.9,826.6c-4-2.5-7.1-6.2-9.4-11c-2.3-4.8-3.4-10.5-3.4-17.1c0-6.6,1.1-12.3,3.4-17.1
			c2.3-4.8,5.4-8.4,9.4-11c4-2.5,8.5-3.8,13.6-3.8s9.6,1.3,13.6,3.8c4,2.5,7.1,6.2,9.4,11c2.3,4.8,3.4,10.5,3.4,17.1
			c0,6.6-1.1,12.3-3.4,17.1c-2.3,4.8-5.4,8.4-9.4,11c-4,2.5-8.5,3.8-13.6,3.8S-284.9,829.1-288.9,826.6z M-266.4,813.5
			c2.1-3.2,3.2-8.2,3.2-15c0-6.7-1.1-11.7-3.2-15c-2.1-3.2-5.1-4.8-8.8-4.8c-3.7,0-6.6,1.6-8.8,4.8c-2.1,3.2-3.2,8.2-3.2,15
			c0,6.7,1.1,11.7,3.2,15c2.1,3.2,5.1,4.8,8.8,4.8C-271.5,818.3-268.6,816.7-266.4,813.5z"/>
		<path class="st7" d="M-218.4,767.7v61.6h-14.3v-50.2H-245v-11.4H-218.4z"/>
		<path class="st7" d="M-165.5,774.5c4.9,5.3,7.3,12.8,7.3,22.7c0,7-1.3,13-3.9,18c-2.6,5-6.3,8.8-11,11.4
			c-4.8,2.6-10.2,3.9-16.5,3.9c-3.3,0-6.4-0.4-9.4-1.1c-3-0.7-5.5-1.8-7.7-3.1l5.3-10.5c3,2.1,6.8,3.1,11.5,3.1
			c5.2,0,9.4-1.5,12.4-4.6c3-3.1,4.7-7.5,4.9-13.3c-3.7,3.7-8.8,5.5-15.3,5.5c-3.9,0-7.5-0.8-10.7-2.4c-3.2-1.6-5.8-3.8-7.7-6.7
			c-1.9-2.9-2.8-6.3-2.8-10.1c0-4.1,1-7.7,3.1-10.8c2.1-3.1,4.9-5.5,8.4-7.2c3.5-1.7,7.5-2.5,11.8-2.5
			C-177.2,766.6-170.4,769.3-165.5,774.5z M-177.1,793.1c2-1.7,2.9-3.9,2.9-6.6c0-2.7-1-4.9-2.9-6.6c-1.9-1.7-4.5-2.6-7.9-2.6
			c-3.1,0-5.5,0.8-7.4,2.5c-1.9,1.6-2.9,3.9-2.9,6.7s1,5.1,2.9,6.7c1.9,1.7,4.4,2.5,7.6,2.5C-181.6,795.7-179.1,794.8-177.1,793.1z"
			/>
		<path class="st7" d="M-104.5,817.6v15.8h-10.1v-15.8h-34.1v-8.5h11.5v-19h22.6v-9.6h-18.4c-4.6,7.3-7,9.9-9,12l-8.6-4.6
			c7.4-7.5,12.6-16.2,15.5-24.3l9.8,3.7c0.4,0.2,0.6,0.5,0.6,0.7c0,0.2-0.2,0.6-0.4,0.7c-0.2,0.1-1.5,0.4-1.7,0.6
			c-0.2,0-1.6,2.7-1.8,3h44.3v8.1h-20.6v9.6h13.9v8.2h-13.9v10.8h24.5v8.5H-104.5z M-114.5,798.3h-12.9v10.8h12.9V798.3z"/>
		<path class="st7" d="M-47.1,767.7v61.6h-14.3v-50.2h-12.3v-11.4H-47.1z"/>
		<path class="st7" d="M-23.4,826.6c-4-2.5-7.1-6.2-9.4-11c-2.3-4.8-3.4-10.5-3.4-17.1c0-6.6,1.1-12.3,3.4-17.1
			c2.3-4.8,5.4-8.4,9.4-11c4-2.5,8.5-3.8,13.6-3.8c5.1,0,9.6,1.3,13.6,3.8c4,2.5,7.1,6.2,9.4,11c2.3,4.8,3.4,10.5,3.4,17.1
			c0,6.6-1.1,12.3-3.4,17.1c-2.3,4.8-5.4,8.4-9.4,11c-4,2.5-8.5,3.8-13.6,3.8C-14.8,830.4-19.4,829.1-23.4,826.6z M-0.9,813.5
			c2.1-3.2,3.2-8.2,3.2-15c0-6.7-1.1-11.7-3.2-15c-2.1-3.2-5.1-4.8-8.8-4.8c-3.7,0-6.6,1.6-8.8,4.8c-2.1,3.2-3.2,8.2-3.2,15
			c0,6.7,1.1,11.7,3.2,15c2.1,3.2,5.1,4.8,8.8,4.8C-6,818.3-3,816.7-0.9,813.5z"/>
		<path class="st7" d="M65.2,833.4l-3.9-10.5c1.4,0.2,3.2,0.5,6.3,0.5c2.3,0,3-0.6,3-2.4v-13.2H46.5c-2.6,11.4-6.2,17.6-15.4,24.6
			l-7.9-6.6c5.7-4.6,14.9-11.8,14.9-29.7v-29.8h41.8v59C79.8,832.8,73.3,833.4,65.2,833.4z M70.5,791.1H47.8c0,4.5-0.2,6.6-0.3,8.3
			h23V791.1z M70.5,774.7H47.8v8.3h22.7V774.7z"/>
		<path class="st7" d="M145.4,827.8c-5.4-4.2-9.4-6.8-16.6-9.8c0.5,7.8-2,12.5-15,12.5c-14.6,0-19-5.8-19-11.3c0-7,7-12.5,18.6-12.5
			c2.6,0,4.6,0.2,5.8,0.4c-0.6-18.6-0.5-20.6-0.5-34.6v-5.7l9.6,1.4c0.4,0.1,1.9,0.3,1.9,1c0,0.3-0.1,0.4-1,1
			c-0.5,0.3-0.9,0.6-1,1.2c-0.2,1-0.4,6.9-0.4,9.7c1.1,0.2,1.6,0.2,3.4,0.2c9.4,0,13.8-1.8,16.2-2.7v9.3c-5.8,1.4-11,1.9-14.6,1.9
			c-1.6,0-3.8-0.1-5.4-0.2c-0.1,6.8-0.1,9.4,0.6,19.5c9.2,2.9,14.6,5.4,22.2,10.6L145.4,827.8z M112.4,814.5c-5,0-7.8,1.8-7.8,4.2
			c0,3.4,5.9,4.1,8.6,4.1c6.4,0,6.3-4,6.3-7.5C118,815,115.4,814.5,112.4,814.5z"/>
		<path class="st7" d="M173.8,813.6H167c-2.6-7-3.6-14.4-3.6-21.8c0-9.8,1.5-19.1,2.2-23.7l8.7,0.5c0.5,0,1.7,0.2,1.7,1
			c0,0.6-0.8,0.9-1.1,1.2c-1.7,1.4-3,16.6-3,21.4c0,2.3,0.2,3.2,0.6,5c1-2.7,2.6-6.9,4.6-11.4l5.6,3.7
			C179.4,797.4,176.2,805.4,173.8,813.6z M203.6,815.9c-3.8,8.6-8.3,13.4-11.2,16.4l-9.5-5c2.9-2.2,7.4-5.7,11.4-13.5
			c3.3-6.6,4.9-14.1,4.9-21.4c0-0.9-0.2-13.2-2-24.9h9.7c0.2,0,1.7,0,1.7,1c0,0.7-1.4,1.2-1.4,1.9c0,0.7,0.4,4.1,0.5,4.9
			c0.5,5.6,1,11.5,1,16.8C208.5,796.8,208,805.9,203.6,815.9z"/>
		<path class="st7" d="M-292.2,873.3c-2.8,17.7-7.4,25.7-10.8,31.5c4.6,5.8,8.6,8.6,14.9,11.2l-7.4,7.4c-5.3-3.2-8.6-6-12.7-11.4
			c-5.1,5.7-9,8.6-15.2,11.8l-7.1-6.6c-3,6.3-8.4,6.6-12.2,6.8l-3.4-9.4c0.9,0.2,2.9,0.4,5.1,0.4c1.4,0,2.2-0.1,3.4-2.8
			c1.8-4.1,2.9-12.9,3-23.4h-6.2c-2.1,18.3-5.5,25.8-10.2,33.4l-9-2.4c8.1-12.7,11.3-24.2,11.4-46.5h-8.2v-8.1h11.3v-11.4l9,0.6
			c0.6,0,1.9,0.2,1.9,1c0,0.3-0.2,0.6-0.5,0.7c-1,0.7-1.2,0.8-1.2,1.4v7.7h11.8v8.1h-15.8c0,3.1,0,4.8-0.2,7.5h10.9
			c5.2-5.4,9-11.2,13.3-26.7l8.6,2.5c0.7,0.2,1.4,0.6,1.4,1.4c0,0.6-0.6,0.8-1,1c-0.2,0.1-1.2,0.4-1.3,0.6c-0.1,0.1-1.8,5-2.1,5.6
			h22.8v8.2H-292.2z M-319.5,883.2c-1.4,2-2.2,3-2.7,3.4l-4.2-3.1c-0.2,3.4-0.3,8.7-1,15.6c-0.6,5.8-1.2,11.5-2.8,17
			c7.1-3,11.7-5.9,17.1-12.1C-315,900.2-317.5,894.7-319.5,883.2z M-313.1,873.3c1.1,11.4,2.7,16.9,5.2,23c2.8-5.6,5-11,6.6-23
			H-313.1z"/>
		<path class="st7" d="M-208,922.2c-9.5,0.4-30,0.5-32.3,0.5c-15.5,0-19.1-2.3-23-8.2c-2.6,2.2-5.9,4.7-7.1,5.6
			c-1.7,1.3-1.8,1.4-1.9,1.7c-0.2,1-0.3,1.5-0.8,1.5c-0.2,0-0.6-0.2-1-1l-4-8.1c4.4-2.1,6.6-3.4,9.8-5.8v-17.3h-7.9v-8.3h17.4v23.5
			c0,7,5.8,8.2,16.2,8.2c12.9,0,25.8-0.3,38.7-1.8L-208,922.2z M-263.9,871.7c-2.4-3-6.4-7.4-11.3-10.3l6.6-6.2
			c3.5,2.1,7.1,4.7,11.2,10.7L-263.9,871.7z M-226.8,890.3c1.8,3.3,5.3,9.4,17.9,14.6l-5.9,6.6c-2.8-1-10.8-4.4-17.4-15
			c-4.1,7-9.4,12.1-15.5,14.8l-7.2-6c7-3.1,13.4-7.8,16.1-15h-14.8v-7.8h16.6c0.2-2.6,0.3-4.2,0.3-6.7H-251V868h7.7
			c-1.7-3-4.4-6.6-7.3-9l7.1-5.5c2.8,2.7,4.8,5.2,7.9,10.6l-5.3,4h9.8c2.8-4.7,5.7-9.7,7.8-14.6l8.2,2.5c0.2,0.1,1.5,0.5,1.5,1.1
			c0,0.2-0.2,0.3-0.3,0.4s-1.2,0.6-1.4,0.7c-3.1,5.4-4.1,7.1-5.9,9.8h9.6v7.8h-16.2c0.1,3.3,0,4.9-0.2,6.7h20.1v7.8H-226.8z"/>
		<path class="st7" d="M-186.3,881.1v41.5h-8.9v-66.1h30.9v24.6H-186.3z M-172.4,862.8h-13.9v3.2h13.9V862.8z M-172.4,871.5h-13.9
			v3.4h13.9V871.5z M-151,904.7v16.6h-8.2v-16.6h-6.5c-1.7,8.7-4.8,12.6-11.3,18.1l-7-5.4c7.2-4.5,8.9-7.4,10.3-12.7h-9.4v-7.1h10.2
			c0.2-2.4,0.2-3.4,0.2-5.8h-8.1v-6.9h37.6v6.9h-7.8v5.8h9.9v7.1H-151z M-159.3,891.8h-5.6c-0.1,3.4-0.1,4.3-0.2,5.8h5.8V891.8z
			 M-136.6,923.1h-4.9l-3.8-8.4h5.3c2,0,3-0.8,3-2.8v-30.7h-22.5v-24.6h30.9V914C-128.6,919.1-130.4,923.1-136.6,923.1z M-137,862.8
			h-13.8v3.2h13.8V862.8z M-137,871.5h-13.8v3.4h13.8V871.5z"/>
		<path class="st7" d="M-93.1,916.3c-0.9-1.9-1.7-3.6-4.1-7.2c-3.4,6.2-6.3,10-10.8,14.3l-8.6-4.6c5.3-4.2,10.1-9.3,13.8-17.3
			c-1.9-2.2-2.2-2.5-4.5-4.5c-0.3,0.9-0.6,1.8-1,2.8l-8.3-2c2.6-7.4,3.8-12.5,6-21.9h-5.2v-9.1h7c1-5.4,1.4-8.4,1.7-12.6l8.6,1.2
			c0.6,0.1,1.6,0.3,1.6,1c0,0.4-0.2,0.6-0.7,0.9c-0.7,0.5-0.8,0.7-0.9,1.1c-0.6,3.7-1.2,7-1.4,8.4h11.7c0.2,8.6,0,20-4.9,33
			c5,5.9,6.6,9,7.4,10.5L-93.1,916.3z M-101.8,876c-0.8,4.2-1.8,8.3-3,12.5c1.9,1.4,2.9,2.2,5.1,4.3c1-3.8,2-7.9,2.6-16.8H-101.8z
			 M-53.8,890.9c-0.3-1-0.7-2.6-1.8-5.5c-5.1,0.6-14.1,1.4-22.7,2c-0.6,0-4.2,0.2-4.6,0.3c-0.3,0.1-1.6,1.4-2,1.4
			c-0.5,0-0.7-0.5-1-1.8l-1.4-8.6c1.1,0,1.8,0,7.5-0.2c1.9-6.4,3.9-13.6,5.9-24.2l9.4,1.8c0.9,0.2,2,0.5,2,1.3c0,0.6-0.6,1-1.2,1.1
			c-0.9,0.3-1,0.5-1.2,0.9c-2.3,6.9-3.5,10.2-6.6,18.7c5-0.2,5.6-0.2,12.4-0.6c-1.4-2.8-2.3-4.6-5.2-9.1l7.7-3.8
			c4,5.4,8.6,13,11.4,22.5L-53.8,890.9z M-59.5,923.6v-2.7h-14.6v2.7h-9.2v-31.4h33v31.4H-59.5z M-59.5,900.6h-14.6v11.7h14.6V900.6
			z"/>
	</g>
</g>
</svg>
