<?xml version="1.0" encoding="utf-8"?>
<!-- Generator: Adobe Illustrator 19.0.0, SVG Export Plug-In . SVG Version: 6.00 Build 0)  -->
<svg version="1.1" id="レイヤー_1" xmlns="http://www.w3.org/2000/svg" xmlns:xlink="http://www.w3.org/1999/xlink" x="0px"
	 y="0px" viewBox="-172 23.4 615 261.5" style="enable-background:new -172 23.4 615 261.5;" xml:space="preserve">
<style type="text/css">
	.st0{fill:#FFF33F;}
	.st1{fill:#231815;}
	.st2{fill:#FFFFFF;}
	.st3{fill:#221613;}
</style>
<g id="レイヤー_1_2_">
	<g id="レイヤー_1のコピー">
		<g>
			<rect x="66.7" y="237" class="st0" width="375.9" height="47.5"/>
			<path class="st1" d="M443,284.9H66.3v-48.4H443V284.9z M67.2,284.1h375v-46.7h-375L67.2,284.1L67.2,284.1z"/>
		</g>
		<g>
			<rect x="-171.6" y="55.8" class="st0" width="614.2" height="47.5"/>
			<path class="st1" d="M443,103.8h-615V55.4h615V103.8z M-171.1,102.9h613.3V56.3h-613.3V102.9z"/>
		</g>
		<g>
			<path class="st1" d="M-151.2,96.3c-0.7,0-1.3-0.6-1.3-1.2l-0.1-3c0-0.3,0.1-0.6,0.3-0.9c29.7-33.6,32.6-38.7,32.5-46
				c0-2.6-0.9-4.8-2.6-6.4c-1.6-1.6-4-2.4-6.6-2.3c-5.7,0.1-9.4,3.7-9.3,9.1v1.5c0,0.3-0.1,0.7-0.4,0.9c-0.2,0.2-0.6,0.4-0.9,0.4
				l-11.1,0.2c-0.7,0-1.3-0.5-1.3-1.2v-1.6c-0.1-13.2,9-22.2,22.8-22.4c6.5-0.1,12.4,2,16.6,5.8c4.2,3.9,6.6,9.4,6.7,15.6
				c0.2,9.2-3.1,16.5-21.3,37.9l22.8-0.4c0.3,0,0.7,0.1,0.9,0.4c0.2,0.2,0.4,0.6,0.4,0.9l0.2,10.6c0,0.7-0.5,1.3-1.2,1.3
				L-151.2,96.3L-151.2,96.3z M-150,92.4v1.2l44.4-0.8l-0.1-8l-24.3,0.4c-0.5,0.1-1-0.3-1.2-0.7c-0.2-0.5-0.1-1,0.2-1.4
				c19.3-22.4,22.7-29.5,22.6-38.2c-0.1-5.6-2.1-10.3-5.9-13.8s-8.9-5.2-14.8-5.1c-12.3,0.2-20.4,8.1-20.2,19.7V46l8.6-0.1v-0.3
				c-0.1-6.8,4.7-11.6,11.8-11.7c3.3-0.1,6.3,1,8.4,3s3.3,4.8,3.4,8.2C-117,53.2-120,58.5-150,92.4z"/>
			<path class="st1" d="M-68.5,97.1c-17.2,0-28.1-13.9-28.5-36.4c-0.2-11,2.3-20.3,7.1-26.9c5-6.6,12.1-10.2,20.7-10.4
				c17.4-0.3,28.5,13.6,28.9,36.3c0.2,11-2.3,20.3-7.1,26.9c-4.9,6.7-12,10.3-20.6,10.5C-68.1,97.1-68.3,97.1-68.5,97.1z
				 M-94.4,60.7C-94,81.9-83.9,94.9-68,94.6c7.7-0.1,14.1-3.4,18.6-9.4c4.5-6.1,6.8-14.9,6.6-25.4C-43.1,38.6-53.3,25.7-69.1,26
				c-7.8,0.1-14.3,3.4-18.7,9.4C-92.3,41.4-94.6,50.2-94.4,60.7z M-68.4,86.6c-10.5,0-17-9.7-17.3-26c-0.1-8.1,1.2-14.6,4.1-19.2
				c2.9-4.7,7.3-7.3,12.6-7.4c10.7-0.2,17.2,9.5,17.5,26l0,0c0.1,8.1-1.2,14.6-4,19.2c-2.9,4.7-7.2,7.3-12.6,7.4
				C-68.2,86.6-68.3,86.6-68.4,86.6z M-68.7,36.5c-0.1,0-0.2,0-0.2,0c-4.5,0.1-8,2.2-10.5,6.2c-2.5,4.2-3.8,10.3-3.7,17.8
				c0.3,15.1,5.8,23.7,15,23.6c4.5-0.1,8-2.2,10.4-6.2c2.5-4.2,3.8-10.3,3.7-17.9l0,0C-54.3,45.2-59.8,36.5-68.7,36.5z"/>
			<path class="st1" d="M-18.9,95.9c-0.3,0-0.6-0.1-0.9-0.4c-0.2-0.2-0.4-0.6-0.4-0.9l-1-57.3l-10.9,0.2c-0.3,0-0.7-0.1-0.9-0.4
				c-0.2-0.2-0.4-0.6-0.4-0.9l-0.2-10c0-0.7,0.5-1.3,1.2-1.3l23.1-0.4C-8.6,24.4-8,25-8,25.7l1.2,68.6c0,0.7-0.5,1.3-1.2,1.3
				L-18.9,95.9L-18.9,95.9z M-19.9,34.8c0.3,0,0.6,0.1,0.9,0.4c0.2,0.2,0.4,0.6,0.4,0.9l1,57.3l8.4-0.1l-1.1-66.2l-20.6,0.4l0.1,7.5
				L-19.9,34.8L-19.9,34.8z"/>
			<path class="st1" d="M22.9,96c-0.4,0-0.9-0.2-1.1-0.6s-0.2-0.9,0-1.3l0.9-1.7c5.9-10.7,9-16.2,11.4-20.8
				c-1.8,0.5-3.6,0.7-5.5,0.8C14.8,72.6,4.1,62.6,3.9,49.1C3.7,34.5,14.5,23.7,29.8,23.4c7.5-0.1,14.3,2.3,19.1,6.7
				c4.9,4.5,7.6,10.9,7.7,18l0,0c0.1,7-2.2,14.5-7,23.1L36.3,95c-0.2,0.4-0.6,0.6-1.1,0.6L22.9,96L22.9,96z M35.2,94.5L35.2,94.5
				L35.2,94.5z M36.8,68.1c0.3,0,0.7,0.1,0.9,0.4c0.4,0.4,0.4,1,0.2,1.4c-2.7,5.3-5.7,10.7-12.8,23.5l9.3-0.2l13-23.2
				c4.6-8.2,6.8-15.3,6.7-21.9l0,0c-0.1-6.4-2.6-12.2-6.9-16.2c-4.4-4-10.5-6.2-17.3-6.1C15.9,26,6.3,35.5,6.6,48.9
				c0.2,12.1,9.7,21,22.2,20.8c2.7,0,5.2-0.6,7.7-1.6C36.4,68.1,36.6,68.1,36.8,68.1z M30.2,63.3c-8.7,0-15.1-6-15.3-14.5
				c-0.1-8.6,6.2-14.9,15.1-15c4.2-0.1,8.2,1.3,11,4c2.9,2.7,4.5,6.4,4.5,10.5l0,0c0.1,4.1-1.4,7.9-4.2,10.7
				c-2.7,2.7-6.6,4.3-10.9,4.3C30.4,63.3,30.3,63.3,30.2,63.3z M30.4,36.4c-0.1,0-0.2,0-0.3,0c-7.4,0.1-12.7,5.4-12.6,12.5
				c0.1,7.2,5.5,12.1,13,12c3.6-0.1,6.8-1.3,9.1-3.6c2.3-2.2,3.5-5.4,3.4-8.8l0,0c-0.1-3.4-1.4-6.5-3.7-8.7
				C37,37.5,33.8,36.4,30.4,36.4z"/>
			<path class="st1" d="M94.5,97.3c-0.7,0-1.3-0.6-1.3-1.2L93,84.6l-26.4,0.5c-0.7,0-1.3-0.5-1.3-1.2L65.2,77c0-0.3,0.1-0.7,0.4-0.9
				c0.2-0.2,0.6-0.4,0.9-0.4l8.1-0.1l-0.2-13.3c-0.6,0.7-1.1,1.3-1.6,1.8l-0.1,0.1c-0.4,0.4-1,0.5-1.5,0.3l-7.1-3.6
				c-0.4-0.2-0.6-0.5-0.7-0.9c-0.1-0.4,0.1-0.8,0.3-1.1c5.4-5.6,9.7-12.6,12-19.5c0.1-0.3,0.3-0.6,0.6-0.7s0.7-0.2,1-0.1l8.1,2.9
				c0.8,0.3,1.3,1,1.3,1.7c0,0.6-0.3,1.3-0.9,1.7c-0.1,0.1-0.2,0.1-0.3,0.2c0,0-0.1,0-0.2,0.1c-0.1,0-0.5,0.1-0.7,0.2
				c0,0.1-0.1,0.1-0.1,0.2l33.9-0.6c0.3,0,0.7,0.1,0.9,0.4s0.4,0.6,0.4,0.9l0.1,6.6c0,0.7-0.5,1.3-1.2,1.3l-15.5,0.3l0.1,5.3
				l10.1-0.2c0.3,0,0.7,0.1,0.9,0.4c0.2,0.2,0.4,0.6,0.4,0.9l0.1,6.7c0,0.3-0.1,0.7-0.4,0.9c-0.2,0.2-0.6,0.4-0.9,0.4l-10.1,0.2
				l0.1,6.2L122,75l0,0c0.7,0,1.3,0.6,1.3,1.2l0.1,6.9c0,0.3-0.1,0.7-0.4,0.9c-0.2,0.2-0.6,0.4-0.9,0.4l-18.4,0.3l0.2,11.6
				c0,0.3-0.1,0.7-0.4,0.9c-0.2,0.2-0.6,0.4-0.9,0.4L94.5,97.3C94.6,97.3,94.5,97.3,94.5,97.3z M94.3,81.9c0.7,0,1.3,0.6,1.3,1.2
				l0.2,11.5l5.7-0.1l-0.2-11.6c0-0.3,0.1-0.7,0.4-0.9c0.2-0.2,0.6-0.4,0.9-0.4l18.4-0.3l-0.1-4.4l-18.7,0.5c-0.3,0-0.7-0.1-0.9-0.4
				c-0.2-0.2-0.4-0.6-0.4-0.9l-0.2-8.7c0-0.3,0.1-0.7,0.4-0.9c0.2-0.2,0.6-0.4,0.9-0.4l10.1-0.2l-0.1-4.2l-10.1,0.2
				c-0.3,0-0.7-0.1-0.9-0.4c-0.2-0.2-0.4-0.6-0.4-0.9l-0.1-7.8c0-0.3,0.1-0.7,0.4-0.9c0.2-0.2,0.6-0.4,0.9-0.4l15.5-0.3l-0.1-4
				l-34.8,0.6c-0.5,0-0.9-0.2-1.1-0.6c-0.2-0.4-0.3-0.8-0.1-1.2c0.9-1.9,1.4-2.7,1.8-3l-5.3-1.9c-2.3,6.4-6.2,12.7-11,18l4.7,2.4
				c1.4-1.6,3.3-3.9,6.3-9c0.2-0.4,0.6-0.6,1.1-0.6l15-0.3c0.3,0,0.7,0.1,0.9,0.4s0.4,0.6,0.4,0.9l0.1,7.8c0,0.7-0.5,1.3-1.2,1.3
				l-17.1,0.4l0.2,14.2c0,0.3-0.1,0.7-0.4,0.9c-0.2,0.2-0.6,0.4-0.9,0.4L67.7,78l0.1,4.4L94.3,81.9L94.3,81.9z M79.5,54.5
				c-1.4,2.3-2.5,4-3.5,5.3l16.6-0.3l-0.1-5.3L79.5,54.5z M84.8,44.8L84.8,44.8L84.8,44.8z M84.8,44.8L84.8,44.8L84.8,44.8z
				 M83.7,77.8c-0.7,0-1.3-0.6-1.3-1.2l-0.2-8.8c0-0.3,0.1-0.7,0.4-0.9c0.2-0.2,0.6-0.4,0.9-0.4L94,66.3l0,0c0.7,0,1.3,0.6,1.3,1.2
				l0.2,8.8c0,0.3-0.1,0.7-0.4,0.9c-0.2,0.2-0.6,0.4-0.9,0.4L83.7,77.8L83.7,77.8z M84.9,69l0.1,6.2l7.9-0.1l-0.1-6.2L84.9,69z"/>
			<path class="st1" d="M223,97.1c-0.5,0-1-0.3-1.2-0.8l-3.3-8.5c-0.2-0.4-0.1-0.9,0.2-1.3c0.3-0.4,0.7-0.5,1.2-0.5
				c1,0.2,2.4,0.3,4.9,0.3c0.8,0,1.1-0.1,1.1-0.2c0,0,0-0.1,0-0.5l-0.2-9.5l-17.3,0.3c-2.1,9.3-5.3,14.4-12.4,20
				c-0.5,0.4-1.1,0.4-1.6,0l-6.5-5.2c-0.3-0.2-0.5-0.6-0.5-1s0.2-0.7,0.5-1l0.1-0.1c4.5-3.8,11.4-9.5,11.1-23.3l-0.4-24.1
				c0-0.3,0.1-0.7,0.4-0.9c0.2-0.2,0.6-0.4,0.9-0.4l34-0.6l0,0c0.7,0,1.3,0.6,1.3,1.2l0.8,48C236.2,96.9,228.5,97,223,97.1L223,97.1
				z M221.6,88.9l2.2,5.7c6.7-0.2,9.7-1.1,9.7-5.5l-0.8-46.7l-31.4,0.5l0.4,23c0.2,13.9-6.3,20.4-10.9,24.3l4.5,3.6
				c6.3-5.2,9-9.9,10.9-18.9c0.1-0.6,0.6-1,1.2-1l19.6-0.3c0.3,0,0.7,0.1,0.9,0.4s0.4,0.6,0.4,0.9l0.2,10.7c0,0.7-0.1,1.8-0.9,2.5
				s-1.9,0.8-2.7,0.8C223.5,89,222.4,89,221.6,88.9z M208.1,69.7c-0.3,0-0.7-0.1-0.9-0.4s-0.4-0.6-0.3-1c0.1-1.4,0.2-3.1,0.1-6.7
				c0-0.7,0.5-1.3,1.2-1.3l18.5-0.3c0.3,0,0.7,0.1,0.9,0.4s0.4,0.6,0.4,0.9l0.1,6.8c0,0.7-0.5,1.3-1.2,1.3L208.1,69.7L208.1,69.7z
				 M209.5,62.9c0,1.9,0,3.2-0.1,4.2l16.1-0.3l-0.1-4.2L209.5,62.9z M208.1,56.5c-0.3,0-0.6-0.1-0.9-0.4c-0.2-0.2-0.4-0.6-0.4-0.9
				l-0.1-6.8c0-0.7,0.5-1.3,1.2-1.3l18.5-0.3c0.3,0,0.7,0.1,0.9,0.4c0.2,0.2,0.4,0.6,0.4,0.9l0.1,6.8c0,0.7-0.5,1.3-1.2,1.3
				L208.1,56.5L208.1,56.5z M209.3,49.7l0.1,4.2l15.9-0.3l-0.1-4.2L209.3,49.7z"/>
		</g>
		<g>
			<path class="st2" d="M-104.4,83.6l0.1,10.6l-46.9,0.8l-0.1-3c29.4-33.3,33-39,32.8-46.9c-0.1-6-4.3-10-10.5-9.9
				c-6.5,0.1-10.6,4.4-10.5,10.4v1.5l-11.1,0.2v-1.6c-0.2-12.3,8.4-20.8,21.4-21c12.8-0.2,21.8,8.1,22,20.2
				c0.2,9-3.3,16.4-22.8,39.2L-104.4,83.6z"/>
			<path class="st2" d="M-95.6,60.7c-0.4-21.9,9.7-35.7,26.5-36c16.7-0.3,27.3,13.1,27.7,35s-9.8,35.8-26.4,36.1
				C-84.6,96.1-95.3,82.6-95.6,60.7z M-52.7,60c-0.3-15.8-6.4-24.9-16.2-24.8c-10,0.2-15.7,9.5-15.4,25.3C-84,76.4-78,85.5-68,85.3
				C-58.2,85.1-52.5,75.8-52.7,60z"/>
			<path class="st2" d="M-9.1,25.8l1.2,68.6l-11,0.2l-1-58.6L-32,36.2l-0.2-10L-9.1,25.8z"/>
			<path class="st2" d="M55.3,48.2c0.1,6.4-1.9,13.7-6.8,22.5L35.2,94.5L23,94.7c7.9-14.3,11-19.8,13.9-25.4
				c-2.6,1.1-5.3,1.7-8.1,1.7C15.7,71.2,5.6,61.8,5.4,49C5.2,35,15.4,24.9,30,24.6C44.5,24.4,55.1,34.2,55.3,48.2z M44.3,48.4
				C44.2,40.6,38.2,35,30,35.1c-8.2,0.1-14,5.9-13.9,13.8s6.2,13.4,14.3,13.2C38.7,61.9,44.5,56.2,44.3,48.4z"/>
			<path class="st2" d="M102.5,83.1l0.2,12.8L94.5,96l-0.2-12.8l-27.7,0.5l-0.1-6.9l9.4-0.2l-0.3-15.5l18.3-0.3L93.8,53l-15,0.3
				c-3.6,6-5.6,8.2-7.1,9.9l-7.1-3.6c5.9-6.2,10-13.4,12.3-20l8.1,2.9c0.3,0.1,0.5,0.4,0.5,0.6s-0.1,0.5-0.3,0.6
				C85,43.8,84,44,83.8,44.2c-0.1,0-1.3,2.2-1.4,2.5l36-0.6l0.1,6.6l-16.8,0.2l0.1,7.8l11.3-0.2l0.1,6.7L102,67.4l0.2,8.8l19.9-0.3
				l0.1,6.9L102.5,83.1z M94,67.5l-10.5,0.2l0.2,8.8l10.5-0.2L94,67.5z"/>
			<path class="st2" d="M223,95.9l-3.3-8.5c1.1,0.2,2.6,0.3,5.1,0.3c1.9,0,2.4-0.6,2.4-2L227,75l-19.6,0.3
				c-2,9.3-4.8,14.4-12.1,20.3l-6.5-5.2c4.6-3.8,11.9-9.8,11.7-24.4l-0.4-24.3l34-0.6l0.8,48C234.9,95.2,229.6,95.7,223,95.9z
				 M226.5,48.1L208,48.4l0.1,6.8l18.5-0.3L226.5,48.1z M226.7,61.4l-18.5,0.3c0.1,3.6,0,5.3-0.1,6.8l18.7-0.3L226.7,61.4z"/>
		</g>
		<g>
			<g>
				<g>
					<path class="st2" d="M372,96.8c-4.6-4.3-7.2-11.6-7.2-17.9s2.5-13.6,7.2-17.9h6.9c-6.7,6.3-8.4,12.4-8.4,17.9
						s1.7,11.6,8.4,17.9H372z"/>
					<path class="st1" d="M378.9,97.3H372c-0.1,0-0.2,0-0.3-0.1c-4.4-4.2-7.3-11.3-7.3-18.2s2.9-14.1,7.3-18.2
						c0.1-0.1,0.2-0.1,0.3-0.1h6.9c0.2,0,0.4,0.1,0.4,0.3c0.1,0.2,0,0.4-0.1,0.5c-5.5,5.2-8.2,11-8.2,17.6c0,6.6,2.7,12.4,8.2,17.6
						c0.1,0.1,0.2,0.3,0.1,0.5C379.3,97.1,379.1,97.3,378.9,97.3z M372.2,96.4h5.6c-5.2-5.2-7.7-10.9-7.7-17.5s2.5-12.3,7.7-17.5
						h-5.6c-4.2,4-6.9,10.9-6.9,17.5S368,92.3,372.2,96.4z"/>
				</g>
				<g>
					<path class="st2" d="M381.1,89.1h13.7V78.9h-11.4V74h11.4v-8.4c0,0,0-1.6-0.1-2.7c0,0,4.3,0.1,5.9,0.3c0.7,0.1,1,0.2,1,0.5
						s-0.4,0.5-1.3,0.7c-0.1,0.6-0.1,1.1-0.1,1.4c0,0.2,0,0.3,0,0.3V74H412v4.9h-11.7v10.2H414V94h-32.8v-4.9H381.1z"/>
					<path class="st1" d="M413.9,94.5h-32.8c-0.2,0-0.5-0.2-0.5-0.5v-4.9c0-0.2,0.2-0.5,0.5-0.5h13.2v-9.2h-11
						c-0.2,0-0.5-0.2-0.5-0.5V74c0-0.2,0.2-0.5,0.5-0.5h11v-7.9l0,0c0,0,0-1.6-0.1-2.7c0-0.1,0-0.2,0.1-0.3s0.2-0.1,0.3-0.1
						c0.2,0,4.4,0.1,6,0.3c1,0.1,1.4,0.4,1.4,0.9c0,0.3-0.2,0.8-1.3,1.1c0,0.4,0,0.8,0,1v7.8H412c0.2,0,0.5,0.2,0.5,0.5V79
						c0,0.2-0.2,0.5-0.5,0.5h-11.3v9.3h13.2c0.2,0,0.5,0.2,0.5,0.5v4.9C414.4,94.3,414.2,94.5,413.9,94.5z M381.5,93.6h31.9v-4
						h-13.2c-0.2,0-0.5-0.2-0.5-0.5V78.9c0-0.2,0.2-0.5,0.5-0.5h11.3v-4h-11.3c-0.2,0-0.5-0.2-0.5-0.5v-8.2c0-0.3,0-0.9,0.1-1.5
						c0-0.2,0.2-0.3,0.4-0.4c0.3-0.1,0.6-0.2,0.7-0.2c-0.1,0-0.2-0.1-0.4-0.1c-1.2-0.1-4.2-0.2-5.4-0.2c0.1,1.1,0.1,2.3,0.1,2.3V74
						c0,0.2-0.2,0.5-0.5,0.5h-11v4h11c0.2,0,0.5,0.2,0.5,0.5v10.2c0,0.2-0.2,0.5-0.5,0.5h-13.2V93.6L381.5,93.6z"/>
				</g>
				<g>
					<path class="st2" d="M416.2,96.8c6.7-6.3,8.4-12.4,8.4-17.9s-1.7-11.6-8.4-17.9h6.9c4.6,4.3,7.2,11.6,7.2,17.9
						s-2.5,13.6-7.2,17.9H416.2z"/>
					<path class="st1" d="M423.1,97.3h-6.9c-0.2,0-0.4-0.1-0.4-0.3c-0.1-0.2,0-0.4,0.1-0.5c5.5-5.2,8.2-11,8.2-17.6
						s-2.7-12.4-8.2-17.6c-0.1-0.1-0.2-0.3-0.1-0.5s0.2-0.3,0.4-0.3h6.9c0.1,0,0.2,0,0.3,0.1c4.4,4.2,7.3,11.3,7.3,18.2
						s-2.9,14.1-7.3,18.2C423.3,97.2,423.2,97.3,423.1,97.3z M417.3,96.4h5.6c4.2-4,6.9-10.9,6.9-17.5s-2.7-13.5-6.9-17.5h-5.6
						c5.2,5.2,7.7,10.9,7.7,17.5C425,85.4,422.5,91.2,417.3,96.4z"/>
				</g>
			</g>
		</g>
		<g>
			<g>
				<g>
					<path class="st2" d="M308,42.1h43.5v54.5h-9.4v-4.4h-25v4.7H308V42.1z M342.2,62V50.9h-25.1V62H342.2z M342.2,83.5l0.1-12.7
						h-25.1v12.7H342.2z"/>
					<path class="st1" d="M317.2,97.4H308c-0.2,0-0.5-0.2-0.5-0.5V42.1c0-0.2,0.2-0.5,0.5-0.5h43.5c0.2,0,0.5,0.2,0.5,0.5v54.5
						c0,0.2-0.2,0.5-0.5,0.5h-9.4c-0.2,0-0.5-0.2-0.5-0.5v-3.9h-24.1v4.2C317.6,97.2,317.4,97.4,317.2,97.4z M308.4,96.5h8.3v-4.2
						c0-0.2,0.2-0.5,0.5-0.5h25c0.2,0,0.5,0.2,0.5,0.5v3.9h8.5V42.6h-42.6v53.9H308.4z M342.2,84h-25c-0.2,0-0.5-0.2-0.5-0.5V70.9
						c0-0.2,0.2-0.5,0.5-0.5h25.1c0.1,0,0.2,0,0.3,0.1s0.1,0.2,0.1,0.3l-0.1,12.7C342.6,83.8,342.4,84,342.2,84z M317.6,83.1h24.1
						l0.1-11.8h-24.2V83.1L317.6,83.1z M342.2,62.4h-25.1c-0.2,0-0.5-0.2-0.5-0.5v-11c0-0.2,0.2-0.5,0.5-0.5h25.1
						c0.2,0,0.5,0.2,0.5,0.5V62C342.7,62.2,342.5,62.4,342.2,62.4z M317.6,61.5h24.2V51.3h-24.2V61.5L317.6,61.5z"/>
				</g>
			</g>
		</g>
		<g>
			<g>
				<g>
					<path class="st2" d="M268.4,53.9c2.7-2.3,5.9-3.9,9.8-3.9c12.3,0,16.1,13.2,16.1,22.1c0,12.4-5.6,26.1-21.7,26.1
						s-22-12.4-22-25c0-17.1,9.7-32.3,17.8-47.2h14.9L268.4,53.9z M272.9,62.4c-5.7,0-6.9,8.3-6.9,12.1c0,3.3,1.3,11.4,6.3,11.4
						c6,0,6.8-8.5,6.8-12.5C279,70.1,278.1,62.4,272.9,62.4z"/>
					<path class="st1" d="M272.6,98.6c-14.1,0-22.5-9.5-22.5-25.5c0-15.1,7.5-28.8,14.8-42c1-1.8,2-3.6,3-5.4
						c0.1-0.1,0.2-0.2,0.4-0.2h14.9c0.2,0,0.3,0.1,0.4,0.2s0.1,0.3,0,0.4l-13.9,26.2c2.7-1.8,5.4-2.7,8.4-2.7
						c13.1,0,16.6,14.1,16.6,22.5c0,7-1.7,13.3-4.9,17.9C286,95.6,280.1,98.6,272.6,98.6z M268.6,26.3c-0.9,1.7-1.9,3.5-2.9,5.2
						C258.5,44.6,251,58.2,251,73c0,22.8,16.5,24.6,21.6,24.6c15.7,0,21.2-13.3,21.2-25.7c0-8-3.3-21.6-15.7-21.6
						c-3.4,0-6.5,1.3-9.5,3.8c-0.2,0.1-0.4,0.1-0.6,0c-0.2-0.1-0.2-0.4-0.1-0.6l14.6-27.4h-13.9V26.3z M272.3,86.4
						c-5.5,0-6.7-8.8-6.7-11.9c0-4.7,1.5-12.6,7.3-12.6c6.4,0,6.6,10.4,6.6,11.5C279.5,77.4,278.8,86.4,272.3,86.4z M272.9,62.9
						c-6.3,0-6.4,11.2-6.4,11.7c0,3.6,1.4,11,5.8,11c5.7,0,6.3-8.4,6.3-12C278.6,72.4,278.4,62.9,272.9,62.9z"/>
				</g>
			</g>
		</g>
		<g>
			<path class="st1" d="M165.1,95.7c-0.7,0-1.3-0.6-1.3-1.2l-0.2-12.7l-32.9,0.6l0,0c-0.7,0-1.3-0.6-1.3-1.2v-2.3
				c0-0.2,0-0.4,0.1-0.5L152,25.6c0.2-0.5,0.6-0.8,1.1-0.8l11.3-0.2l0,0c0.4,0,0.8,0.2,1.1,0.6c0.2,0.4,0.3,0.8,0.1,1.2l-18.5,43.4
				l16.6-0.4l1.4-18c0.1-0.7,0.6-1.2,1.2-1.2L175,50c0.3,0,0.7,0.1,0.9,0.4c0.2,0.2,0.4,0.6,0.4,0.9l0.3,17.9l5.4-0.1l0,0
				c0.7,0,1.3,0.6,1.3,1.2l0.2,9.8c0,0.7-0.5,1.3-1.2,1.3l-5.4,0.1l0.2,12.7c0,0.3-0.1,0.7-0.4,0.9c-0.2,0.2-0.6,0.4-0.9,0.4
				L165.1,95.7L165.1,95.7z M164.8,79.2c0.7,0,1.3,0.6,1.3,1.2l0.2,12.7l8.2-0.1l-0.2-12.7c0-0.7,0.5-1.3,1.2-1.3l5.4-0.1l-0.1-7.3
				l-5.4,0.1l0,0c-0.7,0-1.3-0.6-1.3-1.2l-0.3-17.9l-6.2,0.1l-1.4,18c-0.1,0.7-0.6,1.2-1.2,1.2l-19.6,0.3l0,0
				c-0.4,0-0.8-0.2-1.1-0.6c-0.2-0.4-0.3-0.8-0.1-1.2L162.7,27l-8.6,0.1L132,78.9v0.7L164.8,79.2L164.8,79.2z"/>
			<path class="st1" d="M165.1,95.7c-0.7,0-1.3-0.6-1.3-1.2l-0.2-12.7l-32.9,0.6l0,0c-0.7,0-1.3-0.6-1.3-1.2v-2.3
				c0-0.2,0-0.4,0.1-0.5L152,25.6c0.2-0.5,0.6-0.8,1.1-0.8l11.3-0.2l0,0c0.4,0,0.8,0.2,1.1,0.6c0.2,0.4,0.3,0.8,0.1,1.2l-18.5,43.4
				l16.6-0.4l1.4-18c0.1-0.7,0.6-1.2,1.2-1.2L175,50c0.3,0,0.7,0.1,0.9,0.4c0.2,0.2,0.4,0.6,0.4,0.9l0.3,17.9l5.4-0.1l0,0
				c0.7,0,1.3,0.6,1.3,1.2l0.2,9.8c0,0.7-0.5,1.3-1.2,1.3l-5.4,0.1l0.2,12.7c0,0.3-0.1,0.7-0.4,0.9c-0.2,0.2-0.6,0.4-0.9,0.4
				L165.1,95.7L165.1,95.7z M164.8,79.2c0.7,0,1.3,0.6,1.3,1.2l0.2,12.7l8.2-0.1l-0.2-12.7c0-0.7,0.5-1.3,1.2-1.3l5.4-0.1l-0.1-7.3
				l-5.4,0.1l0,0c-0.7,0-1.3-0.6-1.3-1.2l-0.3-17.9l-6.2,0.1l-1.4,18c-0.1,0.7-0.6,1.2-1.2,1.2l-19.6,0.3l0,0
				c-0.4,0-0.8-0.2-1.1-0.6c-0.2-0.4-0.3-0.8-0.1-1.2L162.7,27l-8.6,0.1L132,78.9v0.7L164.8,79.2L164.8,79.2z"/>
			<path class="st2" d="M182.2,80.2l-6.6,0.1l0.2,13.9l-10.7,0.2l-0.2-13.9l-34.2,0.6v-2.3L153.2,26l11.3-0.2L145.2,71l19.6-0.3
				l1.5-19.2l8.7-0.2l0.3,19.1l6.6-0.1L182.2,80.2z"/>
		</g>
		<g>
			<rect x="53" y="146" class="st0" width="389.6" height="47.5"/>
			<path class="st1" d="M443,194H52.6v-48.4H443V194z M53.5,193.1h388.7v-46.6H53.5V193.1z"/>
		</g>
		<g>
			<g>
				<g>
					<path class="st2" d="M223.4,135.3c0-4.3,0.2-8.2,2.1-12c3-6,9.5-8.3,16.5-8.3c12.7,0,19.9,7.2,19.9,18.4
						c0,7.2-1.9,13.7-9.8,16.9c9,2.6,12.2,9,12.2,17.1c0,12.9-8.9,20.9-23.2,20.9c-13.9,0-21-7.7-21-19.8h14.7c0,0.6-0.1,1.4-0.1,2
						c0,3.4,1.8,6.7,6,6.7c6.2,0,6.6-7,6.6-11.1c0-8.3-2.7-10.2-11.8-10.2V144c8.2,0,12.1-1.3,12.1-9.4c0-3.2-0.8-8-5.5-8
						c-5.1,0-5.2,6.2-5.2,9.5h-13.5V135.3L223.4,135.3z"/>
					<path class="st1" d="M241.1,188.8c-13.6,0-21.4-7.4-21.4-20.3c0-0.2,0.2-0.5,0.5-0.5h14.7c0.2,0,0.5,0.2,0.5,0.5s0,0.7-0.1,1.1
						c0,0.3-0.1,0.7-0.1,1c0,3,1.5,6.3,5.6,6.3c5.5,0,6.2-6.1,6.2-10.6c0-7.9-2.2-9.8-11.4-9.8c-0.2,0-0.5-0.2-0.5-0.5v-11.9
						c0-0.2,0.2-0.5,0.5-0.5c8.2,0,11.6-1.2,11.6-8.9c0-2.8-0.6-7.5-5-7.5c-4.2,0-4.8,4.6-4.8,9c0,0.2-0.2,0.5-0.5,0.5h-13.5
						c-0.2,0-0.5-0.2-0.5-0.5v-0.7c0-4,0.2-8.2,2.2-12.2c2.7-5.5,8.7-8.6,16.9-8.6c12.6,0,20.4,7.2,20.4,18.9c0,5.5-1,13-9,16.9
						c7.5,2.6,11.4,8.3,11.4,17.1C264.7,180.6,255.7,188.8,241.1,188.8z M220.5,168.9c0.2,12,7.6,18.9,20.5,18.9
						c14,0,22.8-7.8,22.8-20.4c0-8.9-3.9-14.3-11.9-16.6c-0.2-0.1-0.3-0.2-0.3-0.4c0-0.2,0.1-0.4,0.3-0.4c6.6-2.7,9.6-7.8,9.6-16.5
						c0-11.3-7.3-18-19.5-18c-4.5,0-12.6,1-16.1,8.1c-1.9,3.9-2.1,8-2.1,11.8v0.3h12.6c0-3.2,0.3-9.5,5.7-9.5c3.8,0,5.9,3.1,5.9,8.4
						c0,8.2-3.9,9.8-12.1,9.8v11c9.3,0.1,11.8,2.4,11.8,10.7c0,2.9,0,11.5-7.1,11.5c-4.8,0-6.5-3.9-6.5-7.2c0-0.3,0-0.7,0.1-1.1
						c0-0.2,0-0.4,0-0.5L220.5,168.9L220.5,168.9L220.5,168.9z"/>
				</g>
				<g>
					<path class="st2" d="M293.3,188.3c-19.2,0-21.9-24.4-21.9-37.2c0-12.9,3.4-36.1,22.5-36.1c18.6,0,21.8,23.9,21.8,36.3
						C315.7,164.3,312.7,188.3,293.3,188.3z M300.5,148.8c0-4.4,0-21.2-7.1-21.2c-6.9,0-7,16.4-7,20.7v7.5c0,4.2,0.4,19.6,7,19.6
						c7,0,7.1-15.9,7.1-20.1V148.8z"/>
					<path class="st1" d="M293.3,188.8c-20.2,0-22.4-26.3-22.4-37.6c0-8.6,1.7-36.6,23-36.6c8.3,0,14.5,4.6,18.3,13.8
						c3.4,8.3,4,18,4,23C316.2,162.6,313.9,188.8,293.3,188.8z M293.9,115.4c-20.5,0-22.1,27.3-22.1,35.7c0,11,2.1,36.7,21.5,36.7
						c19.8,0,21.9-25.5,21.9-36.5c0-5-0.5-14.5-3.9-22.7C307.7,119.9,301.9,115.4,293.9,115.4z M293.4,175.8c-6.7,0-7.4-14-7.4-20.1
						v-7.5c0-13.8,2.6-21.1,7.4-21.1c5,0,7.6,7.3,7.6,21.7v6.4C301,168.6,298.4,175.8,293.4,175.8z M293.4,128
						c-4.2,0-6.5,7.2-6.5,20.2v7.5c0,4.5,0.5,19.2,6.5,19.2c4.3,0,6.7-7,6.7-19.7v-6.4C300.1,131.6,296.5,128,293.4,128z"/>
				</g>
			</g>
		</g>
		<g>
			<g>
				<g>
					<path class="st2" d="M195.9,131.8h9.8v10.6h-9.8V131.8z M195.9,161.2h9.8v10.6h-9.8V161.2z"/>
					<path class="st1" d="M205.7,172.2h-9.8c-0.2,0-0.5-0.2-0.5-0.5v-10.6c0-0.2,0.2-0.5,0.5-0.5h9.8c0.2,0,0.5,0.2,0.5,0.5v10.6
						C206.2,172,206,172.2,205.7,172.2z M196.4,171.3h8.9v-9.7h-8.9V171.3z M205.7,142.9h-9.8c-0.2,0-0.5-0.2-0.5-0.5v-10.6
						c0-0.2,0.2-0.5,0.5-0.5h9.8c0.2,0,0.5,0.2,0.5,0.5v10.6C206.2,142.7,206,142.9,205.7,142.9z M196.4,142h8.9v-9.7h-8.9V142z"/>
				</g>
			</g>
		</g>
		<g>
			<path class="st1" d="M348.5,185.2c-5.3,0-9.4-1-12.2-3c-2.5-1.7-3.9-4.3-3.9-7.2c-0.1-6.7,6.6-11.5,16.2-11.7
				c1.4,0,2.5,0,3.4,0.1c-0.6-12.1-0.6-15-0.8-23l-0.1-8.3c0-0.4,0.1-0.7,0.4-1c0.3-0.2,0.6-0.4,1-0.3l7.8,1h0.1
				c0.6,0.1,2.5,0.4,2.6,2c0,1-0.6,1.4-1.4,1.9c-0.1,0.1-0.2,0.1-0.2,0.2c-0.1,0.8-0.2,4.1-0.2,6.5c0.4,0,0.8,0,1.5,0
				c7.3-0.1,10.6-1.5,12.6-2.3c0.4-0.2,0.9-0.1,1.2,0.1s0.6,0.6,0.6,1l0.1,7.5c0,0.6-0.4,1.1-0.9,1.2c-5.5,1.5-10,1.8-12.1,1.8
				c-1,0-2.1,0-3.1,0c0,4.5,0.1,6.7,0.7,13.6c7.2,2.2,11.6,4.2,17.7,8.2c0.6,0.4,0.7,1.1,0.4,1.7l-4,6.6c-0.2,0.3-0.5,0.5-0.8,0.6
				c-0.4,0.1-0.7,0-1-0.2c-4-3-6.9-4.8-11.5-6.8c0,2.1-0.5,4.4-2.1,6.2c-2.1,2.3-5.6,3.4-11.3,3.5
				C349,185.2,348.8,185.2,348.5,185.2z M349.3,165.9c-0.2,0-0.4,0-0.6,0c-8.2,0.1-13.8,3.9-13.7,9.1c0,1.5,0.5,3.5,2.8,5.2
				c2.5,1.7,6.3,2.6,11.4,2.5c4.8-0.1,7.9-0.9,9.5-2.6c1.2-1.3,1.6-3.3,1.4-6.4c0-0.4,0.2-0.9,0.5-1.1c0.4-0.3,0.8-0.3,1.2-0.2
				c5.4,2.1,8.7,4.1,12.8,7l2.6-4.4c-5.6-3.6-9.9-5.5-16.9-7.5c-0.5-0.1-0.9-0.6-0.9-1.1c-0.7-8.2-0.7-10.4-0.7-16
				c0-0.4,0.1-0.7,0.4-0.9c0.3-0.2,0.6-0.4,1-0.3c1.3,0.1,3.1,0.1,4.2,0.1c1.9,0,5.7-0.3,10.6-1.5l-0.1-4.7
				c-2.3,0.8-5.9,1.8-11.9,1.9c-1.5,0-1.9,0-2.9-0.1c-0.6-0.1-1.1-0.6-1.1-1.2c0-2.2,0.1-7.1,0.2-8.1c0.1-0.6,0.3-1,0.6-1.3
				l-5.9-0.7l0.1,6.9c0.1,8.3,0.2,11.2,0.8,24.4c0,0.4-0.1,0.7-0.4,1s-0.6,0.4-1,0.3C352.4,166,351,165.9,349.3,165.9z M348.3,178.9
				c-3.7,0-7.9-1.2-8-4.4c0-1.4,0.8-2.7,2.2-3.5c1.3-0.8,3.2-1.2,5.3-1.2c2.4,0,4.5,0.3,5.7,0.5h0.2c0.6,0.1,1.1,0.6,1.1,1.2v0.1
				c0,1.5,0.1,3.3-0.7,4.7c-0.9,1.8-2.8,2.6-5.6,2.7C348.5,178.9,348.4,178.9,348.3,178.9z M347.9,172.2c-1.7,0-3.2,0.3-4.1,0.9
				c-0.5,0.3-1,0.7-1,1.3c0,1.3,3.3,2,5.7,2s3.1-0.8,3.4-1.4s0.4-1.5,0.4-2.5C351.2,172.4,349.6,172.2,347.9,172.2L347.9,172.2z
				 M347.9,171L347.9,171L347.9,171z"/>
			<path class="st1" d="M414.2,186.4c-0.2,0-0.4,0-0.6-0.1l-7.8-4c-0.4-0.2-0.6-0.6-0.7-1c0-0.4,0.1-0.9,0.5-1.1
				c2.1-1.6,5.7-4.4,8.7-10.7c2.4-5.1,3.6-11,3.5-16.9c0-0.1-0.3-10.3-2-20c-0.1-0.4,0-0.7,0.3-1c0.2-0.3,0.6-0.5,1-0.5l7.9-0.1
				c2,0,2.7,1.1,2.7,2.1c0,0.9-0.6,1.4-1,1.8l-0.1,0.1c0.1,0.6,0.2,2,0.3,2.7l0.1,0.8c0.5,4.8,1,9.5,1,13.8c0.1,7.1-1.1,13.8-3.7,20
				c-3,7.2-6.8,11.4-9.1,13.8C414.9,186.3,414.5,186.4,414.2,186.4z M408.7,181l5.2,2.6c2.3-2.5,5.4-6.2,8-12.4l0,0
				c2.5-5.9,3.6-12.2,3.5-18.9c-0.1-4.2-0.5-8.8-1-13.5l-0.1-0.8c-0.2-1.5-0.4-2.8-0.4-3.3s0.2-0.8,0.4-1.1h-5.7
				c1.3,8.5,1.7,17.5,1.8,18.9c0.1,6.3-1.2,12.6-3.8,18.1C414,176,410.9,179.1,408.7,181z M393.3,171.6c-0.5,0-1-0.3-1.2-0.8
				c-2.1-5.4-3.2-11.5-3.3-18.1c-0.1-7.8,0.9-15.2,1.4-19.1l0.1-0.4c0.1-0.6,0.7-1.1,1.3-1.1l7.1,0.3c0.1,0,0.7,0,1.2,0.2
				c0.8,0.3,1.4,1,1.4,1.8c0,1-0.8,1.5-1.1,1.8c-0.1,0-0.1,0.1-0.1,0.1l0,0c-0.8,1.3-1.6,10-1.7,15c0.5-1.3,1.1-2.7,1.7-4.2
				c0.1-0.3,0.4-0.6,0.8-0.7c0.4-0.1,0.7-0.1,1.1,0.1l4.6,2.9c0.5,0.3,0.7,1,0.5,1.6c-2.2,5.3-5,12.2-6.9,19.5
				c-0.1,0.5-0.6,0.9-1.2,0.9L393.3,171.6L393.3,171.6z M398.8,170.3L398.8,170.3L398.8,170.3z M392.6,134.7c-0.6,4-1.4,10.8-1.3,18
				c0.1,6,1.1,11.5,2.8,16.4l3.7-0.1c1.8-6.7,4.3-13,6.3-18l-2.4-1.5c-1.3,3.2-2.4,6.2-3,7.9c-0.2,0.5-0.7,0.9-1.3,0.8
				c-0.6,0-1-0.4-1.2-1c-0.4-1.5-0.5-2.3-0.6-4.3c0-1.9,0.1-6,0.5-9.9c0.5-5.6,1.2-7.4,1.6-8.1L392.6,134.7z"/>
			<path class="st2" d="M374.9,181.3c-4.5-3.3-7.8-5.4-13.6-7.7c0.5,6.4-1.5,10.2-12.1,10.4c-11.8,0.2-15.5-4.5-15.6-8.9
				c-0.1-5.7,5.5-10.2,15-10.4c2.1,0,3.7,0.1,4.8,0.2c-0.7-15.1-0.7-16.8-0.9-28.2l-0.1-4.6l7.8,1c0.3,0.1,1.6,0.2,1.6,0.8
				c0,0.3-0.1,0.3-0.8,0.9c-0.4,0.3-0.7,0.5-0.8,1c-0.1,0.8-0.2,5.6-0.2,7.9c0.9,0.1,1.3,0.1,2.7,0.1c7.6-0.1,11.2-1.6,13.2-2.4
				l0.1,7.5c-4.7,1.3-8.9,1.7-11.8,1.8c-1.3,0-3.1,0-4.4-0.1c0,5.5,0.1,7.6,0.7,15.9c7.5,2.2,11.9,4.2,18.2,8.3L374.9,181.3z
				 M347.9,171c-4.1,0.1-6.4,1.6-6.3,3.5c0,2.7,4.9,3.2,7,3.2c5.2-0.1,5.1-3.3,5-6.2C352.5,171.3,350.3,170.9,347.9,171z"/>
			<path class="st2" d="M398.8,170.3l-5.5,0.1c-2.2-5.6-3.1-11.7-3.2-17.6c-0.1-8,1-15.6,1.5-19.3l7.1,0.3c0.4,0,1.4,0.1,1.4,0.8
				c0,0.5-0.6,0.7-0.9,1c-1.3,1.1-2.2,13.6-2.1,17.5c0,1.9,0.2,2.6,0.5,4c0.8-2.2,2-5.6,3.6-9.3l4.6,2.9
				C403.1,157,400.6,163.5,398.8,170.3z M423.1,171.7c-2.9,7-6.6,11-8.9,13.5l-7.8-4c2.3-1.8,6-4.7,9-11.2
				c2.6-5.4,3.8-11.5,3.7-17.5c0-0.7-0.4-10.7-2-20.2l7.9-0.1c0.2,0,1.4,0,1.4,0.8c0,0.6-1.2,1-1.1,1.6c0,0.6,0.4,3.3,0.5,4
				c0.5,4.5,0.9,9.4,1,13.7C426.8,156.1,426.5,163.5,423.1,171.7z"/>
		</g>
		<g>
			<path class="st1" d="M76.7,186.5c-0.7,0-1.3-0.6-1.3-1.2l-0.1-3c0-0.3,0.1-0.6,0.3-0.9c29.7-33.6,32.6-38.7,32.5-46
				c0-2.6-0.9-4.8-2.6-6.4c-1.6-1.6-4-2.4-6.6-2.3c-5.7,0.1-9.4,3.7-9.3,9.1v1.5c0,0.3-0.1,0.7-0.4,0.9c-0.2,0.2-0.6,0.4-0.9,0.4
				l-11.1,0.2c-0.7,0-1.3-0.5-1.3-1.2V136c-0.1-13.2,9-22.2,22.8-22.4c6.5-0.1,12.4,2,16.6,5.8c4.2,3.9,6.6,9.4,6.7,15.6
				c0.2,9.2-3.1,16.5-21.3,37.9l22.8-0.4c0.3,0,0.7,0.1,0.9,0.4c0.2,0.2,0.4,0.6,0.4,0.9l0.2,10.6c0,0.7-0.5,1.3-1.2,1.3L76.7,186.5
				L76.7,186.5z M77.9,182.6v1.2l44.4-0.8l-0.1-8l-24.3,0.4c-0.5,0.1-1-0.3-1.2-0.7c-0.2-0.5-0.1-1,0.2-1.4
				c19.3-22.4,22.7-29.5,22.6-38.2c-0.1-5.6-2.1-10.3-5.9-13.8s-8.9-5.2-14.8-5.1c-12.3,0.2-20.4,8.1-20.2,19.7v0.3l8.6-0.1v-0.3
				c-0.1-6.8,4.7-11.6,11.8-11.7c3.3-0.1,6.3,1,8.4,3c2.1,2,3.3,4.8,3.4,8.2C110.9,143.4,107.9,148.7,77.9,182.6z"/>
			<path class="st2" d="M123.5,173.8l0.1,10.6l-46.9,0.8l-0.1-3c29.4-33.3,33-39,32.8-46.9c-0.1-6-4.3-10-10.5-9.9
				c-6.5,0.1-10.6,4.4-10.5,10.4v1.5l-11.1,0.2v-1.6c-0.2-12.3,8.4-20.8,21.4-21c12.8-0.2,21.8,8.1,22,20.2
				c0.2,9-3.3,16.4-22.8,39.2L123.5,173.8z"/>
		</g>
		<g>
			<path class="st1" d="M162.9,185.9c-0.7,0-1.3-0.6-1.3-1.2l-0.2-12.7l-32.9,0.6l0,0c-0.7,0-1.3-0.6-1.3-1.2v-2.3
				c0-0.2,0-0.4,0.1-0.5l22.5-52.8c0.2-0.5,0.6-0.8,1.1-0.8l11.3-0.2l0,0c0.4,0,0.8,0.2,1.1,0.6c0.2,0.4,0.3,0.8,0.1,1.2L144.9,160
				l16.6-0.4l1.4-18c0.1-0.7,0.6-1.2,1.2-1.2l8.7-0.2c0.3,0,0.7,0.1,0.9,0.4c0.2,0.2,0.4,0.6,0.4,0.9l0.3,17.9l5.4-0.1l0,0
				c0.7,0,1.3,0.6,1.3,1.2l0.2,9.8c0,0.7-0.5,1.3-1.2,1.3l-5.4,0.1l0.2,12.7c0,0.3-0.1,0.7-0.4,0.9c-0.2,0.2-0.6,0.4-0.9,0.4
				L162.9,185.9L162.9,185.9z M162.6,169.4c0.7,0,1.3,0.6,1.3,1.2l0.2,12.7l8.2-0.1l-0.2-12.7c0-0.7,0.5-1.3,1.2-1.3l5.4-0.1
				l-0.1-7.3l-5.4,0.1l0,0c-0.7,0-1.3-0.6-1.3-1.2l-0.3-17.9l-6.2,0.1l-1.4,18c-0.1,0.7-0.6,1.2-1.2,1.2l-19.6,0.3l0,0
				c-0.4,0-0.8-0.2-1.1-0.6c-0.2-0.4-0.3-0.8-0.1-1.2l18.5-43.4l-8.6,0.1l-22.1,51.8v0.7L162.6,169.4L162.6,169.4z"/>
			<path class="st1" d="M162.9,185.9c-0.7,0-1.3-0.6-1.3-1.2l-0.2-12.7l-32.9,0.6l0,0c-0.7,0-1.3-0.6-1.3-1.2v-2.3
				c0-0.2,0-0.4,0.1-0.5l22.5-52.8c0.2-0.5,0.6-0.8,1.1-0.8l11.3-0.2l0,0c0.4,0,0.8,0.2,1.1,0.6c0.2,0.4,0.3,0.8,0.1,1.2L144.9,160
				l16.6-0.4l1.4-18c0.1-0.7,0.6-1.2,1.2-1.2l8.7-0.2c0.3,0,0.7,0.1,0.9,0.4c0.2,0.2,0.4,0.6,0.4,0.9l0.3,17.9l5.4-0.1l0,0
				c0.7,0,1.3,0.6,1.3,1.2l0.2,9.8c0,0.7-0.5,1.3-1.2,1.3l-5.4,0.1l0.2,12.7c0,0.3-0.1,0.7-0.4,0.9c-0.2,0.2-0.6,0.4-0.9,0.4
				L162.9,185.9L162.9,185.9z M162.6,169.4c0.7,0,1.3,0.6,1.3,1.2l0.2,12.7l8.2-0.1l-0.2-12.7c0-0.7,0.5-1.3,1.2-1.3l5.4-0.1
				l-0.1-7.3l-5.4,0.1l0,0c-0.7,0-1.3-0.6-1.3-1.2l-0.3-17.9l-6.2,0.1l-1.4,18c-0.1,0.7-0.6,1.2-1.2,1.2l-19.6,0.3l0,0
				c-0.4,0-0.8-0.2-1.1-0.6c-0.2-0.4-0.3-0.8-0.1-1.2l18.5-43.4l-8.6,0.1l-22.1,51.8v0.7L162.6,169.4L162.6,169.4z"/>
			<path class="st2" d="M180,170.4l-6.6,0.1l0.2,13.9l-10.7,0.2l-0.2-13.9l-34.2,0.6V169l22.5-52.8l11.3-0.2L143,161.2l19.6-0.3
				l1.5-19.2l8.7-0.2l0.3,19.1l6.6-0.1L180,170.4z"/>
		</g>
		<g>
			<path class="st1" d="M100.7,279.2c-0.5,0-1-0.3-1.2-0.8l-2.8-7.2c-1,2-2,3.9-3.2,5.9c-0.3,0.5-0.9,0.7-1.4,0.6l-8.9-2.2
				c-0.4-0.1-0.7-0.4-0.9-0.8c-0.2-0.4-0.1-0.8,0.1-1.1c7.8-12.7,10.4-24,10.3-44.1l-6.8,0.1c-0.7,0-1.3-0.5-1.3-1.2l-0.1-8
				c0-0.3,0.1-0.7,0.4-0.9s0.6-0.4,0.9-0.4l9.9-0.2l-0.2-10c0-0.4,0.1-0.7,0.4-0.9c0.2-0.2,0.6-0.4,0.9-0.4l8.9,0.4
				c0.2,0,0.9,0,1.5,0.2c1.4,0.5,1.6,1.6,1.6,2s-0.1,1.2-1,1.8l-0.1,0.1c-0.2,0.1-0.4,0.3-0.5,0.4l0.1,6.2l10.4-0.2
				c0.7,0,1.3,0.5,1.3,1.2l0.1,4.4c1.8-3.9,3.6-8.9,5.4-15.9c0.1-0.3,0.3-0.6,0.6-0.8c0.3-0.2,0.6-0.2,1-0.1l8.6,2.3
				c2,0.6,2.4,1.7,2.4,2.5c0,1.5-1.3,2-1.8,2.2l0,0c-0.1,0-0.2,0.1-0.3,0.1s-0.2,0.1-0.4,0.1c-0.3,0.7-0.8,2.3-1.2,3.4l20.7-0.4
				c0.4,0,0.7,0.1,0.9,0.4c0.2,0.2,0.4,0.6,0.4,0.9l0.1,8.1c0,0.7-0.5,1.3-1.2,1.3l-3.4,0.1c-2.5,16.5-6.7,24.6-9.7,29.9
				c4.2,4.8,7.7,7.4,13.8,9.8c0.4,0.2,0.7,0.5,0.8,0.9s0,0.8-0.3,1.1l-7.1,7.5c-0.4,0.4-1,0.5-1.6,0.2c-5.2-3-8.5-5.7-12.2-10.2
				c-4.4,4.9-8.1,7.8-14.2,11c-0.5,0.3-1.1,0.2-1.5-0.2L113,273C109.7,278.7,104.2,279,100.7,279.2
				C100.8,279.2,100.7,279.2,100.7,279.2z M99.1,270.2l2.5,6.4c3.4-0.2,7.6-0.9,10-6.1c0.1-0.1,0.1-0.2,0.2-0.3c0-0.2,0-0.3,0-0.5
				c1.4-5.3,2-10.9,2.4-16.6c0.4-5.6,0.5-10.1,0.6-13.4l0.1-1.9c0-0.5,0.3-0.9,0.7-1.1s0.9-0.2,1.3,0.1l3.3,2.3
				c0.5-0.7,1.1-1.5,1.8-2.4c0.3-0.4,0.8-0.6,1.3-0.5s0.9,0.5,1,1c2.1,11.2,4.7,16.4,6.6,20.2c0.2,0.5,0.2,1-0.2,1.4
				c-5.4,6.4-10,9.3-16.3,12.2l5.6,5.1c5.7-3.2,9.2-6.1,13.7-11.2c0.2-0.3,0.6-0.4,1-0.4s0.7,0.2,1,0.5c3.7,4.7,6.7,7.3,11.5,10.3
				l5.2-5.4c-5.7-2.5-9.4-5.4-13.7-10.5c-0.3-0.4-0.4-1-0.1-1.4c3-5.3,7.5-13.2,10-30.9c0.1-0.6,0.6-1.1,1.2-1.1l3.2-0.1l-0.1-5.5
				l-21.2,0.2c-0.4,0-0.8-0.2-1.1-0.5c-0.2-0.3-0.3-0.8-0.2-1.2c0.1-0.2,0.2-0.6,0.4-1.2c1.1-3.1,1.4-4.1,1.6-4.5l0,0
				c0-0.1,0.1-0.1,0.1-0.2c0,0,0-0.1,0.1-0.1c0.3-0.4,0.8-0.6,1.5-0.8l0,0l-7.3-2c-3.9,14.6-7.5,20.4-12.6,25.9
				c-0.2,0.2-0.6,0.4-0.9,0.4l-10.7,0.2c-0.3,0-0.7-0.1-0.9-0.4c-0.2-0.2-0.4-0.6-0.4-0.9c0.1-2.6,0.1-4.3,0-7.3
				c0-0.7,0.5-1.3,1.2-1.3l14.3-0.2l-0.2-5.5l-10.4,0.2c-0.3,0-0.7-0.1-0.9-0.4c-0.2-0.2-0.4-0.6-0.4-0.9l-0.1-7.6
				c0-0.9,0.3-1.4,0.9-1.8l-7.6-0.3l0.2,9.9c0,0.3-0.1,0.7-0.4,0.9s-0.6,0.4-0.9,0.4l-9.9,0.2l0.1,5.4l6.8-0.1
				c0.3,0,0.7,0.1,0.9,0.4c0.2,0.2,0.4,0.6,0.4,0.9c0.2,20.7-2.3,32.5-9.8,45.3l6.3,1.6c3.9-6.6,7.2-13.9,8.9-31.9
				c0.1-0.6,0.6-1.1,1.2-1.1l6.2-0.1c0.4,0,0.7,0.1,0.9,0.4c0.2,0.2,0.4,0.6,0.4,0.9c0,10.6-1,19.4-2.7,23.6c-1.3,3-2.4,3.6-4.5,3.6
				C101.1,270.3,100,270.3,99.1,270.2z M98.3,267.6c0.9,0.1,2.4,0.2,3.9,0.2c1.1,0,1.4,0,2.2-2c1.5-3.7,2.4-11.6,2.5-21.3l-3.7,0.1
				C102.1,254.9,100.5,261.9,98.3,267.6z M117.3,240.2c-0.1,3.3-0.2,7.7-0.6,13.1c-0.4,4.9-0.8,9.8-1.9,14.5
				c5-2.4,8.9-5.1,13.3-10.2c-1.7-3.5-3.9-8.3-5.8-17.2c-0.4,0.5-0.7,0.9-1.1,1.2c-0.4,0.5-1.1,0.5-1.6,0.2L117.3,240.2z
				 M103.7,229.2c0,1.9,0,3.2,0,4.9l8.9-0.2c1.4-1.5,2.7-3.1,3.9-5L103.7,229.2z M134.7,214.3L134.7,214.3L134.7,214.3z
				 M134.7,214.3L134.7,214.3L134.7,214.3z M134.7,214.3L134.7,214.3L134.7,214.3z M134.7,251.3L134.7,251.3c-0.5,0-1-0.3-1.2-0.8
				c-2.6-6.3-4.3-11.8-5.6-23c0-0.4,0.1-0.7,0.3-1s0.6-0.4,0.9-0.4l11.6-0.2c0.4,0,0.7,0.1,1,0.4c0.2,0.3,0.4,0.6,0.3,1
				c-1.4,12.5-3.7,18-6.2,23.3C135.6,251.1,135.2,251.3,134.7,251.3z M130.6,228.6c1,8.4,2.3,13.4,4.2,18.2
				c1.8-4.2,3.4-9.2,4.6-18.4L130.6,228.6z"/>
			<path class="st1" d="M170.6,278.7c-0.8,0-1.6-0.6-2.1-1.6l-4.1-8c-0.2-0.3-0.2-0.7-0.1-1c0.1-0.3,0.3-0.6,0.6-0.7
				c4.2-2.1,6.2-3.3,8.9-5.4l-0.3-15.2l-6.6,0.1c-0.3,0-0.7-0.1-0.9-0.4c-0.2-0.2-0.4-0.6-0.4-0.9l-0.1-8.2c0-0.3,0.1-0.7,0.4-0.9
				s0.6-0.4,0.9-0.4l17.2-0.3c0.3,0,0.7,0.1,0.9,0.4s0.4,0.6,0.4,0.9l0.4,23.2c0,2.8,1.1,4.4,3.5,5.4c2.8,1.1,7.3,1.2,11.3,1.2
				c7.6-0.1,16.9-0.4,26.6-1.2c-3.3-1.2-10.3-4.5-16.4-13.1c-3.9,6.3-8.9,11-14.6,13.7c-0.4,0.2-1,0.1-1.3-0.2l-7.2-5.8
				c-0.3-0.3-0.5-0.7-0.5-1.1c0.1-0.4,0.3-0.8,0.7-1c7-3.3,11.8-7.5,14.2-12.6l-12.7,0.2c-0.3,0-0.7-0.1-0.9-0.4
				c-0.2-0.2-0.4-0.6-0.4-0.9l-0.1-7.7c0-0.7,0.5-1.3,1.2-1.3l15.3-0.3c0.1-1.5,0.1-2.7,0.1-4.1l-12.9,0.2c-0.7,0-1.3-0.5-1.3-1.2
				l-0.1-7.7c0-0.7,0.5-1.3,1.2-1.3l5.3-0.1c-1.7-2.5-3.8-4.9-5.9-6.6c-0.3-0.2-0.5-0.6-0.5-1s0.2-0.7,0.5-1l6.9-5.6
				c0.5-0.4,1.2-0.4,1.7,0.1c2.7,2.6,4.9,5,8.2,10.6c0.3,0.5,0.2,1.3-0.3,1.7l-2.2,1.7l5.1-0.1c2.5-4.5,5.1-9.2,7-13.7
				c0.2-0.6,0.9-0.9,1.5-0.7l8.1,2.3c1.6,0.5,2.4,1.3,2.4,2.3c0,0.6-0.4,1.2-1,1.5l-0.2,0.1c-0.4,0.2-0.6,0.3-0.8,0.4
				c-2.1,3.9-3.2,5.8-4.3,7.6l7.1-0.1c0.3,0,0.7,0.1,0.9,0.4s0.4,0.6,0.4,0.9l0.1,7.7c0,0.7-0.5,1.3-1.2,1.3l-14.7,0.3
				c0.1,1.7,0,2.9,0,4.1l18.5-0.3c0.7,0,1.3,0.5,1.3,1.2l0.1,7.7c0,0.7-0.5,1.3-1.2,1.3l-16.4,0.3c2,3.1,6,7.7,16.2,11.7
				c0.4,0.2,0.7,0.5,0.8,0.9s0,0.8-0.3,1.1l-5.7,6.6l0,0c3.2-0.3,6.4-0.6,9.6-1c0.5-0.1,0.9,0.1,1.2,0.5s0.3,0.8,0.2,1.2l-3.8,9.5
				c-0.2,0.5-0.6,0.8-1.1,0.8c-9.2,0.5-28.7,1-32,1c-14.4,0.3-19-1.7-23.1-7.1c-2.4,2.1-5,4.1-5.9,4.8l-0.6,0.5
				c-0.4,0.3-0.7,0.6-0.9,0.7C172.3,277.3,172.1,278.6,170.6,278.7L170.6,278.7z M235,275.3L235,275.3L235,275.3z M167.2,269.1
				l3.1,6c0.2-0.4,0.6-0.8,1.6-1.5l0.6-0.5c1-0.8,4.3-3.3,6.9-5.6c0.3-0.2,0.6-0.4,1-0.3c0.4,0,0.7,0.2,0.9,0.5
				c3.7,5.3,6.7,7.5,21.8,7.2c3.1-0.1,21.6-0.5,31.1-1l2.7-6.7c-13.1,1.6-26.2,2-36.2,2.1c-6.1,0.1-9.7-0.3-12.3-1.3
				c-3.3-1.4-5-3.9-5.1-7.7l-0.4-22l-14.7,0.3l0.1,5.7l6.6-0.1c0.3,0,0.7,0.1,0.9,0.4s0.4,0.6,0.4,0.9l0.3,17.1c0,0.4-0.2,0.8-0.5,1
				C173.1,265.9,171,267.2,167.2,269.1z M190.7,259.6l5,4.1c5.5-2.8,10.2-7.6,13.8-14c0.2-0.4,0.6-0.6,1.1-0.7
				c0.4,0,0.9,0.2,1.1,0.6c5.8,9,12.6,12.4,15.9,13.7l4-4.6c-12-5.1-15.3-11-16.9-14c-0.2-0.4-0.2-0.9,0-1.3s0.6-0.6,1.1-0.6
				l17.3-0.3l-0.1-5.1l-18.6,0.3c-0.3,0-0.7-0.1-0.9-0.4s-0.4-0.6-0.3-1c0.1-1.8,0.2-3.4,0-6.5c0-0.3,0.1-0.7,0.3-0.9
				s0.6-0.4,0.9-0.4l14.8-0.3l-0.1-5.1l-8.2,0.1c-0.5,0-0.9-0.2-1.1-0.7s-0.2-0.9,0-1.3c1.7-2.7,2.6-4.3,5.5-9.6l0.1-0.1
				c0.1-0.2,0.2-0.3,0.4-0.4l0.1-0.1l-6.6-1.9c-1.9,4.6-4.5,9.2-7,13.6c-0.2,0.4-0.6,0.6-1.1,0.6l-9.6,0.2c-0.6,0-1-0.3-1.2-0.8
				c0,0,0,0,0-0.1c0,0.1-0.1,0.2-0.1,0.3c-0.2,0.4-0.6,0.6-1.1,0.6l-6.3,0.1l0.1,5.1l12.9-0.2c0.7,0,1.3,0.5,1.3,1.2
				c0,2.5,0,4.2-0.2,6.8c0,0.7-0.6,1.2-1.2,1.2l-15.2,0.3l0.1,5.1l13.3-0.2c0.4,0,0.8,0.2,1.1,0.5c0.2,0.3,0.3,0.8,0.2,1.2
				C203,250.7,198.1,255.7,190.7,259.6z M193.8,213.6c2.4,2.3,4.8,5.3,6.5,8.1c0.1,0.1,0.1,0.2,0.1,0.3c0.1-0.3,0.2-0.5,0.4-0.7
				l4.3-3.3c-2.6-4.1-4.3-6.3-6.4-8.3L193.8,213.6z M178.9,227.6C178.8,227.6,178.8,227.6,178.9,227.6c-0.4,0-0.8-0.2-1-0.5
				c-1.9-2.4-5.9-6.8-11-9.7c-0.3-0.2-0.6-0.5-0.6-0.9s0.1-0.8,0.4-1.1l6.5-6.3c0.4-0.4,1-0.5,1.5-0.2c3.5,2,7.4,4.7,11.7,10.8
				c0.4,0.5,0.3,1.2-0.2,1.7l-6.4,5.9C179.5,227.5,179.2,227.6,178.9,227.6z M169.6,216.1c4.1,2.7,7.4,6,9.4,8.4l4.6-4.2
				c-3.2-4.4-6.1-6.7-9.4-8.6L169.6,216.1z"/>
			<path class="st1" d="M248.8,278.2c-0.3,0-0.6-0.1-0.9-0.4c-0.2-0.2-0.4-0.6-0.4-0.9l-1.1-65.3c0-0.7,0.5-1.3,1.2-1.3l30.5-0.5
				c0.3,0,0.7,0.1,0.9,0.4c0.2,0.2,0.4,0.6,0.4,0.9l0.4,24.3c0,0.7-0.5,1.3-1.2,1.3l-20.5,0.4l0.6,33.9c0.1-0.1,0.2-0.2,0.3-0.3
				c6.1-4,7.8-6.5,9-10.4l-7.6,0.1l0,0c-0.7,0-1.3-0.6-1.3-1.2l-0.1-7c0-0.3,0.1-0.7,0.4-0.9s0.6-0.4,0.9-0.4l8.9-0.2
				c0-1.2,0-2,0-3.2l-6.7,0.1c-0.7,0-1.3-0.5-1.3-1.2l-0.1-6.8c0-0.7,0.5-1.3,1.2-1.3l37.1-0.6c0.7,0,1.3,0.5,1.3,1.2l0.1,6.8
				c0,0.3-0.1,0.7-0.4,0.9s-0.6,0.4-0.9,0.4l-6.5,0.1l0.1,3.2l8.5-0.1c0.7,0,1.3,0.5,1.3,1.2l0.1,7c0,0.3-0.1,0.7-0.4,0.9
				c-0.3,0.2-0.6,0.4-0.9,0.4l-8.5,0.1l0.3,15.2c0,0.7-0.5,1.3-1.2,1.3l-8.1,0.1c-0.3,0-0.7-0.1-0.9-0.4c-0.2-0.2-0.4-0.6-0.4-0.9
				l-0.3-15.2l-4.1,0.1c-1.6,8.3-4.9,12.4-11.1,17.8c-0.4,0.4-1.1,0.4-1.6,0.1l-7-5.2c-0.1-0.1-0.2-0.2-0.3-0.3l0.1,4.4
				c0,0.7-0.5,1.3-1.2,1.3L248.8,278.2L248.8,278.2z M248.9,212.9l1.1,62.7l6.2-0.1l-0.7-39.7c0-0.3,0.1-0.7,0.4-0.9
				c0.3-0.2,0.6-0.4,0.9-0.4l20.5-0.4l-0.4-21.7L248.9,212.9z M261.9,271.6l4.7,3.5c5.5-4.9,8.3-8.7,9.6-16.6c0.1-0.6,0.6-1,1.2-1
				l6.4-0.1c0.7,0,1.3,0.5,1.3,1.2l0.3,15.2l5.6-0.1l-0.3-15.2c0-0.3,0.1-0.7,0.4-0.9c0.3-0.2,0.6-0.4,0.9-0.4l8.5-0.1l-0.1-4.5
				l-8.5,0.1c-0.3,0-0.7-0.1-0.9-0.4c-0.2-0.2-0.4-0.6-0.4-0.9l-0.1-5.8c0-0.7,0.5-1.3,1.2-1.3l6.5-0.1l-0.1-4.3l-34.6,0.6l0.1,4.3
				l6.7-0.1c0.7,0,1.3,0.5,1.3,1.2c0,2.4,0.1,3.4-0.1,5.9c0,0.7-0.6,1.2-1.2,1.2l-8.8,0.2l0.1,4.5l8.1-0.1c0.4,0,0.8,0.2,1,0.5
				c0.2,0.3,0.3,0.7,0.2,1.1C269.6,264.4,268,267.4,261.9,271.6z M301.8,277.6c-0.5,0-0.9-0.3-1.1-0.7l-3.9-8.2
				c-0.2-0.4-0.2-0.8,0.1-1.2c0.3-0.4,0.6-0.6,1.1-0.6l5.2-0.1c1.5,0,1.7-0.5,1.7-1.5l-0.5-29.1l-20.9,0.4c-0.7,0-1.3-0.5-1.3-1.2
				l-0.6-24.4c0-0.3,0.1-0.7,0.4-0.9s0.6-0.4,0.9-0.4l30.5-0.5c0.7,0,1.3,0.5,1.3,1.2l1,56.7c0.1,6.8-2.9,10.2-9,10.4l0,0
				L301.8,277.6L301.8,277.6z M306.6,276.3L306.6,276.3L306.6,276.3z M299.8,269.4l2.7,5.7l4-0.1c4.6-0.1,6.6-2.4,6.5-7.8l-1-55.5
				l-28,0.5l0.4,21.7l20.9-0.4c0.7,0,1.3,0.5,1.3,1.2l0.5,30.3c0,1.5-0.5,4-4.2,4.1L299.8,269.4z M278.1,252.9
				c-0.3,0-0.7-0.1-0.9-0.4c-0.2-0.2-0.4-0.6-0.4-0.9c0-1,0-1.8,0-3.3v-2.4c0-0.7,0.6-1.2,1.2-1.3l5.5-0.1c0.4,0,0.7,0.1,0.9,0.4
				c0.2,0.2,0.4,0.6,0.4,0.9l0.1,5.8c0,0.7-0.5,1.3-1.2,1.3H278.1L278.1,252.9z M279.4,247.1v1.2c0,0.9,0,1.5,0,2l3.1-0.1l-0.1-3.2
				L279.4,247.1z M256.7,230.8c-0.7,0-1.3-0.6-1.3-1.2l-0.1-3.4c0-0.3,0.1-0.7,0.4-0.9c0.3-0.2,0.6-0.4,0.9-0.4l13.7-0.2
				c0.7,0,1.3,0.5,1.3,1.2l0.1,3.4c0,0.3-0.1,0.7-0.4,0.9s-0.6,0.4-0.9,0.4L256.7,230.8L256.7,230.8z M257.9,227.4v0.9l11.2-0.2
				v-0.9L257.9,227.4z M291.8,230.2c-0.7,0-1.3-0.6-1.3-1.2l-0.1-3.4c0-0.3,0.1-0.7,0.4-0.9s0.6-0.4,0.9-0.4l13.6-0.2
				c0.3,0,0.7,0.1,0.9,0.4c0.2,0.2,0.4,0.6,0.4,0.9l0.1,3.4c0,0.7-0.5,1.3-1.2,1.3L291.8,230.2L291.8,230.2z M293,226.8v0.9
				l11.1-0.2v-0.9L293,226.8z M256.5,222.1c-0.7,0-1.3-0.6-1.3-1.2l-0.1-3.2c0-0.3,0.1-0.7,0.4-0.9s0.6-0.4,0.9-0.4l13.7-0.2
				c0.3,0,0.7,0.1,0.9,0.4c0.2,0.2,0.4,0.6,0.4,0.9l0.1,3.2c0,0.7-0.5,1.3-1.2,1.3L256.5,222.1C256.6,222.1,256.6,222.1,256.5,222.1
				z M257.8,218.9v0.6l11.2-0.2v-0.6L257.8,218.9z M291.6,221.5c-0.3,0-0.6-0.1-0.9-0.4c-0.2-0.2-0.4-0.6-0.4-0.9l-0.1-3.2
				c0-0.7,0.5-1.3,1.2-1.3l13.6-0.2c0.7,0,1.3,0.5,1.3,1.2l0.1,3.2c0,0.3-0.1,0.7-0.4,0.9s-0.6,0.4-0.9,0.4L291.6,221.5L291.6,221.5
				z M292.9,218.3v0.6l11.1-0.2v-0.6L292.9,218.3z"/>
			<path class="st1" d="M336,278.8c-0.2,0-0.4,0-0.6-0.1l-8.5-4.4c-0.4-0.2-0.6-0.6-0.7-1c0-0.4,0.1-0.8,0.4-1.1
				c4.2-3.5,8.9-8.1,12.6-16.1c-1-1.1-1.5-1.6-2.4-2.4c-0.1,0.3-0.3,0.7-0.4,1.1c-0.2,0.6-0.8,0.9-1.4,0.7l-8.3-1.8
				c-0.4-0.1-0.7-0.3-0.8-0.6c-0.2-0.3-0.2-0.7-0.1-1c2.3-6.9,3.4-11.6,5.2-20.1l-3.5,0.1c-0.3,0-0.7-0.1-0.9-0.4
				c-0.2-0.2-0.4-0.6-0.4-0.9l-0.2-9c0-0.3,0.1-0.7,0.4-0.9c0.2-0.2,0.6-0.4,0.9-0.4l5.9-0.1c0.7-4.6,1.1-7.4,1.3-11.3
				c0-0.4,0.2-0.7,0.4-0.9c0.3-0.2,0.6-0.3,1-0.3l8.6,1c2.4,0.3,2.7,1.7,2.7,2.2c0,1.1-0.7,1.6-1.2,1.9c-0.2,0.1-0.3,0.2-0.3,0.3
				c0,0,0,0,0,0.1c-0.3,2.5-0.7,4.8-1,6.5c0,0.1,0,0.2,0,0.3l10-0.2l0,0c0.7,0,1.2,0.5,1.3,1.2c0.1,3.3,0.2,6.7,0,10.3
				c0.9,0,1.8,0,6.3-0.2c1.7-6,3.5-13,5.2-23c0.1-0.3,0.2-0.6,0.5-0.8s0.6-0.3,1-0.2l9.3,1.7c2,0.3,3,1.2,3,2.5
				c0,0.5-0.2,1.8-2.1,2.4c-0.2,0.1-0.3,0.1-0.4,0.2c-2,6.2-3.1,9.5-5.5,16.7c2.9-0.1,4.3-0.2,8.4-0.5c-1-1.9-2.1-3.7-4.3-7.1
				c-0.2-0.3-0.3-0.7-0.2-1s0.3-0.6,0.6-0.8l7.5-3.8c0.5-0.3,1.2-0.1,1.6,0.4c5.5,7.2,9.5,14.7,11.9,22.4c0.2,0.6-0.1,1.3-0.7,1.5
				l-5.8,2.7h0.2l0,0c0.7,0,1.3,0.6,1.3,1.2l0.5,31c0,0.3-0.1,0.7-0.4,0.9c-0.3,0.2-0.6,0.4-0.9,0.4l-9.1,0.2l0,0
				c-0.7,0-1.3-0.6-1.3-1.2v-1.4l-11.9,0.2v1.4c0,0.3-0.1,0.7-0.4,0.9c-0.3,0.2-0.6,0.4-0.9,0.4l-9.1,0.2l0,0
				c-0.7,0-1.3-0.6-1.3-1.2l-0.2-12.3c-0.1,0.1-0.1,0.2-0.2,0.2l-7.2,6c-0.3,0.2-0.7,0.3-1.1,0.3c-0.4-0.1-0.7-0.3-0.9-0.7
				c-0.7-1.4-1.3-2.7-2.9-5.1c-2.8,5.1-5.6,8.7-9.6,12.8C336.7,278.7,336.4,278.8,336,278.8z M329.8,272.9l6,3.1
				c4-4.1,6.6-7.8,9.5-13.4c0.2-0.4,0.6-0.7,1-0.7s0.9,0.2,1.1,0.5c1.8,2.6,2.8,4.2,3.5,5.8l5.2-4.3c-1-1.7-2.8-4.5-6.8-9.1
				c-0.3-0.3-0.4-0.8-0.2-1.3c4.1-11.5,4.5-21.7,4.2-31l-10.3,0.2c-0.4,0-0.7-0.2-1-0.4s-0.4-0.7-0.3-1c0.1-0.4,0.2-1.1,0.3-1.8
				c0.3-1.7,0.7-4,1-6.5c0.1-0.7,0.4-1.1,0.9-1.6l-7-0.8c-0.2,3.5-0.6,6.4-1.4,11.3c-0.1,0.6-0.6,1.1-1.2,1.1l-5.7,0.1l0.1,6.5
				l3.9-0.1c0.4,0,0.8,0.2,1,0.5s0.3,0.7,0.3,1.1c-1.8,8.7-2.9,13.8-5.1,20.6l5.8,1.3c0.1-0.3,0.2-0.6,0.3-0.9
				c0.1-0.3,0.2-0.5,0.3-0.8c0.1-0.4,0.5-0.7,0.9-0.8s0.8,0,1.2,0.3c2.3,2,2.6,2.3,4.6,4.4c0.3,0.4,0.4,0.9,0.2,1.4
				C338.4,264.4,333.8,269.4,329.8,272.9z M361.1,247.5l0.5,28.5l6.6-0.1v-1.4c0-0.3,0.1-0.7,0.4-0.9c0.3-0.2,0.6-0.4,0.9-0.4
				l14.5-0.3l0,0c0.7,0,1.3,0.6,1.3,1.2v1.4l6.5-0.1l-0.5-28.5L361.1,247.5z M351.8,253.8c4.3,5,6,7.9,7,9.5l0.1,0.3l-0.3-17.2
				c0-0.3,0.1-0.7,0.4-0.9s0.6-0.4,0.9-0.4l27.9-0.5l-0.1-0.2c-0.3-0.9-0.6-2-1.3-3.8c-3.6,0.5-12.4,1.5-21.5,2.2
				c-0.5,0-3.4,0.2-4.2,0.3c-0.1,0.1-0.2,0.2-0.4,0.3c-0.8,0.7-1.3,1.1-2,1.1l0,0c-1.7,0-2-1.8-2.2-2.8l-0.7-3.7
				C354.8,242.9,353.7,248.2,351.8,253.8z M360.8,242.9L360.8,242.9L360.8,242.9z M387.1,237.8c0.5,0,1,0.3,1.2,0.8
				c0.7,1.9,1.2,3.2,1.5,4.1l6.1-2.8c-2.3-6.8-5.8-13.4-10.5-19.7l-5.3,2.7c2.3,3.6,3.3,5.3,4.6,7.9c0.2,0.4,0.2,0.8,0,1.2
				s-0.6,0.6-1,0.6c-6,0.5-7.2,0.5-10.9,0.7l-1.4,0.1c-0.4,0-0.8-0.2-1.1-0.5s-0.3-0.8-0.2-1.2c2.9-8.6,4-11.9,6.1-18.6
				c0-0.1,0.1-0.2,0.1-0.3c0.4-0.6,0.7-0.9,1.5-1.3c-0.1,0-0.2,0-0.3,0l-8-1.4c-1.7,9.8-3.5,16.8-5.2,22.8c-0.1,0.5-0.6,0.9-1.2,0.9
				c-3.4,0.2-5,0.2-6,0.3l1.3,7c0,0.1,0,0.2,0.1,0.3l0,0c0.5-0.4,0.9-0.7,1.3-0.8c0.5-0.1,4.4-0.4,4.8-0.4c9.9-0.8,19.5-2,22.3-2.4
				C387,237.8,387.1,237.8,387.1,237.8z M369.3,267.2c-0.7,0-1.3-0.6-1.3-1.2l-0.2-11.5c0-0.7,0.5-1.3,1.2-1.3l14.5-0.3
				c0.3,0,0.7,0.1,0.9,0.4c0.2,0.2,0.4,0.6,0.4,0.9l0.2,11.5c0,0.3-0.1,0.7-0.4,0.9c-0.3,0.2-0.6,0.4-0.9,0.4L369.3,267.2
				L369.3,267.2z M370.3,255.6l0.2,9l11.9-0.2l-0.2-9L370.3,255.6z M343.7,248.4c-0.3,0-0.6-0.1-0.8-0.3c-2.2-1.9-3.1-2.7-5-4.1
				c-0.4-0.3-0.6-0.8-0.5-1.3c1.2-5,2.1-8.8,2.7-12.3c0.1-0.6,0.6-1,1.2-1l4.7-0.1c0.3,0,0.7,0.1,0.9,0.4s0.4,0.6,0.4,0.9
				c-0.4,9-1.4,13.3-2.3,16.9c-0.1,0.4-0.4,0.8-0.9,0.9C344,248.4,343.8,248.4,343.7,248.4z M340,242.5c1.1,0.8,1.9,1.5,3,2.4
				c0.7-3,1.3-6.6,1.6-13h-2.3C341.8,234.9,341.1,238.3,340,242.5z"/>
			<path class="st2" d="M149.8,227c-2.5,17.5-6.8,25.5-10.1,31.3c4.7,5.6,8.6,8.3,14.9,10.8l-7.1,7.5c-5.3-3.1-8.6-5.8-12.8-11.1
				c-5,5.7-8.8,8.6-14.8,11.9l-7.2-6.4c-2.8,6.3-8.2,6.7-12,6.9l-3.6-9.2c0.9,0.1,2.9,0.3,5.1,0.3c1.4,0,2.2-0.1,3.3-2.8
				c1.7-4.1,2.6-12.8,2.6-23.1l-6.2,0.1c-1.7,18.1-5,25.6-9.5,33.2l-8.9-2.2c7.8-12.7,10.7-24.1,10.5-46.1l-8.1,0.1l-0.1-8l11.1-0.2
				l-0.2-11.2l8.9,0.4c0.6,0,1.9,0.1,1.9,1c0,0.3-0.2,0.6-0.5,0.7c-1,0.7-1.2,0.8-1.2,1.4l0.1,7.6l11.7-0.2l0.1,8l-15.2,0.3
				c0.1,3.1,0.1,4.7,0,7.4l10.7-0.2c5-5.4,8.7-11.2,12.7-26.6l8.6,2.3c0.7,0.2,1.4,0.6,1.4,1.3c0,0.6-0.5,0.8-1,1
				c-0.2,0.1-1.2,0.4-1.3,0.6c-0.1,0.1-1.7,4.9-2,5.6l22.5-0.4l0.1,8.1L149.8,227z M123,237.3c-1.3,2-2.2,3-2.6,3.4l-4.2-3
				c-0.1,3.3-0.2,8.6-0.7,15.4c-0.5,5.7-1,11.4-2.5,16.9c7-3.1,11.4-6,16.7-12.2C127.8,254,125.2,248.7,123,237.3z M129.2,227.4
				c1.3,11.3,3,16.6,5.5,22.7c2.7-5.6,4.7-10.9,6.1-22.9L129.2,227.4z"/>
			<path class="st2" d="M235,275.3c-9.4,0.6-29.6,1-31.9,1c-15.3,0.3-18.9-2-22.9-7.7c-2.6,2.3-5.8,4.8-6.9,5.7
				c-1.6,1.3-1.8,1.4-1.9,1.7c-0.2,1-0.3,1.5-0.8,1.5c-0.2,0-0.6-0.2-1-0.9l-4.1-7.9c4.3-2.1,6.5-3.4,9.6-5.9l-0.3-17.1l-7.8,0.1
				l-0.1-8.2l17.2-0.3l0.4,23.2c0.1,6.9,5.9,8,16.1,7.8c12.7-0.2,25.5-0.8,38.2-2.4L235,275.3z M178.9,226.4c-2.4-3-6.4-7.2-11.3-10
				l6.5-6.3c3.5,2,7.1,4.5,11.2,10.4L178.9,226.4z M215.8,244.1c1.8,3.2,5.4,9.2,17.9,14.1l-5.7,6.6c-2.8-0.9-10.7-4.2-17.4-14.5
				c-3.9,7-9.1,12.1-15.1,14.9l-7.2-5.8c6.8-3.2,13.1-8,15.6-15.1l-14.6,0.3l-0.1-7.7l16.4-0.3c0.2-2.5,0.2-4.2,0.2-6.6l-14.1,0.2
				l-0.1-7.7l7.6-0.1c-1.7-3-4.5-6.4-7.3-8.8l6.9-5.6c2.8,2.6,4.8,5.1,8,10.3l-5.1,4l9.6-0.2c2.7-4.7,5.4-9.7,7.4-14.5l8.1,2.3
				c0.2,0.1,1.5,0.4,1.5,1.1c0,0.2-0.2,0.3-0.3,0.4c-0.2,0.1-1.2,0.6-1.4,0.7c-3,5.4-3.9,7.1-5.7,9.8l9.5-0.2l0.1,7.7l-16,0.3
				c0.1,3.2,0.1,4.8,0,6.6l19.8-0.3l0.1,7.7L215.8,244.1z"/>
			<path class="st2" d="M256.8,235.7l0.7,41l-8.8,0.2l-1.1-65.3l30.5-0.5l0.4,24.3L256.8,235.7z M270.2,217.4l-13.7,0.2l0.1,3.2
				l13.7-0.2L270.2,217.4z M270.4,225.9l-13.7,0.2l0.1,3.4l13.7-0.2L270.4,225.9z M292.1,258.4l0.3,16.4l-8.1,0.1l-0.3-16.4
				l-6.4,0.1c-1.5,8.6-4.5,12.6-10.8,18l-7-5.2c7-4.5,8.6-7.4,10-12.7l-9.3,0.2l-0.1-7l10.1-0.2c0.1-2.4,0.1-3.3,0.1-5.8l-8,0.1
				l-0.1-6.8l37.1-0.6l0.1,6.8l-7.7,0.1l0.1,5.8l9.8-0.2l0.1,7L292.1,258.4z M283.7,245.8l-5.5,0.1c0,3.3,0,4.3-0.1,5.8l5.7-0.1
				L283.7,245.8z M306.6,276.3l-4.8,0.1l-3.9-8.2l5.2-0.1c2,0,3-0.8,3-2.8l-0.5-30.3l-22.2,0.4l-0.5-24.4l30.5-0.5l1,56.7
				C314.4,272.3,312.8,276.2,306.6,276.3z M305.2,216.8l-13.6,0.2l0.1,3.2l13.6-0.2L305.2,216.8z M305.3,225.3l-13.6,0.2l0.1,3.4
				l13.6-0.2L305.3,225.3z"/>
			<path class="st2" d="M350.6,270.3c-0.9-1.9-1.7-3.5-4.2-7c-3.2,6.1-6.1,10-10.4,14.3l-8.5-4.4c5.1-4.3,9.8-9.3,13.3-17.3
				c-1.9-2.1-2.3-2.4-4.5-4.3c-0.3,0.9-0.5,1.7-1,2.8l-8.3-1.8c2.5-7.4,3.6-12.4,5.5-21.8l-5.1,0.1l-0.2-9l7-0.1
				c0.9-5.3,1.3-8.3,1.4-12.5l8.6,1c0.6,0.1,1.6,0.3,1.6,1c0,0.4-0.2,0.6-0.7,0.9c-0.7,0.5-0.8,0.7-0.8,1.1
				c-0.5,3.6-1.1,6.9-1.3,8.3l11.5-0.2c0.3,8.5,0.3,19.8-4.2,32.7c5,5.8,6.6,8.7,7.5,10.2L350.6,270.3z M341.3,230.6
				c-0.7,4.1-1.7,8.2-2.7,12.4c1.9,1.4,2.9,2.2,5.1,4.2c1-3.7,1.8-7.9,2.2-16.6L341.3,230.6L341.3,230.6z M389,244.5
				c-0.3-1-0.8-2.5-1.9-5.4c-5,0.6-13.9,1.7-22.4,2.4c-0.6,0-4.2,0.3-4.5,0.4s-1.6,1.4-2,1.4c-0.5,0-0.7-0.5-1-1.8l-1.6-8.5
				c1.1,0,1.7,0,7.4-0.3c1.8-6.4,3.6-13.5,5.4-24l9.3,1.7c0.9,0.1,2,0.4,2,1.2c0,0.6-0.6,1-1.2,1.1c-0.9,0.3-0.9,0.5-1.2,0.9
				c-2.2,6.8-3.3,10.2-6.2,18.6c4.9-0.2,5.5-0.3,12.2-0.8c-1.4-2.7-2.4-4.5-5.3-8.9l7.5-3.8c4,5.3,8.8,12.7,11.7,22L389,244.5z
				 M383.9,276.9v-2.7l-14.5,0.3v2.7l-9.1,0.2l-0.5-31l32.6-0.6l0.5,31L383.9,276.9z M383.5,254.1l-14.5,0.3l0.2,11.5l14.5-0.3
				L383.5,254.1z"/>
		</g>
		<g>
			<path class="st3" d="M417.5,277.8h-13.7c-0.3,0-0.6-0.1-0.8-0.4s-0.3-0.6-0.2-0.9l2.8-13.9c0.1-0.5,0.6-0.9,1.1-0.9h13.7
				c0.3,0,0.6,0.1,0.8,0.4s0.3,0.6,0.2,0.9l-2.8,13.9C418.4,277.4,418,277.8,417.5,277.8z M405.1,275.6h11.5l2.3-11.7h-11.5
				L405.1,275.6z M421.2,257.3h-13c-0.3,0-0.6-0.1-0.9-0.4c-0.2-0.3-0.3-0.6-0.2-0.9l9.2-46c0.1-0.5,0.6-0.9,1.1-0.9h13
				c0.3,0,0.6,0.1,0.9,0.4c0.2,0.3,0.3,0.6,0.2,0.9l-9.2,46C422.1,256.9,421.7,257.3,421.2,257.3z M409.5,255.1h10.8l8.7-43.8h-10.8
				L409.5,255.1z"/>
			<path class="st2" d="M406.5,262.8h13.7l-2.8,13.9h-13.7L406.5,262.8z M417.3,210.1h13l-9.2,46h-13L417.3,210.1z"/>
		</g>
	</g>
</g>
</svg>
