<?xml version="1.0" encoding="utf-8"?>
<!-- Generator: Adobe Illustrator 19.0.0, SVG Export Plug-In . SVG Version: 6.00 Build 0)  -->
<svg version="1.1" id="レイヤー_1" xmlns="http://www.w3.org/2000/svg" xmlns:xlink="http://www.w3.org/1999/xlink" x="0px"
	 y="0px" viewBox="-344 3 615 261.5" style="enable-background:new -344 3 615 261.5;" xml:space="preserve">
<style type="text/css">
	.st0{fill:#FFF33F;}
	.st1{fill:#231815;}
	.st2{fill:#FFFFFF;}
	.st3{fill:#221613;}
</style>
<g id="レイヤー_1のコピー">
	<g>
		<rect x="-343.6" y="35.4" class="st0" width="614.2" height="47.5"/>
		<path class="st1" d="M271,83.4h-615V35h615V83.4z M-343.1,82.5h613.3V35.9h-613.3V82.5z"/>
	</g>
	<g>
		<path class="st1" d="M-323.2,75.9c-0.7,0-1.3-0.6-1.3-1.2l-0.1-3c0-0.3,0.1-0.6,0.3-0.9c29.7-33.6,32.6-38.7,32.5-46
			c0-2.6-0.9-4.8-2.6-6.4c-1.6-1.6-4-2.4-6.6-2.3c-5.7,0.1-9.4,3.7-9.3,9.1v1.5c0,0.3-0.1,0.7-0.4,0.9c-0.2,0.2-0.6,0.4-0.9,0.4
			l-11.1,0.2c-0.7,0-1.3-0.5-1.3-1.2v-1.6c-0.1-13.2,9-22.2,22.8-22.4c6.5-0.1,12.4,2,16.6,5.8c4.2,3.9,6.6,9.4,6.7,15.6
			c0.2,9.2-3.1,16.5-21.3,37.9l22.8-0.4c0.3,0,0.7,0.1,0.9,0.4c0.2,0.2,0.4,0.6,0.4,0.9l0.2,10.6c0,0.7-0.5,1.3-1.2,1.3L-323.2,75.9
			L-323.2,75.9z M-322,72v1.2l44.4-0.8l-0.1-8l-24.3,0.4c-0.5,0.1-1-0.3-1.2-0.7c-0.2-0.5-0.1-1,0.2-1.4
			c19.3-22.4,22.7-29.5,22.6-38.2c-0.1-5.6-2.1-10.3-5.9-13.8c-3.8-3.5-8.9-5.2-14.8-5.1c-12.3,0.2-20.4,8.1-20.2,19.7v0.3l8.6-0.1
			v-0.3c-0.1-6.8,4.7-11.6,11.8-11.7c3.3-0.1,6.3,1,8.4,3c2.1,2,3.3,4.8,3.4,8.2C-289,32.8-292,38.1-322,72z"/>
		<path class="st1" d="M-240.5,76.7c-17.2,0-28.1-13.9-28.5-36.4c-0.2-11,2.3-20.3,7.1-26.9c5-6.6,12.1-10.2,20.7-10.4
			c17.4-0.3,28.5,13.6,28.9,36.3c0.2,11-2.3,20.3-7.1,26.9c-4.9,6.7-12,10.3-20.6,10.5C-240.1,76.7-240.3,76.7-240.5,76.7z
			 M-266.4,40.3c0.4,21.2,10.5,34.2,26.4,33.9c7.7-0.1,14.1-3.4,18.6-9.4c4.5-6.1,6.8-14.9,6.6-25.4c-0.3-21.2-10.5-34.1-26.3-33.8
			c-7.8,0.1-14.3,3.4-18.7,9.4C-264.3,21-266.6,29.8-266.4,40.3z M-240.4,66.2c-10.5,0-17-9.7-17.3-26c-0.1-8.1,1.2-14.6,4.1-19.2
			c2.9-4.7,7.3-7.3,12.6-7.4c10.7-0.2,17.2,9.5,17.5,26l0,0c0.1,8.1-1.2,14.6-4,19.2c-2.9,4.7-7.2,7.3-12.6,7.4
			C-240.2,66.2-240.3,66.2-240.4,66.2z M-240.7,16.1c-0.1,0-0.2,0-0.2,0c-4.5,0.1-8,2.2-10.5,6.2c-2.5,4.2-3.8,10.3-3.7,17.8
			c0.3,15.1,5.8,23.7,15,23.6c4.5-0.1,8-2.2,10.4-6.2c2.5-4.2,3.8-10.3,3.7-17.9l0,0C-226.3,24.8-231.8,16.1-240.7,16.1z"/>
		<path class="st1" d="M-190.9,75.5c-0.3,0-0.6-0.1-0.9-0.4c-0.2-0.2-0.4-0.6-0.4-0.9l-1-57.3l-10.9,0.2c-0.3,0-0.7-0.1-0.9-0.4
			c-0.2-0.2-0.4-0.6-0.4-0.9l-0.2-10c0-0.7,0.5-1.3,1.2-1.3l23.1-0.4c0.7-0.1,1.3,0.5,1.3,1.2l1.2,68.6c0,0.7-0.5,1.3-1.2,1.3
			L-190.9,75.5L-190.9,75.5z M-191.9,14.4c0.3,0,0.6,0.1,0.9,0.4c0.2,0.2,0.4,0.6,0.4,0.9l1,57.3l8.4-0.1l-1.1-66.2l-20.6,0.4
			l0.1,7.5L-191.9,14.4L-191.9,14.4z"/>
		<path class="st1" d="M-149.1,75.6c-0.4,0-0.9-0.2-1.1-0.6c-0.2-0.4-0.2-0.9,0-1.3l0.9-1.7c5.9-10.7,9-16.2,11.4-20.8
			c-1.8,0.5-3.6,0.7-5.5,0.8c-13.8,0.2-24.5-9.8-24.7-23.3c-0.2-14.6,10.6-25.4,25.9-25.7c7.5-0.1,14.3,2.3,19.1,6.7
			c4.9,4.5,7.6,10.9,7.7,18l0,0c0.1,7-2.2,14.5-7,23.1l-13.3,23.8c-0.2,0.4-0.6,0.6-1.1,0.6L-149.1,75.6L-149.1,75.6z M-136.8,74.1
			L-136.8,74.1L-136.8,74.1z M-135.2,47.7c0.3,0,0.7,0.1,0.9,0.4c0.4,0.4,0.4,1,0.2,1.4c-2.7,5.3-5.7,10.7-12.8,23.5l9.3-0.2
			l13-23.2c4.6-8.2,6.8-15.3,6.7-21.9l0,0c-0.1-6.4-2.6-12.2-6.9-16.2c-4.4-4-10.5-6.2-17.3-6.1c-14,0.2-23.6,9.7-23.3,23.1
			c0.2,12.1,9.7,21,22.2,20.8c2.7,0,5.2-0.6,7.7-1.6C-135.6,47.7-135.4,47.7-135.2,47.7z M-141.8,42.9c-8.7,0-15.1-6-15.3-14.5
			c-0.1-8.6,6.2-14.9,15.1-15c4.2-0.1,8.2,1.3,11,4c2.9,2.7,4.5,6.4,4.5,10.5l0,0c0.1,4.1-1.4,7.9-4.2,10.7
			c-2.7,2.7-6.6,4.3-10.9,4.3C-141.6,42.9-141.7,42.9-141.8,42.9z M-141.6,16c-0.1,0-0.2,0-0.3,0c-7.4,0.1-12.7,5.4-12.6,12.5
			c0.1,7.2,5.5,12.1,13,12c3.6-0.1,6.8-1.3,9.1-3.6c2.3-2.2,3.5-5.4,3.4-8.8l0,0c-0.1-3.4-1.4-6.5-3.7-8.7
			C-135,17.1-138.2,16-141.6,16z"/>
		<path class="st1" d="M-77.5,76.9c-0.7,0-1.3-0.6-1.3-1.2L-79,64.2l-26.4,0.5c-0.7,0-1.3-0.5-1.3-1.2l-0.1-6.9
			c0-0.3,0.1-0.7,0.4-0.9c0.2-0.2,0.6-0.4,0.9-0.4l8.1-0.1l-0.2-13.3c-0.6,0.7-1.1,1.3-1.6,1.8l-0.1,0.1c-0.4,0.4-1,0.5-1.5,0.3
			l-7.1-3.6c-0.4-0.2-0.6-0.5-0.7-0.9c-0.1-0.4,0.1-0.8,0.3-1.1c5.4-5.6,9.7-12.6,12-19.5c0.1-0.3,0.3-0.6,0.6-0.7
			c0.3-0.1,0.7-0.2,1-0.1l8.1,2.9c0.8,0.3,1.3,1,1.3,1.7c0,0.6-0.3,1.3-0.9,1.7c-0.1,0.1-0.2,0.1-0.3,0.2c0,0-0.1,0-0.2,0.1
			c-0.1,0-0.5,0.1-0.7,0.2c0,0.1-0.1,0.1-0.1,0.2l33.9-0.6c0.3,0,0.7,0.1,0.9,0.4s0.4,0.6,0.4,0.9l0.1,6.6c0,0.7-0.5,1.3-1.2,1.3
			l-15.5,0.3l0.1,5.3l10.1-0.2c0.3,0,0.7,0.1,0.9,0.4c0.2,0.2,0.4,0.6,0.4,0.9l0.1,6.7c0,0.3-0.1,0.7-0.4,0.9
			c-0.2,0.2-0.6,0.4-0.9,0.4l-10.1,0.2l0.1,6.2l18.6-0.3l0,0c0.7,0,1.3,0.6,1.3,1.2l0.1,6.9c0,0.3-0.1,0.7-0.4,0.9
			c-0.2,0.2-0.6,0.4-0.9,0.4l-18.4,0.3l0.2,11.6c0,0.3-0.1,0.7-0.4,0.9c-0.2,0.2-0.6,0.4-0.9,0.4L-77.5,76.9
			C-77.4,76.9-77.5,76.9-77.5,76.9z M-77.7,61.5c0.7,0,1.3,0.6,1.3,1.2l0.2,11.5l5.7-0.1l-0.2-11.6c0-0.3,0.1-0.7,0.4-0.9
			c0.2-0.2,0.6-0.4,0.9-0.4l18.4-0.3l-0.1-4.4L-69.8,57c-0.3,0-0.7-0.1-0.9-0.4c-0.2-0.2-0.4-0.6-0.4-0.9l-0.2-8.7
			c0-0.3,0.1-0.7,0.4-0.9c0.2-0.2,0.6-0.4,0.9-0.4l10.1-0.2l-0.1-4.2l-10.1,0.2c-0.3,0-0.7-0.1-0.9-0.4c-0.2-0.2-0.4-0.6-0.4-0.9
			l-0.1-7.8c0-0.3,0.1-0.7,0.4-0.9c0.2-0.2,0.6-0.4,0.9-0.4l15.5-0.3l-0.1-4l-34.8,0.6c-0.5,0-0.9-0.2-1.1-0.6
			c-0.2-0.4-0.3-0.8-0.1-1.2c0.9-1.9,1.4-2.7,1.8-3l-5.3-1.9c-2.3,6.4-6.2,12.7-11,18l4.7,2.4c1.4-1.6,3.3-3.9,6.3-9
			c0.2-0.4,0.6-0.6,1.1-0.6l15-0.3c0.3,0,0.7,0.1,0.9,0.4s0.4,0.6,0.4,0.9l0.1,7.8c0,0.7-0.5,1.3-1.2,1.3L-95.1,42l0.2,14.2
			c0,0.3-0.1,0.7-0.4,0.9c-0.2,0.2-0.6,0.4-0.9,0.4l-8.1,0.1l0.1,4.4L-77.7,61.5L-77.7,61.5z M-92.5,34.1c-1.4,2.3-2.5,4-3.5,5.3
			l16.6-0.3l-0.1-5.3L-92.5,34.1z M-87.2,24.4L-87.2,24.4L-87.2,24.4z M-87.2,24.4L-87.2,24.4L-87.2,24.4z M-88.3,57.4
			c-0.7,0-1.3-0.6-1.3-1.2l-0.2-8.8c0-0.3,0.1-0.7,0.4-0.9c0.2-0.2,0.6-0.4,0.9-0.4l10.5-0.2l0,0c0.7,0,1.3,0.6,1.3,1.2l0.2,8.8
			c0,0.3-0.1,0.7-0.4,0.9c-0.2,0.2-0.6,0.4-0.9,0.4L-88.3,57.4L-88.3,57.4z M-87.1,48.6l0.1,6.2l7.9-0.1l-0.1-6.2L-87.1,48.6z"/>
		<path class="st1" d="M51,76.7c-0.5,0-1-0.3-1.2-0.8l-3.3-8.5c-0.2-0.4-0.1-0.9,0.2-1.3c0.3-0.4,0.7-0.5,1.2-0.5
			c1,0.2,2.4,0.3,4.9,0.3c0.8,0,1.1-0.1,1.1-0.2c0,0,0-0.1,0-0.5l-0.2-9.5L36.4,56c-2.1,9.3-5.3,14.4-12.4,20
			c-0.5,0.4-1.1,0.4-1.6,0l-6.5-5.2c-0.3-0.2-0.5-0.6-0.5-1s0.2-0.7,0.5-1l0.1-0.1c4.5-3.8,11.4-9.5,11.1-23.3l-0.4-24.1
			c0-0.3,0.1-0.7,0.4-0.9c0.2-0.2,0.6-0.4,0.9-0.4l34-0.6l0,0c0.7,0,1.3,0.6,1.3,1.2l0.8,48C64.2,76.5,56.5,76.6,51,76.7L51,76.7z
			 M49.6,68.5l2.2,5.7c6.7-0.2,9.7-1.1,9.7-5.5L60.7,22l-31.4,0.5l0.4,23c0.2,13.9-6.3,20.4-10.9,24.3l4.5,3.6
			c6.3-5.2,9-9.9,10.9-18.9c0.1-0.6,0.6-1,1.2-1L55,53.2c0.3,0,0.7,0.1,0.9,0.4s0.4,0.6,0.4,0.9l0.2,10.7c0,0.7-0.1,1.8-0.9,2.5
			c-0.8,0.7-1.9,0.8-2.7,0.8C51.5,68.6,50.4,68.6,49.6,68.5z M36.1,49.3c-0.3,0-0.7-0.1-0.9-0.4s-0.4-0.6-0.3-1
			c0.1-1.4,0.2-3.1,0.1-6.7c0-0.7,0.5-1.3,1.2-1.3l18.5-0.3c0.3,0,0.7,0.1,0.9,0.4s0.4,0.6,0.4,0.9l0.1,6.8c0,0.7-0.5,1.3-1.2,1.3
			L36.1,49.3L36.1,49.3z M37.5,42.5c0,1.9,0,3.2-0.1,4.2l16.1-0.3l-0.1-4.2L37.5,42.5z M36.1,36.1c-0.3,0-0.6-0.1-0.9-0.4
			c-0.2-0.2-0.4-0.6-0.4-0.9L34.7,28c0-0.7,0.5-1.3,1.2-1.3l18.5-0.3c0.3,0,0.7,0.1,0.9,0.4c0.2,0.2,0.4,0.6,0.4,0.9l0.1,6.8
			c0,0.7-0.5,1.3-1.2,1.3L36.1,36.1L36.1,36.1z M37.3,29.3l0.1,4.2l15.9-0.3L53.2,29L37.3,29.3z"/>
	</g>
	<g>
		<path class="st2" d="M-276.4,63.2l0.1,10.6l-46.9,0.8l-0.1-3c29.4-33.3,33-39,32.8-46.9c-0.1-6-4.3-10-10.5-9.9
			c-6.5,0.1-10.6,4.4-10.5,10.4v1.5l-11.1,0.2v-1.6c-0.2-12.3,8.4-20.8,21.4-21c12.8-0.2,21.8,8.1,22,20.2c0.2,9-3.3,16.4-22.8,39.2
			L-276.4,63.2z"/>
		<path class="st2" d="M-267.6,40.3c-0.4-21.9,9.7-35.7,26.5-36c16.7-0.3,27.3,13.1,27.7,35c0.4,21.9-9.8,35.8-26.4,36.1
			C-256.6,75.7-267.3,62.2-267.6,40.3z M-224.7,39.6c-0.3-15.8-6.4-24.9-16.2-24.8c-10,0.2-15.7,9.5-15.4,25.3
			c0.3,15.9,6.3,25,16.3,24.8C-230.2,64.7-224.5,55.4-224.7,39.6z"/>
		<path class="st2" d="M-181.1,5.4l1.2,68.6l-11,0.2l-1-58.6l-12.1,0.2l-0.2-10L-181.1,5.4z"/>
		<path class="st2" d="M-116.7,27.8c0.1,6.4-1.9,13.7-6.8,22.5l-13.3,23.8l-12.2,0.2c7.9-14.3,11-19.8,13.9-25.4
			c-2.6,1.1-5.3,1.7-8.1,1.7c-13.1,0.2-23.2-9.2-23.4-22c-0.2-14,10-24.1,24.6-24.4C-127.5,4-116.9,13.8-116.7,27.8z M-127.7,28
			c-0.1-7.8-6.1-13.4-14.3-13.3s-14,5.9-13.9,13.8c0.1,7.9,6.2,13.4,14.3,13.2C-133.3,41.5-127.5,35.8-127.7,28z"/>
		<path class="st2" d="M-69.5,62.7l0.2,12.8l-8.2,0.1l-0.2-12.8l-27.7,0.5l-0.1-6.9l9.4-0.2l-0.3-15.5l18.3-0.3l-0.1-7.8l-15,0.3
			c-3.6,6-5.6,8.2-7.1,9.9l-7.1-3.6c5.9-6.2,10-13.4,12.3-20l8.1,2.9c0.3,0.1,0.5,0.4,0.5,0.6s-0.1,0.5-0.3,0.6s-1.2,0.3-1.4,0.5
			c-0.1,0-1.3,2.2-1.4,2.5l36-0.6l0.1,6.6l-16.8,0.2l0.1,7.8l11.3-0.2l0.1,6.7L-70,47l0.2,8.8l19.9-0.3l0.1,6.9L-69.5,62.7z
			 M-78,47.1l-10.5,0.2l0.2,8.8l10.5-0.2L-78,47.1z"/>
		<path class="st2" d="M51,75.5L47.7,67c1.1,0.2,2.6,0.3,5.1,0.3c1.9,0,2.4-0.6,2.4-2L55,54.6l-19.6,0.3c-2,9.3-4.8,14.4-12.1,20.3
			L16.8,70c4.6-3.8,11.9-9.8,11.7-24.4l-0.4-24.3l34-0.6l0.8,48C62.9,74.8,57.6,75.3,51,75.5z M54.5,27.7L36,28l0.1,6.8l18.5-0.3
			L54.5,27.7z M54.7,41l-18.5,0.3c0.1,3.6,0,5.3-0.1,6.8l18.7-0.3L54.7,41z"/>
	</g>
	<g>
		<g>
			<g>
				<path class="st2" d="M200,76.4c-4.6-4.3-7.2-11.6-7.2-17.9s2.5-13.6,7.2-17.9h6.9c-6.7,6.3-8.4,12.4-8.4,17.9s1.7,11.6,8.4,17.9
					H200z"/>
				<path class="st1" d="M206.9,76.9H200c-0.1,0-0.2,0-0.3-0.1c-4.4-4.2-7.3-11.3-7.3-18.2s2.9-14.1,7.3-18.2
					c0.1-0.1,0.2-0.1,0.3-0.1h6.9c0.2,0,0.4,0.1,0.4,0.3c0.1,0.2,0,0.4-0.1,0.5c-5.5,5.2-8.2,11-8.2,17.6s2.7,12.4,8.2,17.6
					c0.1,0.1,0.2,0.3,0.1,0.5C207.3,76.7,207.1,76.9,206.9,76.9z M200.2,76h5.6c-5.2-5.2-7.7-10.9-7.7-17.5s2.5-12.3,7.7-17.5h-5.6
					c-4.2,4-6.9,10.9-6.9,17.5S196,71.9,200.2,76z"/>
			</g>
			<g>
				<path class="st2" d="M209.1,68.7h13.7V58.5h-11.4v-4.9h11.4v-8.4c0,0,0-1.6-0.1-2.7c0,0,4.3,0.1,5.9,0.3c0.7,0.1,1,0.2,1,0.5
					c0,0.3-0.4,0.5-1.3,0.7c-0.1,0.6-0.1,1.1-0.1,1.4c0,0.2,0,0.3,0,0.3v7.9H240v4.9h-11.7v10.2H242v4.9h-32.8v-4.9H209.1
					L209.1,68.7z"/>
				<path class="st1" d="M241.9,74.1h-32.8c-0.2,0-0.5-0.2-0.5-0.5v-4.9c0-0.2,0.2-0.5,0.5-0.5h13.2V59h-11c-0.2,0-0.5-0.2-0.5-0.5
					v-4.9c0-0.2,0.2-0.5,0.5-0.5h11v-7.9l0,0c0,0,0-1.6-0.1-2.7c0-0.1,0-0.2,0.1-0.3c0.1-0.1,0.2-0.1,0.3-0.1c0.2,0,4.4,0.1,6,0.3
					c1,0.1,1.4,0.4,1.4,0.9c0,0.3-0.2,0.8-1.3,1.1c0,0.4,0,0.8,0,1v7.8H240c0.2,0,0.5,0.2,0.5,0.5v4.9c0,0.2-0.2,0.5-0.5,0.5h-11.3
					v9.3h13.2c0.2,0,0.5,0.2,0.5,0.5v4.9C242.4,73.9,242.2,74.1,241.9,74.1z M209.5,73.2h31.9v-4h-13.2c-0.2,0-0.5-0.2-0.5-0.5V58.5
					c0-0.2,0.2-0.5,0.5-0.5h11.3v-4h-11.3c-0.2,0-0.5-0.2-0.5-0.5v-8.2c0-0.3,0-0.9,0.1-1.5c0-0.2,0.2-0.3,0.4-0.4
					c0.3-0.1,0.6-0.2,0.7-0.2c-0.1,0-0.2-0.1-0.4-0.1c-1.2-0.1-4.2-0.2-5.4-0.2c0.1,1.1,0.1,2.3,0.1,2.3v8.4c0,0.2-0.2,0.5-0.5,0.5
					h-11v4h11c0.2,0,0.5,0.2,0.5,0.5v10.2c0,0.2-0.2,0.5-0.5,0.5h-13.2V73.2L209.5,73.2z"/>
			</g>
			<g>
				<path class="st2" d="M244.2,76.4c6.7-6.3,8.4-12.4,8.4-17.9s-1.7-11.6-8.4-17.9h6.9c4.6,4.3,7.2,11.6,7.2,17.9
					s-2.5,13.6-7.2,17.9H244.2z"/>
				<path class="st1" d="M251.1,76.9h-6.9c-0.2,0-0.4-0.1-0.4-0.3c-0.1-0.2,0-0.4,0.1-0.5c5.5-5.2,8.2-11,8.2-17.6
					s-2.7-12.4-8.2-17.6c-0.1-0.1-0.2-0.3-0.1-0.5s0.2-0.3,0.4-0.3h6.9c0.1,0,0.2,0,0.3,0.1c4.4,4.2,7.3,11.3,7.3,18.2
					s-2.9,14.1-7.3,18.2C251.3,76.8,251.2,76.9,251.1,76.9z M245.3,76h5.6c4.2-4,6.9-10.9,6.9-17.5S255.1,45,250.9,41h-5.6
					c5.2,5.2,7.7,10.9,7.7,17.5C253,65,250.5,70.8,245.3,76z"/>
			</g>
		</g>
	</g>
	<g>
		<g>
			<g>
				<path class="st2" d="M136,21.7h43.5v54.5h-9.4v-4.4h-25v4.7H136V21.7z M170.2,41.6V30.5h-25.1v11.1H170.2z M170.2,63.1l0.1-12.7
					h-25.1v12.7C145.2,63.1,170.2,63.1,170.2,63.1z"/>
				<path class="st1" d="M145.2,77H136c-0.2,0-0.5-0.2-0.5-0.5V21.7c0-0.2,0.2-0.5,0.5-0.5h43.5c0.2,0,0.5,0.2,0.5,0.5v54.5
					c0,0.2-0.2,0.5-0.5,0.5h-9.4c-0.2,0-0.5-0.2-0.5-0.5v-3.9h-24.1v4.2C145.6,76.8,145.4,77,145.2,77z M136.4,76.1h8.3v-4.2
					c0-0.2,0.2-0.5,0.5-0.5h25c0.2,0,0.5,0.2,0.5,0.5v3.9h8.5V22.2h-42.6v53.9L136.4,76.1L136.4,76.1z M170.2,63.6h-25
					c-0.2,0-0.5-0.2-0.5-0.5V50.5c0-0.2,0.2-0.5,0.5-0.5h25.1c0.1,0,0.2,0,0.3,0.1c0.1,0.1,0.1,0.2,0.1,0.3l-0.1,12.7
					C170.6,63.4,170.4,63.6,170.2,63.6z M145.6,62.7h24.1l0.1-11.8h-24.2V62.7L145.6,62.7z M170.2,42h-25.1c-0.2,0-0.5-0.2-0.5-0.5
					v-11c0-0.2,0.2-0.5,0.5-0.5h25.1c0.2,0,0.5,0.2,0.5,0.5v11.1C170.7,41.8,170.5,42,170.2,42z M145.6,41.1h24.2V30.9h-24.2V41.1
					L145.6,41.1z"/>
			</g>
		</g>
	</g>
	<g>
		<g>
			<g>
				<path class="st2" d="M96.4,33.5c2.7-2.3,5.9-3.9,9.8-3.9c12.3,0,16.1,13.2,16.1,22.1c0,12.4-5.6,26.1-21.7,26.1s-22-12.4-22-25
					c0-17.1,9.7-32.3,17.8-47.2h14.9L96.4,33.5z M100.9,42c-5.7,0-6.9,8.3-6.9,12.1c0,3.3,1.3,11.4,6.3,11.4c6,0,6.8-8.5,6.8-12.5
					C107,49.7,106.1,42,100.9,42z"/>
				<path class="st1" d="M100.6,78.2c-14.1,0-22.5-9.5-22.5-25.5c0-15.1,7.5-28.8,14.8-42c1-1.8,2-3.6,3-5.4
					c0.1-0.1,0.2-0.2,0.4-0.2h14.9c0.2,0,0.3,0.1,0.4,0.2s0.1,0.3,0,0.4L97.7,31.9c2.7-1.8,5.4-2.7,8.4-2.7
					c13.1,0,16.6,14.1,16.6,22.5c0,7-1.7,13.3-4.9,17.9C114,75.2,108.1,78.2,100.6,78.2z M96.6,5.9c-0.9,1.7-1.9,3.5-2.9,5.2
					C86.5,24.2,79,37.8,79,52.6c0,22.8,16.5,24.6,21.6,24.6c15.7,0,21.2-13.3,21.2-25.7c0-8-3.3-21.6-15.7-21.6
					c-3.4,0-6.5,1.3-9.5,3.8c-0.2,0.1-0.4,0.1-0.6,0c-0.2-0.1-0.2-0.4-0.1-0.6l14.6-27.4H96.6V5.9z M100.3,66
					c-5.5,0-6.7-8.8-6.7-11.9c0-4.7,1.5-12.6,7.3-12.6c6.4,0,6.6,10.4,6.6,11.5C107.5,57,106.8,66,100.3,66z M100.9,42.5
					c-6.3,0-6.4,11.2-6.4,11.7c0,3.6,1.4,11,5.8,11c5.7,0,6.3-8.4,6.3-12C106.6,52,106.4,42.5,100.9,42.5z"/>
			</g>
		</g>
	</g>
	<g>
		<path class="st1" d="M-6.9,75.3c-0.7,0-1.3-0.6-1.3-1.2l-0.2-12.7L-41.3,62l0,0c-0.7,0-1.3-0.6-1.3-1.2v-2.3c0-0.2,0-0.4,0.1-0.5
			L-20,5.2c0.2-0.5,0.6-0.8,1.1-0.8l11.3-0.2l0,0c0.4,0,0.8,0.2,1.1,0.6C-6.3,5.2-6.2,5.6-6.4,6l-18.5,43.4L-8.3,49l1.4-18
			c0.1-0.7,0.6-1.2,1.2-1.2L3,29.6c0.3,0,0.7,0.1,0.9,0.4c0.2,0.2,0.4,0.6,0.4,0.9l0.3,17.9l5.4-0.1l0,0c0.7,0,1.3,0.6,1.3,1.2
			l0.2,9.8c0,0.7-0.5,1.3-1.2,1.3l-5.4,0.1l0.2,12.7c0,0.3-0.1,0.7-0.4,0.9c-0.2,0.2-0.6,0.4-0.9,0.4L-6.9,75.3L-6.9,75.3z
			 M-7.2,58.8c0.7,0,1.3,0.6,1.3,1.2l0.2,12.7l8.2-0.1L2.3,59.9c0-0.7,0.5-1.3,1.2-1.3l5.4-0.1l-0.1-7.3l-5.4,0.1l0,0
			c-0.7,0-1.3-0.6-1.3-1.2L1.8,32.2l-6.2,0.1l-1.4,18C-5.9,51-6.4,51.5-7,51.5l-19.6,0.3l0,0c-0.4,0-0.8-0.2-1.1-0.6
			c-0.2-0.4-0.3-0.8-0.1-1.2L-9.3,6.6l-8.6,0.1L-40,58.5v0.7L-7.2,58.8L-7.2,58.8z"/>
		<path class="st1" d="M-6.9,75.3c-0.7,0-1.3-0.6-1.3-1.2l-0.2-12.7L-41.3,62l0,0c-0.7,0-1.3-0.6-1.3-1.2v-2.3c0-0.2,0-0.4,0.1-0.5
			L-20,5.2c0.2-0.5,0.6-0.8,1.1-0.8l11.3-0.2l0,0c0.4,0,0.8,0.2,1.1,0.6C-6.3,5.2-6.2,5.6-6.4,6l-18.5,43.4L-8.3,49l1.4-18
			c0.1-0.7,0.6-1.2,1.2-1.2L3,29.6c0.3,0,0.7,0.1,0.9,0.4c0.2,0.2,0.4,0.6,0.4,0.9l0.3,17.9l5.4-0.1l0,0c0.7,0,1.3,0.6,1.3,1.2
			l0.2,9.8c0,0.7-0.5,1.3-1.2,1.3l-5.4,0.1l0.2,12.7c0,0.3-0.1,0.7-0.4,0.9c-0.2,0.2-0.6,0.4-0.9,0.4L-6.9,75.3L-6.9,75.3z
			 M-7.2,58.8c0.7,0,1.3,0.6,1.3,1.2l0.2,12.7l8.2-0.1L2.3,59.9c0-0.7,0.5-1.3,1.2-1.3l5.4-0.1l-0.1-7.3l-5.4,0.1l0,0
			c-0.7,0-1.3-0.6-1.3-1.2L1.8,32.2l-6.2,0.1l-1.4,18C-5.9,51-6.4,51.5-7,51.5l-19.6,0.3l0,0c-0.4,0-0.8-0.2-1.1-0.6
			c-0.2-0.4-0.3-0.8-0.1-1.2L-9.3,6.6l-8.6,0.1L-40,58.5v0.7L-7.2,58.8L-7.2,58.8z"/>
		<path class="st2" d="M10.2,59.8l-6.6,0.1l0.2,13.9L-6.9,74l-0.2-13.9l-34.2,0.6v-2.3l22.5-52.8l11.3-0.2l-19.3,45.2l19.6-0.3
			l1.5-19.2L3,30.9L3.3,50l6.6-0.1L10.2,59.8z"/>
	</g>
	<g>
		<g>
			<rect x="-343.6" y="125.6" class="st0" width="389.6" height="47.5"/>
			<path class="st1" d="M46.4,173.6H-344v-48.4H46.4V173.6z M-343.1,172.7H45.6v-46.6h-388.7V172.7z"/>
		</g>
		<g>
			<g>
				<g>
					<path class="st2" d="M-173.2,114.9c0-4.3,0.2-8.2,2.1-12c3-6,9.5-8.3,16.5-8.3c12.7,0,19.9,7.2,19.9,18.4
						c0,7.2-1.9,13.7-9.8,16.9c9,2.6,12.2,9,12.2,17.1c0,12.9-8.9,20.9-23.2,20.9c-13.9,0-21-7.7-21-19.8h14.7c0,0.6-0.1,1.4-0.1,2
						c0,3.4,1.8,6.7,6,6.7c6.2,0,6.6-7,6.6-11.1c0-8.3-2.7-10.2-11.8-10.2v-11.9c8.2,0,12.1-1.3,12.1-9.4c0-3.2-0.8-8-5.5-8
						c-5.1,0-5.2,6.2-5.2,9.5h-13.5V114.9z"/>
					<path class="st1" d="M-155.5,168.4c-13.6,0-21.4-7.4-21.4-20.3c0-0.2,0.2-0.5,0.5-0.5h14.7c0.2,0,0.5,0.2,0.5,0.5
						s0,0.7-0.1,1.1c0,0.3-0.1,0.7-0.1,1c0,3,1.5,6.3,5.6,6.3c5.5,0,6.2-6.1,6.2-10.6c0-7.9-2.2-9.8-11.4-9.8
						c-0.2,0-0.5-0.2-0.5-0.5v-11.9c0-0.2,0.2-0.5,0.5-0.5c8.2,0,11.6-1.2,11.6-8.9c0-2.8-0.6-7.5-5-7.5c-4.2,0-4.8,4.6-4.8,9
						c0,0.2-0.2,0.5-0.5,0.5h-13.5c-0.2,0-0.5-0.2-0.5-0.5v-0.7c0-4,0.2-8.2,2.2-12.2c2.7-5.5,8.7-8.6,16.9-8.6
						c12.6,0,20.4,7.2,20.4,18.9c0,5.5-1,13-9,16.9c7.5,2.6,11.4,8.3,11.4,17.1C-131.9,160.2-140.9,168.4-155.5,168.4z M-176,148.5
						c0.2,12,7.6,18.9,20.5,18.9c14,0,22.8-7.8,22.8-20.4c0-8.9-3.9-14.3-11.9-16.6c-0.2-0.1-0.3-0.2-0.3-0.4c0-0.2,0.1-0.4,0.3-0.4
						c6.6-2.7,9.6-7.8,9.6-16.5c0-11.3-7.3-18-19.5-18c-4.5,0-12.6,1-16.1,8.1c-1.9,3.9-2.1,8-2.1,11.8v0.3h12.6
						c0-3.2,0.3-9.5,5.7-9.5c3.8,0,5.9,3.1,5.9,8.4c0,8.2-3.9,9.8-12.1,9.8v11c9.3,0.1,11.8,2.4,11.8,10.7c0,2.9,0,11.5-7.1,11.5
						c-4.8,0-6.5-3.9-6.5-7.2c0-0.3,0-0.7,0.1-1.1c0-0.2,0-0.4,0-0.5L-176,148.5L-176,148.5z"/>
				</g>
				<g>
					<path class="st2" d="M-103.3,167.9c-19.2,0-21.9-24.4-21.9-37.2c0-12.9,3.4-36.1,22.5-36.1c18.6,0,21.8,23.9,21.8,36.3
						C-80.9,143.9-83.8,167.9-103.3,167.9z M-96.1,128.4c0-4.4,0-21.2-7.1-21.2c-6.9,0-7,16.4-7,20.7v7.5c0,4.2,0.4,19.6,7,19.6
						c7,0,7.1-15.9,7.1-20.1V128.4z"/>
					<path class="st1" d="M-103.3,168.4c-20.2,0-22.4-26.3-22.4-37.6c0-8.6,1.7-36.6,23-36.6c8.3,0,14.5,4.6,18.3,13.8
						c3.4,8.3,4,18,4,23C-80.4,142.2-82.7,168.4-103.3,168.4z M-102.7,95c-20.5,0-22.1,27.3-22.1,35.7c0,11,2.1,36.7,21.5,36.7
						c19.8,0,21.9-25.5,21.9-36.5c0-5-0.5-14.5-3.9-22.7C-88.9,99.5-94.7,95-102.7,95z M-103.2,155.4c-6.7,0-7.4-14-7.4-20.1v-7.5
						c0-13.8,2.6-21.1,7.4-21.1c5,0,7.6,7.3,7.6,21.7v6.4C-95.6,148.2-98.2,155.4-103.2,155.4z M-103.2,107.6
						c-4.2,0-6.5,7.2-6.5,20.2v7.5c0,4.5,0.5,19.2,6.5,19.2c4.3,0,6.7-7,6.7-19.7v-6.4C-96.5,111.2-100.1,107.6-103.2,107.6z"/>
				</g>
			</g>
		</g>
		<g>
			<g>
				<g>
					<path class="st2" d="M-200.6,111.4h9.8V122h-9.8C-200.6,122-200.6,111.4-200.6,111.4z M-200.6,140.8h9.8v10.6h-9.8
						C-200.6,151.4-200.6,140.8-200.6,140.8z"/>
					<path class="st1" d="M-190.9,151.8h-9.8c-0.2,0-0.5-0.2-0.5-0.5v-10.6c0-0.2,0.2-0.5,0.5-0.5h9.8c0.2,0,0.5,0.2,0.5,0.5v10.6
						C-190.4,151.6-190.6,151.8-190.9,151.8z M-200.2,150.9h8.9v-9.7h-8.9V150.9z M-190.9,122.5h-9.8c-0.2,0-0.5-0.2-0.5-0.5v-10.6
						c0-0.2,0.2-0.5,0.5-0.5h9.8c0.2,0,0.5,0.2,0.5,0.5V122C-190.4,122.3-190.6,122.5-190.9,122.5z M-200.2,121.6h8.9v-9.7h-8.9
						V121.6z"/>
				</g>
			</g>
		</g>
		<g>
			<path class="st1" d="M-48.1,164.8c-5.3,0-9.4-1-12.2-3c-2.5-1.7-3.9-4.3-3.9-7.2c-0.1-6.7,6.6-11.5,16.2-11.7
				c1.4,0,2.5,0,3.4,0.1c-0.6-12.1-0.6-15-0.8-23l-0.1-8.3c0-0.4,0.1-0.7,0.4-1c0.3-0.2,0.6-0.4,1-0.3l7.8,1h0.1
				c0.6,0.1,2.5,0.4,2.6,2c0,1-0.6,1.4-1.4,1.9c-0.1,0.1-0.2,0.1-0.2,0.2c-0.1,0.8-0.2,4.1-0.2,6.5c0.4,0,0.8,0,1.5,0
				c7.3-0.1,10.6-1.5,12.6-2.3c0.4-0.2,0.9-0.1,1.2,0.1s0.6,0.6,0.6,1l0.1,7.5c0,0.6-0.4,1.1-0.9,1.2c-5.5,1.5-10,1.8-12.1,1.8
				c-1,0-2.1,0-3.1,0c0,4.5,0.1,6.7,0.7,13.6c7.2,2.2,11.6,4.2,17.7,8.2c0.6,0.4,0.7,1.1,0.4,1.7l-4,6.6c-0.2,0.3-0.5,0.5-0.8,0.6
				c-0.4,0.1-0.7,0-1-0.2c-4-3-6.9-4.8-11.5-6.8c0,2.1-0.5,4.4-2.1,6.2c-2.1,2.3-5.6,3.4-11.3,3.5
				C-47.6,164.8-47.8,164.8-48.1,164.8z M-47.3,145.5c-0.2,0-0.4,0-0.6,0c-8.2,0.1-13.8,3.9-13.7,9.1c0,1.5,0.5,3.5,2.8,5.2
				c2.5,1.7,6.3,2.6,11.4,2.5c4.8-0.1,7.9-0.9,9.5-2.6c1.2-1.3,1.6-3.3,1.4-6.4c0-0.4,0.2-0.9,0.5-1.1c0.4-0.3,0.8-0.3,1.2-0.2
				c5.4,2.1,8.7,4.1,12.8,7l2.6-4.4c-5.6-3.6-9.9-5.5-16.9-7.5c-0.5-0.1-0.9-0.6-0.9-1.1c-0.7-8.2-0.7-10.4-0.7-16
				c0-0.4,0.1-0.7,0.4-0.9c0.3-0.2,0.6-0.4,1-0.3c1.3,0.1,3.1,0.1,4.2,0.1c1.9,0,5.7-0.3,10.6-1.5l-0.1-4.7
				c-2.3,0.8-5.9,1.8-11.9,1.9c-1.5,0-1.9,0-2.9-0.1c-0.6-0.1-1.1-0.6-1.1-1.2c0-2.2,0.1-7.1,0.2-8.1c0.1-0.6,0.3-1,0.6-1.3
				l-5.9-0.7l0.1,6.9c0.1,8.3,0.2,11.2,0.8,24.4c0,0.4-0.1,0.7-0.4,1s-0.6,0.4-1,0.3C-44.2,145.6-45.6,145.5-47.3,145.5z
				 M-48.3,158.5c-3.7,0-7.9-1.2-8-4.4c0-1.4,0.8-2.7,2.2-3.5c1.3-0.8,3.2-1.2,5.3-1.2c2.4,0,4.5,0.3,5.7,0.5h0.2
				c0.6,0.1,1.1,0.6,1.1,1.2v0.1c0,1.5,0.1,3.3-0.7,4.7c-0.9,1.8-2.8,2.6-5.6,2.7C-48.1,158.5-48.2,158.5-48.3,158.5z M-48.7,151.8
				c-1.7,0-3.2,0.3-4.1,0.9c-0.5,0.3-1,0.7-1,1.3c0,1.3,3.3,2,5.7,2s3.1-0.8,3.4-1.4c0.3-0.6,0.4-1.5,0.4-2.5
				C-45.4,152-47,151.8-48.7,151.8L-48.7,151.8z M-48.7,150.6L-48.7,150.6L-48.7,150.6z"/>
			<path class="st1" d="M17.6,166c-0.2,0-0.4,0-0.6-0.1l-7.8-4c-0.4-0.2-0.6-0.6-0.7-1c0-0.4,0.1-0.9,0.5-1.1
				c2.1-1.6,5.7-4.4,8.7-10.7c2.4-5.1,3.6-11,3.5-16.9c0-0.1-0.3-10.3-2-20c-0.1-0.4,0-0.7,0.3-1c0.2-0.3,0.6-0.5,1-0.5l7.9-0.1
				c2,0,2.7,1.1,2.7,2.1c0,0.9-0.6,1.4-1,1.8l-0.1,0.1c0.1,0.6,0.2,2,0.3,2.7l0.1,0.8c0.5,4.8,1,9.5,1,13.8c0.1,7.1-1.1,13.8-3.7,20
				c-3,7.2-6.8,11.4-9.1,13.8C18.3,165.9,17.9,166,17.6,166z M12.1,160.6l5.2,2.6c2.3-2.5,5.4-6.2,8-12.4l0,0
				c2.5-5.9,3.6-12.2,3.5-18.9c-0.1-4.2-0.5-8.8-1-13.5l-0.1-0.8c-0.2-1.5-0.4-2.8-0.4-3.3s0.2-0.8,0.4-1.1H22
				c1.3,8.5,1.7,17.5,1.8,18.9c0.1,6.3-1.2,12.6-3.8,18.1C17.4,155.6,14.3,158.7,12.1,160.6z M-3.3,151.2c-0.5,0-1-0.3-1.2-0.8
				c-2.1-5.4-3.2-11.5-3.3-18.1c-0.1-7.8,0.9-15.2,1.4-19.1l0.1-0.4c0.1-0.6,0.7-1.1,1.3-1.1l7.1,0.3c0.1,0,0.7,0,1.2,0.2
				c0.8,0.3,1.4,1,1.4,1.8c0,1-0.8,1.5-1.1,1.8c-0.1,0-0.1,0.1-0.1,0.1l0,0c-0.8,1.3-1.6,10-1.7,15c0.5-1.3,1.1-2.7,1.7-4.2
				c0.1-0.3,0.4-0.6,0.8-0.7s0.7-0.1,1.1,0.1L10,129c0.5,0.3,0.7,1,0.5,1.6c-2.2,5.3-5,12.2-6.9,19.5C3.5,150.6,3,151,2.4,151
				L-3.3,151.2L-3.3,151.2z M2.2,149.9L2.2,149.9L2.2,149.9z M-4,114.3c-0.6,4-1.4,10.8-1.3,18c0.1,6,1.1,11.5,2.8,16.4l3.7-0.1
				c1.8-6.7,4.3-13,6.3-18l-2.4-1.5c-1.3,3.2-2.4,6.2-3,7.9c-0.2,0.5-0.7,0.9-1.3,0.8c-0.6,0-1-0.4-1.2-1c-0.4-1.5-0.5-2.3-0.6-4.3
				c0-1.9,0.1-6,0.5-9.9c0.5-5.6,1.2-7.4,1.6-8.1L-4,114.3z"/>
			<path class="st2" d="M-21.7,160.9c-4.5-3.3-7.8-5.4-13.6-7.7c0.5,6.4-1.5,10.2-12.1,10.4c-11.8,0.2-15.5-4.5-15.6-8.9
				c-0.1-5.7,5.5-10.2,15-10.4c2.1,0,3.7,0.1,4.8,0.2c-0.7-15.1-0.7-16.8-0.9-28.2l-0.1-4.6l7.8,1c0.3,0.1,1.6,0.2,1.6,0.8
				c0,0.3-0.1,0.3-0.8,0.9c-0.4,0.3-0.7,0.5-0.8,1c-0.1,0.8-0.2,5.6-0.2,7.9c0.9,0.1,1.3,0.1,2.7,0.1c7.6-0.1,11.2-1.6,13.2-2.4
				l0.1,7.5c-4.7,1.3-8.9,1.7-11.8,1.8c-1.3,0-3.1,0-4.4-0.1c0,5.5,0.1,7.6,0.7,15.9c7.5,2.2,11.9,4.2,18.2,8.3L-21.7,160.9z
				 M-48.7,150.6c-4.1,0.1-6.4,1.6-6.3,3.5c0,2.7,4.9,3.2,7,3.2c5.2-0.1,5.1-3.3,5-6.2C-44.1,150.9-46.3,150.5-48.7,150.6z"/>
			<path class="st2" d="M2.2,149.9l-5.5,0.1c-2.2-5.6-3.1-11.7-3.2-17.6c-0.1-8,1-15.6,1.5-19.3l7.1,0.3c0.4,0,1.4,0.1,1.4,0.8
				c0,0.5-0.6,0.7-0.9,1c-1.3,1.1-2.2,13.6-2.1,17.5c0,1.9,0.2,2.6,0.5,4c0.8-2.2,2-5.6,3.6-9.3l4.6,2.9
				C6.5,136.6,4,143.1,2.2,149.9z M26.5,151.3c-2.9,7-6.6,11-8.9,13.5l-7.8-4c2.3-1.8,6-4.7,9-11.2c2.6-5.4,3.8-11.5,3.7-17.5
				c0-0.7-0.4-10.7-2-20.2l7.9-0.1c0.2,0,1.4,0,1.4,0.8c0,0.6-1.2,1-1.1,1.6c0,0.6,0.4,3.3,0.5,4c0.5,4.5,0.9,9.4,1,13.7
				C30.2,135.7,29.9,143.1,26.5,151.3z"/>
		</g>
		<g>
			<path class="st1" d="M-319.9,166.1c-0.7,0-1.3-0.6-1.3-1.2l-0.1-3c0-0.3,0.1-0.6,0.3-0.9c29.7-33.6,32.6-38.7,32.5-46
				c0-2.6-0.9-4.8-2.6-6.4c-1.6-1.6-4-2.4-6.6-2.3c-5.7,0.1-9.4,3.7-9.3,9.1v1.5c0,0.3-0.1,0.7-0.4,0.9c-0.2,0.2-0.6,0.4-0.9,0.4
				l-11.1,0.2c-0.7,0-1.3-0.5-1.3-1.2v-1.6c-0.1-13.2,9-22.2,22.8-22.4c6.5-0.1,12.4,2,16.6,5.8c4.2,3.9,6.6,9.4,6.7,15.6
				c0.2,9.2-3.1,16.5-21.3,37.9l22.8-0.4c0.3,0,0.7,0.1,0.9,0.4c0.2,0.2,0.4,0.6,0.4,0.9l0.2,10.6c0,0.7-0.5,1.3-1.2,1.3
				L-319.9,166.1L-319.9,166.1z M-318.7,162.2v1.2l44.4-0.8l-0.1-8l-24.3,0.4c-0.5,0.1-1-0.3-1.2-0.7c-0.2-0.5-0.1-1,0.2-1.4
				c19.3-22.4,22.7-29.5,22.6-38.2c-0.1-5.6-2.1-10.3-5.9-13.8s-8.9-5.2-14.8-5.1c-12.3,0.2-20.4,8.1-20.2,19.7v0.3l8.6-0.1v-0.3
				c-0.1-6.8,4.7-11.6,11.8-11.7c3.3-0.1,6.3,1,8.4,3s3.3,4.8,3.4,8.2C-285.7,123-288.7,128.3-318.7,162.2z"/>
			<path class="st2" d="M-273.1,153.4l0.1,10.6l-46.9,0.8l-0.1-3c29.4-33.3,33-39,32.8-46.9c-0.1-6-4.3-10-10.5-9.9
				c-6.5,0.1-10.6,4.4-10.5,10.4v1.5l-11.1,0.2v-1.6c-0.2-12.3,8.4-20.8,21.4-21c12.8-0.2,21.8,8.1,22,20.2
				c0.2,9-3.3,16.4-22.8,39.2L-273.1,153.4z"/>
		</g>
		<g>
			<path class="st1" d="M-233.6,165.5c-0.7,0-1.3-0.6-1.3-1.2l-0.2-12.7l-32.9,0.6l0,0c-0.7,0-1.3-0.6-1.3-1.2v-2.3
				c0-0.2,0-0.4,0.1-0.5l22.5-52.8c0.2-0.5,0.6-0.8,1.1-0.8l11.3-0.2l0,0c0.4,0,0.8,0.2,1.1,0.6c0.2,0.4,0.3,0.8,0.1,1.2l-18.5,43.4
				l16.6-0.4l1.4-18c0.1-0.7,0.6-1.2,1.2-1.2l8.7-0.2c0.3,0,0.7,0.1,0.9,0.4c0.2,0.2,0.4,0.6,0.4,0.9l0.3,17.9l5.4-0.1l0,0
				c0.7,0,1.3,0.6,1.3,1.2l0.2,9.8c0,0.7-0.5,1.3-1.2,1.3l-5.4,0.1l0.2,12.7c0,0.3-0.1,0.7-0.4,0.9c-0.2,0.2-0.6,0.4-0.9,0.4
				L-233.6,165.5L-233.6,165.5z M-233.9,149c0.7,0,1.3,0.6,1.3,1.2l0.2,12.7l8.2-0.1l-0.2-12.7c0-0.7,0.5-1.3,1.2-1.3l5.4-0.1
				l-0.1-7.3l-5.4,0.1l0,0c-0.7,0-1.3-0.6-1.3-1.2l-0.3-17.9l-6.2,0.1l-1.4,18c-0.1,0.7-0.6,1.2-1.2,1.2l-19.6,0.3l0,0
				c-0.4,0-0.8-0.2-1.1-0.6c-0.2-0.4-0.3-0.8-0.1-1.2l18.5-43.4l-8.6,0.1l-22.1,51.8v0.7L-233.9,149L-233.9,149z"/>
			<path class="st1" d="M-233.6,165.5c-0.7,0-1.3-0.6-1.3-1.2l-0.2-12.7l-32.9,0.6l0,0c-0.7,0-1.3-0.6-1.3-1.2v-2.3
				c0-0.2,0-0.4,0.1-0.5l22.5-52.8c0.2-0.5,0.6-0.8,1.1-0.8l11.3-0.2l0,0c0.4,0,0.8,0.2,1.1,0.6c0.2,0.4,0.3,0.8,0.1,1.2l-18.5,43.4
				l16.6-0.4l1.4-18c0.1-0.7,0.6-1.2,1.2-1.2l8.7-0.2c0.3,0,0.7,0.1,0.9,0.4c0.2,0.2,0.4,0.6,0.4,0.9l0.3,17.9l5.4-0.1l0,0
				c0.7,0,1.3,0.6,1.3,1.2l0.2,9.8c0,0.7-0.5,1.3-1.2,1.3l-5.4,0.1l0.2,12.7c0,0.3-0.1,0.7-0.4,0.9c-0.2,0.2-0.6,0.4-0.9,0.4
				L-233.6,165.5L-233.6,165.5z M-233.9,149c0.7,0,1.3,0.6,1.3,1.2l0.2,12.7l8.2-0.1l-0.2-12.7c0-0.7,0.5-1.3,1.2-1.3l5.4-0.1
				l-0.1-7.3l-5.4,0.1l0,0c-0.7,0-1.3-0.6-1.3-1.2l-0.3-17.9l-6.2,0.1l-1.4,18c-0.1,0.7-0.6,1.2-1.2,1.2l-19.6,0.3l0,0
				c-0.4,0-0.8-0.2-1.1-0.6c-0.2-0.4-0.3-0.8-0.1-1.2l18.5-43.4l-8.6,0.1l-22.1,51.8v0.7L-233.9,149L-233.9,149z"/>
			<path class="st2" d="M-216.5,150l-6.6,0.1l0.2,13.9l-10.7,0.2l-0.2-13.9l-34.2,0.6v-2.3l22.5-52.8l11.3-0.2l-19.3,45.2l19.6-0.3
				l1.5-19.2l8.7-0.2l0.3,19.1l6.6-0.1L-216.5,150z"/>
		</g>
	</g>
	<g>
		<rect x="-343.6" y="216.6" class="st0" width="375.9" height="47.5"/>
		<path class="st1" d="M32.7,264.5H-344v-48.4H32.7L32.7,264.5L32.7,264.5z M-343.1,263.7h375V217h-375V263.7z"/>
	</g>
	<g>
		<path class="st1" d="M-309.3,258.8c-0.5,0-1-0.3-1.2-0.8l-2.8-7.2c-1,2-2,3.9-3.2,5.9c-0.3,0.5-0.9,0.7-1.4,0.6l-8.9-2.2
			c-0.4-0.1-0.7-0.4-0.9-0.8s-0.1-0.8,0.1-1.1c7.8-12.7,10.4-24,10.3-44.1l-6.8,0.1c-0.7,0-1.3-0.5-1.3-1.2l-0.1-8
			c0-0.3,0.1-0.7,0.4-0.9s0.6-0.4,0.9-0.4l9.9-0.2l-0.2-10c0-0.4,0.1-0.7,0.4-0.9c0.2-0.2,0.6-0.4,0.9-0.4l8.9,0.4
			c0.2,0,0.9,0,1.5,0.2c1.4,0.5,1.6,1.6,1.6,2s-0.1,1.2-1,1.8l-0.1,0.1c-0.2,0.1-0.4,0.3-0.5,0.4l0.1,6.2l10.4-0.2
			c0.7,0,1.3,0.5,1.3,1.2l0.1,4.4c1.8-3.9,3.6-8.9,5.4-15.9c0.1-0.3,0.3-0.6,0.6-0.8c0.3-0.2,0.6-0.2,1-0.1l8.6,2.3
			c2,0.6,2.4,1.7,2.4,2.5c0,1.5-1.3,2-1.8,2.2l0,0c-0.1,0-0.2,0.1-0.3,0.1c-0.1,0-0.2,0.1-0.4,0.1c-0.3,0.7-0.8,2.3-1.2,3.4
			l20.7-0.4c0.4,0,0.7,0.1,0.9,0.4c0.2,0.2,0.4,0.6,0.4,0.9l0.1,8.1c0,0.7-0.5,1.3-1.2,1.3l-3.4,0.1c-2.5,16.5-6.7,24.6-9.7,29.9
			c4.2,4.8,7.7,7.4,13.8,9.8c0.4,0.2,0.7,0.5,0.8,0.9s0,0.8-0.3,1.1l-7.1,7.5c-0.4,0.4-1,0.5-1.6,0.2c-5.2-3-8.5-5.7-12.2-10.2
			c-4.4,4.9-8.1,7.8-14.2,11c-0.5,0.3-1.1,0.2-1.5-0.2l-5.9-5.3C-300.3,258.3-305.8,258.6-309.3,258.8
			C-309.2,258.8-309.3,258.8-309.3,258.8z M-310.9,249.8l2.5,6.4c3.4-0.2,7.6-0.9,10-6.1c0.1-0.1,0.1-0.2,0.2-0.3c0-0.2,0-0.3,0-0.5
			c1.4-5.3,2-10.9,2.4-16.6c0.4-5.6,0.5-10.1,0.6-13.4l0.1-1.9c0-0.5,0.3-0.9,0.7-1.1s0.9-0.2,1.3,0.1l3.3,2.3
			c0.5-0.7,1.1-1.5,1.8-2.4c0.3-0.4,0.8-0.6,1.3-0.5s0.9,0.5,1,1c2.1,11.2,4.7,16.4,6.6,20.2c0.2,0.5,0.2,1-0.2,1.4
			c-5.4,6.4-10,9.3-16.3,12.2l5.6,5.1c5.7-3.2,9.2-6.1,13.7-11.2c0.2-0.3,0.6-0.4,1-0.4c0.4,0,0.7,0.2,1,0.5
			c3.7,4.7,6.7,7.3,11.5,10.3l5.2-5.4c-5.7-2.5-9.4-5.4-13.7-10.5c-0.3-0.4-0.4-1-0.1-1.4c3-5.3,7.5-13.2,10-30.9
			c0.1-0.6,0.6-1.1,1.2-1.1l3.2-0.1l-0.1-5.5l-21.2,0.2c-0.4,0-0.8-0.2-1.1-0.5c-0.2-0.3-0.3-0.8-0.2-1.2c0.1-0.2,0.2-0.6,0.4-1.2
			c1.1-3.1,1.4-4.1,1.6-4.5l0,0c0-0.1,0.1-0.1,0.1-0.2c0,0,0-0.1,0.1-0.1c0.3-0.4,0.8-0.6,1.5-0.8l0,0l-7.3-2
			c-3.9,14.6-7.5,20.4-12.6,25.9c-0.2,0.2-0.6,0.4-0.9,0.4l-10.7,0.2c-0.3,0-0.7-0.1-0.9-0.4c-0.2-0.2-0.4-0.6-0.4-0.9
			c0.1-2.6,0.1-4.3,0-7.3c0-0.7,0.5-1.3,1.2-1.3l14.3-0.2l-0.2-5.5l-10.4,0.2c-0.3,0-0.7-0.1-0.9-0.4c-0.2-0.2-0.4-0.6-0.4-0.9
			l-0.1-7.6c0-0.9,0.3-1.4,0.9-1.8l-7.6-0.3l0.2,9.9c0,0.3-0.1,0.7-0.4,0.9c-0.3,0.2-0.6,0.4-0.9,0.4l-9.9,0.2l0.1,5.4l6.8-0.1
			c0.3,0,0.7,0.1,0.9,0.4c0.2,0.2,0.4,0.6,0.4,0.9c0.2,20.7-2.3,32.5-9.8,45.3l6.3,1.6c3.9-6.6,7.2-13.9,8.9-31.9
			c0.1-0.6,0.6-1.1,1.2-1.1l6.2-0.1c0.4,0,0.7,0.1,0.9,0.4c0.2,0.2,0.4,0.6,0.4,0.9c0,10.6-1,19.4-2.7,23.6c-1.3,3-2.4,3.6-4.5,3.6
			C-308.9,249.9-310,249.9-310.9,249.8z M-311.7,247.2c0.9,0.1,2.4,0.2,3.9,0.2c1.1,0,1.4,0,2.2-2c1.5-3.7,2.4-11.6,2.5-21.3
			l-3.7,0.1C-307.9,234.5-309.5,241.5-311.7,247.2z M-292.7,219.8c-0.1,3.3-0.2,7.7-0.6,13.1c-0.4,4.9-0.8,9.8-1.9,14.5
			c5-2.4,8.9-5.1,13.3-10.2c-1.7-3.5-3.9-8.3-5.8-17.2c-0.4,0.5-0.7,0.9-1.1,1.2c-0.4,0.5-1.1,0.5-1.6,0.2L-292.7,219.8z
			 M-306.3,208.8c0,1.9,0,3.2,0,4.9l8.9-0.2c1.4-1.5,2.7-3.1,3.9-5L-306.3,208.8z M-275.3,193.9L-275.3,193.9L-275.3,193.9z
			 M-275.3,193.9L-275.3,193.9L-275.3,193.9z M-275.3,193.9L-275.3,193.9L-275.3,193.9z M-275.3,230.9L-275.3,230.9
			c-0.5,0-1-0.3-1.2-0.8c-2.6-6.3-4.3-11.8-5.6-23c0-0.4,0.1-0.7,0.3-1c0.2-0.3,0.6-0.4,0.9-0.4l11.6-0.2c0.4,0,0.7,0.1,1,0.4
			c0.2,0.3,0.4,0.6,0.3,1c-1.4,12.5-3.7,18-6.2,23.3C-274.4,230.7-274.8,230.9-275.3,230.9z M-279.4,208.2c1,8.4,2.3,13.4,4.2,18.2
			c1.8-4.2,3.4-9.2,4.6-18.4L-279.4,208.2z"/>
		<path class="st1" d="M-239.4,258.3c-0.8,0-1.6-0.6-2.1-1.6l-4.1-8c-0.2-0.3-0.2-0.7-0.1-1s0.3-0.6,0.6-0.7
			c4.2-2.1,6.2-3.3,8.9-5.4l-0.3-15.2l-6.6,0.1c-0.3,0-0.7-0.1-0.9-0.4c-0.2-0.2-0.4-0.6-0.4-0.9l-0.1-8.2c0-0.3,0.1-0.7,0.4-0.9
			c0.3-0.2,0.6-0.4,0.9-0.4l17.2-0.3c0.3,0,0.7,0.1,0.9,0.4s0.4,0.6,0.4,0.9l0.4,23.2c0,2.8,1.1,4.4,3.5,5.4
			c2.8,1.1,7.3,1.2,11.3,1.2c7.6-0.1,16.9-0.4,26.6-1.2c-3.3-1.2-10.3-4.5-16.4-13.1c-3.9,6.3-8.9,11-14.6,13.7
			c-0.4,0.2-1,0.1-1.3-0.2l-7.2-5.8c-0.3-0.3-0.5-0.7-0.5-1.1c0.1-0.4,0.3-0.8,0.7-1c7-3.3,11.8-7.5,14.2-12.6l-12.7,0.2
			c-0.3,0-0.7-0.1-0.9-0.4c-0.2-0.2-0.4-0.6-0.4-0.9l-0.1-7.7c0-0.7,0.5-1.3,1.2-1.3l15.3-0.3c0.1-1.5,0.1-2.7,0.1-4.1l-12.9,0.2
			c-0.7,0-1.3-0.5-1.3-1.2l-0.1-7.7c0-0.7,0.5-1.3,1.2-1.3l5.3-0.1c-1.7-2.5-3.8-4.9-5.9-6.6c-0.3-0.2-0.5-0.6-0.5-1s0.2-0.7,0.5-1
			l6.9-5.6c0.5-0.4,1.2-0.4,1.7,0.1c2.7,2.6,4.9,5,8.2,10.6c0.3,0.5,0.2,1.3-0.3,1.7l-2.2,1.7l5.1-0.1c2.5-4.5,5.1-9.2,7-13.7
			c0.2-0.6,0.9-0.9,1.5-0.7l8.1,2.3c1.6,0.5,2.4,1.3,2.4,2.3c0,0.6-0.4,1.2-1,1.5l-0.2,0.1c-0.4,0.2-0.6,0.3-0.8,0.4
			c-2.1,3.9-3.2,5.8-4.3,7.6l7.1-0.1c0.3,0,0.7,0.1,0.9,0.4s0.4,0.6,0.4,0.9l0.1,7.7c0,0.7-0.5,1.3-1.2,1.3l-14.7,0.3
			c0.1,1.7,0,2.9,0,4.1l18.5-0.3c0.7,0,1.3,0.5,1.3,1.2l0.1,7.7c0,0.7-0.5,1.3-1.2,1.3l-16.4,0.3c2,3.1,6,7.7,16.2,11.7
			c0.4,0.2,0.7,0.5,0.8,0.9c0.1,0.4,0,0.8-0.3,1.1l-5.7,6.6l0,0c3.2-0.3,6.4-0.6,9.6-1c0.5-0.1,0.9,0.1,1.2,0.5
			c0.3,0.4,0.3,0.8,0.2,1.2l-3.8,9.5c-0.2,0.5-0.6,0.8-1.1,0.8c-9.2,0.5-28.7,1-32,1c-14.4,0.3-19-1.7-23.1-7.1
			c-2.4,2.1-5,4.1-5.9,4.8l-0.6,0.5c-0.4,0.3-0.7,0.6-0.9,0.7C-237.7,256.9-237.9,258.2-239.4,258.3L-239.4,258.3z M-175,254.9
			L-175,254.9L-175,254.9z M-242.8,248.7l3.1,6c0.2-0.4,0.6-0.8,1.6-1.5l0.6-0.5c1-0.8,4.3-3.3,6.9-5.6c0.3-0.2,0.6-0.4,1-0.3
			c0.4,0,0.7,0.2,0.9,0.5c3.7,5.3,6.7,7.5,21.8,7.2c3.1-0.1,21.6-0.5,31.1-1l2.7-6.7c-13.1,1.6-26.2,2-36.2,2.1
			c-6.1,0.1-9.7-0.3-12.3-1.3c-3.3-1.4-5-3.9-5.1-7.7l-0.4-22l-14.7,0.3l0.1,5.7l6.6-0.1c0.3,0,0.7,0.1,0.9,0.4
			c0.2,0.3,0.4,0.6,0.4,0.9l0.3,17.1c0,0.4-0.2,0.8-0.5,1C-236.9,245.5-239,246.8-242.8,248.7z M-219.3,239.2l5,4.1
			c5.5-2.8,10.2-7.6,13.8-14c0.2-0.4,0.6-0.6,1.1-0.7c0.4,0,0.9,0.2,1.1,0.6c5.8,9,12.6,12.4,15.9,13.7l4-4.6
			c-12-5.1-15.3-11-16.9-14c-0.2-0.4-0.2-0.9,0-1.3s0.6-0.6,1.1-0.6l17.3-0.3l-0.1-5.1l-18.6,0.3c-0.3,0-0.7-0.1-0.9-0.4
			s-0.4-0.6-0.3-1c0.1-1.8,0.2-3.4,0-6.5c0-0.3,0.1-0.7,0.3-0.9s0.6-0.4,0.9-0.4l14.8-0.3l-0.1-5.1l-8.2,0.1c-0.5,0-0.9-0.2-1.1-0.7
			s-0.2-0.9,0-1.3c1.7-2.7,2.6-4.3,5.5-9.6l0.1-0.1c0.1-0.2,0.2-0.3,0.4-0.4l0.1-0.1l-6.6-1.9c-1.9,4.6-4.5,9.2-7,13.6
			c-0.2,0.4-0.6,0.6-1.1,0.6l-9.6,0.2c-0.6,0-1-0.3-1.2-0.8c0,0,0,0,0-0.1c0,0.1-0.1,0.2-0.1,0.3c-0.2,0.4-0.6,0.6-1.1,0.6l-6.3,0.1
			l0.1,5.1l12.9-0.2c0.7,0,1.3,0.5,1.3,1.2c0,2.5,0,4.2-0.2,6.8c0,0.7-0.6,1.2-1.2,1.2l-15.2,0.3l0.1,5.1l13.3-0.2
			c0.4,0,0.8,0.2,1.1,0.5c0.2,0.3,0.3,0.8,0.2,1.2C-207,230.3-211.9,235.3-219.3,239.2z M-216.2,193.2c2.4,2.3,4.8,5.3,6.5,8.1
			c0.1,0.1,0.1,0.2,0.1,0.3c0.1-0.3,0.2-0.5,0.4-0.7l4.3-3.3c-2.6-4.1-4.3-6.3-6.4-8.3L-216.2,193.2z M-231.1,207.2
			C-231.2,207.2-231.2,207.2-231.1,207.2c-0.4,0-0.8-0.2-1-0.5c-1.9-2.4-5.9-6.8-11-9.7c-0.3-0.2-0.6-0.5-0.6-0.9s0.1-0.8,0.4-1.1
			l6.5-6.3c0.4-0.4,1-0.5,1.5-0.2c3.5,2,7.4,4.7,11.7,10.8c0.4,0.5,0.3,1.2-0.2,1.7l-6.4,5.9C-230.5,207.1-230.8,207.2-231.1,207.2z
			 M-240.4,195.7c4.1,2.7,7.4,6,9.4,8.4l4.6-4.2c-3.2-4.4-6.1-6.7-9.4-8.6L-240.4,195.7z"/>
		<path class="st1" d="M-161.2,257.8c-0.3,0-0.6-0.1-0.9-0.4c-0.2-0.2-0.4-0.6-0.4-0.9l-1.1-65.3c0-0.7,0.5-1.3,1.2-1.3l30.5-0.5
			c0.3,0,0.7,0.1,0.9,0.4c0.2,0.2,0.4,0.6,0.4,0.9l0.4,24.3c0,0.7-0.5,1.3-1.2,1.3l-20.5,0.4l0.6,33.9c0.1-0.1,0.2-0.2,0.3-0.3
			c6.1-4,7.8-6.5,9-10.4l-7.6,0.1l0,0c-0.7,0-1.3-0.6-1.3-1.2l-0.1-7c0-0.3,0.1-0.7,0.4-0.9c0.3-0.2,0.6-0.4,0.9-0.4l8.9-0.2
			c0-1.2,0-2,0-3.2l-6.7,0.1c-0.7,0-1.3-0.5-1.3-1.2l-0.1-6.8c0-0.7,0.5-1.3,1.2-1.3l37.1-0.6c0.7,0,1.3,0.5,1.3,1.2l0.1,6.8
			c0,0.3-0.1,0.7-0.4,0.9c-0.3,0.2-0.6,0.4-0.9,0.4l-6.5,0.1l0.1,3.2l8.5-0.1c0.7,0,1.3,0.5,1.3,1.2l0.1,7c0,0.3-0.1,0.7-0.4,0.9
			s-0.6,0.4-0.9,0.4l-8.5,0.1l0.3,15.2c0,0.7-0.5,1.3-1.2,1.3l-8.1,0.1c-0.3,0-0.7-0.1-0.9-0.4c-0.2-0.2-0.4-0.6-0.4-0.9l-0.3-15.2
			l-4.1,0.1c-1.6,8.3-4.9,12.4-11.1,17.8c-0.4,0.4-1.1,0.4-1.6,0.1l-7-5.2c-0.1-0.1-0.2-0.2-0.3-0.3l0.1,4.4c0,0.7-0.5,1.3-1.2,1.3
			L-161.2,257.8L-161.2,257.8z M-161.1,192.5l1.1,62.7l6.2-0.1l-0.7-39.7c0-0.3,0.1-0.7,0.4-0.9c0.3-0.2,0.6-0.4,0.9-0.4l20.5-0.4
			l-0.4-21.7L-161.1,192.5z M-148.1,251.2l4.7,3.5c5.5-4.9,8.3-8.7,9.6-16.6c0.1-0.6,0.6-1,1.2-1l6.4-0.1c0.7,0,1.3,0.5,1.3,1.2
			l0.3,15.2l5.6-0.1l-0.3-15.2c0-0.3,0.1-0.7,0.4-0.9c0.3-0.2,0.6-0.4,0.9-0.4l8.5-0.1l-0.1-4.5l-8.5,0.1c-0.3,0-0.7-0.1-0.9-0.4
			c-0.2-0.2-0.4-0.6-0.4-0.9l-0.1-5.8c0-0.7,0.5-1.3,1.2-1.3l6.5-0.1l-0.1-4.3l-34.6,0.6l0.1,4.3l6.7-0.1c0.7,0,1.3,0.5,1.3,1.2
			c0,2.4,0.1,3.4-0.1,5.9c0,0.7-0.6,1.2-1.2,1.2l-8.8,0.2l0.1,4.5l8.1-0.1c0.4,0,0.8,0.2,1,0.5c0.2,0.3,0.3,0.7,0.2,1.1
			C-140.4,244-142,247-148.1,251.2z M-108.2,257.2c-0.5,0-0.9-0.3-1.1-0.7l-3.9-8.2c-0.2-0.4-0.2-0.8,0.1-1.2
			c0.3-0.4,0.6-0.6,1.1-0.6l5.2-0.1c1.5,0,1.7-0.5,1.7-1.5l-0.5-29.1l-20.9,0.4c-0.7,0-1.3-0.5-1.3-1.2l-0.6-24.4
			c0-0.3,0.1-0.7,0.4-0.9c0.3-0.2,0.6-0.4,0.9-0.4l30.5-0.5c0.7,0,1.3,0.5,1.3,1.2l1,56.7c0.1,6.8-2.9,10.2-9,10.4l0,0L-108.2,257.2
			L-108.2,257.2z M-103.4,255.9L-103.4,255.9L-103.4,255.9z M-110.2,249l2.7,5.7l4-0.1c4.6-0.1,6.6-2.4,6.5-7.8l-1-55.5l-28,0.5
			l0.4,21.7l20.9-0.4c0.7,0,1.3,0.5,1.3,1.2l0.5,30.3c0,1.5-0.5,4-4.2,4.1L-110.2,249z M-131.9,232.5c-0.3,0-0.7-0.1-0.9-0.4
			c-0.2-0.2-0.4-0.6-0.4-0.9c0-1,0-1.8,0-3.3v-2.4c0-0.7,0.6-1.2,1.2-1.3l5.5-0.1c0.4,0,0.7,0.1,0.9,0.4c0.2,0.2,0.4,0.6,0.4,0.9
			l0.1,5.8c0,0.7-0.5,1.3-1.2,1.3H-131.9L-131.9,232.5z M-130.6,226.7v1.2c0,0.9,0,1.5,0,2l3.1-0.1l-0.1-3.2L-130.6,226.7z
			 M-153.3,210.4c-0.7,0-1.3-0.6-1.3-1.2l-0.1-3.4c0-0.3,0.1-0.7,0.4-0.9s0.6-0.4,0.9-0.4l13.7-0.2c0.7,0,1.3,0.5,1.3,1.2l0.1,3.4
			c0,0.3-0.1,0.7-0.4,0.9c-0.3,0.2-0.6,0.4-0.9,0.4L-153.3,210.4L-153.3,210.4z M-152.1,207v0.9l11.2-0.2v-0.9L-152.1,207z
			 M-118.2,209.8c-0.7,0-1.3-0.6-1.3-1.2l-0.1-3.4c0-0.3,0.1-0.7,0.4-0.9s0.6-0.4,0.9-0.4l13.6-0.2c0.3,0,0.7,0.1,0.9,0.4
			c0.2,0.2,0.4,0.6,0.4,0.9l0.1,3.4c0,0.7-0.5,1.3-1.2,1.3L-118.2,209.8L-118.2,209.8z M-117,206.4v0.9l11.1-0.2v-0.9L-117,206.4z
			 M-153.5,201.7c-0.7,0-1.3-0.6-1.3-1.2l-0.1-3.2c0-0.3,0.1-0.7,0.4-0.9s0.6-0.4,0.9-0.4l13.7-0.2c0.3,0,0.7,0.1,0.9,0.4
			c0.2,0.2,0.4,0.6,0.4,0.9l0.1,3.2c0,0.7-0.5,1.3-1.2,1.3L-153.5,201.7C-153.4,201.7-153.4,201.7-153.5,201.7z M-152.2,198.5v0.6
			l11.2-0.2v-0.6L-152.2,198.5z M-118.4,201.1c-0.3,0-0.6-0.1-0.9-0.4c-0.2-0.2-0.4-0.6-0.4-0.9l-0.1-3.2c0-0.7,0.5-1.3,1.2-1.3
			l13.6-0.2c0.7,0,1.3,0.5,1.3,1.2l0.1,3.2c0,0.3-0.1,0.7-0.4,0.9s-0.6,0.4-0.9,0.4L-118.4,201.1L-118.4,201.1z M-117.1,197.9v0.6
			l11.1-0.2v-0.6L-117.1,197.9z"/>
		<path class="st1" d="M-74,258.4c-0.2,0-0.4,0-0.6-0.1l-8.5-4.4c-0.4-0.2-0.6-0.6-0.7-1c0-0.4,0.1-0.8,0.4-1.1
			c4.2-3.5,8.9-8.1,12.6-16.1c-1-1.1-1.5-1.6-2.4-2.4c-0.1,0.3-0.3,0.7-0.4,1.1c-0.2,0.6-0.8,0.9-1.4,0.7l-8.3-1.8
			c-0.4-0.1-0.7-0.3-0.8-0.6c-0.2-0.3-0.2-0.7-0.1-1c2.3-6.9,3.4-11.6,5.2-20.1l-3.5,0.1c-0.3,0-0.7-0.1-0.9-0.4
			c-0.2-0.2-0.4-0.6-0.4-0.9l-0.2-9c0-0.3,0.1-0.7,0.4-0.9c0.2-0.2,0.6-0.4,0.9-0.4l5.9-0.1c0.7-4.6,1.1-7.4,1.3-11.3
			c0-0.4,0.2-0.7,0.4-0.9c0.3-0.2,0.6-0.3,1-0.3l8.6,1c2.4,0.3,2.7,1.7,2.7,2.2c0,1.1-0.7,1.6-1.2,1.9c-0.2,0.1-0.3,0.2-0.3,0.3
			c0,0,0,0,0,0.1c-0.3,2.5-0.7,4.8-1,6.5c0,0.1,0,0.2,0,0.3l10-0.2l0,0c0.7,0,1.2,0.5,1.3,1.2c0.1,3.3,0.2,6.7,0,10.3
			c0.9,0,1.8,0,6.3-0.2c1.7-6,3.5-13,5.2-23c0.1-0.3,0.2-0.6,0.5-0.8s0.6-0.3,1-0.2l9.3,1.7c2,0.3,3,1.2,3,2.5
			c0,0.5-0.2,1.8-2.1,2.4c-0.2,0.1-0.3,0.1-0.4,0.2c-2,6.2-3.1,9.5-5.5,16.7c2.9-0.1,4.3-0.2,8.4-0.5c-1-1.9-2.1-3.7-4.3-7.1
			c-0.2-0.3-0.3-0.7-0.2-1s0.3-0.6,0.6-0.8l7.5-3.8c0.5-0.3,1.2-0.1,1.6,0.4c5.5,7.2,9.5,14.7,11.9,22.4c0.2,0.6-0.1,1.3-0.7,1.5
			l-5.8,2.7h0.2l0,0c0.7,0,1.3,0.6,1.3,1.2l0.5,31c0,0.3-0.1,0.7-0.4,0.9c-0.3,0.2-0.6,0.4-0.9,0.4l-9.1,0.2l0,0
			c-0.7,0-1.3-0.6-1.3-1.2v-1.4l-11.9,0.2v1.4c0,0.3-0.1,0.7-0.4,0.9c-0.3,0.2-0.6,0.4-0.9,0.4l-9.1,0.2l0,0c-0.7,0-1.3-0.6-1.3-1.2
			l-0.2-12.3c-0.1,0.1-0.1,0.2-0.2,0.2l-7.2,6c-0.3,0.2-0.7,0.3-1.1,0.3c-0.4-0.1-0.7-0.3-0.9-0.7c-0.7-1.4-1.3-2.7-2.9-5.1
			c-2.8,5.1-5.6,8.7-9.6,12.8C-73.3,258.3-73.6,258.4-74,258.4z M-80.2,252.5l6,3.1c4-4.1,6.6-7.8,9.5-13.4c0.2-0.4,0.6-0.7,1-0.7
			s0.9,0.2,1.1,0.5c1.8,2.6,2.8,4.2,3.5,5.8l5.2-4.3c-1-1.7-2.8-4.5-6.8-9.1c-0.3-0.3-0.4-0.8-0.2-1.3c4.1-11.5,4.5-21.7,4.2-31
			l-10.3,0.2c-0.4,0-0.7-0.2-1-0.4s-0.4-0.7-0.3-1c0.1-0.4,0.2-1.1,0.3-1.8c0.3-1.7,0.7-4,1-6.5c0.1-0.7,0.4-1.1,0.9-1.6l-7-0.8
			c-0.2,3.5-0.6,6.4-1.4,11.3c-0.1,0.6-0.6,1.1-1.2,1.1l-5.7,0.1l0.1,6.5l3.9-0.1c0.4,0,0.8,0.2,1,0.5s0.3,0.7,0.3,1.1
			c-1.8,8.7-2.9,13.8-5.1,20.6l5.8,1.3c0.1-0.3,0.2-0.6,0.3-0.9c0.1-0.3,0.2-0.5,0.3-0.8c0.1-0.4,0.5-0.7,0.9-0.8s0.8,0,1.2,0.3
			c2.3,2,2.6,2.3,4.6,4.4c0.3,0.4,0.4,0.9,0.2,1.4C-71.6,244-76.2,249-80.2,252.5z M-48.9,227.1l0.5,28.5l6.6-0.1v-1.4
			c0-0.3,0.1-0.7,0.4-0.9s0.6-0.4,0.9-0.4l14.5-0.3l0,0c0.7,0,1.3,0.6,1.3,1.2v1.4l6.5-0.1l-0.5-28.5L-48.9,227.1z M-58.2,233.4
			c4.3,5,6,7.9,7,9.5l0.1,0.3l-0.3-17.2c0-0.3,0.1-0.7,0.4-0.9s0.6-0.4,0.9-0.4l27.9-0.5l-0.1-0.2c-0.3-0.9-0.6-2-1.3-3.8
			c-3.6,0.5-12.4,1.5-21.5,2.2c-0.5,0-3.4,0.2-4.2,0.3c-0.1,0.1-0.2,0.2-0.4,0.3c-0.8,0.7-1.3,1.1-2,1.1l0,0c-1.7,0-2-1.8-2.2-2.8
			l-0.7-3.7C-55.2,222.5-56.3,227.8-58.2,233.4z M-49.2,222.5L-49.2,222.5L-49.2,222.5z M-22.9,217.4c0.5,0,1,0.3,1.2,0.8
			c0.7,1.9,1.2,3.2,1.5,4.1l6.1-2.8c-2.3-6.8-5.8-13.4-10.5-19.7l-5.3,2.7c2.3,3.6,3.3,5.3,4.6,7.9c0.2,0.4,0.2,0.8,0,1.2
			s-0.6,0.6-1,0.6c-6,0.5-7.2,0.5-10.9,0.7l-1.4,0.1c-0.4,0-0.8-0.2-1.1-0.5s-0.3-0.8-0.2-1.2c2.9-8.6,4-11.9,6.1-18.6
			c0-0.1,0.1-0.2,0.1-0.3c0.4-0.6,0.7-0.9,1.5-1.3c-0.1,0-0.2,0-0.3,0l-8-1.4c-1.7,9.8-3.5,16.8-5.2,22.8c-0.1,0.5-0.6,0.9-1.2,0.9
			c-3.4,0.2-5,0.2-6,0.3l1.3,7c0,0.1,0,0.2,0.1,0.3l0,0c0.5-0.4,0.9-0.7,1.3-0.8c0.5-0.1,4.4-0.4,4.8-0.4c9.9-0.8,19.5-2,22.3-2.4
			C-23,217.4-22.9,217.4-22.9,217.4z M-40.7,246.8c-0.7,0-1.3-0.6-1.3-1.2l-0.2-11.5c0-0.7,0.5-1.3,1.2-1.3l14.5-0.3
			c0.3,0,0.7,0.1,0.9,0.4c0.2,0.2,0.4,0.6,0.4,0.9l0.2,11.5c0,0.3-0.1,0.7-0.4,0.9c-0.3,0.2-0.6,0.4-0.9,0.4L-40.7,246.8
			L-40.7,246.8z M-39.7,235.2l0.2,9l11.9-0.2l-0.2-9L-39.7,235.2z M-66.3,228c-0.3,0-0.6-0.1-0.8-0.3c-2.2-1.9-3.1-2.7-5-4.1
			c-0.4-0.3-0.6-0.8-0.5-1.3c1.2-5,2.1-8.8,2.7-12.3c0.1-0.6,0.6-1,1.2-1l4.7-0.1c0.3,0,0.7,0.1,0.9,0.4s0.4,0.6,0.4,0.9
			c-0.4,9-1.4,13.3-2.3,16.9c-0.1,0.4-0.4,0.8-0.9,0.9C-66,228-66.2,228-66.3,228z M-70,222.1c1.1,0.8,1.9,1.5,3,2.4
			c0.7-3,1.3-6.6,1.6-13h-2.3C-68.2,214.5-68.9,217.9-70,222.1z"/>
		<path class="st2" d="M-260.2,206.6c-2.5,17.5-6.8,25.5-10.1,31.3c4.7,5.6,8.6,8.3,14.9,10.8l-7.1,7.5c-5.3-3.1-8.6-5.8-12.8-11.1
			c-5,5.7-8.8,8.6-14.8,11.9l-7.2-6.4c-2.8,6.3-8.2,6.7-12,6.9l-3.6-9.2c0.9,0.1,2.9,0.3,5.1,0.3c1.4,0,2.2-0.1,3.3-2.8
			c1.7-4.1,2.6-12.8,2.6-23.1l-6.2,0.1c-1.7,18.1-5,25.6-9.5,33.2l-8.9-2.2c7.8-12.7,10.7-24.1,10.5-46.1l-8.1,0.1l-0.1-8l11.1-0.2
			l-0.2-11.2l8.9,0.4c0.6,0,1.9,0.1,1.9,1c0,0.3-0.2,0.6-0.5,0.7c-1,0.7-1.2,0.8-1.2,1.4l0.1,7.6l11.7-0.2l0.1,8l-15.2,0.3
			c0.1,3.1,0.1,4.7,0,7.4l10.7-0.2c5-5.4,8.7-11.2,12.7-26.6l8.6,2.3c0.7,0.2,1.4,0.6,1.4,1.3c0,0.6-0.5,0.8-1,1
			c-0.2,0.1-1.2,0.4-1.3,0.6c-0.1,0.1-1.7,4.9-2,5.6l22.5-0.4l0.1,8.1L-260.2,206.6z M-287,216.9c-1.3,2-2.2,3-2.6,3.4l-4.2-3
			c-0.1,3.3-0.2,8.6-0.7,15.4c-0.5,5.7-1,11.4-2.5,16.9c7-3.1,11.4-6,16.7-12.2C-282.2,233.6-284.8,228.3-287,216.9z M-280.8,207
			c1.3,11.3,3,16.6,5.5,22.7c2.7-5.6,4.7-10.9,6.1-22.9L-280.8,207z"/>
		<path class="st2" d="M-175,254.9c-9.4,0.6-29.6,1-31.9,1c-15.3,0.3-18.9-2-22.9-7.7c-2.6,2.3-5.8,4.8-6.9,5.7
			c-1.6,1.3-1.8,1.4-1.9,1.7c-0.2,1-0.3,1.5-0.8,1.5c-0.2,0-0.6-0.2-1-0.9l-4.1-7.9c4.3-2.1,6.5-3.4,9.6-5.9l-0.3-17.1l-7.8,0.1
			l-0.1-8.2l17.2-0.3l0.4,23.2c0.1,6.9,5.9,8,16.1,7.8c12.7-0.2,25.5-0.8,38.2-2.4L-175,254.9z M-231.1,206c-2.4-3-6.4-7.2-11.3-10
			l6.5-6.3c3.5,2,7.1,4.5,11.2,10.4L-231.1,206z M-194.2,223.7c1.8,3.2,5.4,9.2,17.9,14.1l-5.7,6.6c-2.8-0.9-10.7-4.2-17.4-14.5
			c-3.9,7-9.1,12.1-15.1,14.9l-7.2-5.8c6.8-3.2,13.1-8,15.6-15.1l-14.6,0.3l-0.1-7.7l16.4-0.3c0.2-2.5,0.2-4.2,0.2-6.6l-14.1,0.2
			l-0.1-7.7l7.6-0.1c-1.7-3-4.5-6.4-7.3-8.8l6.9-5.6c2.8,2.6,4.8,5.1,8,10.3l-5.1,4l9.6-0.2c2.7-4.7,5.4-9.7,7.4-14.5l8.1,2.3
			c0.2,0.1,1.5,0.4,1.5,1.1c0,0.2-0.2,0.3-0.3,0.4c-0.2,0.1-1.2,0.6-1.4,0.7c-3,5.4-3.9,7.1-5.7,9.8l9.5-0.2l0.1,7.7l-16,0.3
			c0.1,3.2,0.1,4.8,0,6.6l19.8-0.3l0.1,7.7L-194.2,223.7z"/>
		<path class="st2" d="M-153.2,215.3l0.7,41l-8.8,0.2l-1.1-65.3l30.5-0.5l0.4,24.3L-153.2,215.3z M-139.8,197l-13.7,0.2l0.1,3.2
			l13.7-0.2L-139.8,197z M-139.6,205.5l-13.7,0.2l0.1,3.4l13.7-0.2L-139.6,205.5z M-117.9,238l0.3,16.4l-8.1,0.1l-0.3-16.4l-6.4,0.1
			c-1.5,8.6-4.5,12.6-10.8,18l-7-5.2c7-4.5,8.6-7.4,10-12.7l-9.3,0.2l-0.1-7l10.1-0.2c0.1-2.4,0.1-3.3,0.1-5.8l-8,0.1l-0.1-6.8
			l37.1-0.6l0.1,6.8l-7.7,0.1l0.1,5.8l9.8-0.2l0.1,7L-117.9,238z M-126.3,225.4l-5.5,0.1c0,3.3,0,4.3-0.1,5.8l5.7-0.1L-126.3,225.4z
			 M-103.4,255.9l-4.8,0.1l-3.9-8.2l5.2-0.1c2,0,3-0.8,3-2.8l-0.5-30.3l-22.2,0.4l-0.5-24.4l30.5-0.5l1,56.7
			C-95.6,251.9-97.2,255.8-103.4,255.9z M-104.8,196.4l-13.6,0.2l0.1,3.2l13.6-0.2L-104.8,196.4z M-104.7,204.9l-13.6,0.2l0.1,3.4
			l13.6-0.2L-104.7,204.9z"/>
		<path class="st2" d="M-59.4,249.9c-0.9-1.9-1.7-3.5-4.2-7c-3.2,6.1-6.1,10-10.4,14.3l-8.5-4.4c5.1-4.3,9.8-9.3,13.3-17.3
			c-1.9-2.1-2.3-2.4-4.5-4.3c-0.3,0.9-0.5,1.7-1,2.8l-8.3-1.8c2.5-7.4,3.6-12.4,5.5-21.8l-5.1,0.1l-0.2-9l7-0.1
			c0.9-5.3,1.3-8.3,1.4-12.5l8.6,1c0.6,0.1,1.6,0.3,1.6,1c0,0.4-0.2,0.6-0.7,0.9c-0.7,0.5-0.8,0.7-0.8,1.1c-0.5,3.6-1.1,6.9-1.3,8.3
			l11.5-0.2c0.3,8.5,0.3,19.8-4.2,32.7c5,5.8,6.6,8.7,7.5,10.2L-59.4,249.9z M-68.7,210.2c-0.7,4.1-1.7,8.2-2.7,12.4
			c1.9,1.4,2.9,2.2,5.1,4.2c1-3.7,1.8-7.9,2.2-16.6L-68.7,210.2L-68.7,210.2z M-21,224.1c-0.3-1-0.8-2.5-1.9-5.4
			c-5,0.6-13.9,1.7-22.4,2.4c-0.6,0-4.2,0.3-4.5,0.4c-0.3,0.1-1.6,1.4-2,1.4c-0.5,0-0.7-0.5-1-1.8l-1.6-8.5c1.1,0,1.7,0,7.4-0.3
			c1.8-6.4,3.6-13.5,5.4-24l9.3,1.7c0.9,0.1,2,0.4,2,1.2c0,0.6-0.6,1-1.2,1.1c-0.9,0.3-0.9,0.5-1.2,0.9c-2.2,6.8-3.3,10.2-6.2,18.6
			c4.9-0.2,5.5-0.3,12.2-0.8c-1.4-2.7-2.4-4.5-5.3-8.9l7.5-3.8c4,5.3,8.8,12.7,11.7,22L-21,224.1z M-26.1,256.5v-2.7l-14.5,0.3v2.7
			l-9.1,0.2l-0.5-31l32.6-0.6l0.5,31L-26.1,256.5z M-26.5,233.7L-41,234l0.2,11.5l14.5-0.3L-26.5,233.7z"/>
	</g>
	<g>
		<path class="st3" d="M10.6,257.4H-3.1c-0.3,0-0.6-0.1-0.8-0.4s-0.3-0.6-0.2-0.9l2.8-13.9c0.1-0.5,0.6-0.9,1.1-0.9h13.7
			c0.3,0,0.6,0.1,0.8,0.4s0.3,0.6,0.2,0.9l-2.8,13.9C11.6,257,11.2,257.4,10.6,257.4z M-1.7,255.2H9.8l2.3-11.7H0.6L-1.7,255.2z
			 M14.4,236.9h-13c-0.3,0-0.6-0.1-0.9-0.4c-0.2-0.3-0.3-0.6-0.2-0.9l9.2-46c0.1-0.5,0.6-0.9,1.1-0.9h13c0.3,0,0.6,0.1,0.9,0.4
			c0.2,0.3,0.3,0.6,0.2,0.9l-9.2,46C15.3,236.5,14.9,236.9,14.4,236.9z M2.7,234.7h10.8l8.7-43.8H11.4L2.7,234.7z"/>
		<path class="st2" d="M-0.3,242.4h13.7l-2.8,13.9H-3.1L-0.3,242.4z M10.5,189.7h13l-9.2,46h-13L10.5,189.7z"/>
	</g>
</g>
</svg>
