<?xml version="1.0" encoding="utf-8"?>
<!-- Generator: Adobe Illustrator 23.0.0, SVG Export Plug-In . SVG Version: 6.00 Build 0)  -->
<svg version="1.1" id="レイヤー_1" xmlns="http://www.w3.org/2000/svg" xmlns:xlink="http://www.w3.org/1999/xlink" x="0px"
	 y="0px" width="44.3px" height="40.9px" viewBox="0 0 44.3 40.9" style="enable-background:new 0 0 44.3 40.9;"
	 xml:space="preserve">
<path d="M33,5.6c-0.3,0-0.7,0.2-1,0.5c-0.2,0.3-0.3,0.9,0.1,1.1c0.4,0.3,0.8,0.2,0.9-0.1c0.1-0.3,0.3-1.1,0.4-1.3
	C33.5,5.6,33.3,5.6,33,5.6z M34.3,6.1c0,0.2-0.1,1-0.2,1.3c0,0.3,0.3,0.5,0.8,0.4s0.6-0.6,0.5-1S34.9,6.1,34.7,6
	C34.5,6,34.4,5.9,34.3,6.1z M33.8,8.8c0-0.1-0.3-0.7-0.4-0.7c-0.1,0-0.7,0.3-0.7,0.4C32.7,8.7,33.7,9,33.8,8.8z M39,3.1
	c-3.7-2.6-6.5-3.3-10.7-3c-4.1,0.3-8.4,2.5-11.1,5.5s-4.8,5.9-7,7.6c-2.1,1.7-5,3.2-6.8,3.6C1.9,17.1,0,17,0,17l4.8,9
	c0,0,3.4-2.8,8.6-5.5c3.3-1.7,6.4-2.7,9.9-2.9c-0.6,0.4-4.7,3.2-4.9,3.3c-0.1,0.1,0,0.4,0.2,0.3s0.8-0.4,2.3-0.3
	c1.4,0.2,2.1,1.1,2.2,1.2c0,0.1,0.7,0.8,1.5,1.6h-2.5h-0.7h-0.3c-0.8,0-1.5,0.6-1.5,1.4s0.6,1.4,1.5,1.4h1l0,0h4.1
	c0.3,0,0.4-0.2,0.5-0.4c0.1-0.2,0.4-0.8,1.3-1.3c0.7-0.4,1.6-0.1,2.1,0.1v0.5l0,0v0.1l0.4,6.7c-1,0-3.8,0.2-4.1,0.2
	c-0.3,0-0.6-0.2-0.6-0.5c0-0.3,0-0.4,0-0.4l-3.7,0.2c0,0-0.3,1.4-1.2,2.3c-0.9,0.9-2.3,2.1-5.5,1.8s-6-3.3-7.3-4.9
	c-1.3-1.7-1.9-2.6-1.9-2.6s-0.7-0.9-0.8-0.9c-0.1,0-0.1,0.1-0.1,0.1c0.6,1.2,1.3,2.4,1.7,3.1c1.6,2.8,3.1,5.6,4.5,6.9s4,3.4,6.5,3.5
	h0.6l6.8-6.1h4.3l2.1,5.2c0,0,0.1,0.1,0.2,0.1s0.1-0.1,0.1-0.1s2.3-5.6,2.9-7.5l1.2-3.1v-0.1h-0.1c-0.8,2.1-2.2,4.1-3.4,4.1
	c-1.1,0-1.8-1.1-1.9-1.2L30.6,27c0.6,1.2,1.8,1.9,3.1,1.9c1.4,0,2.6-0.9,3.2-2.1c0.9-1.3,1.4-2.8,1.5-3.2l0,0L44.3,9
	C44.3,9,42.7,5.6,39,3.1z M30.2,6.1c0.3-1.7,2-2.8,3.9-2.4c1.9,0.4,3.2,2.2,3,3.9C36.9,8.9,36,9.7,34.7,10c-0.2,0-0.3,0.2-0.4,0.4
	c-0.1,0.2-0.2,0.5-0.2,0.7c-0.1,0.2-0.3,0.5-0.3,0.5l-2-0.4c0,0-0.1-0.6-0.1-0.7c0-0.1,0-0.3,0-0.5s0-0.5-0.1-0.6
	C30.7,8.4,30,7.3,30.2,6.1z M26.2,26.3h-3.4c0.4-0.2,0.7-0.7,0.7-1.2c0-0.3-0.1-0.5-0.2-0.7l1.7-0.2c0.7,0.7,1.3,1.4,1.6,1.7
	C26.5,26.1,26.4,26.3,26.2,26.3z M30.3,24.7l-6.8-7.2c1.1-0.1,2.3-0.1,3.5,0l4.3,5.1C30.8,23.2,30.4,23.9,30.3,24.7z M38,23.8
	c-0.1,0.4-0.4,1-0.7,1.6c0-0.1,0,0,0-0.1c0-2.1-1.6-3.5-3.6-3.5c-0.8,0-1.6,0.3-2.2,0.8l-4.1-4.9c0.4,0,0.9,0.1,1.4,0.1
	C36,18.6,38.2,22.6,38,23.8z M38.3,12.3c-0.2,0-0.4-0.1-0.5-0.2c-0.1-0.1-0.7-0.1-1,0l-3.6,1.3l1.9,2.1c0.2,0.2,0.5,0.3,0.8,0.2
	c0.4-0.1,0.8,0,1,0.4c0.2,0.4,0,0.8-0.4,1c-0.1,0-0.2,0.1-0.3,0.1c0,0-0.2,0-0.2,0.1l-0.1,0.2c0,0.3-0.1,0.6-0.4,0.8
	c-0.4,0.2-0.8,0-1-0.4c-0.1-0.2-0.1-0.4,0-0.6s-0.2-0.7-0.4-0.9L31.8,14l-3.2,1.2c-0.3,0.1-0.5,0.3-0.6,0.6
	c-0.1,0.4-0.3,0.8-0.7,0.8c-0.4,0-0.8-0.3-0.8-0.7c0-0.1,0-0.2,0-0.3v-0.2c0-0.1-0.1-0.1-0.1-0.1C26.2,15,26,14.7,26,14.4
	c0-0.4,0.3-0.8,0.7-0.8c0.2,0,0.4,0.1,0.5,0.2c0.1,0.1,0.6,0.2,1,0l2.7-1l-2.5-2.7c-0.2-0.2-0.5-0.4-0.8-0.3c-0.4,0.1-0.8,0-1-0.4
	s0-0.8,0.4-1c0.1,0,0.2-0.1,0.3-0.1c0,0,0.2,0,0.2-0.1L27.6,8c0-0.3,0.1-0.6,0.4-0.8c0.4-0.2,0.8,0,1,0.4c0.1,0.2,0.1,0.4,0,0.6
	s0.1,0.6,0.3,1l2.9,3.1l4.1-1.5c0.3-0.1,0.5-0.4,0.5-0.7c0-0.4,0.3-0.8,0.7-0.8s0.8,0.3,0.8,0.7c0,0.1,0,0.2,0,0.3v0.2
	c0,0.1,0.1,0.1,0.1,0.1c0.3,0.1,0.5,0.4,0.5,0.7C39,11.9,38.7,12.3,38.3,12.3z"/>
</svg>
