<?xml version="1.0" encoding="utf-8"?>
<!-- Generator: Adobe Illustrator 23.0.0, SVG Export Plug-In . SVG Version: 6.00 Build 0)  -->
<svg version="1.1" id="レイヤー_1" xmlns="http://www.w3.org/2000/svg" xmlns:xlink="http://www.w3.org/1999/xlink" x="0px"
	 y="0px" width="284px" height="36px" viewBox="0 0 284 36" style="enable-background:new 0 0 284 36;" xml:space="preserve">
<g>
	<path d="M13,29.5c0-2.3-1.2-4.3-3-5.5V0H3v24c-1.8,1.2-3,3.2-3,5.5C0,33.1,2.9,36,6.5,36S13,33.1,13,29.5z M4,29.5
		C4,28.1,5.1,27,6.5,27S9,28.1,9,29.5S7.9,32,6.5,32S4,30.9,4,29.5z"/>
</g>
<g>
	<path d="M43.1,29.5c0-2.3-1.2-4.3-3-5.5V0h-7v24c-1.8,1.2-3,3.2-3,5.5c0,3.6,2.9,6.5,6.5,6.5S43.1,33.1,43.1,29.5z M34.1,29.5
		c0-1.4,1.1-2.5,2.5-2.5s2.5,1.1,2.5,2.5S38,32,36.6,32S34.1,30.9,34.1,29.5z"/>
</g>
<g>
	<path d="M73.2,29.5c0-2.3-1.2-4.3-3-5.5V0h-7v24c-1.8,1.2-3,3.2-3,5.5c0,3.6,2.9,6.5,6.5,6.5S73.2,33.1,73.2,29.5z M64.2,29.5
		c0-1.4,1.1-2.5,2.5-2.5s2.5,1.1,2.5,2.5S68.1,32,66.7,32S64.2,30.9,64.2,29.5z"/>
</g>
<g>
	<path d="M103.3,29.5c0-2.3-1.2-4.3-3-5.5V0h-7v24c-1.8,1.2-3,3.2-3,5.5c0,3.6,2.9,6.5,6.5,6.5S103.3,33.1,103.3,29.5z M94.3,29.5
		c0-1.4,1.1-2.5,2.5-2.5s2.5,1.1,2.5,2.5S98.2,32,96.8,32S94.3,30.9,94.3,29.5z"/>
</g>
<g>
	<path d="M133.4,29.5c0-2.3-1.2-4.3-3-5.5V0h-7v24c-1.8,1.2-3,3.2-3,5.5c0,3.6,2.9,6.5,6.5,6.5C130.5,36,133.4,33.1,133.4,29.5z
		 M124.4,29.5c0-1.4,1.1-2.5,2.5-2.5c1.4,0,2.5,1.1,2.5,2.5s-1.1,2.5-2.5,2.5C125.5,32,124.4,30.9,124.4,29.5z"/>
</g>
<g>
	<path d="M163.5,29.5c0-2.3-1.2-4.3-3-5.5V0h-7v24c-1.8,1.2-3,3.2-3,5.5c0,3.6,2.9,6.5,6.5,6.5C160.6,36,163.5,33.1,163.5,29.5z
		 M154.5,29.5c0-1.4,1.1-2.5,2.5-2.5c1.4,0,2.5,1.1,2.5,2.5S158.4,32,157,32C155.6,32,154.5,30.9,154.5,29.5z"/>
</g>
<g>
	<path d="M193.6,29.5c0-2.3-1.2-4.3-3-5.5V0h-7v24c-1.8,1.2-3,3.2-3,5.5c0,3.6,2.9,6.5,6.5,6.5C190.7,36,193.6,33.1,193.6,29.5z
		 M184.6,29.5c0-1.4,1.1-2.5,2.5-2.5c1.4,0,2.5,1.1,2.5,2.5s-1.1,2.5-2.5,2.5C185.7,32,184.6,30.9,184.6,29.5z"/>
</g>
<g>
	<path d="M223.8,29.5c0-2.3-1.2-4.3-3-5.5V0h-7v24c-1.8,1.2-3,3.2-3,5.5c0,3.6,2.9,6.5,6.5,6.5C220.9,36,223.8,33.1,223.8,29.5z
		 M214.8,29.5c0-1.4,1.1-2.5,2.5-2.5c1.4,0,2.5,1.1,2.5,2.5s-1.1,2.5-2.5,2.5C215.9,32,214.8,30.9,214.8,29.5z"/>
</g>
<g>
	<path d="M253.9,29.5c0-2.3-1.2-4.3-3-5.5V0h-7v24c-1.8,1.2-3,3.2-3,5.5c0,3.6,2.9,6.5,6.5,6.5C251,36,253.9,33.1,253.9,29.5z
		 M244.9,29.5c0-1.4,1.1-2.5,2.5-2.5c1.4,0,2.5,1.1,2.5,2.5s-1.1,2.5-2.5,2.5C246,32,244.9,30.9,244.9,29.5z"/>
</g>
<g>
	<path d="M284,29.5c0-2.3-1.2-4.3-3-5.5V0h-7v24c-1.8,1.2-3,3.2-3,5.5c0,3.6,2.9,6.5,6.5,6.5S284,33.1,284,29.5z M275,29.5
		c0-1.4,1.1-2.5,2.5-2.5s2.5,1.1,2.5,2.5s-1.1,2.5-2.5,2.5S275,30.9,275,29.5z"/>
</g>
</svg>
