<?xml version="1.0" encoding="utf-8"?>
<!-- Generator: Adobe Illustrator 19.0.0, SVG Export Plug-In . SVG Version: 6.00 Build 0)  -->
<svg version="1.1" xmlns="http://www.w3.org/2000/svg" xmlns:xlink="http://www.w3.org/1999/xlink" x="0px" y="0px"
	 viewBox="0 0 494.5 217.1" style="enable-background:new 0 0 494.5 217.1;" xml:space="preserve">
<style type="text/css">
	.st0{fill:#FFFFFF;stroke:#E60044;stroke-width:1.4173;stroke-miterlimit:10;}
	.st1{fill:none;stroke:#EB6EA5;stroke-width:0.8504;stroke-miterlimit:10;}
	.st2{fill:none;stroke:#EB6EA5;stroke-width:0.8504;stroke-miterlimit:10;stroke-dasharray:2.8986,2.8986;}
	.st3{fill:none;stroke:#EB6EA5;stroke-width:0.8504;stroke-miterlimit:10;stroke-dasharray:2.8987,2.8987;}
	.st4{fill:#231815;}
	.st5{fill-rule:evenodd;clip-rule:evenodd;fill:#FFFFFF;stroke:#FFFFFF;stroke-width:5.6693;stroke-miterlimit:10;}
	.st6{fill:#FFFFFF;stroke:#FFFFFF;stroke-width:5.6693;stroke-miterlimit:10;}
	.st7{fill:#FFFFFF;}
	.st8{fill-rule:evenodd;clip-rule:evenodd;fill:#FFFFFF;stroke:#FFFFFF;stroke-miterlimit:10;}
	.st9{fill-rule:evenodd;clip-rule:evenodd;fill:#00A73C;}
	
		.st10{fill-rule:evenodd;clip-rule:evenodd;fill:#EB6EA5;stroke:#FFFFFF;stroke-width:5.6693;stroke-linecap:round;stroke-linejoin:round;stroke-miterlimit:10;}
	
		.st11{fill-rule:evenodd;clip-rule:evenodd;fill:#00B9EF;stroke:#FFFFFF;stroke-width:5.6693;stroke-linecap:round;stroke-linejoin:round;stroke-miterlimit:10;}
	.st12{fill-rule:evenodd;clip-rule:evenodd;fill:#00A0E9;}
	.st13{fill-rule:evenodd;clip-rule:evenodd;fill:#E60012;}
	.st14{fill-rule:evenodd;clip-rule:evenodd;fill:#150301;}
	.st15{fill-rule:evenodd;clip-rule:evenodd;fill:#54C3F1;}
	.st16{fill-rule:evenodd;clip-rule:evenodd;fill:#A40000;}
	.st17{fill:#A64A97;}
	.st18{fill:#E4007F;}
	.st19{fill:#E60012;}
	.st20{fill:#150301;}
	.st21{fill:#E85298;}
	.st22{fill-rule:evenodd;clip-rule:evenodd;fill:#EA5504;}
	.st23{fill-rule:evenodd;clip-rule:evenodd;fill:#EB6EA5;}
	.st24{fill-rule:evenodd;clip-rule:evenodd;fill:#E85298;}
</style>
<g id="レイヤー_2">
</g>
<g id="勉強枠">
	
		<rect x="220.4" y="189.3" transform="matrix(0.9962 8.739281e-002 -8.739281e-002 0.9962 17.9896 -19.091)" class="st0" width="13.3" height="13.3"/>
	
		<rect x="221.6" y="176.1" transform="matrix(0.9962 8.739281e-002 -8.739281e-002 0.9962 16.8398 -19.2425)" class="st0" width="13.3" height="13.3"/>
	
		<rect x="219.2" y="202.5" transform="matrix(0.9962 8.709357e-002 -8.709357e-002 0.9962 19.0707 -18.8773)" class="st0" width="13.3" height="13.3"/>
	
		<rect x="119.3" y="106.6" transform="matrix(0.9962 8.715833e-002 -8.715833e-002 0.9962 14.4858 -14.3305)" class="st0" width="104.2" height="104.2"/>
	
		<rect x="9.1" y="102.9" transform="matrix(0.9848 -0.1737 0.1737 0.9848 -25.9823 12.9741)" class="st0" width="104.2" height="104.2"/>
	<g>
		
			<rect x="104.4" y="93.4" transform="matrix(0.9848 -0.1734 0.1734 0.9848 -15.664 20.7812)" class="st0" width="13.3" height="13.3"/>
		
			<rect x="106.7" y="106.4" transform="matrix(0.9848 -0.1737 0.1737 0.9848 -17.9166 21.4114)" class="st0" width="13.3" height="13.3"/>
	</g>
	<g>
		<g>
			<line class="st1" x1="122.3" y1="154.4" x2="123.7" y2="154.6"/>
			<line class="st2" x1="126.6" y1="154.8" x2="217.6" y2="162.8"/>
			<line class="st1" x1="219" y1="162.9" x2="220.4" y2="163"/>
		</g>
	</g>
	<g>
		<g>
			<line class="st1" x1="167.1" y1="207.8" x2="167.2" y2="206.4"/>
			<line class="st3" x1="167.4" y1="203.5" x2="175.4" y2="112.5"/>
			<line class="st1" x1="175.5" y1="111.1" x2="175.6" y2="109.7"/>
		</g>
	</g>
	<g>
		<g>
			<g>
				<line class="st1" x1="12.9" y1="163.5" x2="14.3" y2="163.2"/>
				<line class="st2" x1="17.2" y1="162.7" x2="107.1" y2="146.9"/>
				<line class="st1" x1="108.5" y1="146.6" x2="109.9" y2="146.4"/>
			</g>
		</g>
		<g>
			<g>
				<line class="st1" x1="70" y1="203.4" x2="69.7" y2="202"/>
				<line class="st3" x1="69.2" y1="199.2" x2="53.4" y2="109.2"/>
				<line class="st1" x1="53.1" y1="107.8" x2="52.9" y2="106.4"/>
			</g>
		</g>
	</g>
	<g>
		
			<rect x="220.4" y="189.3" transform="matrix(0.9962 8.739281e-002 -8.739281e-002 0.9962 17.9896 -19.091)" class="st0" width="13.3" height="13.3"/>
		
			<rect x="221.6" y="176.1" transform="matrix(0.9962 8.739281e-002 -8.739281e-002 0.9962 16.8398 -19.2425)" class="st0" width="13.3" height="13.3"/>
		
			<rect x="219.2" y="202.5" transform="matrix(0.9962 8.709357e-002 -8.709357e-002 0.9962 19.0707 -18.8773)" class="st0" width="13.3" height="13.3"/>
		<g>
			<path class="st4" d="M229.9,187c0,0.3-0.3,0.5-0.8,0.5c-0.3,0-0.6,0-0.8,0c-1.8-0.2-2.8-0.9-2.7-2c0-0.1,0-0.2,0.1-0.4
				c0.2-0.8,1.1-1.2,2.4-1.1c0.4,0,0.9,0.1,1.4,0.3c0.1,0,0.1,0,0.2,0c0.1,0,0.1,0,0.1-0.1c0,0,0-0.1,0-0.1c-0.2-0.3-0.4-0.7-0.6-1
				c-0.6,0.1-1.2,0.1-1.6,0.1c-1.3-0.1-1.8-0.7-1.7-1.2l0,0c0-0.1,0-0.2,0.1-0.2c0,0,0,0,0.1,0.1c0.2,0.3,0.6,0.5,1.3,0.6
				c0.5,0,1,0,1.6-0.1c-0.1-0.2-0.3-0.6-0.4-0.8c-0.3,0-0.6,0-0.9,0c-0.8-0.1-1.2-0.3-1.3-0.9c0,0,0-0.1,0-0.1c0,0,0,0,0,0
				c0,0,0.1,0,0.1,0.1c0.2,0.1,0.4,0.2,0.7,0.3c0.3,0,0.6,0,1,0c-0.1-0.3-0.2-0.6-0.3-0.8c-0.1-0.3-0.4-0.5-0.7-0.5
				c-0.1,0-0.1,0-0.2,0c0,0,0,0-0.1,0c0,0-0.1,0-0.1-0.1c0,0,0-0.1,0.1-0.1c0.2-0.3,0.6-0.4,1-0.3c0.3,0,0.6,0.1,0.7,0.3
				c0.2,0.2,0.2,0.3,0.1,0.5l0,0c0,0.1,0,0.3,0,0.5c0,0.1,0.1,0.3,0.2,0.4c0.4-0.1,0.7-0.2,1-0.3c0.2-0.1,0.4-0.1,0.5-0.1
				c0.3,0,0.4,0.2,0.4,0.4c0,0.2-0.2,0.4-0.5,0.5c-0.1,0.1-0.2,0.1-0.3,0.1c0.3,0.1,0.5,0.2,0.6,0.2c0.1,0,0.3,0,0.4,0
				c0,0,0.1,0,0.1,0c0.2,0,0.5,0.2,0.4,0.5c0,0.1,0,0.2-0.1,0.3c-0.3,0.4-1,0.6-1.6,0.7c0.3,0.5,0.6,0.9,0.9,1.2
				c0.3,0.3,0.5,0.8,0.4,1.1c0,0.2-0.1,0.3-0.2,0.4c-0.1,0-0.2,0-0.2,0c-0.3,0-0.7-0.4-0.9-0.6c-0.5-0.5-1.2-0.8-2-0.9
				c-0.8-0.1-1.6,0.2-1.7,0.9l0,0c-0.1,0.6,0.4,1.1,1.6,1.2c0.3,0,0.5,0,0.9,0c0.2,0,0.4,0,0.5,0C229.6,186.5,229.9,186.6,229.9,187
				L229.9,187z M229.1,181.5c0.1,0.2,0.2,0.5,0.3,0.7c0.3-0.1,0.6-0.2,0.7-0.2c0.1,0,0.1-0.1,0.1-0.2c0-0.1,0-0.1,0-0.2
				c0-0.1-0.2-0.3-0.3-0.3C229.8,181.4,229.4,181.5,229.1,181.5z"/>
			<path class="st4" d="M228.8,197.1c-0.1,0.7-0.7,0.9-1.3,0.8c-0.7-0.1-1.5-0.5-1.4-1.1l0,0c0.1-0.7,0.7-1,1.5-0.9
				c0.2,0,0.4,0.1,0.6,0.1c0-0.6,0-1.2,0.1-1.7c0-0.4,0.1-0.8,0.1-1.3l0,0c0-0.3-0.1-0.6-0.4-0.8c-0.1,0-0.1,0-0.1-0.1s0,0,0.1-0.1
				c0.1-0.1,0.3-0.1,0.5-0.1c0.4,0,0.9,0.4,0.9,0.8l0,0c0,0.3-0.2,0.2-0.2,0.5c0,0.2-0.1,0.3-0.1,0.6c0.6,0,0.8-0.2,1.3-0.2
				c0,0,0,0,0,0c0,0,0,0,0.1,0c0.3,0,0.5,0.2,0.5,0.4l0,0.1c0,0.2-0.3,0.3-0.6,0.3c-0.4,0-0.7,0-1,0l-0.1,0c-0.1,0-0.1,0-0.1,0
				c-0.1,0-0.1,0-0.1,0c0,0.2-0.1,0.4-0.1,0.6c0,0.5,0,0.9,0,1.2c0.5,0.2,1.1,0.5,1.4,0.8c0.2,0.2,0.3,0.4,0.3,0.6
				c0,0.2-0.2,0.4-0.4,0.4c-0.1,0-0.3-0.1-0.4-0.2C229.4,197.4,229.1,197.2,228.8,197.1L228.8,197.1z M226.4,196.7
				c0,0.3,0.5,0.5,0.9,0.5c0.4,0,0.7-0.1,0.8-0.3c0-0.1,0-0.2,0-0.3c-0.3-0.1-0.6-0.2-0.9-0.2C226.8,196.3,226.4,196.4,226.4,196.7
				L226.4,196.7z"/>
			<path class="st4" d="M226.9,208.2c-0.8-0.1-1.8,0.4-2.3,1c-0.2,0.3-0.5,0.5-0.8,0.5l0,0c-0.4-0.1-0.8-0.5-0.7-1.1
				c0-0.1,0-0.2,0.1-0.3c0-0.1,0.1-0.1,0.1-0.1c0,0,0.1,0,0.1,0.1c0.1,0.1,0.2,0.2,0.3,0.2c0.1,0,0.3,0,0.4-0.1
				c1-0.4,1.9-0.6,2.6-0.6c0.1,0,0.2,0,0.2,0c1,0.1,2.2,0.6,2,2.2c0,0.1,0,0.2,0,0.2c-0.3,2-2.3,3.3-4.9,3.5c0,0-0.1,0-0.1,0
				c-0.1,0-0.1,0-0.1-0.1c0,0,0.1-0.1,0.2-0.1c2.1-0.4,3.6-2,4-3.5c0-0.1,0-0.2,0.1-0.3C228.2,208.8,227.8,208.2,226.9,208.2
				L226.9,208.2z M228.4,206.7c0,0.2-0.3,0.3-0.6,0.3c-0.1,0-0.1,0-0.2,0c-0.1,0-0.3-0.1-0.4-0.1c-0.3,0-0.7,0-1.5,0.3
				c-0.1,0-0.1,0-0.1,0c0,0,0,0,0,0c0,0,0,0,0.1-0.1c0.3-0.2,0.6-0.4,0.8-0.5c0.1,0,0.1-0.1,0.1-0.1c0-0.1-0.1-0.1-0.2-0.1
				c-0.7-0.1-1.3-0.5-1.4-1.3c0,0,0,0,0-0.1c0,0,0,0,0,0c0,0,0,0,0.1,0.1c0.5,0.7,1.6,0.5,2.6,0.8
				C228.1,205.9,228.4,206.2,228.4,206.7L228.4,206.7z"/>
		</g>
	</g>
	<g>
		<path class="st4" d="M106.9,101.6c0-0.1,0-0.1,0.1-0.1c0,0,0.1,0,0.1,0c0.1,0,0.2,0,0.3,0c0.1,0,0.3-0.1,0.4-0.2
			c0.5-0.5,0.9-1.2,1.3-1.8c0.3-0.4,0.6-0.6,0.9-0.7c0.3-0.1,0.7,0,1.1,0.3c1.5,1.1,3.1,2.1,4.5,2.4c0.5,0.1,0.8,0.4,0.8,0.7
			c0,0.3-0.1,0.5-0.4,0.6c-0.2,0-0.4,0-0.6-0.1c-2.2-0.7-3.6-2.3-4.8-3.3c-0.2-0.2-0.4-0.2-0.6-0.2c-0.2,0-0.4,0.2-0.6,0.5
			c-0.3,0.7-0.5,1.1-0.7,1.8c-0.2,0.5-0.2,0.7-0.6,0.9c-0.1,0-0.1,0-0.2,0.1C107.6,102.6,107,102.2,106.9,101.6L106.9,101.6z
			 M113.6,99.1c-0.3-0.4-0.7-0.5-1.1-0.7c-0.1,0-0.1-0.1-0.1-0.1c0,0,0,0,0.1-0.1c0.1,0,0.1,0,0.2,0c0.4-0.1,0.9,0,1.2,0.3
			c0.2,0.1,0.2,0.3,0.3,0.4c0,0.2-0.1,0.3-0.2,0.4C113.9,99.3,113.8,99.3,113.6,99.1z M114.5,98.4c-0.3-0.3-0.8-0.5-1.2-0.6
			c-0.1,0-0.1,0-0.1-0.1c0,0,0,0,0.1-0.1c0.1,0,0.2-0.1,0.4-0.1c0.4-0.1,0.8,0,1.1,0.2c0.2,0.1,0.3,0.3,0.3,0.4
			c0,0.2-0.1,0.3-0.2,0.4C114.7,98.5,114.6,98.5,114.5,98.4z"/>
		<path class="st4" d="M117.8,113c0.3,1.9-0.6,3.3-1.9,3.6c-0.2,0-0.5,0-0.7,0c-1-0.1-1.2-0.9-1.4-1.6c0-0.2-0.1-0.4-0.1-0.6
			c0-0.3-0.1-0.5-0.3-0.6c-0.1-0.1-0.3-0.1-0.4-0.1c-0.7,0.1-1.8,1.2-1.7,2.9c0,0.3-0.1,0.8-0.5,0.9c0,0-0.1,0-0.1,0
			c-0.3,0-0.5-0.3-0.6-0.6c0-0.1,0-0.2,0-0.3c0-1,0.6-1.8,1.9-5.8c0.1-0.3,0.1-0.6,0.1-0.9c0-0.2-0.1-0.4-0.2-0.4
			c-0.1,0-0.2-0.1-0.2-0.1s0-0.1,0.2-0.1l0,0c0.7-0.1,1.4,0.4,1.5,1l0,0c0.1,0.6-0.3,0.7-0.5,1.1c-0.8,1.3-1.1,1.9-1.5,3.1
			c0,0.1,0,0.1,0,0.1c0,0,0,0,0,0c0,0,0.1,0,0.1-0.1c0.4-0.6,1.2-1.4,1.9-1.5c0.1,0,0.3,0,0.4,0c0.6,0.1,0.8,0.7,0.8,1.2l0.1,0.5
			c0.1,0.5,0.2,0.9,0.7,1c0.1,0,0.3,0,0.5,0c0.8-0.1,1.7-0.8,1.8-2.6c0-0.1,0-0.2,0.1-0.2C117.8,112.8,117.8,112.8,117.8,113
			L117.8,113z"/>
	</g>
</g>
<g id="シロフチ">
	<path class="st5" d="M228.2,153.4v5.2h37.4c-7.3,5.2-12.1,13.7-12.1,23.3c0,15.7,12.7,28.5,28.5,28.5v-12.9
		c-8.6,0-15.5-6.9-15.5-15.5c0-8.6,7-15.5,15.5-15.5v-7.8v-5.2H228.2z"/>
	<polygon class="st6" points="283.8,148.4 282,146.6 277,151.6 272,146.6 270.1,148.4 275.1,153.4 270.1,158.4 272,160.2 277,155.2 
		282,160.2 283.8,158.4 278.8,153.4 	"/>
	<polygon class="st7" points="298.2,158.4 296.8,161.4 294.8,158.1 	"/>
	<circle class="st8" cx="59.1" cy="77.7" r="9.8"/>
	<circle class="st8" cx="306" cy="91.9" r="9.8"/>
	<circle class="st8" cx="391.4" cy="198" r="9.8"/>
	<polygon class="st6" points="222.7,137.3 233.1,137.3 233.1,122.1 238.5,122.1 238.5,143.1 235.6,143.1 235.6,148.2 238.5,148.2 
		248.9,148.2 248.9,143.1 248.9,122.1 248.9,116.9 238.5,116.9 233.1,116.9 233.1,109.9 225.3,109.9 222.7,109.9 222.7,116.9 
		217.6,116.9 217.6,122.1 222.7,122.1 222.7,126.9 	"/>
	
		<rect x="244.2" y="111.7" transform="matrix(-0.4999 -0.8661 0.8661 -0.4999 282.6976 396.9385)" class="st6" width="23.5" height="10.3"/>
	<polygon class="st6" points="26.6,7.9 16.2,7.9 13.6,7.9 13.6,53.4 13.6,79.1 13.6,85.6 26.6,85.6 36.9,85.6 36.9,79.1 26.6,79.1 	
		"/>
	<path class="st6" d="M77.4,22.6h13.9c-1.7-1.6-2.7-3.9-2.7-6.5c0-2.5,1-4.8,2.7-6.5H37.5v12.9h26.9v11.3H37.5v12.9h26.9v12.5h-5.2
		c-10,0-18.1,8.1-18.1,18.1c0,10,8.1,18.1,18.1,18.1c10,0,18.1-8.1,18.1-18.1v-5.2h18.8V59.2H77.4V46.8h20.2V33.8H77.4V22.6z
		 M59.3,82.5c-2.9,0-5.2-2.3-5.2-5.2c0-2.9,2.3-5.2,5.2-5.2c2.9,0,5.2,2.3,5.2,5.2C64.4,80.2,62.1,82.5,59.3,82.5z"/>
	<polygon class="st6" points="141.3,9.8 114,42.4 114,42.4 105.4,52.6 141.3,95.4 151.2,87.1 122.3,52.6 151.2,18.2 	"/>
	<polygon class="st6" points="173.7,44.6 163.4,44.6 160.8,44.6 160.8,51 151.6,51 151.6,57.5 160.8,57.5 160.8,75.9 160.8,95.2 
		173.7,95.2 173.7,57.5 180.7,57.5 180.7,51 173.7,51 	"/>
	<polygon class="st6" points="181.2,65.3 181.2,71.8 194.1,71.8 194.1,78.3 204.4,78.3 204.4,71.8 204.4,65.3 194.1,65.3 	"/>
	<rect x="181.2" y="88.7" class="st6" width="23.3" height="6.5"/>
	<polygon class="st6" points="288.7,95.2 288.7,88.7 280.2,88.7 280.2,44.6 269.9,44.6 267.3,44.6 267.3,73.8 267.3,88.7 
		267.3,95.2 280.2,95.2 	"/>
	<path class="st6" d="M319.1,91.5v-6.5h6.6v-6.5h-6.6V61.4h8.6v-6.5h-8.6V44.6h-12.9v10.3H288v6.5h18.3v17.2h0
		c-7.1,0-12.9,5.8-12.9,12.9c0,7.1,5.8,12.9,12.9,12.9C313.4,104.5,319.1,98.7,319.1,91.5z M299.7,91.5c0-3.6,2.9-6.5,6.5-6.5
		c3.6,0,6.5,2.9,6.5,6.5c0,3.6-2.9,6.5-6.5,6.5C302.6,98,299.7,95.1,299.7,91.5z"/>
	<polygon class="st6" points="218.7,69.1 218.7,74.4 218.7,80.8 218.7,80.8 231.7,80.8 231.7,80.8 247.2,80.8 247.2,88.7 
		218.7,88.7 218.7,95.2 257.5,95.2 257.5,92.8 257.5,88.7 257.5,80.8 257.5,74.4 231.7,74.4 231.7,62.4 261.7,62.4 261.7,55.9 
		231.7,55.9 231.7,44.6 221.3,44.6 218.7,44.6 218.7,55.9 209.9,55.9 209.9,62.4 218.7,62.4 	"/>
	<polygon class="st6" points="295.2,153.2 290.2,158.2 285.2,153.2 283.3,155 288.3,160.1 283.3,165.1 285.2,166.9 290.2,161.9 
		295.2,166.9 297,165.1 292,160.1 297,155 	"/>
	<polygon class="st6" points="337.5,146.8 329.7,146.8 327.1,146.8 327.1,153.4 299.7,153.4 299.7,158.6 327.1,158.6 327.1,165.5 
		307.5,165.5 307.5,170.7 327.1,170.7 327.1,176.3 327.1,186.8 337.5,186.8 337.5,170.7 348.9,170.7 348.9,165.5 337.5,165.5 
		337.5,158.6 348.9,158.6 348.9,153.4 337.5,153.4 	"/>
	<rect x="406.6" y="153.4" class="st6" width="10.3" height="21.1"/>
	<path class="st6" d="M401.3,166.8h-10.4v20.7c-5.7,0-10.3,4.6-10.3,10.3c0,5.7,4.6,10.3,10.3,10.3c5.7,0,10.3-4.6,10.3-10.3v-5.2
		h7.8v-5.2h-7.8V166.8z M390.9,203c-2.9,0-5.2-2.3-5.2-5.2c0-2.9,2.3-5.2,5.2-5.2c2.9,0,5.2,2.3,5.2,5.2
		C396.1,200.7,393.8,203,390.9,203z"/>
	<polygon class="st6" points="311.9,177 301.6,177 301.6,205.2 301.6,208.5 301.6,210.3 345.5,210.3 345.5,205.2 311.9,205.2 	"/>
	<polygon class="st6" points="387,158.6 387,153.4 375.2,153.4 375.2,146.8 367.4,146.8 364.8,146.8 364.8,153.4 354.4,153.4 
		354.4,158.6 364.8,158.6 364.8,168.2 364.8,181.9 375.2,181.9 375.2,158.6 	"/>
	<rect x="463" y="153.4" class="st6" width="10.4" height="30.7"/>
	<polygon class="st6" points="432.9,153.4 425.1,153.4 422.5,153.4 422.5,184.2 422.5,195 422.5,200.1 432.9,200.1 444.7,200.1 
		444.7,195 432.9,195 	"/>
	<g>
		<path class="st9" d="M276.5,113.3c-3.5,0-6.3-2.8-6.3-6.3c0-3.5,2.8-6.3,6.3-6.3c3.5,0,6.3,2.8,6.3,6.3
			C282.8,110.4,280,113.3,276.5,113.3z"/>
		<path class="st7" d="M276.5,102c2.7,0,4.9,2.2,4.9,4.9c0,2.7-2.2,4.9-4.9,4.9c-2.7,0-4.9-2.2-4.9-4.9
			C271.6,104.2,273.8,102,276.5,102 M276.5,99.2c-4.3,0-7.7,3.5-7.7,7.7c0,4.3,3.5,7.7,7.7,7.7c4.3,0,7.7-3.5,7.7-7.7
			C284.2,102.7,280.8,99.2,276.5,99.2L276.5,99.2z"/>
	</g>
	<g>
		<circle class="st10" cx="468.5" cy="209.5" r="4.7"/>
		<path class="st11" d="M490.9,179.9c1.7-2.4,0.4-6.3-2.4-7.8c-2.8-1.5-6.8-0.5-7.8,2.4c-1,2.9-9.3,25.7-9.7,26.9
			c-0.4,1.2-0.1,1.9,0.7,2.4c0.9,0.5,1.7,0.3,2.4-0.7C474.7,202.2,489.1,182.3,490.9,179.9z"/>
	</g>
</g>
<g id="レイヤー_1">
	<g>
		<polygon class="st12" points="89.2,16.5 102.7,3.4 102.7,29.6 		"/>
		<path class="st7" d="M101.3,6.7v19.5l-10.1-9.8L101.3,6.7 M104.1,0l-4.8,4.7l-10.1,9.8l-2.1,2l2.1,2l10.1,9.8l4.8,4.7v-6.7V6.7V0
			L104.1,0z"/>
	</g>
	<g>
		<polygon class="st12" points="102,16.5 115.6,3.4 115.6,29.6 		"/>
		<path class="st7" d="M114.1,6.7v19.5l-10.1-9.8L114.1,6.7 M117,0l-4.8,4.7l-10.1,9.8l-2.1,2l2.1,2l10.1,9.8l4.8,4.7v-6.7V6.7V0
			L117,0z"/>
	</g>
	<rect x="222.7" y="109.9" class="st13" width="2.6" height="17"/>
	<g>
		<polygon class="st14" points="233.1,116.9 233.1,109.9 222.7,109.9 222.7,116.9 217.6,116.9 217.6,122.1 222.7,122.1 222.7,137.3 
			233.1,137.3 233.1,122.1 238.5,122.1 238.5,143.1 235.6,143.1 235.6,148.2 248.9,148.2 248.9,116.9 		"/>
		
			<rect x="250.8" y="105.1" transform="matrix(0.8659 -0.5002 0.5002 0.8659 -24.1321 143.6782)" class="st14" width="10.3" height="23.5"/>
	</g>
	<rect x="222.7" y="109.9" class="st13" width="2.6" height="17"/>
	<polygon class="st14" points="26.6,79.1 26.6,7.9 13.6,7.9 13.6,85.6 36.9,85.6 36.9,79.1 	"/>
	<polygon class="st14" points="151.2,18.2 141.3,9.8 105.4,52.6 141.3,95.4 151.2,87.1 122.3,52.6 	"/>
	<polygon class="st14" points="97.6,46.8 97.6,33.8 77.4,33.8 77.4,22.6 96.2,22.6 96.2,9.6 37.5,9.6 37.5,22.6 64.5,22.6 
		64.5,33.8 37.5,33.8 37.5,46.8 64.5,46.8 64.5,59.2 59.3,59.2 59.3,72.2 64.5,72.2 64.5,77.3 77.4,77.3 77.4,72.2 96.2,72.2 
		96.2,59.2 77.4,59.2 77.4,46.8 	"/>
	<g>
		<path class="st15" d="M264.6,116.4c-3.5,0-6.3-2.8-6.3-6.3c0-3.5,2.8-6.3,6.3-6.3c3.5,0,6.3,2.8,6.3,6.3
			C271,113.6,268.1,116.4,264.6,116.4z"/>
		<path class="st7" d="M264.6,105.2c2.7,0,4.9,2.2,4.9,4.9c0,2.7-2.2,4.9-4.9,4.9c-2.7,0-4.9-2.2-4.9-4.9
			C259.7,107.4,261.9,105.2,264.6,105.2 M264.6,102.3c-4.3,0-7.7,3.5-7.7,7.7c0,4.3,3.5,7.7,7.7,7.7c4.3,0,7.7-3.5,7.7-7.7
			C272.4,105.8,268.9,102.3,264.6,102.3L264.6,102.3z"/>
	</g>
	
		<rect x="127.3" y="5.7" transform="matrix(0.7661 0.6427 -0.6427 0.7661 47.3911 -76.3541)" class="st13" width="2.6" height="42.5"/>
	<g>
		<polygon class="st14" points="173.7,44.6 160.8,44.6 160.8,51 151.6,51 151.6,57.5 160.8,57.5 160.8,95.2 173.7,95.2 173.7,57.5 
			180.7,57.5 180.7,51 173.7,51 		"/>
		<polygon class="st14" points="181.2,65.3 181.2,71.8 194.1,71.8 194.1,78.3 204.4,78.3 204.4,65.3 		"/>
		<rect x="181.2" y="88.7" class="st14" width="23.3" height="6.5"/>
	</g>
	<polygon class="st14" points="261.7,62.4 261.7,55.9 231.7,55.9 231.7,44.6 218.7,44.6 218.7,55.9 209.9,55.9 209.9,62.4 
		218.7,62.4 218.7,80.8 218.7,80.8 247.2,80.8 247.2,88.7 218.7,88.7 218.7,95.2 257.5,95.2 257.5,74.4 231.7,74.4 231.7,62.4 	"/>
	<rect x="160.8" y="44.6" class="st13" width="2.6" height="31.3"/>
	<rect x="218.7" y="44.6" class="st13" width="2.6" height="24.4"/>
	<g>
		<g>
			<polygon class="st14" points="280.2,44.6 267.3,44.6 267.3,95.2 288.7,95.2 288.7,88.7 280.2,88.7 			"/>
			<polygon class="st14" points="327.7,61.4 327.7,54.9 319.1,54.9 319.1,44.6 306.2,44.6 306.2,54.9 288,54.9 288,61.4 306.2,61.4 
				306.2,78.6 306.2,78.6 306.2,85.1 309.9,85.1 319.1,91.5 319.1,85.1 325.7,85.1 325.7,78.6 319.1,78.6 319.1,61.4 			"/>
		</g>
		<path class="st16" d="M306.2,78.6c-7.1,0-12.9,5.8-12.9,12.9c0,7.1,5.8,12.9,12.9,12.9c7.1,0,12.9-5.8,12.9-12.9
			C319.1,84.4,313.4,78.6,306.2,78.6z M306.2,98c-3.6,0-6.5-2.9-6.5-6.5c0-3.6,2.9-6.5,6.5-6.5c3.6,0,6.5,2.9,6.5,6.5
			C312.7,95.1,309.8,98,306.2,98z"/>
		<rect x="267.3" y="44.6" class="st13" width="2.6" height="29.2"/>
	</g>
	<g>
		<path class="st14" d="M228.2,153.4v5.2h37.4c-7.3,5.2-12.1,13.7-12.1,23.3c0,15.7,12.7,28.5,28.5,28.5v-12.9
			c-8.6,0-15.5-6.9-15.5-15.5c0-8.6,7-15.5,15.5-15.5v-7.8v-5.2H228.2z"/>
		<polygon class="st17" points="297,155 295.2,153.2 290.2,158.2 285.2,153.2 283.3,155 288.3,160.1 283.3,165.1 285.2,166.9 
			290.2,161.9 295.2,166.9 297,165.1 292,160.1 		"/>
		<polygon class="st18" points="283.8,148.4 282,146.6 277,151.6 272,146.6 270.1,148.4 275.1,153.4 270.1,158.4 272,160.2 
			277,155.2 282,160.2 283.8,158.4 278.8,153.4 		"/>
	</g>
	<g>
		<polygon class="st14" points="375.2,146.8 364.8,146.8 364.8,153.4 354.4,153.4 354.4,158.6 364.8,158.6 364.8,181.9 375.2,181.9 
			375.2,158.6 387,158.6 387,153.4 375.2,153.4 		"/>
		<rect x="406.6" y="153.4" class="st14" width="10.3" height="21.1"/>
		<polygon class="st14" points="401.3,166.8 390.9,166.8 390.9,190.5 390.9,190.5 390.9,192.7 394,192.7 401.3,197.9 401.3,192.7 
			409,192.7 409,187.5 401.3,187.5 		"/>
	</g>
	<g>
		<polygon class="st14" points="311.9,177 301.6,177 301.6,210.3 345.5,210.3 345.5,205.2 311.9,205.2 		"/>
		<polygon class="st14" points="348.9,158.6 348.9,153.4 337.5,153.4 337.5,146.8 327.1,146.8 327.1,153.4 299.7,153.4 299.7,158.6 
			327.1,158.6 327.1,165.5 307.5,165.5 307.5,170.7 327.1,170.7 327.1,186.8 337.5,186.8 337.5,170.7 348.9,170.7 348.9,165.5 
			337.5,165.5 337.5,158.6 		"/>
	</g>
	<path class="st16" d="M390.9,187.5c-5.7,0-10.3,4.6-10.3,10.3c0,5.7,4.6,10.3,10.3,10.3c5.7,0,10.3-4.6,10.3-10.3
		C401.3,192.1,396.6,187.5,390.9,187.5z M390.9,203c-2.9,0-5.2-2.3-5.2-5.2c0-2.9,2.3-5.2,5.2-5.2c2.9,0,5.2,2.3,5.2,5.2
		C396.1,200.7,393.8,203,390.9,203z"/>
	<g>
		<rect x="463" y="153.4" class="st14" width="10.4" height="30.7"/>
		<polygon class="st14" points="432.9,153.4 422.5,153.4 422.5,200.1 444.7,200.1 444.7,195 432.9,195 		"/>
	</g>
	<rect x="327.1" y="146.8" class="st13" width="2.6" height="29.5"/>
	<rect x="364.8" y="146.8" class="st13" width="2.6" height="21.3"/>
	<rect x="422.5" y="153.4" class="st13" width="2.6" height="30.7"/>
	<path class="st19" d="M279.5,207.6c-13.1-1.3-23.3-12.4-23.3-25.7h-2.6c0,15.7,12.7,28.5,28.5,28.5v-2.6L279.5,207.6z"/>
	<rect x="13.6" y="7.9" class="st13" width="2.6" height="45.4"/>
	<path class="st16" d="M59.3,59.2c-10,0-18.1,8.1-18.1,18.1c0,10,8.1,18.1,18.1,18.1c10,0,18.1-8.1,18.1-18.1
		C77.4,67.3,69.3,59.2,59.3,59.2z M59.3,82.5c-2.9,0-5.2-2.3-5.2-5.2c0-2.9,2.3-5.2,5.2-5.2c2.9,0,5.2,2.3,5.2,5.2
		C64.4,80.2,62.1,82.5,59.3,82.5z"/>
	<g>
		<g>
			<path class="st20" d="M66.4,139.5l6.6-2.1c1.5,12.5,1.3,21.2-0.5,28c-1.9,7.5-5.7,14.3-11.2,20.8l1.1,1
				c8-5.3,14.5-12.8,17.7-20.6c3-7.4,4.3-16.9,2.7-31.4l7.2-1.5c2,12.2,2.7,22.5,2.5,30.4c-0.2,4.9-1.9,6.6-4,6.9
				c-2.6,0.5-5.5,0.8-8.8,1l0.1,1.5c4.7,0.6,7.3,1.9,9,5.5c1.1,2.1,1.4,2.6,2.9,2.4c0.4-0.1,0.8-0.1,1.3-0.3
				c6.6-2.1,9.8-6.6,9.9-16.8c0.1-8.9-0.9-19.9-2.6-30.1c2-1.6,2.6-2.2,2.3-3.5c-0.2-1-0.7-1.5-4.9-3.9c-3.5-2-4.5-2.1-5.6-1.9
				c-1.2,0.2-2,1.4-2.9,6l-6.7,1.4c-0.4-3.2-0.9-6.7-1.5-10.5l-1.3-7.6c2.7-1.6,3.4-2.4,3.1-3.7c-0.3-1.5-1.4-1.7-14.7-0.9
				c0.8,3.5,1.8,8.4,2.7,13.6c0.7,4.1,1.3,7.7,1.8,11.2l-7.1,0.9L66.4,139.5z"/>
			<path class="st20" d="M113.6,184.3c-0.5-2.7-4.1-2.2-4.5-4.7c-0.3-1.6-0.6-6.9-0.8-11l-1.5,0c-0.5,3.9-1.6,7.8-3.1,11.4
				c-1.5,3.3-4.7,5.1-25.5,8.8c-16.7,3-18.4,2.3-18.9-0.6l-4.4-24.7c0.8-0.3,1.2-0.8,1.4-1.6l0,0.2c0.3,1.8,1.4,2.3,3.1,2
				c4-0.7,7.3-2.6,6.8-5.7c-0.3-1.7-1.4-6.1-2.6-12.7l-0.8-4.6c1.8-1.4,1.9-2.4,1.7-3.6c-0.2-0.9-0.9-1.7-4-3
				c-4.3-1.9-5.2-2.1-6.5-1.8c-1.1,0.2-1.5,1.1-2.6,5l-9.1,1.6c3.8-3.6,6.8-7.3,9.4-10.8c3.8-1.8,5-2.8,4.8-4.3
				c-0.2-1.2-0.9-2.1-4.6-4.2c-4.3-2.4-5.2-2.7-6.5-2.4c-1.3,0.2-2.2,1.3-3.6,5.5L31.5,125c0.1-0.4-3.1,2.5-1.6,3.1l12.2-2.1
				c-1.2,4.9-2.9,9.6-4.8,14.2l-8,1.4c-1.3-1-3.4-1.1-4.9-1.4c-1.5-0.8-3.3-1-3.3-1l-3.1,8.1c0,0,0.2,1.4,0.5,0.9l0.5,3
				c2,11.6,2.4,15.8,2.7,17.5s1.4,2.4,3.2,2.1c3-0.5,4.7-1.5,5.7-2.6c2.3,17.6,0,30-7.7,40.5l1.1,1c13.2-9.1,17.8-21.2,16.7-38.2
				c2.6-1.3,3.3-2,3.1-3.1c-0.2-1.3-1.5-2-12.4-2c0-0.4,0-0.7-0.1-1.1L45,163l1.3,7.4c2.3,13.3,2.8,19.1,3.6,23.7
				c1.2,6.7,2.5,8.3,30.2,3.5C110.3,192.2,114.4,188.8,113.6,184.3z M30.8,162.6l-2.9-16.6l1-1.5l6.2-1.1l3.1,17.8L30.8,162.6z
				 M47.8,159.6L45,144.1c1.1-0.6,1.6-1.4,1.6-2.6l5.8-1l3.1,17.8L47.8,159.6z"/>
		</g>
		<path class="st21" d="M24.3,140.3c3.7-6.6,6.2-11.6,8.3-18.9c3.3-1,4.1-2.2,3.9-3.3c-0.2-1.3-1.4-1.8-14.1-2.2
			c-1.5,14.4-4.5,26.8-10.3,38.1l1.2,0.7C15.2,152.6,21.1,145.8,24.3,140.3z"/>
	</g>
	<g>
		<g>
			<path class="st20" d="M127.4,166.6c4.1,0.4,6.8-0.6,7.2-2.9l0.7-3.9l8.6,0.8c1.3,0,1.6-0.4,1.5-1.1c0-0.9-1.7-2-1.9-1.8l-7.6-0.7
				l3.2-16l1.1-1.1l6.8,0.6l-0.1,1.3c-0.1,1.7,0.7,2.5,2.4,2.6c4.2,0.4,7.8-0.7,8.1-3.1c0.2-1.8,0.2-6.2,1.1-16l0.2-2.6
				c2.6-1,3.4-1.8,3.5-3c0.1-0.9-0.3-1.8-3.3-4.6c-3-2.8-4.2-3.4-5.6-3.5c-1.1-0.1-2.2,0.6-4.8,4.9l-9.9-0.9l-9-1.3l-0.3,3.8
				l9.1,0.3l10.5,0.9l-1.6,18.3l-6.7-0.6c-1.2-0.9-4.1-2.2-10.3-4.5c-1.8,11.3-4,21.5-6.2,31.1C124,165.6,125.2,166.4,127.4,166.6z"
				/>
			<path class="st20" d="M211.5,155.3c-3.3-3-4.2-3.6-5.6-3.7c-1.3-0.1-2.2,0.5-4.7,4.8l-9.7-0.9l0.5-6c2.4-0.8,3.2-1.5,3.3-2.5
				c0.1-1.2-0.6-2-13.1-4.3c0,3.9-0.3,7.3-0.7,12l-7.6-0.7c-1-1.2-3.8-2.8-11.7-5.9c0,3.1-0.2,5.8-0.7,12c-1,11-1.7,15.8-1.9,17.8
				c-0.1,1.5,0.6,2.3,2.5,2.4c4.4,0.4,7.6-0.9,7.8-3.2l0.2-2.8l9.6,0.8l-1.4,15.5c-7.9-0.4-16.5-0.9-26.1-1.7
				c2.4,13.1,3.2,14.1,4.4,14.2c1,0.1,2.1-0.4,3-3c12.6-0.8,27.3-2.6,40.7-5.1c0.9,2.4,1.6,5.5,2.1,7.7c0.5,3.2,2.5,4.8,5.1,5
				c3.2,0.3,5.8-1.9,6.2-6.1c0.3-3-0.6-5.5-3.2-8.8c-3.4-4.3-9.7-8.7-16.5-10.7l-0.9,1.1c2.2,2.3,4.2,5.1,5.7,8.3
				c-3.4-0.1-6.9-0.3-10.4-0.4l1.3-15.1L200,177l-0.2,2.3c-0.1,1.5,0.6,2.3,2.5,2.4c4.7,0.4,7.8-0.9,8-3.1c0.2-2.3,0.4-7.5,0.8-12.7
				l0.2-2.6c2.8-1.1,3.6-1.8,3.7-3.1C215.1,159.1,214.7,158.3,211.5,155.3z M179.9,172.4l-9.6-0.8l1.2-13.3l1.5-1.5l8.2,0.7
				L179.9,172.4z M200.3,174.2l-10.3-0.9l1.3-14.9l10.3,0.9L200.3,174.2z"/>
			<path class="st20" d="M214.8,134.1c-3.8-4.4-10.1-8.3-17.1-10l-0.9,1.1c2.9,2.6,5.3,5.8,7.3,9.6c-8.6-0.3-17.1-0.8-25.5-1.3
				c4.3-3.3,8.5-7.2,11.9-11c4-0.3,4.9-0.9,5-2c0.1-1.3-0.8-2.3-13.8-7.1c-2.6,7.8-5.3,14.3-8.2,19.6l-11.9-1
				c2,12.1,2.7,13.2,3.8,13.3c1.3,0.1,1.8-0.3,2.8-3c12.9-0.7,24.4-2.2,37.4-4.2c0.7,1.7,1.2,3.5,1.6,5.5c0.7,3.2,2.4,4.7,5,4.9
				c2.9,0.3,5.6-1.9,6-5.9C218.4,140,217.4,137.2,214.8,134.1z"/>
		</g>
		<path class="st21" d="M153.9,164.4c2.7-1.1,3.6-1.8,3.7-3.1c0.1-1.1-0.4-2-3.8-5.1c-2.7-2.6-3.9-3.1-5.1-3.2
			c-1.2-0.1-2.3,0.5-5.1,4.7l0.4,2.9c-1.6,10.6-3.9,20.8-6,26.5c-1.2,3.2-2.8,4.1-7.1,3.7c-2.2-0.2-4.5-0.6-8-1.3l-0.2,1.5
			c4.1,2.5,6.1,4.3,6.9,8c0.5,2.3,0.7,2.9,2.2,3c0.4,0,0.8,0.1,1.3,0c7.3-0.3,12.1-3.3,14.8-10.8C150,185.2,152.5,174,153.9,164.4z"
			/>
	</g>
	<g>
		<polygon class="st22" points="89.2,16.5 102.7,3.4 102.7,29.6 		"/>
		<path class="st7" d="M101.3,6.7v19.5l-10.1-9.8L101.3,6.7 M104.1,0l-4.8,4.7l-10.1,9.8l-2.1,2l2.1,2l10.1,9.8l4.8,4.7v-6.7V6.7V0
			L104.1,0z"/>
	</g>
	<g>
		<polygon class="st23" points="103.5,16.5 114.6,5.7 114.6,27.3 		"/>
		<path class="st7" d="M114.1,6.7v19.5l-10.1-9.8L114.1,6.7 M115,4.7l-1.4,1.4l-10.1,9.8l-0.6,0.6l0.6,0.6l10.1,9.8l1.4,1.4v-2V6.7
			V4.7L115,4.7z"/>
	</g>
	<g>
		<path class="st9" d="M276.5,112.3c-2.9,0-5.3-2.4-5.3-5.3s2.4-5.3,5.3-5.3c2.9,0,5.3,2.4,5.3,5.3S279.4,112.3,276.5,112.3z"/>
		<path class="st7" d="M276.5,102c2.7,0,4.9,2.2,4.9,4.9c0,2.7-2.2,4.9-4.9,4.9c-2.7,0-4.9-2.2-4.9-4.9
			C271.6,104.2,273.8,102,276.5,102 M276.5,101.2c-3.2,0-5.8,2.6-5.8,5.8c0,3.2,2.6,5.8,5.8,5.8c3.2,0,5.8-2.6,5.8-5.8
			C282.2,103.8,279.7,101.2,276.5,101.2L276.5,101.2z"/>
	</g>
	<circle class="st24" cx="468.5" cy="209.5" r="4.7"/>
	<path class="st14" d="M490.9,179.9c1.7-2.4,0.4-6.3-2.4-7.8c-2.8-1.5-6.8-0.5-7.8,2.4c-1,2.9-9.3,25.7-9.7,26.9
		c-0.4,1.2-0.1,1.9,0.7,2.4c0.9,0.5,1.7,0.3,2.4-0.7C474.7,202.2,489.1,182.3,490.9,179.9z"/>
</g>
<g id="説明分">
</g>
</svg>
