<?xml version="1.0" encoding="utf-8"?>
<!-- Generator: Adobe Illustrator 23.0.0, SVG Export Plug-In . SVG Version: 6.00 Build 0)  -->
<svg version="1.1" id="firstview_x5F_area" xmlns="http://www.w3.org/2000/svg" xmlns:xlink="http://www.w3.org/1999/xlink" x="0px"
	 y="0px" width="487.4px" height="222px" viewBox="0 0 487.4 222" style="enable-background:new 0 0 487.4 222;"
	 xml:space="preserve">
<style type="text/css">
	.st0{fill:#FFFFFF;}
	.st1{fill:#E50044;}
	.st2{fill:#231815;}
	.st3{fill:#EA6DA4;}
	.st4{fill-rule:evenodd;clip-rule:evenodd;fill:#FFFFFF;stroke:#FFFFFF;stroke-width:5.681;stroke-miterlimit:10;}
	.st5{fill:#FFFFFF;stroke:#FFFFFF;stroke-width:5.681;stroke-miterlimit:10;}
	.st6{fill-rule:evenodd;clip-rule:evenodd;fill:#FFFFFF;stroke:#FFFFFF;stroke-width:1.0021;stroke-miterlimit:10;}
	.st7{fill-rule:evenodd;clip-rule:evenodd;fill:#00A63C;}
	.st8{fill-rule:evenodd;clip-rule:evenodd;fill:#009FE8;}
	.st9{fill-rule:evenodd;clip-rule:evenodd;fill:#E50012;}
	.st10{fill-rule:evenodd;clip-rule:evenodd;fill:#150301;}
	.st11{fill-rule:evenodd;clip-rule:evenodd;fill:#54C2F0;}
	.st12{fill-rule:evenodd;clip-rule:evenodd;fill:#A30000;}
	.st13{fill:#A54A96;}
	.st14{fill:#E3007F;}
	.st15{fill:#E50012;}
	.st16{fill:#150301;}
	.st17{fill:#E75297;}
	.st18{fill-rule:evenodd;clip-rule:evenodd;fill:#E95504;}
	.st19{fill-rule:evenodd;clip-rule:evenodd;fill:#EA6DA4;}
</style>
<g>
	<g>
		<g>
			
				<rect x="225.6" y="193.6" transform="matrix(8.739281e-02 -0.9962 0.9962 8.739281e-02 12.4393 414.3467)" class="st0" width="13.6" height="13.6"/>
			<path class="st1" d="M239.2,208.5l-14.9-1.3l1.3-14.9l14.9,1.3L239.2,208.5z M225.8,205.9l12.1,1.1l1.1-12.1l-12.1-1.1
				L225.8,205.9z"/>
		</g>
		<g>
			
				<rect x="226.8" y="180.1" transform="matrix(8.739281e-02 -0.9962 0.9962 8.739281e-02 26.9848 403.1885)" class="st0" width="13.6" height="13.6"/>
			<path class="st1" d="M240.4,195l-14.9-1.3l1.3-14.9l14.9,1.3L240.4,195z M227,192.4l12.1,1.1l1.1-12.1l-12.1-1.1L227,192.4z"/>
		</g>
		<g>
			
				<rect x="224.4" y="207.1" transform="matrix(8.709357e-02 -0.9962 0.9962 8.709357e-02 -2.0436 425.575)" class="st0" width="13.6" height="13.6"/>
			<path class="st1" d="M238,222l-14.9-1.3l1.3-14.9l14.9,1.3L238,222z M224.6,219.4l12.1,1.1l1.1-12.1l-12.1-1.1L224.6,219.4z"/>
		</g>
		<g>
			<path class="st2" d="M235.9,189.7c-0.1,0-0.2,0-0.6-0.4c-0.3-0.3-1.6-0.8-2.5-0.9c-0.4,0-1.5-0.1-1.5,0.8
				c-0.1,0.9,0.9,1.1,1.7,1.2c0.3,0,0.6,0,0.8,0c0.1,0,0.6,0,0.7,0c0.4,0,0.9,0.3,0.9,0.7c0,0.5-0.6,0.5-1.8,0.4
				c-0.5,0-1.9-0.2-2.6-0.9c-0.2-0.2-0.4-0.6-0.4-1.1c0.1-1.6,2.1-1.4,2.6-1.3c0.2,0,1.2,0.1,1.8,0.3c0,0,0.1,0,0.1,0
				c0,0,0.1,0,0.1-0.1c0-0.1-0.8-1.3-0.9-1.5c-1.2,0.3-2,0.2-2.3,0.2c-0.8-0.1-1.2-0.6-1.4-1.1c0.2,0.1,0.6,0.4,1.3,0.5
				c0.3,0,1.1,0,2.1-0.3c-0.2-0.6-0.4-0.8-0.4-1c-0.1,0-0.9,0.2-1.5,0.1c-0.6,0-1.1-0.5-1.2-0.9c0.2,0.1,0.4,0.2,0.9,0.3
				c0.3,0,0.7,0,1.5-0.2c-0.4-1.1-0.5-1.3-1-1.3c-0.1,0-0.2,0-0.4,0c0.1-0.2,0.3-0.7,1.2-0.7c0.7,0.1,0.9,0.3,0.9,0.7
				c0,0.4,0,0.5,0.1,1c0.2-0.1,0.4-0.2,0.7-0.3c0.2-0.1,0.4-0.2,0.5-0.2c0.3,0,0.6,0.2,0.6,0.4c0,0.4-1.1,0.7-1.6,0.8
				c0.1,0.2,0.2,0.5,0.4,0.9c0.2-0.1,0.5-0.2,0.9-0.4c0.4-0.2,0.5-0.3,0.6-0.2c0.3,0,0.6,0.2,0.6,0.5c0,0.2-0.1,0.3-0.3,0.4
				c-0.5,0.2-0.9,0.4-1.3,0.5c0.3,0.5,0.6,0.9,0.8,1.2c0.6,0.6,0.6,0.7,0.6,1.1C236.4,189.3,236.2,189.7,235.9,189.7z"/>
			<path class="st2" d="M235.3,197.4c0.1,0,0.4-0.2,0.5-0.1c0.2,0,0.6,0.4,0.6,0.6c0,0.4-1.2,0.4-1.4,0.4c-0.2,0-0.4-0.1-0.6-0.2
				c0,0.1-0.1,0.3-0.1,0.6c0,0.4,0,1.1,0,1.5c0.7,0.2,2,0.7,2,1.4c0,0.2-0.2,0.4-0.4,0.4c-0.2,0-0.3-0.1-0.7-0.4
				c-0.4-0.4-0.6-0.4-0.8-0.6c0,0.3-0.2,1.1-1.5,1c-0.6,0-1.5-0.4-1.4-1.1c0-0.5,0.6-1,2.1-0.8c0-0.4,0-1.2,0-1.6
				c0-0.3,0.1-1.4,0.1-1.6c0-0.2,0-0.5-0.7-0.6c0.1-0.1,0.4-0.3,0.7-0.3c0.5,0,1.1,0.4,1.1,0.7c0,0-0.3,0.8-0.4,0.9
				C234.5,197.6,235,197.6,235.3,197.4z M232.9,200.6c-0.2,0-1.1-0.1-1.2,0.3c0,0.3,0.4,0.4,0.7,0.4c0.9,0.1,1-0.4,1-0.6
				C233.3,200.7,233.1,200.6,232.9,200.6z"/>
			<path class="st2" d="M229.6,218.6L229.6,218.6c1.6-0.7,2.9-2.8,3-4.5c0.1-0.6-0.1-1.6-0.7-1.7c-0.8-0.1-2,1.3-2,1.4
				c-0.2,0.2-0.3,0.4-0.6,0.4c-0.4,0-1.1-0.6-1-1.4c0-0.3,0.2-0.5,0.3-0.7c0.1,0.4,0.2,0.6,0.6,0.7c0.2,0,0.3,0,0.7-0.2
				c1.3-0.5,1.6-0.7,2.3-0.6c1.7,0.1,1.6,2,1.6,2.4C233.6,216,232.5,218.2,229.6,218.6z M232.8,211.1c-0.2,0-0.8-0.2-0.9-0.2
				c-0.5,0-1,0.1-1.3,0.1l0-0.1c0.1-0.1,0.8-0.4,0.8-0.6c0-0.1-0.1-0.1-0.1-0.2c-0.6-0.3-0.9-0.5-1.1-0.8c-0.1-0.1-0.3-0.4-0.3-0.8
				c0.5,0.5,0.8,0.6,2.1,1c0.9,0.2,1.3,0.6,1.3,1.2C233.2,211,233.1,211.2,232.8,211.1z"/>
		</g>
	</g>
	<g>
		
			<rect x="122.1" y="109" transform="matrix(8.715833e-02 -0.9962 0.9962 8.715833e-02 -1.614 322.8783)" class="st0" width="106.6" height="106.6"/>
		<path class="st1" d="M224.5,220.8l-0.7-0.1l-106.9-9.4l0.1-0.7l9.4-106.9l0.7,0.1l106.9,9.4l-0.1,0.7L224.5,220.8z M118.4,210.1
			l104.8,9.2l9.2-104.8l-104.8-9.2L118.4,210.1z"/>
	</g>
	<g>
		
			<rect x="9.3" y="105.2" transform="matrix(0.9848 -0.1737 0.1737 0.9848 -26.5705 13.2747)" class="st0" width="106.6" height="106.6"/>
		<path class="st1" d="M18.8,221.1L0,114.7l106.4-18.8l18.8,106.4L18.8,221.1z M1.6,115.8l18.3,103.6l103.6-18.3L105.2,97.5
			L1.6,115.8z"/>
	</g>
	<g>
		<g>
			<g>
				
					<rect x="106.9" y="95.4" transform="matrix(0.9848 -0.1734 0.1734 0.9848 -16.0086 21.266)" class="st0" width="13.6" height="13.6"/>
				<path class="st1" d="M107.6,110.9L105,96.2l14.8-2.6l2.6,14.8L107.6,110.9z M106.6,97.3l2.1,12l12-2.1l-2.1-12L106.6,97.3z"/>
			</g>
			<g>
				
					<rect x="109.2" y="108.8" transform="matrix(0.9848 -0.1737 0.1737 0.9848 -18.3145 21.9111)" class="st0" width="13.6" height="13.6"/>
				<path class="st1" d="M110,124.3l-2.6-14.8l14.8-2.6l2.6,14.8L110,124.3z M109,110.7l2.1,12l12-2.1l-2.1-12L109,110.7z"/>
			</g>
		</g>
		<g>
			<path class="st2" d="M118.9,104.9c-0.6,0.1-2.5-0.8-3.6-1.5c-0.3-0.2-1.7-1.2-2-1.4c-0.4-0.3-0.5-0.2-0.6-0.2
				c-0.5,0.1-1.1,1.5-1.4,2.2c-0.2,0.4-0.3,0.7-0.6,0.7c-0.2,0-1.2-0.2-1.3-0.9c0-0.2,0-0.3,0-0.5c0.3,0.2,0.6,0.2,0.6,0.2
				c0.3,0,0.9-0.9,1.2-1.2c0.8-1,1-1.1,1.3-1.2c0.4-0.1,0.8,0.1,1.1,0.3c2.7,1.6,2.9,1.6,4.6,2c0.5,0.1,0.9,0.4,1,0.9
				C119.3,104.6,119.2,104.8,118.9,104.9z M116.1,101c-0.2,0-0.4-0.1-0.7-0.4c-0.5-0.4-0.9-0.5-1.3-0.6c0.4-0.1,2.1-0.3,2.3,0.6
				C116.4,100.8,116.3,101,116.1,101z M117.1,99.9c-0.2,0-0.2,0-0.6-0.3c-0.6-0.4-0.9-0.5-1.3-0.6c0.6-0.1,2.1-0.4,2.3,0.5
				C117.4,99.7,117.3,99.9,117.1,99.9z"/>
			<path class="st2" d="M118.4,119c-1.3,0.2-1.6-0.8-1.8-1.8c-0.1-0.6-0.3-1.3-0.9-1.2c-1.2,0.2-1.6,2-1.9,3.3
				c0,0.1-0.1,0.6-0.5,0.6c-0.3,0.1-0.5-0.2-0.6-0.6c-0.1-0.4,0-0.7,0.3-1.3c0.5-1.2,1.6-4.3,1.8-5.3c0-0.1,0.1-0.3,0.1-0.5
				c0-0.2-0.4-0.4-0.9-0.5c0.2-0.2,0.4-0.3,0.7-0.4c0.7-0.1,1.5,0.4,1.6,0.8c0,0.2,0,0.3-0.3,0.8c-0.4,0.7-1.5,2.7-1.7,3.6
				c0.7-0.7,1-1,1.7-1.1c1.1-0.2,1.3,0.4,1.6,1.4c0.2,0.5,0.3,0.9,0.8,0.8c0.2,0,1.4-0.3,2.3-2.7l0.1,0
				C120.7,116.2,120.3,118.7,118.4,119z"/>
		</g>
	</g>
	<g>
		
			<rect x="125.4" y="157.3" transform="matrix(8.731193e-02 -0.9962 0.9962 8.731193e-02 -42.5098 269.5818)" class="st3" width="0.9" height="1.4"/>
		<path class="st3" d="M221.3,166.8l-2.8-0.2l0.1-0.8l2.8,0.2L221.3,166.8z M215.8,166.3L213,166l0.1-0.8l2.8,0.2L215.8,166.3z
			 M210.2,165.8l-2.8-0.2l0.1-0.8l2.8,0.2L210.2,165.8z M204.6,165.3l-2.8-0.2l0.1-0.8l2.8,0.2L204.6,165.3z M199,164.8l-2.8-0.2
			l0.1-0.8l2.8,0.2L199,164.8z M193.5,164.3l-2.8-0.2l0.1-0.8l2.8,0.2L193.5,164.3z M187.9,163.8l-2.8-0.2l0.1-0.8l2.8,0.2
			L187.9,163.8z M182.3,163.4l-2.8-0.2l0.1-0.8l2.8,0.2L182.3,163.4z M176.7,162.9l-2.8-0.2l0.1-0.8l2.8,0.2L176.7,162.9z
			 M171.2,162.4l-2.8-0.2l0.1-0.8l2.8,0.2L171.2,162.4z M165.6,161.9l-2.8-0.2l0.1-0.8l2.8,0.2L165.6,161.9z M160,161.4l-2.8-0.2
			l0.1-0.8l2.8,0.2L160,161.4z M154.4,160.9l-2.8-0.2l0.1-0.8l2.8,0.2L154.4,160.9z M148.8,160.4l-2.8-0.2l0.1-0.8l2.8,0.2
			L148.8,160.4z M143.3,159.9l-2.8-0.2l0.1-0.8l2.8,0.2L143.3,159.9z M137.7,159.5l-2.8-0.2l0.1-0.8l2.8,0.2L137.7,159.5z
			 M132.1,159l-2.8-0.2l0.1-0.8l2.8,0.2L132.1,159z"/>
		
			<rect x="224.5" y="165.9" transform="matrix(8.662961e-02 -0.9962 0.9962 8.662961e-02 39.3728 376.2507)" class="st3" width="0.9" height="1.4"/>
	</g>
	<g>
		
			<rect x="170.3" y="211.4" transform="matrix(8.702490e-02 -0.9962 0.9962 8.702490e-02 -54.8679 363.7882)" class="st3" width="1.4" height="0.9"/>
		<path class="st3" d="M171.8,208.4l-0.8-0.1l0.2-2.8l0.8,0.1L171.8,208.4z M172.3,202.8l-0.8-0.1l0.2-2.8l0.8,0.1L172.3,202.8z
			 M172.7,197.2l-0.8-0.1l0.2-2.8l0.8,0.1L172.7,197.2z M173.2,191.6l-0.8-0.1l0.2-2.8l0.8,0.1L173.2,191.6z M173.7,186.1l-0.8-0.1
			l0.2-2.8l0.8,0.1L173.7,186.1z M174.2,180.5l-0.8-0.1l0.2-2.8l0.8,0.1L174.2,180.5z M174.7,174.9l-0.8-0.1l0.2-2.8l0.8,0.1
			L174.7,174.9z M175.2,169.3l-0.8-0.1l0.2-2.8l0.8,0.1L175.2,169.3z M175.7,163.8l-0.8-0.1l0.2-2.8l0.8,0.1L175.7,163.8z
			 M176.2,158.2l-0.8-0.1l0.2-2.8l0.8,0.1L176.2,158.2z M176.7,152.6l-0.8-0.1l0.2-2.8l0.8,0.1L176.7,152.6z M177.1,147l-0.8-0.1
			l0.2-2.8l0.8,0.1L177.1,147z M177.6,141.4l-0.8-0.1l0.2-2.8l0.8,0.1L177.6,141.4z M178.1,135.9l-0.8-0.1l0.2-2.8l0.8,0.1
			L178.1,135.9z M178.6,130.3l-0.8-0.1l0.2-2.8l0.8,0.1L178.6,130.3z M179.1,124.7l-0.8-0.1l0.2-2.8l0.8,0.1L179.1,124.7z
			 M179.6,119.1l-0.8-0.1l0.2-2.8l0.8,0.1L179.6,119.1z"/>
		
			<rect x="179" y="112.4" transform="matrix(8.702490e-02 -0.9962 0.9962 8.702490e-02 51.68 282.0182)" class="st3" width="1.4" height="0.9"/>
	</g>
	<g>
		<g>
			
				<rect x="13.2" y="166.6" transform="matrix(0.9847 -0.174 0.174 0.9847 -28.8633 4.9745)" class="st3" width="1.4" height="0.9"/>
			<path class="st3" d="M17.5,166.9l-0.1-0.8l2.8-0.5l0.1,0.8L17.5,166.9z M23,165.9l-0.1-0.8l2.8-0.5l0.1,0.8L23,165.9z
				 M28.5,164.9l-0.1-0.8l2.8-0.5l0.1,0.8L28.5,164.9z M34,164l-0.1-0.8l2.8-0.5l0.1,0.8L34,164z M39.5,163l-0.1-0.8l2.8-0.5
				l0.1,0.8L39.5,163z M45,162l-0.1-0.8l2.8-0.5l0.1,0.8L45,162z M50.5,161l-0.1-0.8l2.8-0.5l0.1,0.8L50.5,161z M56.1,160.1
				l-0.1-0.8l2.8-0.5l0.1,0.8L56.1,160.1z M61.6,159.1l-0.1-0.8l2.8-0.5l0.1,0.8L61.6,159.1z M67.1,158.1l-0.1-0.8l2.8-0.5l0.1,0.8
				L67.1,158.1z M72.6,157.1l-0.1-0.8l2.8-0.5l0.1,0.8L72.6,157.1z M78.1,156.2l-0.1-0.8l2.8-0.5l0.1,0.8L78.1,156.2z M83.6,155.2
				l-0.1-0.8l2.8-0.5l0.1,0.8L83.6,155.2z M89.1,154.2l-0.1-0.8l2.8-0.5l0.1,0.8L89.1,154.2z M94.6,153.3l-0.1-0.8l2.8-0.5l0.1,0.8
				L94.6,153.3z M100.2,152.3l-0.1-0.8l2.8-0.5l0.1,0.8L100.2,152.3z M105.7,151.3l-0.1-0.8l2.8-0.5l0.1,0.8L105.7,151.3z"/>
			
				<rect x="111.1" y="149.4" transform="matrix(0.9847 -0.174 0.174 0.9847 -24.3654 21.7471)" class="st3" width="1.4" height="0.9"/>
		</g>
		<g>
			
				<rect x="71.1" y="206.7" transform="matrix(0.9849 -0.1733 0.1733 0.9849 -34.8582 15.5306)" class="st3" width="0.9" height="1.4"/>
			<path class="st3" d="M70.5,204l-0.5-2.8l0.8-0.1l0.5,2.8L70.5,204z M69.5,198.5l-0.5-2.8l0.8-0.1l0.5,2.8L69.5,198.5z M68.5,193
				l-0.5-2.8l0.8-0.1l0.5,2.8L68.5,193z M67.6,187.4l-0.5-2.8l0.8-0.1l0.5,2.8L67.6,187.4z M66.6,181.9l-0.5-2.8l0.8-0.1l0.5,2.8
				L66.6,181.9z M65.6,176.4l-0.5-2.8l0.8-0.1l0.5,2.8L65.6,176.4z M64.6,170.9l-0.5-2.8L65,168l0.5,2.8L64.6,170.9z M63.7,165.4
				l-0.5-2.8l0.8-0.1l0.5,2.8L63.7,165.4z M62.7,159.9l-0.5-2.8L63,157l0.5,2.8L62.7,159.9z M61.7,154.4l-0.5-2.8l0.8-0.1l0.5,2.8
				L61.7,154.4z M60.8,148.9l-0.5-2.8l0.8-0.1l0.5,2.8L60.8,148.9z M59.8,143.3l-0.5-2.8l0.8-0.1l0.5,2.8L59.8,143.3z M58.8,137.8
				l-0.5-2.8l0.8-0.1l0.5,2.8L58.8,137.8z M57.8,132.3l-0.5-2.8l0.8-0.1l0.5,2.8L57.8,132.3z M56.9,126.8l-0.5-2.8l0.8-0.1l0.5,2.8
				L56.9,126.8z M55.9,121.3l-0.5-2.8l0.8-0.1l0.5,2.8L55.9,121.3z M54.9,115.8l-0.5-2.8l0.8-0.1l0.5,2.8L54.9,115.8z"/>
			
				<rect x="53.8" y="108.8" transform="matrix(0.9848 -0.1739 0.1739 0.9848 -18.2097 11.0982)" class="st3" width="0.9" height="1.4"/>
		</g>
	</g>
	<path class="st4" d="M233.6,156.9v5.3h38.3c-7.5,5.3-12.4,14-12.4,23.8c0,16.1,13,29.1,29.1,29.1v-13.2c-8.8,0-15.9-7.1-15.9-15.9
		c0-8.8,7.1-15.9,15.9-15.9v-7.9v-5.3H233.6z"/>
	<polygon class="st5" points="290.5,151.8 288.6,149.9 283.5,155 278.3,149.9 276.5,151.8 281.6,156.9 276.5,162 278.3,163.9 
		283.5,158.8 288.6,163.9 290.5,162 285.4,156.9 	"/>
	<polygon class="st0" points="305.2,162 303.8,165.1 301.7,161.7 	"/>
	<path class="st6" d="M70.5,79.4c0,5.5-4.5,10-10,10c-5.5,0-10-4.5-10-10c0-5.5,4.5-10,10-10C66,69.4,70.5,73.9,70.5,79.4z"/>
	<path class="st6" d="M323.2,93.9c0,5.5-4.5,10-10,10c-5.5,0-10-4.5-10-10c0-5.5,4.5-10,10-10C318.7,83.9,323.2,88.4,323.2,93.9z"/>
	<path class="st6" d="M410.7,202.5c0,5.5-4.5,10-10,10c-5.5,0-10-4.5-10-10c0-5.5,4.5-10,10-10C406.2,192.5,410.7,197,410.7,202.5z"
		/>
	<polygon class="st5" points="227.9,140.4 238.5,140.4 238.5,124.8 244.1,124.8 244.1,146.3 241.1,146.3 241.1,151.6 244.1,151.6 
		254.7,151.6 254.7,146.3 254.7,124.8 254.7,119.5 244.1,119.5 238.5,119.5 238.5,112.3 230.6,112.3 227.9,112.3 227.9,119.5 
		222.7,119.5 222.7,124.8 227.9,124.8 227.9,129.7 	"/>
	
		<rect x="256.7" y="107.4" transform="matrix(0.8661 -0.4999 0.4999 0.8661 -24.6388 146.9658)" class="st5" width="10.6" height="24.1"/>
	<polygon class="st5" points="27.2,8 16.6,8 13.9,8 13.9,54.5 13.9,80.8 13.9,87.4 27.2,87.4 37.8,87.4 37.8,80.8 27.2,80.8 	"/>
	<path class="st5" d="M79.2,23h14.2c-1.7-1.7-2.8-4-2.8-6.6c0-2.6,1.1-4.9,2.8-6.6h-55V23H66v11.5H38.4v13.2H66v12.8h-5.3
		c-10.2,0-18.5,8.3-18.5,18.5c0,10.2,8.3,18.5,18.5,18.5c10.2,0,18.5-8.3,18.5-18.5v-5.3h19.2V60.5H79.2V47.7h20.7V34.5H79.2V23z
		 M60.7,84.3c-2.9,0-5.3-2.4-5.3-5.3c0-2.9,2.4-5.3,5.3-5.3c2.9,0,5.3,2.4,5.3,5.3C66,82,63.6,84.3,60.7,84.3z"/>
	<polygon class="st5" points="144.6,9.9 116.6,43.2 116.6,43.2 107.8,53.7 144.6,97.5 154.7,89 125.1,53.7 154.7,18.4 	"/>
	<polygon class="st5" points="177.8,45.5 167.2,45.5 164.5,45.5 164.5,52.1 155.2,52.1 155.2,58.7 164.5,58.7 164.5,77.6 
		164.5,97.3 177.8,97.3 177.8,58.7 185,58.7 185,52.1 177.8,52.1 	"/>
	<polygon class="st5" points="185.4,66.7 185.4,73.3 198.7,73.3 198.7,80 209.2,80 209.2,73.3 209.2,66.7 198.7,66.7 	"/>
	<rect x="185.4" y="90.6" class="st5" width="23.8" height="6.6"/>
	<polygon class="st5" points="295.5,97.3 295.5,90.6 286.8,90.6 286.8,45.5 276.2,45.5 273.6,45.5 273.6,75.4 273.6,90.6 
		273.6,97.3 286.8,97.3 	"/>
	<path class="st5" d="M326.7,93.5v-6.6h6.7v-6.6h-6.7V62.7h8.8v-6.6h-8.8V45.5h-13.2v10.5h-18.7v6.6h18.7v17.6h0
		c-7.3,0-13.2,5.9-13.2,13.2c0,7.3,5.9,13.2,13.2,13.2C320.7,106.8,326.7,100.9,326.7,93.5z M306.8,93.5c0-3.7,3-6.6,6.6-6.6
		c3.7,0,6.6,3,6.6,6.6c0,3.7-3,6.6-6.6,6.6C309.8,100.2,306.8,97.2,306.8,93.5z"/>
	<polygon class="st5" points="223.9,70.5 223.9,76 223.9,82.6 223.9,82.6 237.1,82.6 237.1,82.6 253,82.6 253,90.6 223.9,90.6 
		223.9,97.3 263.6,97.3 263.6,94.8 263.6,90.6 263.6,82.6 263.6,76 237.1,76 237.1,63.7 267.8,63.7 267.8,57.1 237.1,57.1 
		237.1,45.5 226.5,45.5 223.9,45.5 223.9,57.1 214.8,57.1 214.8,63.7 223.9,63.7 	"/>
	<polygon class="st5" points="302.1,156.7 297,161.8 291.9,156.7 290,158.6 295.1,163.7 290,168.8 291.9,170.7 297,165.6 
		302.1,170.7 304,168.8 298.9,163.7 304,158.6 	"/>
	<polygon class="st5" points="345.4,150.2 337.5,150.2 334.8,150.2 334.8,156.9 306.8,156.9 306.8,162.2 334.8,162.2 334.8,169.3 
		314.7,169.3 314.7,174.6 334.8,174.6 334.8,180.3 334.8,191.1 345.4,191.1 345.4,174.6 357.1,174.6 357.1,169.3 345.4,169.3 
		345.4,162.2 357.1,162.2 357.1,156.9 345.4,156.9 	"/>
	<rect x="416.1" y="156.9" class="st5" width="10.6" height="21.6"/>
	<path class="st5" d="M410.7,170.6h-10.6v21.2c-5.8,0-10.6,4.7-10.6,10.6c0,5.9,4.7,10.6,10.6,10.6c5.8,0,10.6-4.7,10.6-10.6v-5.3h8
		v-5.3h-8V170.6z M400.1,207.7c-2.9,0-5.3-2.4-5.3-5.3c0-2.9,2.4-5.3,5.3-5.3c2.9,0,5.3,2.4,5.3,5.3
		C405.4,205.3,403,207.7,400.1,207.7z"/>
	<polygon class="st5" points="319.2,181 308.7,181 308.7,209.8 308.7,213.3 308.7,215.1 353.7,215.1 353.7,209.8 319.2,209.8 	"/>
	<polygon class="st5" points="396.1,162.2 396.1,156.9 384,156.9 384,150.2 376.1,150.2 373.4,150.2 373.4,156.9 362.7,156.9 
		362.7,162.2 373.4,162.2 373.4,172 373.4,186.1 384,186.1 384,162.2 	"/>
	<rect x="473.9" y="156.9" class="st5" width="10.6" height="31.4"/>
	<polygon class="st5" points="443.1,156.9 435.1,156.9 432.5,156.9 432.5,188.4 432.5,199.4 432.5,204.7 443.1,204.7 455.2,204.7 
		455.2,199.4 443.1,199.4 	"/>
	<g>
		<path class="st7" d="M283,115.8c-3.6,0-6.4-2.9-6.4-6.4s2.9-6.4,6.4-6.4c3.6,0,6.4,2.9,6.4,6.4S286.5,115.8,283,115.8z"/>
		<path class="st0" d="M283,104.3c2.8,0,5,2.2,5,5c0,2.8-2.3,5-5,5c-2.8,0-5-2.2-5-5C278,106.6,280.2,104.3,283,104.3 M283,101.5
			c-4.3,0-7.9,3.5-7.9,7.9c0,4.3,3.5,7.9,7.9,7.9c4.3,0,7.9-3.5,7.9-7.9C290.9,105,287.3,101.5,283,101.5L283,101.5z"/>
	</g>
	<g>
		<polygon class="st8" points="91.3,16.7 105.1,3.4 105.1,30.1 		"/>
		<path class="st0" d="M103.7,6.7v20l-10.3-10L103.7,6.7 M106.5,0l-4.8,4.7l-10.3,10l-2.1,2l2.1,2l10.3,10l4.8,4.7v-6.7v-20V0
			L106.5,0z"/>
	</g>
	<g>
		<polygon class="st8" points="104.5,16.7 118.2,3.4 118.2,30.1 		"/>
		<path class="st0" d="M116.8,6.7v20l-10.3-10L116.8,6.7 M119.7,0l-4.8,4.7l-10.3,10l-2.1,2l2.1,2l10.3,10l4.8,4.7v-6.7v-20V0
			L119.7,0z"/>
	</g>
	<rect x="227.9" y="112.3" class="st9" width="2.6" height="17.4"/>
	<g>
		<polygon class="st10" points="238.5,119.5 238.5,112.3 227.9,112.3 227.9,119.5 222.7,119.5 222.7,124.8 227.9,124.8 227.9,140.4 
			238.5,140.4 238.5,124.8 244.1,124.8 244.1,146.3 241.1,146.3 241.1,151.6 254.7,151.6 254.7,119.5 		"/>
		
			<rect x="256.7" y="107.4" transform="matrix(0.8659 -0.5002 0.5002 0.8659 -24.6318 147.0392)" class="st10" width="10.6" height="24.1"/>
	</g>
	<rect x="227.9" y="112.3" class="st9" width="2.6" height="17.4"/>
	<polygon class="st10" points="27.2,80.8 27.2,8 13.9,8 13.9,87.4 37.8,87.4 37.8,80.8 	"/>
	<polygon class="st10" points="154.7,18.4 144.6,9.9 107.8,53.7 144.6,97.5 154.7,89 125.1,53.7 	"/>
	<polygon class="st10" points="99.9,47.7 99.9,34.5 79.2,34.5 79.2,23 98.4,23 98.4,9.7 38.4,9.7 38.4,23 66,23 66,34.5 38.4,34.5 
		38.4,47.7 66,47.7 66,60.5 60.7,60.5 60.7,73.7 66,73.7 66,79 79.2,79 79.2,73.7 98.4,73.7 98.4,60.5 79.2,60.5 79.2,47.7 	"/>
	<g>
		<path class="st11" d="M270.9,119c-3.6,0-6.4-2.9-6.4-6.4c0-3.6,2.9-6.4,6.4-6.4s6.4,2.9,6.4,6.4C277.3,116.1,274.4,119,270.9,119z
			"/>
		<path class="st0" d="M270.9,107.5c2.8,0,5,2.2,5,5c0,2.8-2.2,5-5,5c-2.8,0-5-2.2-5-5C265.8,109.7,268.1,107.5,270.9,107.5
			 M270.9,104.7c-4.3,0-7.9,3.5-7.9,7.9c0,4.3,3.5,7.9,7.9,7.9c4.3,0,7.9-3.5,7.9-7.9C278.7,108.2,275.2,104.7,270.9,104.7
			L270.9,104.7z"/>
	</g>
	
		<rect x="109.9" y="26.1" transform="matrix(0.6427 -0.7661 0.7661 0.6427 26.0165 110.6472)" class="st9" width="43.5" height="2.6"/>
	<g>
		<polygon class="st10" points="177.8,45.5 164.5,45.5 164.5,52.1 155.2,52.1 155.2,58.7 164.5,58.7 164.5,97.3 177.8,97.3 
			177.8,58.7 185,58.7 185,52.1 177.8,52.1 		"/>
		<polygon class="st10" points="185.4,66.7 185.4,73.3 198.7,73.3 198.7,80 209.2,80 209.2,66.7 		"/>
		<rect x="185.4" y="90.6" class="st10" width="23.8" height="6.6"/>
	</g>
	<polygon class="st10" points="267.8,63.7 267.8,57.1 237.1,57.1 237.1,45.5 223.9,45.5 223.9,57.1 214.8,57.1 214.8,63.7 
		223.9,63.7 223.9,82.6 223.9,82.6 253,82.6 253,90.6 223.9,90.6 223.9,97.3 263.6,97.3 263.6,76 237.1,76 237.1,63.7 	"/>
	<rect x="164.5" y="45.5" class="st9" width="2.6" height="32"/>
	<rect x="223.9" y="45.5" class="st9" width="2.6" height="25"/>
	<g>
		<g>
			<polygon class="st10" points="286.8,45.5 273.6,45.5 273.6,97.3 295.5,97.3 295.5,90.6 286.8,90.6 			"/>
			<polygon class="st10" points="335.5,62.7 335.5,56.1 326.7,56.1 326.7,45.5 313.4,45.5 313.4,56.1 294.7,56.1 294.7,62.7 
				313.4,62.7 313.4,80.3 313.4,80.3 313.4,86.9 317.2,86.9 326.7,93.5 326.7,86.9 333.4,86.9 333.4,80.3 326.7,80.3 326.7,62.7 			
				"/>
		</g>
		<path class="st12" d="M313.4,80.3c-7.3,0-13.2,5.9-13.2,13.2c0,7.3,5.9,13.2,13.2,13.2c7.3,0,13.2-5.9,13.2-13.2
			C326.7,86.2,320.7,80.3,313.4,80.3z M313.4,100.2c-3.7,0-6.6-3-6.6-6.6c0-3.7,3-6.6,6.6-6.6c3.7,0,6.6,3,6.6,6.6
			C320,97.2,317.1,100.2,313.4,100.2z"/>
		<rect x="273.6" y="45.5" class="st9" width="2.6" height="29.8"/>
	</g>
	<g>
		<path class="st10" d="M233.6,156.9v5.3h38.3c-7.5,5.3-12.4,14-12.4,23.8c0,16.1,13,29.1,29.1,29.1v-13.2
			c-8.8,0-15.9-7.1-15.9-15.9c0-8.8,7.1-15.9,15.9-15.9v-7.9v-5.3H233.6z"/>
		<polygon class="st13" points="304,158.6 302.1,156.7 297,161.8 291.9,156.7 290,158.6 295.1,163.7 290,168.8 291.9,170.7 
			297,165.6 302.1,170.7 304,168.8 298.9,163.7 		"/>
		<polygon class="st14" points="290.5,151.8 288.6,149.9 283.5,155 278.3,149.9 276.5,151.8 281.6,156.9 276.5,162 278.3,163.9 
			283.5,158.8 288.6,163.9 290.5,162 285.4,156.9 		"/>
	</g>
	<g>
		<polygon class="st10" points="384,150.2 373.4,150.2 373.4,156.9 362.7,156.9 362.7,162.2 373.4,162.2 373.4,186.1 384,186.1 
			384,162.2 396.1,162.2 396.1,156.9 384,156.9 		"/>
		<rect x="416.1" y="156.9" class="st10" width="10.6" height="21.6"/>
		<polygon class="st10" points="410.7,170.6 400.1,170.6 400.1,194.8 400.1,194.8 400.1,197.1 403.3,197.1 410.7,202.4 410.7,197.1 
			418.7,197.1 418.7,191.8 410.7,191.8 		"/>
	</g>
	<g>
		<polygon class="st10" points="319.2,181 308.7,181 308.7,215.1 353.7,215.1 353.7,209.8 319.2,209.8 		"/>
		<polygon class="st10" points="357.1,162.2 357.1,156.9 345.4,156.9 345.4,150.2 334.8,150.2 334.8,156.9 306.8,156.9 306.8,162.2 
			334.8,162.2 334.8,169.3 314.7,169.3 314.7,174.6 334.8,174.6 334.8,191.1 345.4,191.1 345.4,174.6 357.1,174.6 357.1,169.3 
			345.4,169.3 345.4,162.2 		"/>
	</g>
	<path class="st12" d="M400.1,191.8c-5.9,0-10.6,4.7-10.6,10.6c0,5.9,4.7,10.6,10.6,10.6c5.8,0,10.6-4.7,10.6-10.6
		C410.7,196.5,406,191.8,400.1,191.8z M400.1,207.7c-2.9,0-5.3-2.4-5.3-5.3c0-2.9,2.4-5.3,5.3-5.3c2.9,0,5.3,2.4,5.3,5.3
		C405.4,205.3,403,207.7,400.1,207.7z"/>
	<g>
		<rect x="473.9" y="156.9" class="st10" width="10.6" height="31.4"/>
		<polygon class="st10" points="443.1,156.9 432.5,156.9 432.5,204.7 455.2,204.7 455.2,199.4 443.1,199.4 		"/>
	</g>
	<rect x="334.8" y="150.2" class="st9" width="2.6" height="30.1"/>
	<rect x="373.4" y="150.2" class="st9" width="2.6" height="21.8"/>
	<rect x="432.5" y="156.9" class="st9" width="2.6" height="31.5"/>
	<path class="st15" d="M286,212.4c-13.4-1.3-23.8-12.6-23.8-26.4h-2.6c0,16.1,13,29.1,29.1,29.1v-2.7L286,212.4z"/>
	<rect x="13.9" y="8" class="st9" width="2.6" height="46.5"/>
	<path class="st12" d="M60.7,60.5c-10.2,0-18.5,8.3-18.5,18.5c0,10.2,8.3,18.5,18.5,18.5c10.2,0,18.5-8.3,18.5-18.5
		C79.2,68.8,70.9,60.5,60.7,60.5z M60.7,84.3c-2.9,0-5.3-2.4-5.3-5.3c0-2.9,2.4-5.3,5.3-5.3c2.9,0,5.3,2.4,5.3,5.3
		C66,82,63.6,84.3,60.7,84.3z"/>
	<g>
		<g>
			<path class="st16" d="M67.9,142.6l6.7-2.1c1.5,12.8,1.3,21.7-0.5,28.6c-2,7.7-5.8,14.6-11.4,21.3l1.1,1.1
				C72,186,78.7,178.4,82,170.4c3.1-7.5,4.4-17.3,2.8-32.2l7.4-1.5c2,12.5,2.8,23,2.6,31.1c-0.2,5-2,6.7-4.1,7.1
				c-2.6,0.5-5.6,0.8-9,1.1l0.1,1.6c4.8,0.6,7.5,1.9,9.2,5.6c1.1,2.1,1.4,2.7,2.9,2.4c0.4-0.1,0.8-0.1,1.3-0.3
				c6.7-2.1,10-6.8,10.2-17.2c0.1-9.1-1-20.3-2.7-30.8c2-1.6,2.6-2.2,2.4-3.6c-0.2-1-0.7-1.6-5-4c-3.6-2.1-4.6-2.1-5.8-1.9
				c-1.2,0.2-2.1,1.4-3,6.2l-6.9,1.4c-0.4-3.3-0.9-6.9-1.6-10.7l-1.4-7.8c2.7-1.6,3.4-2.5,3.2-3.8c-0.3-1.5-1.5-1.7-15-0.9
				c0.8,3.6,1.8,8.6,2.8,13.9c0.7,4.2,1.3,7.9,1.8,11.5l-7.3,1L67.9,142.6z"/>
			<path class="st16" d="M116.3,188.5c-0.5-2.7-4.2-2.3-4.6-4.8c-0.3-1.6-0.6-7.1-0.8-11.3l-1.6,0c-0.6,4-1.6,8-3.2,11.6
				c-1.5,3.4-4.8,5.2-26.1,9c-17.1,3-18.8,2.4-19.3-0.6l-4.5-25.3c0.8-0.3,1.2-0.8,1.4-1.6l0,0.2c0.3,1.8,1.5,2.4,3.2,2.1
				c4.1-0.7,7.5-2.7,6.9-5.8c-0.3-1.7-1.4-6.2-2.6-13l-0.8-4.7c1.8-1.5,2-2.4,1.8-3.7c-0.2-0.9-0.9-1.7-4.1-3
				c-4.4-1.9-5.3-2.1-6.6-1.9c-1.1,0.2-1.6,1.1-2.7,5.1l-9.3,1.6c3.8-3.7,6.9-7.5,9.7-11c3.9-1.8,5.1-2.9,4.9-4.4
				c-0.2-1.2-0.9-2.1-4.7-4.3c-4.4-2.5-5.3-2.7-6.6-2.5c-1.3,0.2-2.3,1.3-3.7,5.7l-10.5,1.9c0.1-0.4-3.1,2.6-1.7,3.2l12.5-2.2
				c-1.2,5-3,9.8-5,14.6l-8.2,1.4c-1.3-1-3.4-1.2-5.1-1.4c-1.6-0.8-3.4-1.1-3.4-1.1l-3.2,8.3c0,0,0.2,1.4,0.6,1l0.5,3.1
				c2.1,11.9,2.4,16.2,2.7,17.9s1.5,2.5,3.3,2.1c3-0.5,4.8-1.6,5.8-2.7c2.3,18,0,30.8-7.9,41.4l1.1,1.1
				c13.5-9.3,18.2-21.7,17.1-39.1c2.7-1.3,3.4-2.1,3.2-3.2c-0.2-1.3-1.5-2-12.7-2c0-0.4,0-0.7-0.1-1.1l14-2.5l1.3,7.6
				c2.4,13.6,2.8,19.6,3.6,24.3c1.2,6.9,2.6,8.5,31,3.5C112.9,196.6,117.1,193.1,116.3,188.5z M31.5,166.3l-3-16.9l1-1.5l6.4-1.1
				l3.2,18.3L31.5,166.3z M48.9,163.3l-2.8-15.9c1.1-0.6,1.6-1.4,1.6-2.7l6-1.1l3.2,18.3L48.9,163.3z"/>
		</g>
		<path class="st17" d="M24.9,143.4c3.8-6.7,6.3-11.9,8.5-19.4c3.4-1,4.2-2.2,4-3.4c-0.2-1.3-1.5-1.8-14.4-2.3
			c-1.5,14.7-4.6,27.5-10.6,39l1.3,0.7C15.5,156.1,21.6,149.1,24.9,143.4z"/>
	</g>
	<g>
		<g>
			<path class="st16" d="M130.4,170.4c4.2,0.4,7-0.6,7.4-3l0.8-4l8.8,0.8c1.4,0,1.6-0.4,1.6-1.1c0-0.9-1.8-2.1-1.9-1.8l-7.8-0.7
				l3.3-16.4l1.1-1.1l7,0.6l-0.1,1.3c-0.2,1.7,0.7,2.5,2.5,2.7c4.3,0.4,8-0.7,8.2-3.2c0.2-1.8,0.2-6.4,1.1-16.3l0.2-2.7
				c2.7-1,3.5-1.9,3.6-3.1c0.1-0.9-0.4-1.9-3.4-4.7c-3.1-2.9-4.3-3.5-5.7-3.6c-1.1-0.1-2.2,0.6-4.9,5.1l-10.2-0.9l-9.2-1.3l-0.3,3.9
				l9.3,0.3l10.8,0.9l-1.6,18.8l-6.9-0.6c-1.3-0.9-4.1-2.2-10.6-4.6c-1.8,11.5-4.1,22-6.3,31.8C127,169.4,128.1,170.2,130.4,170.4z"
				/>
			<path class="st16" d="M216.5,158.8c-3.3-3.1-4.3-3.7-5.8-3.8c-1.3-0.1-2.2,0.5-4.8,5l-10-0.9l0.5-6.2c2.4-0.8,3.2-1.6,3.3-2.6
				c0.1-1.2-0.7-2-13.4-4.4c0,4-0.3,7.5-0.8,12.2l-7.8-0.7c-1-1.2-3.9-2.8-12-6c0,3.2-0.2,6-0.8,12.2c-1,11.3-1.7,16.2-1.9,18.2
				c-0.1,1.5,0.6,2.3,2.6,2.5c4.5,0.4,7.7-0.9,7.9-3.2l0.3-2.9l9.9,0.9l-1.4,15.9c-8.1-0.4-16.9-1-26.7-1.7
				c2.4,13.4,3.3,14.5,4.5,14.6c1,0.1,2.1-0.4,3.1-3c12.9-0.8,27.9-2.6,41.6-5.3c0.9,2.5,1.7,5.6,2.1,7.8c0.5,3.3,2.6,4.9,5.2,5.1
				c3.3,0.3,6-2,6.3-6.3c0.3-3.1-0.6-5.6-3.2-9c-3.4-4.4-10-8.9-16.9-11l-0.9,1.2c2.3,2.4,4.3,5.2,5.9,8.5
				c-3.5-0.1-7.1-0.3-10.6-0.4l1.4-15.5l10.6,0.9l-0.2,2.4c-0.1,1.5,0.6,2.3,2.6,2.5c4.8,0.4,7.9-1,8.1-3.2c0.2-2.4,0.4-7.7,0.8-13
				l0.2-2.7c2.9-1.1,3.7-1.9,3.8-3.2C220.2,162.8,219.7,161.9,216.5,158.8z M184.1,176.4l-9.9-0.9l1.2-13.6l1.6-1.5l8.4,0.7
				L184.1,176.4z M205,178.2l-10.6-0.9l1.3-15.3l10.6,0.9L205,178.2z"/>
			<path class="st16" d="M219.8,137.1c-3.8-4.5-10.3-8.5-17.5-10.2l-0.9,1.2c3,2.6,5.5,6,7.5,9.9c-8.8-0.4-17.5-0.8-26.1-1.4
				c4.4-3.3,8.7-7.4,12.2-11.2c4.1-0.3,5-0.9,5.1-2c0.1-1.3-0.8-2.3-14.2-7.2c-2.7,7.9-5.4,14.6-8.4,20.1l-12.2-1.1
				c2,12.4,2.8,13.5,3.9,13.6c1.3,0.1,1.9-0.4,2.9-3.1c13.2-0.7,25-2.3,38.3-4.3c0.7,1.7,1.2,3.6,1.7,5.6c0.7,3.3,2.5,4.8,5.1,5
				c3,0.3,5.8-2,6.1-6.1C223.5,143.2,222.6,140.3,219.8,137.1z"/>
		</g>
		<path class="st17" d="M157.5,168.1c2.8-1.1,3.7-1.9,3.8-3.2c0.1-1.1-0.4-2-3.9-5.2c-2.8-2.6-4-3.1-5.2-3.2
			c-1.2-0.1-2.3,0.5-5.2,4.8l0.4,2.9c-1.7,10.8-4,21.3-6.1,27.1c-1.2,3.3-2.8,4.2-7.3,3.8c-2.3-0.2-4.6-0.6-8.2-1.3l-0.2,1.5
			c4.2,2.5,6.2,4.4,7,8.2c0.5,2.3,0.7,3,2.2,3.1c0.4,0,0.8,0.1,1.3,0c7.5-0.3,12.4-3.4,15.1-11.1
			C153.5,189.4,156.1,177.9,157.5,168.1z"/>
	</g>
	<g>
		<polygon class="st18" points="91.3,16.7 105.1,3.4 105.1,30.1 		"/>
		<path class="st0" d="M103.7,6.7v20l-10.3-10L103.7,6.7 M106.5,0l-4.8,4.7l-10.3,10l-2.1,2l2.1,2l10.3,10l4.8,4.7v-6.7v-20V0
			L106.5,0z"/>
	</g>
	<g>
		<polygon class="st19" points="105.9,16.7 117.2,5.7 117.2,27.7 		"/>
		<path class="st0" d="M116.8,6.7v20l-10.3-10L116.8,6.7 M117.7,4.7l-1.4,1.4l-10.3,10l-0.6,0.6l0.6,0.6l10.3,10l1.4,1.4v-2v-20V4.7
			L117.7,4.7z"/>
	</g>
	<g>
		<path class="st7" d="M283,114.8c-3,0-5.4-2.4-5.4-5.4c0-3,2.4-5.4,5.4-5.4c3,0,5.5,2.4,5.5,5.4C288.4,112.3,286,114.8,283,114.8z"
			/>
		<path class="st0" d="M283,104.3c2.8,0,5,2.2,5,5c0,2.8-2.3,5-5,5c-2.8,0-5-2.2-5-5C278,106.6,280.2,104.3,283,104.3 M283,103.5
			c-3.2,0-5.9,2.6-5.9,5.9c0,3.2,2.6,5.9,5.9,5.9c3.2,0,5.9-2.6,5.9-5.9C288.9,106.1,286.2,103.5,283,103.5L283,103.5z"/>
	</g>
</g>
</svg>
