<?xml version="1.0" encoding="utf-8"?>
<!-- Generator: Adobe Illustrator 23.0.0, SVG Export Plug-In . SVG Version: 6.00 Build 0)  -->
<svg version="1.1" id="レイヤー_1" xmlns="http://www.w3.org/2000/svg" xmlns:xlink="http://www.w3.org/1999/xlink" x="0px"
	 y="0px" width="36px" height="60px" viewBox="0 0 36 60" style="enable-background:new 0 0 36 60;" xml:space="preserve">
<path d="M29.5,0c-2.3,0-4.3,1.2-5.5,3H0v7h24c1.2,1.8,3.2,3,5.5,3c3.6,0,6.5-2.9,6.5-6.5S33.1,0,29.5,0z M29.5,9
	C28.1,9,27,7.9,27,6.5S28.1,4,29.5,4S32,5.1,32,6.5S30.9,9,29.5,9z"/>
<path d="M29.5,30c-2.3,0-4.3,1.2-5.5,3H0v7h24c1.2,1.8,3.2,3,5.5,3c3.6,0,6.5-2.9,6.5-6.5S33.1,30,29.5,30z M29.5,39
	c-1.4,0-2.5-1.1-2.5-2.5s1.1-2.5,2.5-2.5s2.5,1.1,2.5,2.5S30.9,39,29.5,39z"/>
</svg>
