<?xml version="1.0" encoding="utf-8"?>
<!-- Generator: Adobe Illustrator 23.1.0, SVG Export Plug-In . SVG Version: 6.00 Build 0)  -->
<svg version="1.1" id="レイヤー_1" xmlns="http://www.w3.org/2000/svg" xmlns:xlink="http://www.w3.org/1999/xlink" x="0px"
	 y="0px" viewBox="0 0 28.3 22.7" style="enable-background:new 0 0 28.3 22.7;" xml:space="preserve">
<style type="text/css">
	.st0{fill:#FFFFFF;}
</style>
<path class="st0" d="M28.3,2.7c-1,0.5-2.1,0.7-3.3,0.9c1.2-0.7,2.1-1.9,2.6-3.1c-1.1,0.6-2.4,1.1-3.7,1.4C22.7,0.7,21.2,0,19.6,0
	c-3.2,0-5.8,2.6-5.8,5.7c0,0.5,0,0.9,0.1,1.2C9,6.7,4.8,4.5,2,1C1.5,1.9,1.2,2.9,1.2,4c0,1.9,1,3.7,2.5,4.7C2.8,8.7,1.8,8.3,1.1,8
	c0,0,0,0,0,0.1c0,2.7,2,5.1,4.6,5.6c-0.5,0.1-1,0.2-1.5,0.2c-0.4,0-0.7,0-1.1-0.1c0.7,2.2,2.9,4,5.5,4c-2,1.5-4.5,2.5-7.2,2.5
	c-0.5,0-0.9,0-1.4-0.1c2.6,1.6,5.6,2.6,8.9,2.6c10.7,0,16.5-8.7,16.5-16.2c0-0.2,0-0.5,0-0.7C26.4,4.8,27.4,3.8,28.3,2.7z"/>
</svg>
