<?xml version="1.0" encoding="utf-8"?>
<!-- Generator: Adobe Illustrator 23.1.0, SVG Export Plug-In . SVG Version: 6.00 Build 0)  -->
<svg version="1.1" id="レイヤー_1" xmlns="http://www.w3.org/2000/svg" xmlns:xlink="http://www.w3.org/1999/xlink" x="0px"
	 y="0px" viewBox="0 0 23.7 22.7" style="enable-background:new 0 0 23.7 22.7;" xml:space="preserve">
<style type="text/css">
	.st0{fill:#FFFFFF;}
</style>
<g>
	<path class="st0" d="M11.8,0C5.3,0,0,4.3,0,9.7c0,4.8,4.2,8.8,9.9,9.5c0.4,0.1,0.9,0.3,1.1,0.6c0.1,0.3,0.1,0.8,0.1,1.1
		c0,0-0.2,0.9-0.2,1c-0.1,0.3-0.3,1.2,1,0.7c1.3-0.6,6.8-4,9.3-6.9l0,0c1.7-1.9,2.5-3.8,2.5-5.9C23.7,4.3,18.3,0,11.8,0z M7.2,12.8
		H4.8c-0.4,0-0.6-0.3-0.6-0.6V7.5c0-0.4,0.3-0.6,0.6-0.6c0.4,0,0.6,0.3,0.6,0.6v4.1h1.7c0.4,0,0.6,0.3,0.6,0.6
		C7.8,12.5,7.5,12.8,7.2,12.8z M9.6,12.2c0,0.4-0.3,0.6-0.6,0.6c-0.4,0-0.6-0.3-0.6-0.6V7.5c0-0.4,0.3-0.6,0.6-0.6
		c0.4,0,0.6,0.3,0.6,0.6V12.2z M15.3,12.2c0,0.3-0.2,0.5-0.4,0.6c-0.1,0-0.2,0.1-0.2,0.1c-0.2,0-0.4-0.1-0.5-0.3l-2.4-3.3v2.9
		c0,0.4-0.3,0.6-0.6,0.6c-0.4,0-0.6-0.3-0.6-0.6V7.5c0-0.3,0.2-0.5,0.4-0.6c0.1,0,0.2-0.1,0.2-0.1c0.2,0,0.4,0.1,0.5,0.3l2.4,3.3
		V7.5c0-0.4,0.3-0.6,0.6-0.6c0.4,0,0.6,0.3,0.6,0.6C15.3,7.5,15.3,12.2,15.3,12.2z M19.1,9.2c0.4,0,0.6,0.3,0.6,0.6
		c0,0.4-0.3,0.6-0.6,0.6h-1.7v1.1h1.7c0.4,0,0.6,0.3,0.6,0.6c0,0.4-0.3,0.6-0.6,0.6h-2.4c-0.4,0-0.6-0.3-0.6-0.6V9.8l0,0l0,0V7.5
		l0,0c0-0.4,0.3-0.6,0.6-0.6h2.4c0.4,0,0.6,0.3,0.6,0.6c0,0.4-0.3,0.6-0.6,0.6h-1.7v1.1L19.1,9.2L19.1,9.2z"/>
</g>
</svg>
